<?xml version="1.0" encoding="UTF-8" standalone="no"?>
<!-- Created with Inkscape (http://www.inkscape.org/) -->

<svg
   version="1.1"
   id="svg2"
   width="16in"
   height="9in"
   viewBox="0 0 1536.0001 864.00003"
   sodipodi:docname="FinishScreen.svg"
   inkscape:version="1.2.2 (b0a8486541, 2022-12-01)"
   xmlns:inkscape="http://www.inkscape.org/namespaces/inkscape"
   xmlns:sodipodi="http://sodipodi.sourceforge.net/DTD/sodipodi-0.dtd"
   xmlns="http://www.w3.org/2000/svg"
   xmlns:svg="http://www.w3.org/2000/svg">
  <defs
     id="defs6" />
  <sodipodi:namedview
     id="namedview4"
     pagecolor="#ffffff"
     bordercolor="#999999"
     borderopacity="1"
     inkscape:showpageshadow="0"
     inkscape:pageopacity="0"
     inkscape:pagecheckerboard="0"
     inkscape:deskcolor="#d1d1d1"
     showgrid="false"
     inkscape:zoom="0.64183539"
     inkscape:cx="650.47831"
     inkscape:cy="423.00565"
     inkscape:window-width="1755"
     inkscape:window-height="888"
     inkscape:window-x="26"
     inkscape:window-y="23"
     inkscape:window-maximized="0"
     inkscape:current-layer="g10"
     inkscape:document-units="in">
    <inkscape:page
       x="0"
       y="0"
       id="page8"
       width="1536.0001"
       height="864"
       inkscape:export-filename="FinishScreen.png"
       inkscape:export-xdpi="50"
       inkscape:export-ydpi="50" />
  </sodipodi:namedview>
  <g
     id="g10"
     inkscape:groupmode="layer"
     inkscape:label="Page 1"
     transform="matrix(1.3333333,0,0,-1.3333333,0,1040)">
    <path
       d="M 0,132.00003 H 1152 V 780.00005 H 0 Z"
       style="fill:#61243b;fill-opacity:1;fill-rule:nonzero;stroke:none;stroke-width:0.0935946"
       id="path14" />
    <path
       d="m 917.23064,640.15373 c 34.828,0 63.0625,28.23346 63.0625,63.06254 0,34.82803 -28.2345,63.06254 -63.0625,63.06254 -34.82804,0 -63.06255,-28.23451 -63.06255,-63.06254 0,-34.82908 28.23451,-63.06254 63.06255,-63.06254"
       style="fill:#370f1f;fill-opacity:1;fill-rule:nonzero;stroke:none;stroke-width:0.105109"
       id="path18" />
    <path
       d="m 388.81638,703.77622 c 0,0 -24.17518,24.17518 -40.46715,15.76643 -16.29197,-8.40876 -26.80292,-2.75387 -54.13139,1.77635 -27.32847,4.53021 -40.9927,38.16525 -71.47445,29.75649 -30.48175,-8.40876 -35.73723,-22.83188 -57.81022,-22.97798 -22.07299,-0.14611 -59.21238,6.45267 -74.27772,0 C 75.58968,721.64483 53.51669,716.38936 56.669975,703.77622 H 388.81638"
       style="fill:#370f1f;fill-opacity:1;fill-rule:nonzero;stroke:none;stroke-width:0.105109"
       id="path20" />
    <path
       d="m 770.43693,724.73338 c -15.23352,10.51095 -32.06576,-7.35767 -49.13764,6.30657 -17.07188,13.66423 -32.32958,8.40876 -48.12753,-6.30657 -15.79796,-14.71533 -24.14365,-15.76642 -41.45834,-9.45986 -17.31468,6.30657 -34.18896,-15.76642 -34.18896,-15.76642 h 229.72309 c -6.7722,28.37956 -41.57711,14.71533 -56.81062,25.22628"
       style="fill:#370f1f;fill-opacity:1;fill-rule:nonzero;stroke:none;stroke-width:0.105109"
       id="path24" />
    <path
       d="m 108.63066,544.99729 c -7.56662,5.22078 -15.926929,-3.65466 -24.406742,3.13226 -8.479392,6.78692 -16.057997,4.17705 -23.90463,-3.13226 -7.846634,-7.30932 -11.992362,-7.83171 -20.592421,-4.6984 -8.600058,3.13226 -16.981699,-7.83171 -16.981699,-7.83171 H 136.84835 c -3.3635,14.09624 -20.65086,7.30932 -28.21769,12.53011"
       style="fill:#370f1f;fill-opacity:1;fill-rule:nonzero;stroke:none;stroke-width:0.105109"
       id="path26" />
    <path
       d="m 736.22365,479.87442 c -7.88111,-2.34184 -11.67977,-1.95188 -18.87136,3.51171 -7.19054,5.46359 -14.13512,7.41443 -21.90587,2.34184 -7.77074,-5.07363 -15.43217,1.56088 -22.36624,-2.34184 -6.93303,-3.90166 -22.77618,1.17092 -25.85799,-9.36525 h 104.56292 c 0,0 -7.68035,8.19433 -15.56146,5.85354"
       style="fill:#370f1f;fill-opacity:1;fill-rule:nonzero;stroke:none;stroke-width:0.105109"
       id="path30" />
    <path
       d="m 291.04397,654.97422 c -8.76403,7.07807 -14.49355,-2.35971 -14.49355,-2.35971 10.11154,5.39317 14.15615,-2.0223 14.15615,-2.0223 4.71942,7.41547 15.16835,-0.33636 15.16835,-0.33636 -7.41547,13.4824 -14.83095,4.71837 -14.83095,4.71837"
       style="fill:#5f080b;fill-opacity:1;fill-rule:nonzero;stroke:none;stroke-width:0.105109"
       id="path34" />
    <path
       d="m 120.7666,522.64575 c -8.76403,7.07808 -14.49355,-2.35971 -14.49355,-2.35971 10.11153,5.39317 14.15615,-2.0223 14.15615,-2.0223 4.71941,7.41547 15.16835,-0.33635 15.16835,-0.33635 -7.41548,13.48239 -14.83095,4.71836 -14.83095,4.71836"
       style="fill:#370f1f;fill-opacity:1;fill-rule:nonzero;stroke:none;stroke-width:0.105109"
       id="path36" />
    <path
       d="m 756.40993,497.67156 c -6.87942,5.55609 -11.37705,-1.85203 -11.37705,-1.85203 7.93681,4.23276 11.11217,-1.58715 11.11217,-1.58715 3.70406,5.81991 11.90575,-0.26488 11.90575,-0.26488 -5.82096,10.58348 -11.64087,3.70406 -11.64087,3.70406"
       style="fill:#370f1f;fill-opacity:1;fill-rule:nonzero;stroke:none;stroke-width:0.105109"
       id="path44" />
    <g
       id="g3946">
      <path
         d="m 669.168,303.50929 v 41.04315 c 32.61337,-12.47229 57.95737,-26.17016 72.0925,-34.49694 -1.46943,-0.45827 -2.74021,-0.83667 -3.77028,-1.12151 -14.18242,-3.91218 -45.76677,-6.11632 -68.32222,-5.4247 m -83.56099,5.56029 v 58.59959 c 20.99877,-3.53483 40.88023,-8.66102 59.12303,-14.51878 V 306.7887 c -10.01378,2.27247 -34.42861,3.03241 -59.12303,2.28088 m -105.63609,-7.7266 v 67.7725 c 15.20724,2.26826 31.02517,3.58528 47.30032,3.58528 11.49162,0 22.81402,-0.61594 33.89781,-1.73115 v -63.1687 c -11.6167,-0.88187 -22.1245,-2.13793 -29.76596,-3.77133 -14.05524,-3.00508 -33.30499,-3.61997 -51.43217,-2.6866 m -79.35766,8.45816 v 38.16946 c 17.15281,6.55778 36.13454,12.52485 56.49635,16.95521 v -61.50797 c -10.43422,1.40742 -19.17723,3.32461 -24.43796,5.51615 -6.46529,2.695 -18.32479,2.27772 -32.05839,0.86715 m -66.04345,-5.77156 c -3.68199,0.27538 -8.13232,1.68595 -13.16076,3.92794 12.25472,7.92525 31.85764,19.53355 56.86949,30.74558 v -31.59487 c -15.97559,-2.03281 -32.03107,-3.95421 -43.70873,-3.07865 m -201.4602,74.19258 v 29.51475 h 70.77442 v -28.70015 c -2.56993,0.89658 -5.02949,1.59872 -7.35767,2.07276 -18.22808,3.71247 -41.81991,2.38388 -63.41675,-2.88736 m -15.06535,29.51475 h 8.75983 v -31.18389 c -2.98196,-0.85138 -5.90716,-1.7795 -8.75983,-2.78014 v 33.96403 m 8.75983,16.11748 v -8.064 h -8.75983 v 8.064 h 8.75983 m 77.07994,0 v -8.064 h -70.77442 v 8.064 h 70.77442 m -36.08724,34.5106 c 6.9656,0 12.61314,-5.64753 12.61314,-12.61314 0,-6.9656 -5.64754,-12.61313 -12.61314,-12.61313 -6.96666,0 -12.61314,5.64753 -12.61314,12.61313 0,6.96561 5.64648,12.61314 12.61314,12.61314 m 51.15258,-42.5746 h -8.75877 v 8.064 h 8.75877 v -8.064 m 0,-43.44175 c -3.00928,1.56508 -5.93658,2.97775 -8.75877,4.20438 v 31.18389 h 8.75877 v -35.38827 m 88.11644,-29.06382 v -14.64596 c -4.41355,-2.59305 -8.00724,-4.79299 -10.68438,-6.46949 -3.52537,2.27142 -7.14955,4.67422 -10.8452,7.16321 4.69524,3.21636 12.0403,8.09974 21.52958,13.95224 m 5.25653,-11.59988 v 14.80467 c 9.55235,5.76315 20.90102,12.26102 33.63503,18.93337 V 349.50099 C 332.62634,342.97159 321.23772,336.788 312.32234,331.68494 M 391.68,386.97568 V 369.54222 C 376.992,363.86 363.38453,357.85825 351.2118,352.04149 v 16.10277 c 12.41027,6.35282 26.01144,12.78762 40.4682,18.83142 m 5.25547,-15.43323 v 17.59743 c 15.68234,6.35913 32.28544,12.20006 49.40041,16.93314 v -18.91235 c -17.29156,-4.41249 -33.89886,-9.80671 -49.40041,-15.61822 m -1.57664,-25.61728 v -36.69583 c -0.61068,-0.0704 -1.22452,-0.14295 -1.83941,-0.21547 v 36.17133 c 0.61173,0.24701 1.22137,0.49401 1.83941,0.73997 m 56.23358,42.53991 v 19.02377 c 16.68613,4.36309 33.80636,7.61938 50.9781,9.25384 v -19.60713 c -17.3336,-1.62709 -34.44438,-4.67842 -50.9781,-8.67048 m 23.12409,-20.17471 v -66.63206 c -0.79358,0.0547 -1.5798,0.11352 -2.36602,0.17343 v 66.06657 c 0.78622,0.13559 1.57664,0.26172 2.36602,0.39206 m 48.41027,49.60747 c 15.82844,0.23334 31.46032,-0.74207 46.71381,-2.61302 v -19.62394 c -13.33208,1.78581 -26.71042,2.7917 -39.9416,2.7917 -7.37343,0 -14.73951,-0.30376 -22.07405,-0.8661 v 19.60608 c 5.10307,0.3847 10.20719,0.63275 15.30184,0.70528 m 51.96929,-22.98219 v 19.6828 c 18.21442,-2.49424 35.84233,-6.2414 52.55369,-10.7527 v -20.42382 c -17.0866,4.82557 -34.75445,8.8355 -52.55369,11.49372 m 5.25442,-26.40035 v -59.62861 c -1.31597,-0.0515 -2.63089,-0.10721 -3.94055,-0.16818 v 60.3854 c 1.31807,-0.18919 2.63089,-0.3868 3.94055,-0.58861 m 52.5558,13.392 v 20.48689 c 15.46476,-4.36835 30.0981,-9.34528 43.61938,-14.53244 V 367.0795 c -13.81664,5.30488 -28.4647,10.37011 -43.61938,14.8278 m 27.06464,-33.94511 c 1.32543,-0.47615 2.63825,-0.95439 3.94266,-1.4358 v -42.79322 c -1.36432,0.0757 -2.6803,0.16397 -3.94266,0.26593 v 43.96309 m 58.59854,21.73454 V 349.2687 c -11.24041,5.20397 -23.60549,10.57297 -36.78832,15.76748 v 20.77804 c 11.91836,-4.71521 22.91492,-9.5492 32.77629,-14.20239 1.35276,-0.63802 2.6866,-1.27708 4.01203,-1.9151 m 48.35142,-45.06674 v 18.96805 c 11.16683,-6.7207 19.62394,-12.33249 24.78271,-15.88204 -6.50417,-2.37547 -12.70353,-4.61956 -18.46353,-6.67971 -1.85518,1.07107 -3.96999,2.27562 -6.31918,3.5937 m -43.09489,22.1781 v 20.32922 c 14.42522,-7.12011 27.16765,-14.14773 37.83941,-20.41541 v -19.18143 c -9.81722,5.38055 -22.69314,12.10651 -37.83941,19.26762 m 179.63737,155.54522 h 8.58955 v -18.49716 h -8.58955 v 18.49716 m 33.23877,68.99072 h 9.58073 V 547.0259 h -9.58073 v 24.31813 m 26.23323,0 V 547.0259 h -8.58955 v 24.31813 h 8.58955 m 16.65355,0 V 547.0259 h -8.58955 v 24.31813 h 8.58955 m 14.60601,0 V 547.0259 h -6.54307 v 24.31813 h 6.54307 m 27.62278,-24.31813 h -4.2286 v 24.31813 h 4.2286 V 547.0259 m 16.6525,24.31813 V 547.0259 h -8.5896 v 24.31813 h 8.5896 m 16.6504,0 V 547.0259 h -8.5875 v 24.31813 h 8.5875 m 16.6598,0 V 547.0259 h -8.5979 v 24.31813 h 8.5979 m 33.7612,-87.48788 h -8.5874 v 18.49716 h 8.5874 V 483.85615 M 919.55562,428.01673 v -17.82972 c -9.4609,0.84087 -16.98885,8.36882 -17.82972,17.82972 h 17.82972 m 0,21.35404 V 431.54105 H 901.7259 c 0.84087,9.46091 8.36882,16.98885 17.82972,17.82972 m 9.08356,34.48538 h -8.52333 v 18.49716 h 8.52333 v -18.49716 m 17.64368,0 h -9.58073 v 18.49716 h 9.58073 v -18.49716 m 16.6525,0 h -8.58955 v 18.49716 h 8.58955 v -18.49716 m 16.65355,0 h -8.58955 v 18.49716 h 8.58955 v -18.49716 m 14.60601,0 h -6.54307 v 18.49716 h 6.54307 v -18.49716 m 27.62278,0 h -4.2286 v 18.49716 h 4.2286 v -18.49716 m 16.6525,0 h -8.5896 v 18.49716 h 8.5896 v -18.49716 m 16.6504,0 h -8.5875 v 18.49716 h 8.5875 v -18.49716 m 16.6598,0 h -8.5979 v 18.49716 h 8.5979 v -18.49716 m 8.0619,0 v 18.49716 h 9.05 v -18.49716 h -9.05 m 1.5031,-52.3151 v 17.82972 c 9.4704,-0.84087 16.9962,-8.36881 17.8371,-17.82972 h -17.8371 m -3.5212,-21.35404 c -9.4598,0.84087 -16.9857,8.36882 -17.8265,17.82972 h 17.8265 v -17.82972 m 3.5212,17.82972 h 17.8371 c -0.8409,-9.4609 -8.3667,-16.98885 -17.8371,-17.82972 v 17.82972 m -3.5212,21.35404 v -17.82972 h -17.8265 c 0.8408,9.46091 8.3667,16.98885 17.8265,17.82972 M 940.90861,428.01673 c -0.84087,-9.4609 -8.36776,-16.98885 -17.82867,-17.82972 v 17.82972 h 17.82867 m -17.82867,21.35404 c 9.46091,-0.84087 16.9878,-8.36881 17.82867,-17.82972 h -17.82867 v 17.82972 m 48.384,-58.62376 c -0.16922,1.27708 -0.26593,2.57518 -0.26593,3.89641 v 31.71994 c 0,16.35503 13.38254,29.73758 29.73759,29.73758 16.3561,0 29.7376,-13.38255 29.7376,-29.73758 v -29.88368 c -19.0354,-0.36788 -39.50228,-2.28193 -59.20926,-5.73267 m -647.58061,86.01214 c 3.32461,0.95019 6.26452,2.95148 8.75352,5.2807 -2.16736,-4.69524 -5.9986,-8.50546 -1.92035,-14.215 h 17.59638 c 1.17092,-2.21781 2.80852,-4.37781 5.00216,-5.25548 3.52642,-1.41057 5.62756,-6.12578 6.63135,-9.08146 -10.52881,-8.15229 -47.07118,-14.78049 -66.28099,-14.58814 1.2508,5.26493 1.70172,10.06003 1.51358,14.4063 12.61524,3.48543 24.30236,10.73589 28.70435,23.45308 m -10.5099,12.0876 c -1.12677,1.12572 -1.09104,2.73389 -0.68742,4.20437 h 11.12584 c -0.49401,-2.4543 -1.38849,-5.79994 -3.00192,-9.54078 -2.02126,2.90102 -5.54348,3.44338 -7.4365,5.33641 m 20.91153,4.20437 c -2.119,-4.65845 -5.53611,-7.1527 -7.87165,-8.39089 1.05951,3.62838 1.72275,6.42325 2.12216,8.39089 h 5.74949 m 50.96654,-25.22627 c -0.52029,-2.33448 -1.43264,-4.95907 -3.03241,-7.35767 -2.99772,-4.49763 -11.07223,-7.12327 -15.4595,-8.2595 3.19007,2.83375 5.68958,5.39212 7.0518,7.20841 1.96975,2.62774 2.83795,5.70534 3.18902,8.40876 h 8.25109 m -14.98441,0 c -0.98067,-2.72129 -2.60776,-6.08689 -5.2891,-9.39154 -1.11206,1.85203 -2.95779,4.11714 -5.88298,5.71271 -1.61448,0.88081 -2.97355,2.21675 -4.10768,3.67883 h 15.27976 m -103.14289,70.9489 c 4.43457,5.32064 7.64882,13.91335 9.88871,22.073 h 9.26435 c 0.0105,-5.37951 -1.62605,-16.87533 -13.89653,-28.37957 -14.13302,-13.24905 -25.29355,-13.50867 -28.49834,-13.2543 -0.80829,3.17746 -1.48835,6.45372 -2.04438,9.75836 6.41799,-0.10721 17.9979,1.05635 25.28619,9.80251 m 33.11054,14.71533 c -4.69629,-2.73915 -9.09512,-3.72823 -11.03965,-4.05617 1.42739,5.0442 2.10114,9.10458 2.40281,11.41384 h 13.35311 c -0.40362,-2.54786 -1.59031,-5.53402 -4.71627,-7.35767 m -128.0223,-18.91971 h 12.22633 l 2.80222,-4.20438 c 0,0 -9.83404,-0.40572 -15.02855,4.20438 m -3.54009,48.35037 v 2.65927 h 13.13764 c -4.82663,-5.63492 -13.13764,-2.65927 -13.13764,-2.65927 m -17.12969,2.65927 h 10.29127 l 0.70633,-3.71037 c -6.06481,-0.91025 -9.32111,1.50412 -10.9976,3.71037 M 768.13594,383.04774 c 0.46038,1.35276 1.42213,3.51065 3.03556,4.15603 1.0038,0.40152 1.75323,1.38954 2.28929,2.4049 h 8.05244 c 1.86569,2.61197 0.11667,4.35784 -0.87557,6.50628 1.13834,-1.06581 2.48164,-1.98342 4.00152,-2.41752 2.01495,-5.81991 7.36397,-9.13717 13.13659,-10.73378 -0.0862,-1.98867 0.12087,-4.18231 0.69267,-6.59247 -8.79031,-0.0872 -25.51428,2.94517 -30.3325,6.67656 m -10.19247,3.19322 c -0.73156,1.0984 -1.14884,2.2998 -1.38744,3.36771 h 3.77553 c 0.16187,-1.23714 0.55813,-2.6456 1.45997,-3.84806 0.6233,-0.83036 1.77425,-2.00338 3.23212,-3.29938 -2.00444,0.51819 -5.70429,1.71749 -7.08018,3.77973 m 7.89162,-0.92811 c -1.22767,1.51252 -1.9708,3.05027 -2.41856,4.29582 h 6.98978 c -0.51924,-0.66955 -1.14149,-1.28023 -1.88041,-1.68385 -1.33699,-0.72946 -2.18208,-1.76479 -2.69081,-2.61197 m 16.67563,15.84 c 0.18289,-0.90079 0.48665,-2.17997 0.97121,-3.83965 -1.06897,0.56654 -2.63194,1.70803 -3.60211,3.83965 h 2.6309 m 6.93932,-1.92456 c -0.8661,-0.86505 -2.47427,-1.11416 -3.40029,-2.43749 -0.73576,1.71014 -1.15095,3.24053 -1.37693,4.36205 h 5.0915 c 0.18499,-0.6727 0.20076,-1.40847 -0.31428,-1.92456 m 18.75889,19.9624 c -5.6223,5.27124 -6.36332,10.52987 -6.35597,12.98733 h 4.23697 c 1.02481,-3.73349 2.4953,-7.66669 4.52391,-10.10103 3.33723,-4.00467 8.6358,-4.53547 11.57255,-4.48502 -0.25436,-1.51252 -0.56548,-3.01139 -0.93547,-4.46505 -1.44736,-0.11772 -6.55358,-0.0189 -13.04199,6.06377 m -12.74662,9.61962 c -1.43054,0.83562 -1.97396,2.20099 -2.15895,3.36771 h 6.11211 c 0.1377,-1.05215 0.44882,-2.90733 1.10365,-5.22395 -0.88817,0.14926 -2.90417,0.60123 -5.05681,1.85624 m 54.21337,14.6859 h 5.99334 v -1.21717 c 0,0 -3.78289,-1.3412 -5.99334,1.21717 m 13.83241,0 c -0.7673,-1.01011 -2.25775,-2.11481 -5.03264,-1.69752 l 0.32268,1.69752 h 4.70996 m -9.46406,-23.34377 c -2.37758,-2.10745 -6.87311,-1.9235 -6.87311,-1.9235 l 1.28234,1.9235 h 5.59077 m 287.60267,-49.95959 v 25.70032 h -18.9828 v 87.96298 h -9.0604 v 18.49716 h 15.861 l -0.1261,0.11563 c 9.1445,3.99626 3.4476,15.01804 3.4476,15.01804 -1.8184,-7.70978 -10.0905,-7.13694 -12.4134,-6.81845 l -32.6681,29.8637 c 6.4958,3.93425 0.41,13.433 0.41,13.433 2.7433,-7.60573 -4.3411,-7.48695 -7.2946,-7.13273 l -0.2103,0.1934 h -0.7673 v 24.31813 h 2.838 l -0.074,0.10301 c 1.44,0.51714 7.1475,3.15328 2.5437,11.06592 0,0 -1.2193,-5.42785 -6.0228,-5.98703 l -22.1571,32.36321 c 9.2076,7.66038 -3.0902,16.97518 -3.0902,16.97518 5.6864,-8.45921 -2.5752,-9.84771 -2.5752,-9.84771 h -94.38095 c 0,0 -8.26266,1.3885 -2.57834,9.84771 0,0 -12.70038,-9.61962 -2.62458,-17.34622 l -22.22225,-32.03001 c -5.13145,0.2901 -6.41904,6.02487 -6.41904,6.02487 -5.2313,-8.98686 2.85057,-11.16893 2.85057,-11.16893 h 2.70867 V 547.0259 c 0,0 -11.9583,-2.57729 -8.52333,6.93933 0,0 -6.42744,-10.03586 0.98173,-13.74727 l -32.63124,-29.45063 c 0,0 -10.90827,-2.26721 -13.02307,6.71965 0,0 -5.81781,-11.23621 3.69985,-15.13367 h 16.25624 v -18.49716 h -16.19002 v -87.96298 h -18.03363 v -42.1384 c -1.67019,-0.64116 -3.34879,-1.28443 -5.03475,-1.92875 -0.535,0.90814 -1.04689,1.9214 -1.45471,3.00613 -1.0511,2.80327 -1.8678,2.33553 -3.54219,1.86884 -0.83667,-0.23334 -1.88777,-0.46773 -3.28888,-0.2922 -4.20438,0.52555 -2.10324,4.20438 -7.35766,3.15328 -5.25653,-1.05109 -3.67988,-8.40876 -6.30657,-6.83211 -2.62879,1.57664 -1.57664,-7.35767 -3.67988,-7.35767 -1.09945,0 -1.18984,-1.86884 -1.02798,-3.6515 -1.89091,-0.71054 -3.77658,-1.41688 -5.65699,-2.12111 0.59808,4.09401 1.02377,12.61104 -4.07299,19.46417 -6.97402,9.37998 -18.61279,17.58587 -12.98733,27.89922 5.77261,10.58242 15.87364,6.01226 19.24134,18.99959 0.21127,0.8167 0.38996,1.60502 0.54237,2.36917 1.51778,0.0126 4.11083,0.11667 8.1155,0.51713 7.21472,0.72106 10.82313,6.49367 10.82313,6.49367 0,0 3.12595,0.96175 7.93576,1.92455 2.85057,0.5697 4.00573,1.89618 4.47977,2.88526 h 4.6595 c 0,0 0.96176,2.6456 -2.1642,3.36771 -3.12701,0.72105 -1.28234,5.77156 -4.72993,5.53086 -1.26447,-0.0872 -2.4543,0.18184 -3.54744,0.45197 -1.88777,0.46669 -3.49174,0.93232 -4.70996,-0.44356 -1.9235,-2.17262 -2.1642,-0.97016 -4.57016,-2.65402 -2.40491,-1.6828 -3.9847,-3.84701 -3.19428,-6.25296 h 6.21723 c -0.26488,-0.71685 -0.62435,-1.45051 -1.0984,-1.9235 -1.20245,-1.20246 -4.5691,-3.60736 -7.93681,-4.57017 -2.3492,-0.67059 -7.03393,-0.87346 -9.65536,-0.93442 0.74417,8.53384 -1.54511,13.21752 2.60041,16.32666 5.13144,3.84911 12.10546,4.32946 17.63737,4.81086 5.53191,0.48035 8.89857,3.60736 10.10102,5.05051 1.09524,1.31282 6.75749,0.25437 8.31311,4.58383 h 10.20613 c 2.16421,2.89997 0.48035,3.35299 -1.83941,9.79094 -1.38745,3.84806 -3.63784,3.28783 -6.17098,2.72865 -1.70383,-0.37735 -3.53588,-0.75469 -5.31854,0.21232 -2.61723,1.42213 -5.21343,0.66009 -7.79282,-0.10301 -1.78581,-0.52765 -3.56321,-1.0553 -5.33431,-0.85874 -2.12951,0.23754 -2.74651,-1.33174 -3.30989,-2.89998 -0.58126,-1.61868 -1.10681,-3.23842 -3.18377,-2.87159 -4.08771,0.72105 -3.64099,-5.99859 -3.64099,-5.99859 h 6.85103 c 0.35527,-1.74272 1.63761,-4.17706 5.92923,-5.06523 0,0 -7.776,-4.08876 -15.55305,-3.36666 -7.776,0.72105 -13.06721,-0.4814 -13.78826,-11.54417 -0.0399,-0.60859 -0.0915,-1.22243 -0.15136,-1.83837 -2.19679,-0.12718 -6.63661,0.16607 -9.94967,4.00257 -1.78791,2.06961 -3.09127,4.28742 -4.02359,6.49367 h 6.4285 c 2.1642,2.6456 1.20245,5.53191 -3.17641,5.65909 -2.57833,0.0746 -3.60841,1.1005 -5.14721,1.93191 -0.009,0.11562 -0.021,0.23124 -0.0294,0.34581 h 19.17617 c 0.72106,2.64561 -1.92455,5.05051 -5.29121,5.53192 -3.36771,0.48035 -5.29121,1.20245 -7.21576,5.77156 -1.92351,4.56911 -9.13927,1.92455 -13.73361,4.08876 -2.43223,1.14569 -5.04526,-0.13454 -7.64461,-1.41583 -2.31136,-1.13833 -4.61011,-2.27667 -6.76065,-1.71118 -2.33763,0.61594 -3.79445,-1.5388 -5.20712,-3.69355 -1.34855,-2.05699 -2.65717,-4.11398 -4.6532,-3.76187 -4.08876,0.72211 -5.53191,-4.80981 -5.53191,-4.80981 h 17.93799 c -0.54237,-1.85728 -0.64958,-3.83544 -2.54576,-4.08876 -3.60735,-0.4814 -3.02505,-3.84805 -3.02505,-3.84805 h 8.59481 c 0.40782,-1.27498 1.40321,-3.45495 3.81022,-6.01227 2.7444,-2.91679 5.72531,-3.38347 7.21366,-3.4129 0.58651,-1.45367 1.296,-2.9767 2.16526,-4.52391 3.77973,-6.71965 11.77436,-8.30471 15.984,-8.9196 -1.98552,-5.65909 -4.95171,-10.00537 -8.76824,-10.64128 -4.50604,-0.75153 -10.72958,-4.28321 -12.84438,-11.34762 -2.44274,0.29431 -7.22207,1.3496 -10.00432,5.17454 -0.33425,0.46038 -0.63276,0.91971 -0.9155,1.37693 0.17658,1.32859 0.73471,2.99667 2.35865,3.67358 1.59872,0.66639 2.16316,2.28928 2.3492,3.60736 h 9.91708 c 0,0 -2.6435,5.39842 -4.44823,3.66096 -0.95019,-0.91445 -1.20035,0.98488 -1.67965,2.88315 -0.432,1.70908 -1.04899,3.41816 -2.52999,3.07656 -1.40531,-0.32479 -3.35089,0.85664 -5.27439,2.03702 -2.35761,1.44736 -4.68053,2.89472 -5.92818,1.57034 -1.0574,-1.12257 -2.77384,-0.77781 -4.59749,-0.43411 -2.08327,0.39311 -4.30633,0.78727 -5.84513,-1.00905 -1.69752,-1.98026 -4.8897,-4.04461 -5.56976,-6.38645 -2.43643,-0.30587 -5.14405,-1.91825 -9.58283,-1.73746 -3.54429,0.14505 -4.76671,-1.14149 -5.66435,-2.42803 -0.92917,-1.33384 -1.50832,-2.66663 -3.95632,-2.40806 -4.80981,0.50768 -1.6828,-4.35678 -5.05051,-4.83714 -3.36666,-0.4814 -2.1642,-5.53191 -2.1642,-5.53191 h 13.69471 c 0.69898,-1.54826 2.0118,-3.81757 4.34312,-6.01226 3.17326,-2.98721 8.79241,-4.08666 11.15738,-4.43142 3.05868,-2.25985 6.53781,-4.39568 9.52607,-5.42995 4.80561,-1.66283 16.42126,-2.47428 21.54534,-2.76018 3.0713,-8.12076 6.39066,-10.79159 9.20129,-14.51247 -1.55983,-1.79947 -5.4226,-5.68011 -10.54459,-6.77745 -4.00782,-0.8598 -6.21827,0.66954 -7.35766,2.04858 h 9.28222 c 1.92455,2.04753 -2.64561,7.09069 -5.29121,9.25489 -2.64561,2.1642 -5.29122,-0.72105 -9.37997,-1.20245 -4.08771,-0.4814 -2.88526,-3.12701 -5.53087,-2.79381 -2.6456,0.33109 -3.84911,-5.25863 -3.84911,-5.25863 h 11.61776 c 0.90604,-1.54196 2.69816,-3.75661 5.93973,-4.93489 5.29016,-1.92351 14.56923,0.0137 17.74669,5.29541 0.54026,-1.17302 1.04164,-2.50791 1.49361,-4.09296 1.17617,-4.12134 1.40951,-8.21641 1.21716,-11.79854 -4.54178,-1.69016 -9.02049,-3.34774 -13.40251,-4.96117 -6.39591,4.60275 -37.6849,26.49495 -82.98604,47.88894 -46.85256,22.1266 -118.77688,48.21792 -195.32286,47.17629 -63.4998,-0.91025 -127.67019,-26.53489 -170.31942,-47.87002 -37.35171,-18.68531 -65.21203,-37.45786 -74.61302,-44.03562 -6.46739,4.41986 -13.07877,8.99107 -19.68385,13.47609 -0.75364,8.54961 -0.50453,18.75048 2.42803,29.02809 0.98908,3.46231 2.08537,6.38015 3.2647,8.94377 6.94353,-11.54208 27.21915,-15.77484 38.78014,-11.57151 7.07913,2.57413 11.00286,7.41443 12.98313,10.78318 h 25.38184 c 0,0 -2.62774,12.21583 -8.40981,11.48952 -5.78103,-0.72525 -3.15329,5.05577 -12.0876,6.10686 -8.93325,1.0511 -14.71427,7.35767 -20.4953,2.62774 -5.78207,-4.72993 -15.76642,-15.74855 -11.56309,-20.22412 h 20.30085 c -2.4911,-3.01243 -7.33875,-6.35281 -16.09647,-4.47661 -11.18155,2.3965 -19.62604,10.87358 -23.04,14.80993 6.14155,8.13232 13.39515,13.968 20.10534,31.71258 11.19732,0.62646 36.58021,2.39755 47.0817,6.03224 6.5315,2.2609 14.14143,6.92461 20.82639,11.86581 5.19031,0.75889 17.45448,3.1722 24.36963,9.68163 5.09571,4.79615 7.96415,9.75626 9.49244,13.13869 h 29.92362 c 0,0 2.62879,11.03649 -4.72887,12.08759 -7.35872,1.05109 -0.52555,11.67977 -11.0365,10.56981 -5.34902,-0.56444 -6.61559,2.34814 -8.64631,5.26178 -1.96029,2.81168 -4.63217,5.62336 -12.37664,5.30803 -9.69845,-0.39626 -15.61822,3.13436 -20.94096,3.80076 -1.4894,5.11673 -8.46026,9.62382 -12.16748,13.95013 -3.36455,3.92374 -8.22271,3.06499 -12.77605,2.2052 -3.98365,-0.75259 -7.73396,-1.50412 -10.04427,0.94808 -2.72759,2.89472 -7.80333,-0.26802 -12.95474,-3.43077 -4.20228,-2.58044 -8.45501,-5.16088 -11.52421,-4.45244 -3.23632,0.74733 -4.58592,-2.98721 -5.52981,-6.7207 -1.04794,-4.14972 -1.59451,-8.29839 -3.67042,-6.30026 -3.94371,3.7955 -9.72053,-8.00094 -9.72053,-8.00094 h 21.67148 c 0.40677,-2.87894 1.63866,-6.42744 5.1325,-7.88321 3.55795,-1.48309 4.77302,-5.13985 5.15667,-8.04718 -0.61279,-0.99118 -1.27708,-1.98972 -2.00339,-2.98931 -6.06902,-8.34359 -16.5127,-10.66546 -21.85857,-11.31189 -4.61956,15.43954 -18.22073,23.15983 -28.06949,24.80059 -8.33938,1.3906 -14.82044,10.88724 -19.16041,23.25337 9.20024,1.3433 26.66943,4.80981 34.92789,19.4915 1.89932,3.37717 3.45495,6.70914 4.73623,9.88345 3.25945,0.0673 9.77413,1.1005 15.75907,7.45962 5.25967,5.58762 7.43439,10.35223 8.32677,13.13869 h 18.78096 c 0,0 1.27183,7.35766 -6.61138,8.40875 -4.14237,0.55183 -4.3673,4.87708 -5.55399,8.93431 h 39.18902 c 0,0 -3.15328,12.08759 -12.08759,10.51095 -4.36309,-0.7694 -7.22207,3.72508 -10.16829,8.21956 -3.08707,4.70786 -6.26978,9.41676 -11.37915,8.07241 -4.6984,-1.23714 -9.72263,1.2508 -14.77209,3.73875 -5.68012,2.79906 -11.39177,5.59813 -16.7061,3.09337 -10.04006,-4.72993 -25.80543,1.05109 -30.01086,-8.93431 -4.20333,-9.9854 -8.40771,-11.56204 -15.76538,-12.61314 -7.35871,-1.05109 -13.13973,-6.30657 -11.56204,-12.08759 h 41.9019 c -0.0179,-0.24596 -0.0431,-0.49717 -0.0641,-0.74628 -3.36666,-1.81839 -5.60864,-4.06668 -11.24882,-4.23065 -9.56811,-0.27854 -11.66925,-6.58511 -6.93933,-12.36613 h 14.04579 c -2.03492,-4.82138 -4.88444,-9.66587 -8.79136,-14.18979 -7.22838,-8.36986 -16.93209,-9.02785 -21.74085,-8.75246 -0.13139,1.3475 -0.2449,2.6908 -0.33109,4.02254 -1.57665,24.17518 -13.13974,26.80292 -30.13174,25.22627 -16.99305,-1.57664 -33.9861,7.35767 -33.9861,7.35767 9.37786,1.94032 12.18639,7.25991 12.9621,11.06803 h 14.96549 c 0,0 0.97857,14.68379 -7.95679,13.10715 -4.53758,-0.80093 -5.68642,2.73705 -6.9572,6.27504 -1.23083,3.42762 -2.57728,6.85524 -7.23153,6.3381 -3.87013,-0.4299 -7.75498,0.72315 -11.65664,1.8762 -5.63597,1.66599 -11.30873,3.33198 -17.02879,0.22599 -3.89431,-2.1148 -7.89793,-1.28969 -11.62301,-0.46669 -5.53401,1.22453 -10.45209,2.44905 -13.48239,-5.9597 -5.07048,-14.06996 -8.75037,-15.05904 -4.02044,-21.39609 h 22.26429 c 3.38032,-9.50085 15.80847,-7.14324 18.20391,-10.01694 2.62669,-3.15328 9.98435,-9.9854 22.073,-11.03649 12.08759,-1.0511 27.32846,-2.10219 38.53944,-10.51095 9.06044,-6.79533 4.05302,-17.02669 5.67907,-35.67837 -5.73057,0.13454 -15.96508,0.57705 -21.09548,2.04333 -7.35766,2.10219 -14.71427,7.35767 -17.34201,9.9854 -1.03533,1.03428 -1.82155,2.63825 -2.39965,4.20438 h 13.5854 c 1.7259,5.25548 -1.7259,9.9854 -6.98137,13.66424 -5.25653,3.67883 -5.78102,1.05109 -9.9854,5.79889 -2.66243,3.00718 -6.16783,1.98867 -10.29232,0.96911 -2.39019,-0.58967 -4.9885,-1.17933 -7.75183,-0.98698 -7.5332,0.52555 -3.5033,-10.51095 -10.33542,-12.08759 -6.83316,-1.57665 -4.73097,-7.35767 -4.73097,-7.35767 h 10.17565 c 1.03638,-2.16105 3.57372,-5.06207 9.79515,-6.30657 10.51095,-2.10219 17.34412,-4.20438 17.34412,-4.20438 0,0 7.88321,-12.61313 23.64858,-14.18978 8.75142,-0.87451 14.41682,-1.10154 17.73407,-1.13097 0.33215,-1.66914 0.72421,-3.39294 1.18669,-5.1756 7.35661,-28.37956 29.43066,-18.39416 42.04379,-41.51824 12.29256,-22.53653 -13.13973,-40.46716 -28.38061,-60.96351 -10.07474,-13.54966 -10.2734,-30.07813 -9.25068,-39.73033 -4.30634,2.70236 -8.537,5.25232 -12.64678,7.57313 v 54.93127 h 25.92736 l -0.13244,0.16398 c 10.56456,1.1047 8.62739,15.15153 1.05635,21.20794 0,0 6.09215,-13.56018 -6.58301,-14.31802 l -40.93278,51.0254 c 2.93255,2.38389 4.60274,6.71755 3.46651,12.16853 -1.75113,8.40876 -9.10879,6.83212 -9.10879,6.83212 9.10879,-6.83212 0,-13.31422 0,-13.31422 H 137.6647 c 0,0 -9.10984,6.4821 0,13.31422 0,0 -7.35766,1.57664 -9.10984,-6.83212 -1.1993,-5.75685 0.72315,-10.27971 3.96578,-12.56164 L 89.651457,430.87781 c -13.975042,0.10091 -7.575766,14.3485 -7.575766,14.3485 -7.727125,-6.18149 -9.584199,-20.68555 1.730207,-21.25735 l -0.09723,-0.11457 h 28.029022 v -52.46855 c -8.2081,-3.33933 -15.595726,-7.32088 -21.604625,-11.86161 -2.219282,2.36497 -5.485875,4.86657 -8.00104,2.66558 -2.522628,-2.2073 -3.721191,-2.14423 -5.524449,-2.08117 -1.202558,0.0421 -2.674091,0.0841 -4.9865,-0.54657 -5.781022,-1.57664 -5.781022,-3.67883 -4.729927,-9.45985 1.051095,-5.78102 -6.832117,-3.15328 -8.408444,-7.88321 -1.576957,-4.72993 -9.460169,-8.40876 -7.883527,-11.0365 1.576643,-2.62774 -3.678832,-2.10219 -4.729927,-6.30657 -0.185623,-0.74312 -0.201284,-1.45051 -0.11089,-2.1169 C 23.525606,310.86275 0,303.3285 0,303.3285 V 132.00003 h 1152 v 231.59089 c 0,0 -3.6473,2.72023 -10.3533,6.60193"
         style="fill:#370f1f;fill-opacity:1;fill-rule:nonzero;stroke:none;stroke-width:0.105109"
         id="path16" />
      <path
         d="m 167.79679,436.292 c 5.22394,0 9.45985,4.23486 9.45985,9.45985 0,5.225 -4.23591,9.45986 -9.45985,9.45986 -5.22499,0 -9.45986,-4.23486 -9.45986,-9.45986 0,-5.22499 4.23487,-9.45985 9.45986,-9.45985"
         style="fill:#370f1f;fill-opacity:1;fill-rule:nonzero;stroke:none;stroke-width:0.105109"
         id="path46" />
    </g>
    <path
       d="m 311.79334,345.6628 c -0.0562,0.03 -0.12147,0.0525 -0.1882,0.0675 0.0382,-0.17995 0.10347,-0.20244 0.1882,-0.0675 z m -73.84799,83.73787 c 0.99199,0.57735 1.78003,1.71705 1.84527,2.88674 0.0562,1.01973 -0.55261,1.58958 -0.98374,2.45935 -0.28118,0.57734 -0.48663,1.14719 -0.77755,1.71704 -0.26243,0.51737 -0.28042,0.79479 -0.27068,1.40213 0,0.54736 -0.22569,0.89976 -0.27218,1.40963 -0.10347,1.03473 0.44914,1.92699 0.74006,2.89423 0.075,0.14247 0.25268,0.27743 0.44013,0.31492 0.075,-0.41239 -0.075,-0.88476 0.14022,-1.28216 0.14021,-0.26993 0.52561,-0.45738 0.71156,-0.7423 0.39439,0.27742 0.44988,0.97474 0.58184,1.45461 0.26168,0.90726 0.99199,1.46961 1.40438,2.2869 0.0375,0 0.075,0 0.12147,0 0.15071,-0.18745 0.23469,-0.29992 0.38465,-0.49487 0.97324,0.0975 1.08646,2.23441 1.35789,2.97671 0.21594,0.58485 0.66507,1.18469 1.10521,1.63457 0.18745,0.20245 0.48662,0.65233 0.78654,0.65233 0.18745,0.007 0.35616,-0.3899 0.64708,-0.3974 0.77679,1.23718 1.80702,2.53433 2.79076,3.63654 0.73031,0.82478 1.47036,1.80702 2.34163,2.45935 -0.11172,-0.64483 -1.15169,-1.5146 -0.57135,-2.06945 0.43114,0.18745 1.82652,0.82478 2.15493,0.58484 0.35541,0.41239 1.17944,0.3899 1.67656,0.67483 0.5616,0.31491 1.08646,0.76479 1.68556,0.98973 0.57134,0.22494 1.06846,0.33741 1.60232,0.54736 0.32767,0.12747 0.7768,0.46488 1.12396,0.33741 1.06771,1.08721 3.24064,-0.21744 4.29036,-0.53986 1.01073,-0.30742 1.882,-0.89976 3.00596,-0.86227 0.85252,0.03 1.65781,0.10497 2.51033,0.23994 1.5266,0.23244 3.42885,0.53236 5.11365,0.11997 0.3944,-0.0975 0.78804,-0.24744 1.1247,-0.30742 0.22495,-0.0375 0.57135,-0.10498 0.78655,-0.18745 0.075,-0.14247 0.17845,-0.25494 0.29992,-0.35241 0.12222,0.03 0.23469,0.03 0.35615,0 0.60884,-0.31492 1.06697,-0.41239 1.69456,-0.7573 0.48737,-0.27743 0.79704,-0.41989 1.35864,-0.57735 0.0187,-0.075 0.0285,-0.14996 0.0562,-0.21744 0.23394,0.11997 0.965,-0.17245 1.21768,-0.25493 0.42139,-0.11997 1.34889,-0.26993 1.58283,-0.58485 -0.42963,-0.29992 -0.86152,-0.83228 -1.42387,-1.1472 -0.34641,-0.18745 -0.91701,-0.16495 -1.06772,-0.53985 0.68457,-0.17995 1.56409,-0.32242 2.16393,-0.70482 -0.68307,-0.46487 -2.01322,-0.44988 -2.6693,-1.08721 -0.34715,-0.33741 -0.46862,-1.16969 0.14022,-1.28216 0.36515,-0.42739 1.04972,-0.56235 1.43287,-1.02723 0.42139,0.16496 1.18993,-0.0975 1.60232,-0.26243 0.41165,-0.17245 1.03098,-0.25493 1.08647,-0.80229 0.66582,-0.10497 1.52734,-1.44711 1.72379,-1.97947 0.28043,-0.20245 0.3929,-0.59985 0.61784,-0.92976 0.26243,-0.3824 0.67332,-0.7423 0.87127,-1.16219 0.3554,-0.7498 -0.0945,-1.76953 0.38315,-2.43686 0.23468,-0.10497 0.53461,-0.53236 0.61933,-0.82478 0.27143,-0.0825 0.35616,-0.26993 0.55186,-0.41239 0.12222,-0.22494 0.17845,-0.3899 0.23394,-0.62983 0.0285,-0.06 0.21594,-0.4049 0.24368,-0.44988 0.0375,-0.37491 0.23469,-0.73481 0.21594,-1.10971 0.54286,-0.21744 1.64882,-0.90726 1.99523,-1.41713 0.0937,0.0675 0.18745,0.075 0.28117,0.0225 0.0937,-0.28493 0.58035,-0.3974 0.81429,-0.52486 0.37565,-0.18745 0.59009,-0.37491 0.89901,-0.70482 0.26243,-0.27742 0.56235,-0.63733 0.85327,-0.95974 0.22419,-0.13497 0.19645,-0.0375 0.31792,-0.32992 0.54361,-0.007 0.91851,-1.16219 1.08721,-1.55209 0.12147,-0.31491 0.63658,-1.22217 0.87052,-1.38713 -0.0277,-0.47238 0.35541,-0.99724 0.54286,-1.46211 0.01,-0.0225 0.01,-0.03 0.0195,-0.045 1.47936,1.46961 3.03445,2.90923 4.39309,4.44632 3.52182,3.98145 7.87742,8.24033 12.97307,10.25729 2.93098,1.1472 6.48129,1.47711 9.20757,3.01421 3.16566,1.77703 5.03867,4.1389 7.07138,7.10812 1.6953,2.46684 3.59755,5.00118 5.78922,7.03314 1.54534,1.43212 3.36211,1.72454 5.33859,2.24191 4.27087,1.1172 8.43002,2.33938 12.17678,4.72375 2.80951,1.77703 5.76973,3.06669 8.38354,5.09865 1.94798,1.5221 3.51207,3.25414 5.02967,5.18113 1.28366,1.64207 1.882,3.82399 3.03445,5.58602 2.37912,3.61405 7.25958,4.34136 10.65093,6.8382 5.77872,4.24388 6.50003,12.8591 12.75713,16.69808 1.78903,1.09471 3.78425,1.84452 5.77047,2.61681 0.76705,0.86977 1.56334,1.64207 2.34988,2.60931 1.25592,1.5296 2.29515,3.21665 3.28788,4.82123 1.1427,1.85951 2.56658,5.13614 4.29037,2.03946 0.5616,-1.00474 1.20868,-1.86701 1.92924,-2.6693 -0.21519,-0.29242 -0.42139,-0.59234 -0.63658,-0.89976 0.40189,0.23244 0.78654,0.3824 1.11495,0.3824 -0.1687,0.16496 -0.32841,0.33741 -0.47837,0.51736 1.06847,1.47711 2.08895,2.63181 3.74676,3.77151 1.80852,1.24467 2.82001,3.35161 3.76551,5.3011 0.56235,1.17719 0.50611,2.00197 0.52486,3.10418 0.0375,1.60457 -0.44089,3.25414 -0.29992,4.78373 0.14096,1.62707 1.06771,2.38437 2.50134,3.0442 1.32939,0.60734 2.2569,1.34214 3.45583,2.20442 1.42388,1.02722 1.80777,0.28492 3.41835,0.0525 1.21843,-0.17995 2.52008,0.16496 3.74751,0.007 1.00248,-0.13496 2.03196,-0.50237 2.51033,-1.54459 0.26244,-0.56985 -0.22494,-1.28966 0.5991,-1.61208 0.3464,-0.12746 1.11495,0.34491 1.57308,0.33741 3.31637,-0.0525 1.06847,-3.93646 3.4191,-4.69376 1.38713,-0.44988 1.98622,0.92226 3.37261,-0.3749 0.5526,-0.52486 1.55508,-1.73204 0.69356,-2.23441 -0.14096,-0.79479 -0.5436,-2.00946 -0.93725,-2.50433 -0.0472,-1.9195 -2.34163,-3.809 -3.65303,-5.01618 -0.80604,-0.7348 -3.40935,-2.79676 -4.38335,-2.06945 -0.58109,-0.85478 -1.96748,-0.59984 -2.82,-1.38713 -0.075,0.0975 -0.17845,0.13496 -0.29992,0.12746 -0.5706,-0.83978 -2.36038,-1.5071 -3.21215,-2.28689 -0.55261,-2.11444 -1.88276,-5.28611 -3.4101,-7.03314 -0.80529,-0.90727 -1.99447,-1.79953 -3.14692,-2.48185 -0.1867,0.0975 -0.36515,0.19495 -0.53386,0.30742 0.0195,-0.17245 0.0195,-0.3824 0.009,-0.61484 0.1687,0.0975 0.34716,0.19495 0.52486,0.30742 0,-0.007 0.01,-0.007 0.01,-0.007 0.99274,-0.50236 1.90075,-1.17719 2.74352,-1.882 1.12471,-0.95975 1.44262,-1.31965 0.7783,-2.68429 -0.76855,0.23994 -2.17293,-1.01973 -2.84775,-1.46961 -0.69282,-0.45738 -1.48911,-1.00474 -2.23891,-1.55209 -0.43039,-0.30742 -0.85177,-0.63733 -1.27391,-0.98224 -0.0652,-0.18745 -0.13047,-0.3749 -0.19645,-0.56235 -1.42387,-3.94396 -3.70027,-7.73796 -5.62951,-11.47197 -3.20241,-6.23085 -8.06412,-11.64442 -13.41321,-16.02327 -2.4541,-1.99447 -4.97343,-3.85398 -7.26858,-6.06589 -2.26665,-2.17443 -4.30836,-3.20166 -7.1936,-4.22139 -3.0067,-1.06472 -4.57979,-3.08918 -6.29458,-5.51854 -1.21768,-1.72454 -2.0882,-3.55406 -3.37186,-5.24861 -1.13295,-1.49211 -2.22016,-2.99921 -3.49408,-4.37135 -3.49407,-3.7565 -8.44801,-5.54103 -11.88586,-9.35752 -1.49885,-1.67206 -3.0067,-3.23165 -4.69301,-4.73125 -1.71404,-1.50711 -3.88697,-2.84925 -5.87319,-4.35635 0.0375,-0.045 0.066,-0.09 0.10347,-0.14246 1.72304,-2.33189 3.52182,-3.0517 5.91968,-1.40963 1.70505,1.14719 3.2504,2.93172 5.25462,1.40213 1.70505,-1.28966 2.35137,-2.10695 4.67426,-2.09945 0.92676,0.008 1.8925,-0.0825 2.81026,0 1.03922,0.10497 1.5176,0.10497 2.50059,-0.007 2.54857,-0.29992 4.15915,-0.68981 6.31333,-2.32438 0.0742,-0.0525 0.14021,-0.11247 0.21519,-0.15746 0.54361,0.32991 1.16144,0.56985 1.65856,0.85477 1.06697,0.60734 1.55434,1.27467 2.34163,2.19692 1.44187,1.68706 3.79325,4.39384 6.02241,4.43883 1.02048,0.0225 2.11669,0.0975 3.13717,0 0.93726,-0.09 1.81752,-0.46488 2.79227,-0.31492 2.4541,0.35241 3.9432,4.51381 5.0859,6.48579 1.45162,2.49684 2.47285,5.12115 3.4191,7.88042 0.79629,2.31688 2.0597,4.70875 4.29936,5.93843 1.19819,0.65982 2.65955,1.07221 3.74601,1.99447 1.25517,1.07972 2.24791,2.75927 3.0442,4.1764 1.54534,2.78176 2.96921,5.69849 4.21538,8.54774 0.35541,0.82478 1.02048,3.21665 2.42561,2.78176 1.20868,-0.3749 0.87127,-2.48184 0.99274,-3.3966 0.23469,-1.70955 0.75955,-3.67403 1.52735,-5.60102 1.08646,2.19692 2.58531,4.19139 4.33685,5.55603 1.67656,1.30466 3.94321,1.79953 5.55453,3.19416 1.09546,0.93725 1.26417,2.08445 1.62932,3.43409 0.38465,1.41713 0.88027,2.37687 1.80852,3.35161 1.7223,1.79953 3.89597,2.93173 5.37533,4.98619 1.56484,2.20441 2.63331,4.65627 4.12241,6.86818 0.95525,1.41713 1.62932,3.08169 2.72553,4.37884 1.22743,1.43962 2.82001,2.26441 4.41184,3.20166 0.66507,0.3899 1.36764,0.7648 2.09794,1.1247 0.16871,2.03946 0.86152,4.05643 1.86401,5.72849 0.59984,1.00473 1.5176,1.67205 1.94798,2.74427 0.47763,1.19968 0.63734,2.50434 0.94625,3.74901 0.56161,2.2569 2.2854,3.23914 3.97171,4.76124 2.02296,1.81452 3.14691,3.95896 4.50555,6.16337 1.53635,2.48935 3.70927,4.06393 5.65726,6.16337 1.48011,1.58958 2.95047,3.61405 4.3466,5.37608 1.63907,2.06196 2.43461,4.58129 4.29861,6.57577 2.20142,2.34688 4.60829,4.19139 6.80071,6.55326 1.92024,2.05446 3.41909,4.36385 4.99218,6.64325 1.34889,1.93449 3.06294,5.61601 5.62951,3.0142 0.5526,-0.55485 1.03023,-1.04222 1.55509,-1.46961 l 0.009,0.007 c 2.01396,1.85951 3.85023,3.81649 5.76072,5.77347 1.84602,1.897 3.00746,4.19139 4.52431,6.32833 1.58283,2.24191 3.91471,3.90647 5.4803,6.16337 1.53567,2.21941 0.72056,4.72375 1.70407,7.02564 0.74891,1.75454 1.76054,1.03473 3.20301,1.5446 0.86145,0.30741 1.88305,1.44711 2.56694,2.02446 1.0582,0.90726 1.66711,2.09945 2.80966,2.84175 0.91851,0.58485 1.6297,1.1322 2.49167,1.85951 1.57368,1.34964 3.13747,2.89423 4.68364,4.20639 0.98321,0.83228 2.05078,1.73954 3.37148,1.80702 1.55524,0.075 1.59273,-0.7498 2.25788,-1.95698 0.66485,-1.18469 1.73272,-1.96448 2.34163,-3.11918 0.58994,-1.10221 0.31837,-2.36937 0.63681,-3.59905 0.5433,-2.10694 2.86619,-3.73401 2.88493,-6.01341 0.01,-1.08721 -0.88979,-1.74704 -0.94572,-2.78926 -0.0472,-0.82478 1.20845,-2.09945 0.29902,-2.6468 0.15056,-1.10221 -1.08571,-2.57182 -2.08827,-2.72928 -0.0841,-0.15746 -0.18723,-0.30742 -0.3093,-0.44988 -0.40279,0.30742 -1.56408,-0.14246 -2.03241,-0.11247 -0.34618,0.0225 -0.88042,0.26243 -1.25532,0.3824 -1.08631,0.3749 -1.77935,0.89976 -2.97874,1.02723 -0.29962,0.0225 -0.66485,0.045 -1.07664,0.06 -0.36582,-0.90726 -0.8526,-1.73204 -1.48026,-2.39937 -1.13317,-1.21468 -2.14518,-2.60931 -3.43739,-3.70402 -1.18941,-1.00473 -2.79128,-1.65706 -4.00911,-2.75927 -1.41465,0.53986 -4.43995,-2.12194 -5.13322,-3.22415 -0.73953,-1.17719 -1.34904,-2.42935 -1.87271,-3.69652 -0.31866,-0.78729 -0.74012,-3.37411 -1.18063,-3.63654 0.22524,-3.0142 -2.51949,-7.23559 -4.27177,-9.52998 -0.62684,-0.81728 -1.38564,-1.42462 -2.19093,-2.01697 0.2152,-1.16969 0.91776,-2.51183 1.55434,-3.28413 1.22743,-1.5221 1.89175,-3.26913 2.97897,-4.9037 1.32984,-2.00947 2.35115,-4.25888 3.5962,-6.30584 0.55327,-0.92975 1.47118,-1.867 1.54616,-3.0217 2.38857,-1.06472 -5.3673,-6.72572 -6.00389,-7.37055 -1.65856,-1.67956 -2.96921,-3.75651 -4.37434,-5.64601 -1.16219,-1.57458 -2.54783,-2.81175 -3.7655,-4.28886 -2.43536,-2.96922 -4.68327,-4.53631 -8.3558,-5.706 -3.71826,-1.19218 -6.84644,-2.88673 -8.40153,-6.47079 -1.13295,-2.60931 -2.17292,-5.2861 -4.46807,-7.11562 -0.99273,-0.78729 -2.22916,-1.29715 -3.04419,-2.2644 -0.83378,-0.98974 -1.42387,-2.32438 -2.22016,-3.3891 -2.44436,-3.32912 -3.90572,-6.88318 -6.04116,-10.34727 -1.49885,-2.42186 -2.2479,-4.99368 -3.5788,-7.47552 -2.19167,-4.06393 -3.93346,-8.49526 -7.51152,-11.56195 -2.55682,-2.18942 -4.43957,-5.15113 -5.91968,-8.11285 -1.12395,-2.23441 -1.07747,-4.9412 -1.57384,-7.23559 -0.55335,-2.57182 -1.30165,-5.39107 -3.27813,-7.36305 -0.88102,-0.88477 -2.00422,-1.5371 -2.6603,-2.57182 -0.77754,-1.22218 -1.21767,-2.63931 -1.6953,-3.98145 -1.15244,-3.24664 -0.96499,-5.75098 -0.86227,-9.14009 0.0757,-2.51933 -0.15896,-5.57102 -1.3204,-7.79793 -0.62759,-1.19969 -1.56484,-2.19692 -2.19167,-3.37411 -0.009,-0.0225 -0.0187,-0.0375 -0.0285,-0.06 0.0472,-0.09 0.0847,-0.18745 0.12221,-0.27742 1.38639,-3.31413 2.51034,-7.06314 3.02545,-10.6247 0.33666,-2.33188 0.74006,-5.07615 0.41239,-7.44553 -0.30966,-2.22691 -1.5086,-4.33385 -1.59257,-6.65074 -0.10348,-3.17166 1.75153,-6.21586 1.90149,-9.32753 0.0562,-0.96725 -0.21519,-2.45186 -0.31791,-3.45659 -0.0855,-0.89227 -0.32842,-1.99447 -0.70332,-2.81176 -0.67407,-1.4996 -1.78003,-2.69179 -2.35063,-4.29636 -1.14269,-3.18666 -0.83453,-6.47079 -0.40264,-9.75492 0.21519,-1.58209 0.43938,-3.08919 0.25193,-4.73875 -0.12146,-1.07222 -0.26168,-2.06946 -0.62683,-3.0517 -0.33741,-0.89226 -1.16144,-1.61207 -1.42462,-2.51183 -0.97325,-3.28413 0.32841,-6.20836 1.09621,-9.34253 1.07821,-4.38634 0.947,-9.0801 0.01,-13.54892 -0.49637,-2.36938 -1.55509,-4.46132 -2.19167,-6.75572 -0.61858,-2.23441 -0.81503,-4.61128 -1.09621,-6.89068 -0.28117,-2.27939 0.42139,-4.03393 0.95525,-6.16337 0.59984,-2.43685 0.72206,-5.10615 0.54286,-7.63298 -0.1867,-2.62431 -1.21693,-5.06866 -1.25367,-7.73795 -0.0375,-3.19416 0.82328,-5.87845 1.3294,-8.99013 0.31791,-2.00947 1.38638,-3.45658 1.80777,-5.36858 0.26243,-1.19968 0.0652,-2.96921 -0.075,-4.19889 -0.0187,-0.17995 -0.14996,-0.80979 -0.34641,-1.5221 0.1777,-0.56235 0.33741,-1.1172 0.47762,-1.67206 1.10446,-4.19139 0.10273,-8.63021 0.53386,-12.97907 0.22494,-2.18192 1.53635,-4.47631 2.26665,-6.53827 0.83378,-2.37687 1.64882,-4.67126 2.21042,-7.13811 0.33741,-1.46961 1.1532,-3.18666 1.17044,-4.69376 0.0195,-1.43212 -0.26168,-1.91949 -1.58283,-2.14443 -2.4721,-0.43489 -5.47955,0.29242 -8.10161,-0.25494 -2.82,-0.59984 -5.4983,-1.64956 -8.24257,-2.33938 -1.74254,-0.44988 -3.46634,-0.86227 -5.18038,-1.32715 0,-0.25493 -0.009,-0.50986 -0.0187,-0.7648 -0.093,-3.13417 -0.34641,-6.28333 -1.15169,-9.33503 -1.11496,-4.26637 -1.95774,-8.3303 -1.95774,-12.76163 0,-4.42383 0.57135,-8.61522 1.25517,-12.90408 0.45888,-2.87175 0.98374,-5.86346 0.92676,-8.7277 -0.0278,-1.55959 -0.11172,-2.39936 -1.23643,-3.43409 -1.14194,-1.03473 -2.64155,-1.55959 -4.1404,-1.94949 -1.56334,-0.41988 -3.08094,-0.17245 -4.60828,0.008 -1.43287,0.15746 -2.92198,0.06 -4.3736,0.06 -2.79151,0.0225 -5.64825,-0.3974 -8.43077,-0.30742 -2.85599,0.0975 -5.52529,-0.83228 -8.18634,-1.78453 -2.18192,-0.78729 -4.12091,-2.15943 -6.49028,-2.2869 -2.30489,-0.13496 -4.88946,0.93726 -7.1846,0.09 -1.92999,-0.71231 -3.2414,-2.04696 -5.52679,-2.2719 -1.18019,-0.12747 -2.44511,-0.17995 -3.50308,-0.32241 -1.07671,-0.12747 -2.37912,0.13496 -1.82651,1.53709 0.9275,-0.0375 1.55509,1.28966 2.17367,1.73954 0.79629,0.58485 2.4631,1.22218 3.45584,0.62234 1.76128,1.27466 3.63429,1.97947 5.16089,3.69652 0.76854,0.86227 1.47111,1.65706 2.25765,2.47434 0.9275,0.95975 1.80777,1.5446 2.80951,2.43686 2.00497,1.76953 4.08417,3.20165 6.22935,4.59629 2.35138,1.53709 4.54305,3.48657 6.87493,4.85121 2.91298,1.70955 4.84297,4.1614 5.8642,7.40055 0.98224,3.14167 0.0742,5.84095 0.0742,9.0876 0,3.67403 0.56236,7.07813 1.01224,10.67717 0.14921,1.24468 0.3464,2.48185 0.54285,3.72652 -0.1777,-0.045 -0.35615,-0.075 -0.52411,-0.075 -0.84353,-0.007 -1.39613,0.47237 -2.22991,0.3749 -0.19645,0.57735 0.15071,1.23717 0.26243,1.79203 0.1972,0.90726 0.25343,1.91199 0.31867,2.83425 0.13196,1.97198 -0.009,3.99644 0,5.96092 0.01,3.20166 -0.59984,6.27584 -0.93726,9.35003 -0.62758,5.57103 -3.04344,11.30701 -3.13717,17.0205 -0.0195,0.92226 0.42139,2.55683 0.70257,3.47908 0.39364,1.27467 1.00248,2.6618 1.73279,3.779 0.40264,0.62234 1.28291,0.95975 1.71405,1.5146 1.05797,1.35715 0.26243,2.84175 -0.075,4.1689 -0.74906,2.93923 -0.60884,4.72375 0.61783,7.50552 1.43362,3.23164 -0.17695,4.1764 -1.64806,6.86069 -1.23642,2.2494 -2.35138,4.92619 -2.02297,7.49801 0.16796,1.31966 0.51437,2.98422 0.24369,4.37885 -0.1972,1.04972 -0.93725,2.42935 -1.47111,3.43409 -0.83378,1.56708 -1.3294,2.67679 -1.09546,4.37884 0.21519,1.60458 0.97399,3.08919 1.54534,4.5663 0.66507,1.67955 0.23394,3.41909 0.3839,5.16613 0.084,0.96724 0.34566,1.82952 0.31791,2.81176 -0.018,1.10221 -0.36515,2.12943 -0.32766,3.23914 0.24444,0.0675 0.1972,-0.075 0.32766,-0.18745 l 0.74081,0.3974 c -0.76855,1.4996 -1.31141,3.08168 -1.67731,4.73874 -0.89901,4.11641 -1.85426,8.65272 -4.68326,11.79439 -2.37012,2.6393 -3.37186,6.26084 -4.28962,9.61995 -0.46862,1.70955 -1.17119,3.39661 -2.03271,4.97869 -0.65608,1.22217 -2.31389,2.69928 -2.41661,4.06392 l -0.24369,0.0975 c -0.44988,-1.07972 -0.76779,-2.20442 -0.99273,-3.21665 -0.44014,-1.912 -0.33742,-3.91397 -0.32767,-5.91594 0.018,-2.21191 -0.51511,-4.49131 -0.48737,-6.75571 0.0562,-4.05643 2.15418,-8.16535 3.54057,-11.83937 1.36763,-3.59905 2.70753,-7.76795 2.21116,-11.65942 -0.83378,0.09 -1.8835,-0.26243 -2.76377,-0.35991 -0.99274,-0.11247 -1.6863,-0.3599 -2.56657,-0.86227 -1.74254,-0.98224 -2.97821,-2.89424 -4.92695,-3.47908 -1.58283,1.61957 -0.30892,5.45856 -0.30892,7.60299 0,2.33188 0.23469,4.43883 0,6.74072 -0.43038,4.31136 -1.882,8.45027 -1.87375,12.79162 0,1.8895 -0.30892,3.50907 -0.008,5.2786 0.35541,2.10695 1.27316,3.97395 1.79728,5.93094 0.50611,1.8895 1.12395,3.7715 1.77103,5.676 -2.12644,-1.10221 -5.2921,-2.21942 -7.64348,-2.45935 -2.01397,-0.20995 -4.14041,-0.29243 -6.03216,-0.32242 -2.98796,-0.0525 -5.92868,1.11721 -8.8709,1.43962 -6.87494,0.7723 -13.59091,3.794 -20.57832,3.83149 -1.89175,0.015 -3.92446,-0.20995 -5.91968,-0.56235 1.71405,-0.72731 3.54056,-1.1472 5.58227,-1.35715 2.37913,-0.23243 5.16089,-0.19494 6.68824,-2.36937 1.78902,-2.55682 1.94798,-7.31057 0.46787,-10.04734 -0.917,-1.69456 -2.53808,-2.62431 -4.47706,-2.49684 -0.73031,0.06 -1.37664,0.55485 -2.11744,0.58484 -1.00099,0.0375 -1.76054,-0.40489 -2.58382,-0.86227 -1.65856,-0.93725 -2.41736,-1.00473 -3.67253,0.56235 -1.24542,1.54459 -1.57383,1.31965 -1.85501,-0.64483 -0.21594,-1.5071 -0.0285,-3.56906 -0.69282,-4.94119 -1.47036,-0.41989 -3.63354,0.77229 -4.93669,1.26716 -0.96425,0.36741 -1.49811,0.65983 -2.50059,0.33741 -0.77755,-0.25493 -1.35864,-0.89226 -2.17293,-1.1172 -1.72379,-0.46488 -3.79325,0.06 -4.76799,1.64206 -1.18019,1.9195 -0.19645,3.60655 0.0937,5.62352 0.29092,2.03196 -0.71231,1.92699 -1.95699,3.04419 -1.44261,1.28966 -1.51759,3.06669 -2.51108,4.67877 -0.61784,1.01223 -1.1517,1.30465 -2.11669,1.94948 -1.17044,0.7798 -2.04171,0.86977 -3.2129,1.28966 -0.98299,-0.58484 -1.99523,-1.1322 -3.03445,-1.5221 -1.40513,-0.53236 -2.95047,-0.7498 -4.44033,-1.08721 -1.57383,-0.3599 -2.838,-0.92226 -4.21463,-1.71705 -2.41661,-1.37213 -4.06468,-4.28886 -6.94992,-1.94948 -1.75228,1.42462 -2.68879,3.48658 -4.11266,5.18863 -1.35789,1.62707 -2.63255,3.11168 -4.31736,4.40883 -1.78978,1.37964 -3.38235,2.56433 -4.97418,4.1914 -1.92924,1.97197 -3.20316,4.1614 -4.62703,6.49328 -1.85501,3.0367 -2.57632,5.90844 -2.56657,9.39502 0,1.84451 -0.22494,3.65153 -0.075,5.42106 0.12221,1.46962 0.14096,3.02171 0,4.47632 -0.23469,2.50434 -0.77755,4.82872 -0.88102,7.43054 0.30067,0.15746 0.3749,0.41239 0.5721,0.7573 0.31791,0.56985 0.66507,0.89976 1.02123,1.4846 0.5616,0.88477 1.08571,2.18193 1.24542,3.21665 0.27143,1.71705 -1.16144,3.97395 0.59834,5.13615 1.35864,0.89976 3.38236,0.93725 4.93745,1.57458 0.50461,0.20245 1.09546,0.47238 1.65781,0.83978 -0.33741,0.23994 -0.67407,0.47237 -1.01148,0.71231 -1.62108,1.16219 -2.99771,2.51184 -4.44033,3.87648 -1.75154,1.67205 -4.03693,2.95422 -6.31258,3.73401 -0.75955,0.24743 -1.30241,0.24743 -1.95849,-0.14996 -0.46787,-0.28493 -0.84202,-0.7648 -1.3204,-1.02723 -1.01148,-0.54736 -2.24865,-0.47237 -3.22189,0.09 -2.05146,1.18468 -4.39309,2.2569 -6.17237,3.87647 -1.35864,1.23718 -2.13619,2.99921 -3.48508,4.1614 -1.07747,0.91476 -2.60406,1.21468 -3.64329,2.16693 -0.9365,0.86227 -1.77028,1.8745 -2.34238,3.0292 -0.71156,1.43962 -1.05872,3.14917 -1.86326,4.5288 -0.7408,1.27467 -2.36037,1.5071 -3.13867,2.78177 -0.46787,0.78729 -0.97324,2.54183 -0.9365,3.44159 0.0472,1.07971 0.97399,1.31965 1.76128,1.76953"
       style="fill:#1e0d14;fill-opacity:1;fill-rule:nonzero;stroke:none;stroke-width:0.0749802"
       id="path463" />
    <g
       id="g4486">
      <text
         xml:space="preserve"
         style="font-style:normal;font-variant:normal;font-weight:normal;font-stretch:normal;font-size:77.0586px;line-height:1.25;font-family:Karate;-inkscape-font-specification:'Karate, Normal';font-variant-ligatures:normal;font-variant-caps:normal;font-variant-numeric:normal;font-variant-east-asian:normal;stroke-width:18.28800137;stroke:#ffffff;stroke-opacity:0.60000002;stroke-dasharray:none;fill:none"
         x="276.55133"
         y="-611.82483"
         id="text1705"
         transform="scale(1,-1)"><tspan
           sodipodi:role="line"
           id="tspan1703"
           style="font-style:normal;font-variant:normal;font-weight:normal;font-stretch:normal;font-size:77.0586px;font-family:Karate;-inkscape-font-specification:'Karate, Normal';font-variant-ligatures:normal;font-variant-caps:normal;font-variant-numeric:normal;font-variant-east-asian:normal;stroke-width:18.28800137;stroke:#ffffff;stroke-opacity:0.60000002;stroke-dasharray:none;fill:none"
           x="276.55133"
           y="-611.82483">Congratulations</tspan></text>
      <text
         xml:space="preserve"
         style="font-style:normal;font-variant:normal;font-weight:normal;font-stretch:normal;font-size:77.0586px;line-height:1.25;font-family:Karate;-inkscape-font-specification:'Karate, Normal';font-variant-ligatures:normal;font-variant-caps:normal;font-variant-numeric:normal;font-variant-east-asian:normal;stroke-width:5.254"
         x="276.55133"
         y="-611.82483"
         id="text1709"
         transform="scale(1,-1)"><tspan
           sodipodi:role="line"
           id="tspan1707"
           style="font-style:normal;font-variant:normal;font-weight:normal;font-stretch:normal;font-size:77.0586px;font-family:Karate;-inkscape-font-specification:'Karate, Normal';font-variant-ligatures:normal;font-variant-caps:normal;font-variant-numeric:normal;font-variant-east-asian:normal;stroke-width:5.254"
           x="276.55133"
           y="-611.82483">Congratulations</tspan></text>
    </g>
    <text
       xml:space="preserve"
       style="font-size:15.2773px;line-height:1.25;font-family:sans-serif;fill:#000000;fill-opacity:1;stroke-width:1.04164"
       x="508.23306"
       y="-160.86526"
       id="text580"
       transform="scale(1,-1)"><tspan
         sodipodi:role="line"
         id="tspan578"
         style="fill:#000000;fill-opacity:1;stroke-width:1.04164"
         x="508.23306"
         y="-160.86526">© Copyright 2024 Oliver Misbach</tspan></text>
  </g>
</svg>
