<?xml version="1.0" encoding="UTF-8" standalone="no"?>
<!-- Created with Inkscape (http://www.inkscape.org/) -->

<svg
   version="1.1"
   id="svg2"
   width="155"
   height="337"
   viewBox="0 0 155 336.99999"
   sodipodi:docname="BroadcastAssetLeft.svg"
   inkscape:version="1.2.2 (b0a8486541, 2022-12-01)"
   xmlns:inkscape="http://www.inkscape.org/namespaces/inkscape"
   xmlns:sodipodi="http://sodipodi.sourceforge.net/DTD/sodipodi-0.dtd"
   xmlns="http://www.w3.org/2000/svg"
   xmlns:svg="http://www.w3.org/2000/svg">
  <defs
     id="defs6">
    <clipPath
       clipPathUnits="userSpaceOnUse"
       id="clipPath20">
      <path
         d="M 0,2394 H 28286 V 20000 H 0 Z"
         id="path18" />
    </clipPath>
    <linearGradient
       x1="0"
       y1="0"
       x2="1"
       y2="0"
       gradientUnits="userSpaceOnUse"
       gradientTransform="matrix(0,-17403.7,-17403.7,0,14142.9,19697.7)"
       spreadMethod="pad"
       id="linearGradient28">
      <stop
         style="stop-opacity:1;stop-color:#481629"
         offset="0"
         id="stop22" />
      <stop
         style="stop-opacity:1;stop-color:#cc3c2d"
         offset="0.417241"
         id="stop24" />
      <stop
         style="stop-opacity:1;stop-color:#f6ae5a"
         offset="1"
         id="stop26" />
    </linearGradient>
    <clipPath
       clipPathUnits="userSpaceOnUse"
       id="clipPath38">
      <path
         d="m 23386.3,13478.7 c 0,2280.3 -1848.6,4128.9 -4128.9,4128.9 -2280.4,0 -4129,-1848.6 -4129,-4128.9 0,-2280.4 1848.6,-4129 4129,-4129 2280.3,0 4128.9,1848.6 4128.9,4129 z"
         id="path36" />
    </clipPath>
    <linearGradient
       x1="0"
       y1="0"
       x2="1"
       y2="0"
       gradientUnits="userSpaceOnUse"
       gradientTransform="matrix(0,-8479.71,-8479.71,0,19257.3,17607.6)"
       spreadMethod="pad"
       id="linearGradient46">
      <stop
         style="stop-opacity:1;stop-color:#f57572"
         offset="0"
         id="stop40" />
      <stop
         style="stop-opacity:1;stop-color:#f8a26c"
         offset="0.417241"
         id="stop42" />
      <stop
         style="stop-opacity:1;stop-color:#fcdf81"
         offset="1"
         id="stop44" />
    </linearGradient>
    <clipPath
       clipPathUnits="userSpaceOnUse"
       id="clipPath56">
      <path
         d="m -32.6875,14924 c 0,0 711.1285,-28.8 1299.6475,-288.8 588.52,-259.9 760.17,-288.8 1029.91,-231 269.73,57.7 171.65,404.3 -564,519.8 0,0 274.38,86.7 701.19,0 426.8,-86.6 966.28,-361.9 1309.58,-253.1 343.31,108.7 662.08,22.1 956.34,-151.2 0,0 73.57,389 662.09,151.2 588.51,-237.8 956.34,-461.1 1299.65,-291.7 343.3,169.4 858.25,202.8 1397.73,-59.4 539.47,-262.2 907.3,60.1 1054.42,0 147.13,-60 637.57,-119.6 931.83,-104.3 294.3,15.4 907.3,-13.5 1054.4,-186.8 147.2,-173.3 -858.2,28.9 -1103.44,-231 -245.22,-260 -539.48,-144.4 -1103.48,-144.4 0,0 -956.34,-173.3 -1226.07,-548.8 0,0 416.86,-57.7 1103.47,0 686.6,57.8 1103.47,-317.7 1814.62,-317.7 711.1,0 956.3,346.6 1373.2,202.2 416.9,-144.4 735.6,-202.2 1128,-202.2 392.3,0 1226.1,-288.8 1373.2,-433.2 0,0 -711.1,86.7 -1152.5,-202.2 -441.4,-288.8 -613.1,-28.9 -1152.5,-173.3 -539.5,-144.3 -833.8,173.3 -1177.1,-173.2 -343.3,-346.6 -907.3,-491 -1544.84,-433.3 -637.56,57.8 -539.48,206.3 -1078.95,-12.3 -539.48,-218.7 -1152.52,-218.7 -1397.74,-218.7 -245.21,0 -784.69,-86.7 -1177.04,-404.3 0,0 514.96,-86.7 564.01,-288.9 49.04,-202.1 858.25,-115.5 1103.47,-231 0,0 -1275.13,-202.2 -1593.91,-346.6 -318.78,-144.4 -809.21,-28.9 -1544.86,0 -735.65,28.9 -1618.43,60 -1986.26,-71.1 -367.81,-131.1 -1275.11,302.2 -1422.243,302.2 0,0 465.903,288.8 931.823,259.9 465.91,-28.9 760.17,231.1 907.3,317.7 147.13,86.6 441.38,577.6 1029.91,548.7 588.52,-28.8 -1275.14,202.2 -1520.35,202.2 -245.22,0 -2255.98797,375.5 -2721.898,173.3 v 3359.9 z"
         id="path54" />
    </clipPath>
    <clipPath
       clipPathUnits="userSpaceOnUse"
       id="clipPath62">
      <path
         d="M 28285.7,0 H 0.00390625 V 20000 H 28285.7 Z"
         id="path60" />
    </clipPath>
    <linearGradient
       x1="0"
       y1="0"
       x2="1"
       y2="0"
       gradientUnits="userSpaceOnUse"
       gradientTransform="matrix(0,-17466.4,17466.4,0,6992.75,19966.5)"
       spreadMethod="pad"
       id="linearGradient70">
      <stop
         style="stop-opacity:1;stop-color:#8d3453"
         offset="0"
         id="stop64" />
      <stop
         style="stop-opacity:1;stop-color:#cc3c2d"
         offset="0.151723"
         id="stop66" />
      <stop
         style="stop-opacity:1;stop-color:#f6c77d"
         offset="1"
         id="stop68" />
    </linearGradient>
    <clipPath
       clipPathUnits="userSpaceOnUse"
       id="clipPath80">
      <path
         d="m -12.8672,19693.2 c 0,0 331.1642,-14 503.3792,70.4 172.207,84.5 264.933,55.4 490.125,-35.6 225.193,-91.1 397.403,-36.5 556.363,-35.6 158.97,0.8 529.87,199.8 861.04,121.4 331.18,-78.3 516.63,-100 741.83,-138.4 225.19,-38.5 649.09,-193.3 768.31,-207.4 0,0 -596.11,-98.5 -808.06,-239.2 -211.94,-140.8 -357.66,-183 -357.66,-183 0,0 317.92,140.7 503.38,84.4 185.46,-56.3 543.12,-56.3 728.57,14.1 185.46,70.4 543.12,211.1 662.34,183 119.22,-28.2 304.67,-140.8 516.63,-140.8 211.94,0 715.32,-28.1 794.8,-140.7 79.48,-112.6 211.95,-98.5 423.9,0 211.95,98.5 476.89,126.7 635.84,28.1 158.97,-98.5 490.14,-70.3 609.36,-28.1 119.22,42.2 781.56,-31.9 914.03,-79.3 132.47,-47.4 622.59,-103.7 914.02,-131.8 291.44,-28.2 556.37,-70.4 556.37,-70.4 0,0 -781.56,-140.8 -1218.7,-140.8 -437.15,0 -556.37,-14 -675.59,-70.3 -119.22,-56.3 -304.68,42.2 -582.86,0 -278.18,-42.3 -728.57,-154.9 -1006.75,-168.9 -278.18,-14.1 -490.14,0 -675.59,-112.6 -185.45,-112.6 -410.65,-112.6 -635.85,-70.4 0,0 158.96,-267.4 384.16,-253.4 225.2,14.1 596.11,183 741.82,140.8 145.71,-42.3 410.65,-198.1 569.61,-141.3 158.96,56.8 384.16,155.4 543.12,99 158.96,-56.2 450.39,-138.3 649.09,-111.3 198.7,26.9 516.63,32.8 688.84,-5.3 172.2,-38.2 516.62,-60.4 794.81,0 278.17,60.4 1258.39,-207.1 1258.39,-207.1 0,0 -1019.96,-154.8 -1139.18,-239.3 -119.21,-84.4 -410.65,-182.9 -675.59,-126.6 -264.93,56.3 -662.33,14 -847.78,-112.6 -185.46,-126.7 -609.36,-126.7 -794.81,-98.6 -185.46,28.2 -331.18,138.6 -569.61,-15.1 -238.45,-153.8 -397.41,-210.1 -582.87,-210.1 -185.45,0 -635.84,-42.2 -814.67,-140.7 -178.83,-98.5 -457.02,-112.6 -735.2,-112.6 -278.18,0 -1006.76,-450.4 -1245.19,-394.1 -238.45,56.3 -543.12,-28.2 -755.07,-98.6 -211.96,-70.3 -914.03,-380 -1271.7,-394 -357.66,-14.1 -1324.6745,-211.2 -1510.128,-140.8 z"
         id="path78" />
    </clipPath>
    <clipPath
       clipPathUnits="userSpaceOnUse"
       id="clipPath86">
      <path
         d="M 28285.7,0 H 0.00390625 V 20000 H 28285.7 Z"
         id="path84" />
    </clipPath>
    <linearGradient
       x1="0"
       y1="0"
       x2="1"
       y2="0"
       gradientUnits="userSpaceOnUse"
       gradientTransform="matrix(0,-17466.4,-17466.4,0,5365.32,19966.5)"
       spreadMethod="pad"
       id="linearGradient94">
      <stop
         style="stop-opacity:1;stop-color:#8d3453"
         offset="0"
         id="stop88" />
      <stop
         style="stop-opacity:1;stop-color:#cc3c2d"
         offset="0.151723"
         id="stop90" />
      <stop
         style="stop-opacity:1;stop-color:#f6c77d"
         offset="1"
         id="stop92" />
    </linearGradient>
    <clipPath
       clipPathUnits="userSpaceOnUse"
       id="clipPath104">
      <path
         d="m 28181,13046.1 c 0,0 -858.1,-278.6 -1382.5,-151.9 -524.4,126.6 -834.2,35.2 -1167.9,-33 -333.7,-68.4 -858.1,-83.7 -1072.6,0 -214.5,83.6 -548.2,58.3 -1024.9,-169.7 -476.7,-227.9 -1430.1,-25.3 -1573.2,0 0,0 -333.7,430.6 -834.2,228 -500.5,-202.6 -649.5,-25.3 -1147.1,-25.3 -497.5,0 -974.2,-290.4 -1212.6,-309.8 -238.3,-19.5 -929.6,120.7 -1310.9,0 -381.4,-120.8 -762.8,-247.4 -1120.3,-222.1 -357.5,25.3 -762.7,-25.3 -1120.2,-151.9 0,0 524.3,0 572,-228 47.7,-227.9 309.9,-253.2 524.4,-253.2 214.5,0 452.8,202.6 595.9,0 143,-202.6 643.5,-303.9 762.7,-228 119.2,76 333.7,-101.1 572,-25.2 238.4,75.9 715.1,-215.9 1025,-19.3 309.8,196.5 1406.2,-69.4 1406.2,-69.4 0,0 -953.4,-38 -1334.7,-190 -381.4,-151.9 -1001.1,0 -1215.6,-202.6 -214.6,-202.6 -595.9,-177.3 -953.5,-227.9 0,0 524.4,-228 953.5,-202.6 429,25.3 1024.9,173.3 1430.1,-2 405.2,-175.3 834.2,23.4 1167.9,0 333.7,-23.4 667.4,130.7 1096.4,-73 429.1,-203.6 834.3,-416.1 1263.3,-360.5 429,55.6 953.4,179.7 1215.6,-9 262.2,-188.7 643.6,-290 1001.1,-138 357.5,151.9 929.6,-20.8 1072.6,-73.7 143,-53 1048.7,52.9 1334.8,0 286,-53 935.5,-15.3 935.5,-15.3 v 3153.4 z"
         id="path102" />
    </clipPath>
    <clipPath
       clipPathUnits="userSpaceOnUse"
       id="clipPath110">
      <path
         d="M 28285.7,0 H 0.00390625 V 20000 H 28285.7 Z"
         id="path108" />
    </clipPath>
    <linearGradient
       x1="0"
       y1="0"
       x2="1"
       y2="0"
       gradientUnits="userSpaceOnUse"
       gradientTransform="matrix(0,-17466.4,-17466.4,0,21927.2,19966.5)"
       spreadMethod="pad"
       id="linearGradient118">
      <stop
         style="stop-opacity:1;stop-color:#8d3453"
         offset="0"
         id="stop112" />
      <stop
         style="stop-opacity:1;stop-color:#cc3c2d"
         offset="0.151723"
         id="stop114" />
      <stop
         style="stop-opacity:1;stop-color:#f6c77d"
         offset="1"
         id="stop116" />
    </linearGradient>
    <clipPath
       clipPathUnits="userSpaceOnUse"
       id="clipPath128">
      <path
         d="m -81.8047,6765.3 c 0,0 732.8517,227.9 1025.9927,0 293.142,-228 537.412,-25.3 732.842,0 195.43,25.3 903.85,151.9 1270.28,101.3 l 219.85,177.3 c 0,0 -390.85,101.3 -610.71,151.9 -219.85,50.7 -439.7,152 -610.71,126.7 -170.99,-25.4 -488.56,-118.7 -757.27,4 -268.716,122.6 -488.572,233.7 -635.138,165.5 0,0 390.856,185 708.418,134.4 317.57,-50.7 659.57,-134.4 879.42,8.8 219.86,143.1 708.42,219.1 928.28,219.1 219.85,0 683.99,177.3 683.99,177.3 0,0 -378.64,202.6 -525.21,183.6 -146.57,-19 -329.78,38 -531.31,151.9 -201.54,114 -513,285 -677.89,247 C 1854.14,8576.1 1561,8804 1561,8804 c 0,0 934.38,-113.9 1264.16,0 329.79,114 586.28,152 824.46,114 238.18,-38 421.39,104.5 769.49,14.2 348.11,-90.2 622.92,94.3 916.06,30.5 293.14,-63.7 861.1,-177.7 1374.1,-177.7 0,0 -659.57,-76 -650.41,-170.9 9.16,-95 -265.66,-114 -448.87,-95 -183.21,19 -238.17,-19 -274.82,-76 0,0 201.54,-170.9 513,-170.9 311.46,0 494.67,-95 769.49,-171 274.82,-76 604.6,-94.9 769.5,-94.9 164.88,0 531.31,-38 531.31,-38 0,0 -641.25,-74.1 -842.78,-151 -201.53,-77 -641.24,-77 -806.14,-96 -164.88,-19 -567.95,-94.9 -769.49,-151.9 -201.53,-57 -384.74,-77.4 -384.74,-77.4 0,0 256.5,-131.6 567.96,-283.5 311.46,-152 531.31,-95 714.53,-95 183.21,0 567.95,57 879.41,-170.9 311.47,-228 384.75,-360 641.25,-284.5 256.49,75.5 476.35,189.5 751.17,132.5 274.82,-57 494.67,19 824.45,76 329.78,57 439.71,170.9 824.41,0 384.8,-171 1026,-38 1026,-38 0,0 -256.5,-284.9 -403,-303.9 -146.6,-19 238.1,-114 567.9,0 329.8,114 238.2,151.9 476.4,57 238.2,-95 787.8,132.9 952.7,38 164.9,-95 311.4,132.9 567.9,170.9 256.5,38 604.6,95 604.6,95 0,0 -751.1,114 -952.7,227.9 -201.5,114 -366.4,190 -531.3,114 -164.9,-76 -366.4,-95 -513,-38 -146.5,57 -366.4,114 -513,95 -146.5,-19 -476.3,-76 -586.2,0 -110,75.9 -769.5,207.5 -769.5,207.5 0,0 806.1,96.4 934.3,96.4 128.3,0 366.5,-76 659.6,19 293.2,94.9 586.3,208.9 696.2,208.9 109.9,0 201.6,227.9 513,95 311.5,-133 476.4,-243.6 641.3,-188.3 164.8,55.3 769.4,-36.4 1117.5,0 0,0 -476.3,245.3 -732.8,226.3 -256.5,-19 659.6,57 732.8,57 73.3,0 531.4,18.9 696.3,75.9 164.8,57 458,228 458,228 0,0 -274.8,0 -549.7,0 -274.8,0 -403,208.9 -586.2,208.9 0,0 348.1,-38 513,19 164.9,57 329.7,170.9 622.9,57 293.1,-114 586.3,-133 659.5,-76 73.3,57 36.7,208.9 421.4,133 384.8,-76 384.8,0 824.5,-38 439.7,-38 641.2,-284.9 952.7,-284.9 0,0 -403.1,-76 -677.9,-114 -274.8,-38 -494.7,-19 -586.3,-133 -91.6,-113.9 -311.4,-189.9 -458,-170.9 -146.6,19 -476.4,-95 -476.4,-95 l -403,-208.9 c 0,0 384.7,35.1 549.6,-115.4 164.9,-150.5 403.1,-131.6 641.3,-131.6 238.1,0 439.7,152 677.9,0 238.1,-151.9 659.5,-94.9 732.8,-75.9 73.3,19 421.4,-57 604.6,-95 183.2,-38 714.5,19 787.8,19 73.3,0 -677.9,-265.9 -897.7,-265.9 -219.9,0 -604.6,-19 -732.9,-133 -128.2,-114 -513,-133 -696.2,-133 0,0 183.2,-186.2 568,-207.1 0,0 -348.1,-96.8 -439.7,-191.7 -91.6,-95 -458.1,-38 -586.3,0 -128.3,38 -879.4,10 -952.7,-52 -73.3,-62 -458.1,5 -769.5,0 -311.5,-5 -659.6,85 -824.5,-26.5 -164.9,-111.5 -531.3,-130.5 -806.1,-130.5 -274.8,0 -842.8,-57 -1135.9,-151.9 0,0 604.6,-171 1007.7,-133 403,38 512.9,-11 861,-5.5 348.2,5.5 1245.9,-108.5 1703.9,-165.4 0,0 -403,-38 -458,-133 -55,-95 -458,-152 -604.6,-152 -146.6,0 -604.6,-113.9 -604.6,-113.9 0,0 989.3,38 1520.7,0 531.3,-38 476.3,189.9 916,189.9 439.7,0 622.9,0 879.4,19 256.5,19 366.5,-312.4 732.9,-213.2 366.4,99.2 824.4,91.5 1172.5,-18.6 348.1,-110.1 916.1,-22.8 1154.3,0 238.2,22.9 604.6,22.9 806.1,22.9 201.5,0 989.4,189.9 989.4,189.9 0,0 -311.5,-38 -513,76 -201.6,114 -806.2,114 -971.1,114 -164.8,0 -641.2,208.9 -769.4,208.9 0,0 531.3,114 641.2,152 109.9,37.9 329.8,132.9 513,132.9 183.2,0 421.4,-38 531.3,0 109.9,38 384.8,0 568,0 183.2,0 458,284.9 458,284.9 0,0 -421.4,57 -622.9,76 -201.6,19 -256.5,152 -513,114 0,0 348.1,151.9 494.7,151.9 146.5,0 439.7,38 641.2,76 201.5,38 311.5,95 458,-19 146.6,-113.9 458.1,-132.9 659.6,-113.9 201.5,18.9 732.8,56.9 806.1,75.9 73.3,19 677.9,-75.9 861.1,-75.9 0,0 -329.8,-171 -604.6,-285 -274.8,-113.9 -366.4,-170.9 -622.9,-189.9 -256.5,-19 -311.5,-38 -476.4,-19 -164.8,19 -403,-133 -403,-133 0,0 403,-151.9 604.6,-151.9 201.5,0 366.4,76 531.3,76 164.9,0 531.3,0 714.5,0 183.2,0 568,0 696.2,-57 128.3,-57 256.5,-57 439.7,-57 183.3,0 604.6,-190 604.6,-190 0,0 -128.2,-75.9 -403,-189.9 -274.8,-114 -384.8,-227.9 -641.3,-227.9 -256.5,0 -549.6,35.4 -769.5,-96.3 -219.8,-131.7 -604.6,-36.7 -861.1,-150.7 -256.5,-113.9 -769.5,-208.9 -769.5,-208.9 0,0 531.4,-303.9 806.2,-189.9 274.8,113.9 586.3,113.9 824.4,56.9 238.2,-56.9 384.8,-127.1 696.2,-82.5 311.5,44.6 586.3,291.5 806.2,177.5 219.8,-114 696.2,-191.6 696.2,-191.6 l 513,-264.3 V 2561.2 H -497.082 Z"
         id="path126" />
    </clipPath>
    <clipPath
       clipPathUnits="userSpaceOnUse"
       id="clipPath134">
      <path
         d="M 28285.7,0 H 0.00390625 V 20000 H 28285.7 Z"
         id="path132" />
    </clipPath>
    <linearGradient
       x1="0"
       y1="0"
       x2="1"
       y2="0"
       gradientUnits="userSpaceOnUse"
       gradientTransform="matrix(0,-17466.4,-17466.4,0,14071.4,19966.5)"
       spreadMethod="pad"
       id="linearGradient142">
      <stop
         style="stop-opacity:1;stop-color:#8d3453"
         offset="0"
         id="stop136" />
      <stop
         style="stop-opacity:1;stop-color:#cc3c2d"
         offset="0.151723"
         id="stop138" />
      <stop
         style="stop-opacity:1;stop-color:#f6c77d"
         offset="1"
         id="stop140" />
    </linearGradient>
    <clipPath
       clipPathUnits="userSpaceOnUse"
       id="clipPath152">
      <path
         d="m 28145.9,20194.9 c 0,0 -1191.1,-400.8 -1919,-218.7 -727.9,182.2 -1158.1,50.8 -1621.3,-47.4 -463.2,-98.3 -1191.1,-120.4 -1488.9,0 -297.7,120.3 -761,83.9 -1422.7,-244 -661.7,-328 -1985.2,-36.5 -2183.7,0 0,0 -463.2,619.4 -1158,327.9 -694.8,-291.5 -901.6,-36.5 -1592.3,-36.5 -690.7,0 -1352.4,-417.6 -1683.3,-445.6 -330.8,-28 -1290.3,173.7 -1819.7,0 -529.4,-173.8 -1058.8,-355.9 -1555.1,-319.5 -496.3,36.4 -1058.8,-36.4 -1555.1,-218.6 0,0 727.9,0 794.1,-327.9 66.2,-327.9 430.1,-364.4 727.9,-364.4 297.8,0 628.7,291.5 827.2,0 198.5,-291.4 893.3,-437.2 1058.7,-327.9 165.5,109.3 463.3,-145.4 794.1,-36.3 330.9,109.2 992.6,-310.5 1422.7,-27.8 430.2,282.7 1952.1,-99.7 1952.1,-99.7 0,0 -1323.4,-54.8 -1852.8,-273.4 -529.4,-218.6 -1389.6,0 -1687.4,-291.5 -297.8,-291.5 -827.2,-255 -1323.5,-327.9 0,0 727.9,-327.9 1323.5,-291.5 595.5,36.5 1422.7,249.4 1985.2,-2.8 562.4,-252.2 1158,33.6 1621.2,0 463.2,-33.6 926.4,188 1522,-105 595.5,-293 1158,-598.6 1753.6,-518.6 595.5,79.9 1323.4,258.5 1687.4,-13 363.9,-271.4 893.3,-417.2 1389.6,-198.6 496.3,218.6 1290.4,-29.8 1488.9,-106 198.5,-76.1 1455.8,76.2 1852.9,0 397,-76.1 1298.6,-22 1298.6,-22 v 4536.7 z"
         id="path150" />
    </clipPath>
    <clipPath
       clipPathUnits="userSpaceOnUse"
       id="clipPath158">
      <path
         d="M 28285.7,0 H 0.00390625 V 20000 H 28285.7 Z"
         id="path156" />
    </clipPath>
    <linearGradient
       x1="0"
       y1="0"
       x2="1"
       y2="0"
       gradientUnits="userSpaceOnUse"
       gradientTransform="matrix(0,-17466.4,17466.4,0,19464.8,19966.5)"
       spreadMethod="pad"
       id="linearGradient166">
      <stop
         style="stop-opacity:1;stop-color:#8d3453"
         offset="0"
         id="stop160" />
      <stop
         style="stop-opacity:1;stop-color:#cc3c2d"
         offset="0.151723"
         id="stop162" />
      <stop
         style="stop-opacity:1;stop-color:#f6c77d"
         offset="1"
         id="stop164" />
    </linearGradient>
  </defs>
  <sodipodi:namedview
     id="namedview4"
     pagecolor="#ffffff"
     bordercolor="#999999"
     borderopacity="1"
     inkscape:showpageshadow="0"
     inkscape:pageopacity="0"
     inkscape:pagecheckerboard="0"
     inkscape:deskcolor="#d1d1d1"
     showgrid="false"
     inkscape:zoom="2.8319997"
     inkscape:cx="187.50002"
     inkscape:cy="170.90397"
     inkscape:window-width="2494"
     inkscape:window-height="1371"
     inkscape:window-x="0"
     inkscape:window-y="0"
     inkscape:window-maximized="1"
     inkscape:current-layer="g10"
     inkscape:document-units="in">
    <inkscape:page
       x="0"
       y="0"
       id="page8"
       width="155"
       height="337"
       inkscape:export-filename="BroadcastAssetLeft.png"
       inkscape:export-xdpi="96"
       inkscape:export-ydpi="96" />
  </sodipodi:namedview>
  <g
     id="g10"
     inkscape:groupmode="layer"
     inkscape:label="Page 1"
     transform="matrix(1.3333333,0,0,-1.3333333,0,2666.6667)">
    <path
       id="path238"
       style="fill:#481629;fill-opacity:1;fill-rule:nonzero;stroke:none;stroke-width:0.0605804"
       d="m 0,2000.0001 v -252.75 l 116.25,0 v 252.75 z"
       sodipodi:nodetypes="ccccc" />
    <path
       d="m 77.639416,1789.3069 c 0,0.6119 -0.111554,1.1346 -0.189301,1.8241 -0.07774,0.6897 0.03309,1.19 -0.03316,1.7681 -0.06699,0.5787 -0.08925,1.6348 -2.202049,2.7693 -2.112809,1.1344 -2.624611,1.7125 -3.30274,2.1236 -0.678116,0.4117 -3.469722,0.9789 -4.225598,1.3677 -0.75655,0.3894 -0.634189,1.1346 -1.423853,1.0122 -0.78969,-0.1224 -1.133818,-0.4889 -1.512439,-0.6336 -0.377942,-0.1446 -0.422556,-0.1338 -0.722743,-0.046 -0.300188,0.089 -0.489489,0.3333 -0.733557,0.3555 -0.244754,0.022 -0.334001,0.2341 -0.278561,0.4566 0.05608,0.2224 0.856617,0.078 1.145992,0.5002 0.288681,0.4225 0.133187,0.8114 0.322488,1.223 0.188634,0.4118 0.155507,0.812 0.21094,1.4017 0.05542,0.5887 0.389442,2.5664 0.489489,3.0288 0.100067,0.4624 0.100067,1.7078 0.100067,2.0304 0,0.3224 -0.04459,0.6788 -0.189301,1.4015 -0.14468,0.7228 -0.85593,4.5928 -0.85593,5.0599 0,0.4672 0.02233,0.3334 0.467182,0.2001 0.444175,-0.1339 1.333932,-0.1115 1.601,0.046 0.267041,0.1556 0.511796,0.044 0.711923,0.1332 0.200128,0.089 0.177814,0.4671 0.64499,0.6672 0.467182,0.2001 1.156137,0.8228 2.023555,1.4679 0.867437,0.6449 2.135122,2.0904 2.246669,2.4245 0.110894,0.3333 -1.201412,1.4901 -1.201412,1.4901 0,0 0.689603,0.6004 0.578723,5.6934 0.467182,1.8679 0.733583,1.7348 0.711249,2.1797 -0.02233,0.4448 -0.845117,1.9573 -0.95599,2.4685 -0.111567,0.5118 -0.534116,3.0247 -1.245359,2.847 -0.06559,-0.047 -0.09061,-0.082 -0.09736,-0.1082 -0.05139,0.2258 -0.186613,0.8628 -0.466515,0.6862 -0.222441,-0.096 -0.266381,-0.074 -0.266381,-0.074 0,0 -0.489495,0.526 -0.644996,0.1555 -0.156181,-0.3705 -0.02972,-0.7119 -0.02972,-0.7119 0,0 -0.386059,0.3191 -0.489515,-0.1407 -0.104116,-0.4597 -0.118292,-1.5942 -0.13318,-1.9572 -0.01493,-0.3631 0.24406,-1.171 0.333321,-1.5713 0.08925,-0.401 0.214996,-0.8971 0.304243,-1.1791 0.08856,-0.2819 0.830242,-1.1792 0.852548,-1.5273 0.02239,-0.3483 -0.171043,-0.8823 -0.422561,-1.5347 -0.252166,-0.6525 -1.074989,-2.5057 -1.074989,-2.5057 0,0 -0.126423,0.378 -0.341426,0.1704 -0.214997,-0.2075 -1.082427,-1.1487 -1.237941,-1.2973 -0.155494,-0.1481 -0.385353,-0.1631 -0.363066,-0.3185 0.02239,-0.1562 0.103462,-0.2745 -0.05945,-0.3638 -0.162932,-0.089 -0.229866,-0.037 -0.229866,-0.311 0,-0.2744 0.148069,-0.3265 -0.05205,-0.3265 -0.200128,0 -0.296119,-0.01 -0.64499,0.089 -0.348197,0.097 -0.570631,0.075 -0.956004,0.03 -0.385379,-0.046 -0.496933,0.1406 -0.986428,0.3555 -0.488816,0.2151 -1.460375,0.5268 -2.045862,0.5268 -0.5855,0 -1.31975,0 -1.379253,-0.03 -0.05879,-0.03 -0.229859,-0.2149 -0.310988,-0.1555 -0.08177,0.059 -0.192696,0.2373 -0.437443,0.3631 -0.244742,0.1257 -0.12643,0.5706 -0.07438,0.5781 0.05205,0.01 0.363727,-0.046 0.719361,0.8301 0.355615,0.875 0.622683,1.1569 0.607807,1.5498 -0.01493,0.3927 -0.363072,0.5483 -0.511802,0.3927 -0.148069,-0.1555 -0.333321,-0.1703 -0.333321,-0.1703 0,0 0.437437,1.2602 0.548324,1.8754 0,0 0.682179,1.8424 0.114923,2.054 -0.566562,0.211 -0.893119,0.2076 -0.893119,0.2076 0,0 -0.289368,1.8308 -2.075613,1.7714 -0.986422,0.2082 -1.149361,0.43 -1.237934,0.4746 -0.08924,0.046 0,-0.2812 0.096,-0.4002 0.09668,-0.1184 -1.193307,0.2373 -1.430623,0.4523 -0.211608,0.1913 -0.116284,-0.4564 0.183911,-0.6897 -0.212302,0.1048 -0.657844,0.2671 -0.933023,-0.052 -0.370498,-0.4299 -0.785621,-0.645 -0.785621,-0.645 0,0 0.215003,-0.052 0.304243,-0.015 0.08856,0.038 -0.749112,-0.5335 -0.919488,-1.4529 0,0 0.125756,0.1562 0.21499,0.2225 0.08858,0.066 -0.222428,-0.6673 -0.21499,-0.9047 0.0075,-0.2366 0.03719,-0.793 0.03719,-0.8228 0,-0.029 0.120346,-0.5429 0.0811,-0.8655 -0.03851,-0.3224 0.0906,-0.5225 -0.118318,-0.3893 -0.209593,0.1339 -0.576708,0.2447 -0.599022,-0.094 -0.02233,-0.3395 0.167001,-0.8344 0.233935,-1.1346 0.06623,-0.3002 0.05542,-0.7343 0.06084,-0.9229 0.0053,-0.1892 0.306259,-0.6787 0.456356,-0.7011 0.150091,-0.022 -0.489495,-0.1609 -0.828894,-0.4164 -0.338724,-0.2563 -0.500308,-0.3395 -0.511128,-0.8006 -0.01149,-0.4617 -0.01698,-1.1736 -0.06691,-1.2514 -0.05,-0.077 -0.511808,-0.3894 -0.550338,-0.9506 -0.289375,-0.4395 -1.467813,-0.9012 -1.55706,-1.0676 -0.08924,-0.167 -0.189301,0.8506 -0.277868,1.1177 -0.08925,0.2671 -0.211621,0.1885 -0.211621,0.6334 0,0.445 -0.266381,0.6673 -0.377942,0.8567 -0.11088,0.1886 0.01149,0.5225 -0.589556,0.8119 -0.600369,0.2888 -1.495522,0.3612 -1.645613,0.4664 -0.150097,0.1062 -0.361712,0.073 -0.472592,0.3787 -0.111561,0.3057 -0.528032,1.023 -0.839713,0.8729 -0.311008,-0.15 -0.344809,-0.4003 -0.350219,-0.4341 -0.0059,-0.034 -0.08925,0.01 -0.07773,-0.1331 0.01083,-0.1393 0.350218,-0.6228 0.277867,-0.6228 -0.07236,0 -0.372524,0.067 -0.400241,0.073 -0.02768,0.01 -0.361712,0.15 -0.528032,0.2832 -0.166994,0.1338 -0.233928,0.1501 -0.328585,0.4563 -0.09398,0.3057 -0.522629,1.0115 -0.889064,0.7229 -0.300188,0.1276 -0.478682,0.3831 -0.672719,0.1608 -0.194718,-0.2225 -0.04465,-0.3894 -0.04465,-0.3894 0,0 -0.517219,0.1006 -0.494906,-0.2056 0.02233,-0.3056 0.833637,-0.4557 1.089871,-1.1399 0.255568,-0.6835 1.862651,-1.5509 1.884965,-1.5624 0.02233,-0.01 1.061461,-0.4003 1.317709,-0.6451 0.255567,-0.2446 1.067558,-0.4334 1.178438,-1.0113 0.111547,-0.5788 0.05,-0.979 -0.03851,-1.4016 -0.08924,-0.4226 -0.150091,-1.3401 -0.317092,-1.5179 -0.166987,-0.1779 -0.511796,-0.3894 -0.650406,-0.9566 -0.139271,-0.5673 -0.06156,-0.9505 -0.139271,-1.2177 -0.07773,-0.267 -0.233254,-0.3111 -0.283284,-0.528 -0.05007,-0.2169 0.02768,-0.2556 0.06623,-0.6119 0.03917,-0.3555 -0.138597,-1.0615 -0.222441,-1.5124 -0.08319,-0.4503 -0.122374,-0.8337 -0.07773,-1.3786 0.04465,-0.5449 0.167001,-1.2068 0.845123,-1.9404 0.678804,-0.7343 1.056745,-1.1845 1.262269,-1.3738 0.205544,-0.1886 0.556436,0.1169 0.556436,-0.2055 0,-0.3225 -0.01698,-0.3449 -0.01698,-0.6059 0,-0.2617 0.267061,-1.1452 0.472592,-1.5124 0.205544,-0.367 1.039841,-1.4515 1.178438,-1.6793 0.139284,-0.2279 0.17241,-0.2672 -0.09397,-0.5781 -0.267068,-0.3118 -0.884341,-0.4504 -0.956678,-0.6004 -0.07236,-0.1501 0.555742,-0.7511 0.86743,-0.8174 0.311675,-0.066 0.672713,-0.1224 0.539526,-0.3564 -0.133867,-0.2331 -0.02768,-0.4671 -0.139284,-0.5003 -0.11088,-0.034 -0.06691,0.046 -0.628086,-0.2501 -0.561832,-0.2947 -1.106774,-0.4557 -1.284582,-0.8782 -0.177814,-0.4226 -0.329939,-0.7194 -0.759939,-1.0527 -0.429993,-0.3341 -1.793682,-1.1197 -2.364981,-1.5198 -0.570631,-0.4004 -2.298054,-1.1345 -2.498181,-1.624 -0.200121,-0.4888 -0.155507,-0.5037 -0.222434,-0.8526 -0.06691,-0.3482 -0.200128,-0.6227 -0.392817,-0.8377 -0.192683,-0.2151 -0.356296,-0.2076 -0.474614,-0.4821 -0.118318,-0.2738 -0.726812,-0.7485 -1.015506,-1.3487 -0.289361,-0.6004 -0.467182,-1.1344 -0.801164,-1.9574 -0.333321,-0.8228 -0.622689,-1.6679 -0.95601,-2.3352 -0.333988,-0.6673 -1.156798,-1.6902 -1.423179,-2.4468 -0.267061,-0.7559 -0.467189,-1.1785 -0.467189,-1.3122 0,-0.1333 0.155507,-0.5782 0.555762,-0.8007 0.400249,-0.2224 1.334606,-0.8004 1.779481,-1.0228 0.444869,-0.2224 0.622683,-0.2003 0.622683,-0.2003 0,0 0.17782,-2.6913 0.17782,-3.0024 0,-0.3117 -0.467182,-1.6239 -0.467182,-1.8241 0,-0.2002 0.400242,0.046 0.156181,-0.5111 -0.244754,-0.5564 -0.444875,-0.6674 -0.556436,-1.1569 -0.11088,-0.4894 -0.912057,-0.8227 -1.089871,-1.0006 -0.177814,-0.1778 -0.400241,-0.2447 -0.333308,-0.6004 0.06623,-0.3563 -0.118992,-0.5935 0.14807,-0.6152 0.267048,-0.022 0.341419,-0.022 0.452299,0 0,0 0.437431,-0.046 0.496927,0.028 0,0 0.503697,-0.1109 0.645003,0 0,0 0.86743,-0.1777 1.015499,0.06 0,0 1.104747,-0.2672 1.697679,0.1041 0.592931,0.3705 0.355628,0.8674 0.355628,0.8674 0,0 -0.133187,1.0601 -0.133187,1.3265 0,0.267 0.03719,1.0237 0.1778,1.2238 0.140632,0.2001 0.185252,0.4591 0.126437,0.7856 -0.05952,0.3259 -0.04465,1.5644 0.125755,2.1053 0.170377,0.5416 0.370497,0.9047 0.370497,0.9047 0,0 1.37924,-0.5781 1.49012,-0.5267 0.111554,0.052 0.274492,0.4598 0.444875,0.8451 0.170376,0.386 0.452307,1.0601 0.615238,1.4165 0.163626,0.3555 0.229879,0.8301 0.474627,1.127 0.244741,0.2961 0.415117,0.4591 0.563186,0.6964 0.148744,0.2373 0.05952,1.1194 0.133868,1.2453 0.0737,0.1264 0.02233,-0.089 0.526011,-0.1703 0.504358,-0.082 0.904606,0.089 0.993853,0.3117 0.08857,0.2223 -0.185252,0.5259 0.0811,0.6747 0.267061,0.1481 1.438742,0.9857 1.876173,1.1858 0.437437,0.2002 1.148686,1.2231 1.69024,1.0378 0.54088,-0.1851 0.592938,0.4896 0.903939,0.3564 0.311688,-0.1339 0.311688,-0.2225 0.586181,0.1257 0.273825,0.3481 1.445492,0.6078 1.56381,0.6599 0.118992,0.052 0.133868,0.2298 0.726812,0.148 0.592932,-0.082 1.052676,-0.215 1.475237,-0.1331 0.422569,0.081 0.800497,0.1257 1.022931,0.075 0.222441,-0.052 0.534116,-0.06 0.593619,-0.3787 0.05879,-0.3185 0.26638,-0.9412 0.473946,-1.0155 0.207565,-0.075 0.786301,-0.089 0.874874,-0.089 0.08923,0 -0.140638,0.8011 -0.140638,0.8011 0,0 0.140638,-0.045 0.748439,-0.3266 0.6085,-0.2812 1.438742,-0.4895 2.283865,-0.912 0.845117,-0.4226 4.155282,-1.6679 4.911165,-1.7457 0.75655,-0.078 1.379226,0.2117 1.379226,-0.211 0,-0.4225 0.01083,-0.9452 -0.111554,-1.3014 -0.122374,-0.3557 0.133867,-1.0229 0.03382,-1.1561 -0.100067,-0.1339 -0.534109,-0.5226 -0.489502,-1.1901 0.04459,-0.6672 0.01083,-1.6461 -0.133181,-2.1466 -0.144687,-0.5002 0.277882,0.056 -0.03382,-0.5556 -0.311001,-0.612 -0.77819,-1.7904 -1.056064,-2.4468 -0.277874,-0.6558 -0.711923,-1.835 0.377942,-1.9904 1.089858,-0.1555 2.457616,-0.067 3.191853,0.055 0.733556,0.1225 1.912675,-0.077 2.523857,-0.055 0.611883,0.022 2.880192,0.078 3.247307,0.034 0.367115,-0.044 1.456986,-0.1332 1.367739,0.2224 -0.08856,0.3562 -0.433375,0.7673 -0.80049,0.7897 -0.367128,0.022 -0.144694,0.2224 -0.589569,0.2116 -0.444869,-0.012 -0.978304,0.055 -1.523233,0.3224 -0.544942,0.2664 -1.757181,0.956 -2.312936,1.2901 -0.556436,0.3333 -0.967491,0.3556 -0.967491,0.8336 0,0.4787 -0.03382,0.8005 -0.03382,0.8005 0,0 5.304655,-0.1555 7.028035,1.5462 0.57873,1.3008 -0.144,2.7463 -0.21096,5.0261 -0.06691,2.2798 -0.255548,2.5469 -0.255548,3.158"
       style="fill:#370f1f;fill-opacity:1;fill-rule:nonzero;stroke:none;stroke-width:0.00676095"
       id="path20" />
    <path
       d="m 47.952988,1878.836 c 0.0075,-0.018 0.0142,-0.034 0.02147,-0.052 0.243704,0.058 0.434788,-0.202 0.548806,-0.3276 -0.0085,-0.202 0.129799,-0.242 0.248289,-0.095 0.16529,0.027 0.400657,0.2454 0.523249,0.3321 0.05139,0.01 0.129786,0.013 0.179677,0.013 0.0214,-0.06 0.03567,-0.059 0.06985,-0.1106 0.02715,-0.04 0.02147,-0.1485 0.07413,-0.1907 -0.02695,-0.065 -0.0086,-0.066 -0.01268,-0.1177 -0.161055,-0.2864 0.145428,-0.2979 0.319384,-0.3127 0.07413,0.1542 0.471885,0.01 0.594589,0.01 0.0075,-0.016 0.01433,-0.036 0.0214,-0.052 0.01995,0.01 0.05271,0.01 0.07421,0.01 0.0214,-0.067 0.0727,-0.1028 0.142574,-0.095 0.0059,-0.018 0.01295,-0.034 0.02001,-0.052 0.02986,-0.026 0.06005,-0.04 0.09554,-0.086 0.02437,0.01 0.04994,0.01 0.07555,0.01 0.07983,-0.2888 0.591735,-0.1952 0.807141,-0.2021 0.0059,-0.018 0.01275,-0.036 0.02147,-0.052 0.0613,0.011 0.151128,0.018 0.219502,0.01 0.004,-0.01 0.0059,-0.016 0.0075,-0.024 l 0.04703,-0.1895 c 0.101369,0.1324 0.04142,0.1929 -0.05416,0.2134 -0.05985,0.2078 -0.39357,0.2443 -0.563193,0.3573 -0.189717,0.1255 -0.387883,0.3241 -0.513434,0.5218 -0.135493,0.2168 -0.142574,0.5478 -0.439128,0.4748 -0.108324,-0.026 -0.152614,-0.105 -0.273839,-0.082 -0.08836,0.016 -0.232415,0.1713 -0.285259,0.2363 -0.309343,0.3768 -0.513196,0.9281 -0.734303,1.3561 -0.102511,0.1975 -0.191084,0.4064 -0.309343,0.5947 -0.116891,0.1872 -0.399291,0.3779 -0.440727,0.5902 0.01295,-0.5182 0.243823,-1.0422 0.08549,-1.5524 -0.08127,-0.2649 -0.218128,-0.4178 -0.453271,-0.5331 -0.172589,-0.086 -0.466403,-0.1724 -0.429306,-0.3973 0.09692,-0.058 0.159688,-0.2066 0.312309,-0.1849 z m 1.899417,-15.4156 c 0.104097,0.2955 0.112657,0.4349 0.382044,0.6187 0.208325,0.1426 0.393583,0.3219 0.675982,0.2752 0.111184,-0.019 0.19954,-0.1189 0.295076,-0.1326 0.107075,-0.016 0.176928,0.07 0.26391,-0.01 0.20524,0.2009 0.24953,0.5308 0.44905,0.7534 0.214012,0.2374 0.432272,0.1701 0.700291,0.1403 0.152501,-0.016 0.280919,-0.046 0.430567,-0.046 0.152608,0 0.199645,0.062 0.33091,0.097 0.248044,0.067 0.481946,0.063 0.620285,0.331 0.12682,0.25 0.08135,0.5798 0.144047,0.8573 0.06407,0.291 0.146794,0.4543 0.390723,0.6518 0.199533,0.1598 0.400539,0.2922 0.642988,0.4029 0.02437,0.011 0.04987,0.022 0.07555,0.036 -0.09417,0.2146 -0.143941,0.484 -0.115524,0.7169 0.0087,0.07 0.02292,0.1428 0.04426,0.2135 -0.131166,0.042 -0.596082,-0.1633 -0.645961,-0.2421 -0.231041,-0.011 -0.46481,0.046 -0.714453,0.01 -0.166875,-0.03 -0.387876,-0.1164 -0.583175,-0.092 -0.004,-0.022 -0.01572,-0.04 -0.03428,-0.052 -0.123953,0.038 -0.32371,-0.1986 -0.427813,-0.2694 -0.108338,-0.074 -0.229562,-0.1061 -0.335026,-0.1462 -0.122598,-0.046 -0.219627,-0.053 -0.345191,-0.1072 -0.126806,-0.052 -0.253738,-0.1563 -0.37919,-0.2123 -0.128418,-0.055 -0.290953,-0.1541 -0.429306,-0.1918 -0.13538,-0.038 -0.265165,-0.05 -0.412066,-0.1153 -0.270978,-0.1198 -0.437767,-0.1734 -0.725867,-0.1883 -0.193819,-0.1963 -0.190959,-0.5147 -0.190959,-0.7876 0,-0.3676 -0.02002,-0.7226 -0.04855,-1.0832 -0.02708,-0.3597 -0.0469,-0.7089 -0.09281,-1.0583 -0.04274,-0.3287 -0.20238,-0.6928 -0.193819,-1.0261 0.119738,0.1198 0.172476,0.4965 0.228174,0.6598 z m -23.421556,22.4242 c 0.08984,0.3595 0.269617,0.6107 0.463443,0.9155 0.211053,0.3299 0.218246,0.7454 0.309449,1.1198 0.0984,0.4075 0.248156,0.7716 0.523368,1.1003 0.239596,0.29 0.625986,0.4156 0.948223,0.6061 0.336617,0.1999 0.637399,0.4921 0.951195,0.7158 0.253744,0.1814 0.644467,0.3585 0.936808,0.3926 0.46343,0.052 0.848446,0.1119 1.229129,0.4075 0.01579,-0.01 0.03283,-0.019 0.05139,-0.025 0.117003,0.066 0.270991,0.083 0.387882,0.1382 0.195418,0.089 0.362188,0.2078 0.571761,0.2864 0.379421,0.1405 0.778593,0.4361 1.03235,0.7717 0.213907,0.2809 0.239596,1.0079 0.67883,0.9896 0.09988,-0.01 0.203985,-0.067 0.330798,-0.052 0.02992,0.01 0.06282,0.01 0.09554,0.013 -0.01704,0.4406 -0.250891,0.8767 -0.42634,1.242 -0.208206,0.4302 -0.369269,0.8697 -0.467777,1.3229 -0.04842,0.2214 -0.08686,0.4704 -0.05833,0.7054 0.02133,0.193 0.185271,0.4327 0.141093,0.6405 0.02437,0.028 0.0286,0.052 0.04855,0.096 0.05991,0.038 0.101362,0.2421 0.09268,0.3323 0.124085,0.095 0.156842,0.4291 0.229549,0.5821 0.06851,0.145 0.266651,0.3448 0.246795,0.5113 0.02569,0.028 0.02854,0.052 0.04855,0.096 0.07395,0.059 0.108317,0.2477 0.155355,0.3539 0.08277,0.1815 0.21962,0.307 0.332277,0.4589 0.185378,0.2522 0.403512,0.4931 0.558986,0.7556 0.155348,0.06 0.293694,0.2214 0.429187,0.3093 0.156835,0.1005 0.329318,0.1713 0.474851,0.3082 0.04987,-0.022 0.366534,0.1347 0.473484,0.1644 0.09554,0.026 0.315057,0.1689 0.394838,0.1119 0.01863,0.022 0.03435,0.044 0.04564,0.071 0.101243,0.01 0.241075,0.01 0.356593,-0.016 0.05846,-0.01 0.08846,-0.039 0.142573,-0.05 0.02134,-0.01 0.04842,0.01 0.06977,0 0.04003,-0.012 0.105582,-0.04 0.145532,-0.049 0.132639,-0.034 0.607497,-0.218 0.70006,-0.09 0.135611,0.01 0.228181,0.084 0.36802,0.092 0.149641,0.01 0.255231,-0.048 0.38205,-0.094 0.0075,-0.02 0.01711,-0.038 0.0286,-0.052 0.03124,-0.034 0.0727,-0.05 0.119732,-0.042 h 0.002 c 0.01559,-0.01 0.03263,-0.013 0.04987,-0.02 0.372122,-0.1551 0.866948,-0.4703 1.000961,-0.5307 0.266764,-0.1165 0.511948,-0.064 0.795721,-0.105 0.203866,-0.03 0.440608,-0.1267 0.627352,-0.2387 0.412073,-0.2464 0.706005,-0.6346 0.868435,-1.0706 0.08709,-0.2318 0.13972,-0.4293 0.188224,-0.6758 0.03996,-0.1952 0.258091,-0.5799 0.192571,-0.743 -0.02702,0.05 -0.04564,0.052 -0.06993,0.1026 -0.121231,0.022 -0.133894,0.1861 -0.256604,0.1873 -0.0086,0.021 -0.01579,0.039 -0.01982,0.056 -0.0059,-0.021 -0.002,-0.038 0.0085,-0.056 0.004,0 0.0075,0 0.01143,0 0.0912,-0.201 0.406477,-0.5697 0.278066,-0.7193 -0.24097,0.2969 -0.419154,0.6188 -0.839899,0.6679 0.08126,-0.1724 0.109804,-0.3516 0.175443,-0.5296 0.111177,-0.3038 0.61605,-0.8128 0.366527,-1.081 -0.05852,-0.2581 -0.305235,-0.3071 -0.509094,-0.4132 0.133887,-0.161 0.287987,-0.3048 0.450536,-0.4305 0.218134,-0.1688 0.452029,-0.3571 0.596075,-0.5957 0.0613,-0.1016 0.279434,-0.5935 -0.01427,-0.5525 0.004,-0.047 -0.02854,-0.073 -0.03428,-0.105 -0.112657,-0.01 -0.195299,-0.1324 -0.303742,-0.1382 0.06566,-0.2522 0.125446,-0.5 0.235256,-0.7385 -0.0099,-0.022 -0.02272,-0.028 -0.03977,-0.019 -0.03276,-0.1347 -0.174076,-0.1678 -0.194051,-0.3105 -0.0142,-0.1118 0.151247,-0.3242 0.0033,-0.4018 -0.01143,-0.154 -0.305235,-0.3629 -0.413671,-0.4794 -0.193819,-0.2088 -0.35066,-0.4246 -0.52611,-0.6563 -0.106956,-0.1392 -0.190965,-0.2718 -0.272358,-0.4122 0.195417,-0.034 0.376468,-0.019 0.596075,-0.047 0.536157,-0.063 1.068086,-0.4383 1.568507,-0.6529 0.225328,-0.097 0.375088,-0.1849 0.617537,-0.2134 0.16963,-0.019 0.333652,-0.079 0.486272,-0.1199 0.353627,-0.097 0.772767,-0.2215 1.082222,-0.4041 0.313802,-0.1848 0.564686,-0.5308 0.821403,-0.7876 0.252384,-0.2523 0.499047,-0.5206 0.758631,-0.7568 0.707247,-0.6472 1.360407,-1.3949 2.138887,-1.9736 0.517668,-0.3847 1.019681,-0.7796 1.557192,-1.1392 0.39507,-0.2637 0.829858,-0.5719 1.156435,-0.9165 0.690132,-0.7249 1.433114,-1.3641 2.064807,-2.1427 0.578954,-0.7122 1.377535,-1.2441 1.876595,-2.0146 0.412066,-0.6324 0.730082,-1.3105 1.163609,-1.9165 0.185377,-0.2581 0.333651,-0.5663 0.403405,-0.8893 0.02008,-0.089 0.04994,-0.4051 0.04142,-0.6746 0.11129,0 0.222467,0.01 0.329417,0.01 0.443462,0.013 0.871189,0.096 1.330392,0.096 1.090915,0 2.117664,-0.4293 3.182658,-0.5731 0.221107,-0.03 0.53627,-0.026 0.762964,0 0.191085,0.023 0.369262,0.1187 0.558986,0.1552 0.389349,0.077 0.909857,-0.07 1.344758,-0.012 0.390618,0.051 0.872662,0.1061 1.280507,0.05 0.447689,-0.061 0.888297,-0.2089 1.343285,-0.3459 0.481932,-0.1449 0.903926,-0.2717 1.41304,-0.2717 0.449162,0 0.89411,-0.05 1.320457,-0.048 0.450653,0.01 0.849931,-0.094 1.294766,-0.095 0.106957,0 0.218253,0.01 0.32235,0.01 0.0185,0.01 0.06708,0.042 0.106844,0.042 0.04558,0 0.04558,-0.05 0.09132,-0.055 0.223947,-0.02 0.406478,-0.057 0.631693,-0.104 0.449169,-0.092 0.852673,-0.1312 1.318964,-0.1312 0.460688,0 0.837045,-0.071 1.270604,-0.1895 0.426321,-0.1165 0.749998,-0.2853 1.200613,-0.2853 0.457703,0 0.781407,0.3276 1.199305,0.4177 0.181031,0.038 0.420593,-0.012 0.605998,-0.036 0.23955,-0.028 0.46775,-0.05 0.7144,-0.05 0.35222,0 0.79284,0.052 1.09369,0 0.31938,-0.055 0.50482,-0.3218 0.5804,-0.6073 0.0456,-0.1689 0.0513,-0.3971 0.0741,-0.5798 0.008,-0.054 0.006,-0.1073 0.008,-0.1621 0.12828,-0.026 0.25527,-0.095 0.38066,-0.1267 0.36798,-0.091 0.77719,0.013 1.1465,-0.1302 0.18968,-0.072 0.3066,-0.071 0.48482,0.026 0.13689,0.076 0.24823,0.2065 0.41504,0.2042 0.37213,-0.01 0.68589,-0.4097 0.96249,-0.014 0.0956,0.137 0.1668,0.2945 0.37079,0.2523 0.20529,-0.042 0.18252,-0.217 0.39069,-0.06 0.16391,0.1221 0.1269,0.2636 0.18821,0.4291 0.10835,0.2922 0.14117,0.1109 0.35926,0.113 0.0573,0.01 0.17117,0.077 0.24817,0.086 0.0899,0.011 0.17683,0.01 0.24957,-0.032 0.17533,-0.1016 0.11401,-0.2911 0.17684,-0.4407 0.0969,-0.2283 0.54041,-0.6906 0.14399,-0.8789 -0.0315,-0.032 -0.0671,-0.071 -0.0955,-0.093 -0.0469,-0.12 -0.1413,-0.419 -0.23815,-0.4784 -0.0214,-0.1095 -0.1725,-0.2681 -0.2838,-0.2831 -0.004,-0.022 -0.0157,-0.04 -0.0357,-0.053 -0.013,0.013 -0.03,0.019 -0.0484,0.019 -0.11549,-0.186 -0.50475,-0.4371 -0.67879,-0.5364 -0.0242,-0.1074 -0.14544,-0.2124 -0.1895,-0.2854 -0.0115,-0.056 -0.0215,-0.067 -0.0458,-0.094 -0.0398,-0.1108 -0.16392,-0.2671 -0.23949,-0.3344 0,-0.1143 -0.11986,-0.2707 -0.18969,-0.3324 -0.0428,-0.2682 -0.48054,-0.6071 -0.66456,-0.7612 -0.22378,-0.1861 -0.34787,-0.3402 -0.65447,-0.242 -0.008,0.016 -0.0143,0.036 -0.0214,0.052 -0.0257,0 -0.0499,-0.01 -0.0741,-0.01 -0.008,0.018 -0.0143,0.036 -0.0215,0.052 -0.23088,0.1255 -0.42056,0.3069 -0.62023,0.5091 -0.0827,0.084 -0.14696,0.2168 -0.23673,0.2979 -0.0785,0.072 -0.17825,0.094 -0.23528,0.1918 -0.251,0.1175 -0.56183,0.093 -0.85704,0.092 -0.16114,0 -0.31939,0.01 -0.46194,0.034 -0.0285,0.01 -0.0585,0.01 -0.0899,0.01 -0.002,-0.067 -0.002,-0.1359 -0.008,-0.2101 -0.0172,-0.234 -0.006,-0.3938 0,-0.6186 0.004,-0.1988 0.0199,-0.4168 -0.009,-0.6119 -0.1241,0.01 -0.26663,0.1484 -0.38217,0.2191 -0.19531,0.1233 -0.39777,0.1725 -0.60748,0.2032 -0.19673,0.026 -0.32368,-0.044 -0.48623,-0.084 -0.19388,-0.047 -0.41071,0.013 -0.60891,-0.01 -0.409147,-0.047 -0.892632,-0.091 -1.328979,-0.05 -0.412138,0.038 -0.819924,0.2248 -1.236355,0.2751 -0.412046,0.048 -0.789968,-0.036 -1.187759,-0.086 -0.171122,-0.022 -0.329325,-0.1085 -0.486278,-0.1313 -0.213914,-0.032 -0.452023,-0.024 -0.66445,-0.048 -0.420745,-0.048 -0.851312,0.021 -1.272058,-0.01 -0.538885,-0.04 -1.079375,-0.061 -1.61553,0.01 -0.245303,0.029 -0.479079,-0.052 -0.725861,-0.05 -0.233763,0 -0.467664,0 -0.701546,0 -0.450655,0 -0.924033,-0.042 -1.381756,-0.096 -0.905544,-0.1072 -1.856614,-0.2682 -2.806322,-0.1883 -0.925387,0.079 -1.823837,0.3504 -2.750711,0.4748 -0.394838,0.052 -0.835558,-0.01 -1.189191,-0.095 -0.189711,-0.044 -0.37783,-0.048 -0.56184,-0.088 -0.134118,-0.1599 -0.25089,-0.3231 -0.374975,-0.4943 -0.203979,-0.2832 -0.387982,-0.5457 -0.643213,-0.7877 -0.248044,-0.2362 -0.450536,-0.5033 -0.594596,-0.8285 -0.181143,-0.4053 -0.372122,-0.8597 -0.618785,-1.2261 -0.174069,-0.258 -0.385135,-0.6883 -0.674622,-0.8424 -0.171103,-0.091 -0.336392,-0.04 -0.517536,-0.06 -0.03276,-0.1414 -0.06707,-0.282 -0.102735,-0.428 -0.08261,-0.3401 -0.305123,-0.6758 -0.427708,-0.9977 -0.174082,-0.4576 -0.584661,-0.6221 -1.045251,-0.6174 -0.427826,0.01 -0.668782,-0.2957 -0.820029,-0.6667 -0.162436,-0.3939 -0.42486,-0.7397 -0.547459,-1.1518 -0.108436,-0.3663 -0.114136,-0.7911 -0.308081,-1.1197 -0.09554,-0.161 -0.248044,-0.2934 -0.356361,-0.4474 -0.11563,-0.1609 -0.191085,-0.3517 -0.306609,-0.5137 -0.236854,-0.3299 -0.530549,-0.637 -0.834198,-0.9018 -0.591841,-0.5159 -1.149327,-1.0754 -1.830911,-1.4634 -0.326571,-0.1838 -0.661715,-0.3573 -0.985432,-0.5331 -0.404997,-0.2191 -0.754403,-0.5523 -1.14216,-0.8218 -0.346552,-0.2409 -0.691618,-0.5274 -1.092276,-0.6883 -0.462063,-0.1872 -1.058145,-0.022 -1.522955,0.037 -0.188231,0.025 -0.374976,0.053 -0.569026,0.048 -0.20386,-0.01 -0.379302,-0.095 -0.570275,-0.095 -0.295306,0 -0.738649,0.3242 -0.949708,0.5216 -0.666055,0.6232 -1.256304,1.3183 -1.628539,2.1768 -0.162542,0.3756 -0.410585,0.7272 -0.594595,1.0947 -0.181038,0.3653 -0.367902,0.7145 -0.544711,1.0923 -0.109804,0.2341 -0.260938,0.4657 -0.360814,0.7146 -0.08835,0.2227 -0.132533,0.4589 -0.210947,0.6838 -0.142693,0.4052 -0.213913,0.7933 -0.310942,1.1883 -0.07555,0.3093 -0.178184,0.5639 -0.329318,0.8561 -0.203978,0.3914 -0.183891,0.654 -0.166882,1.0821 0.01863,0.4531 -0.273832,0.7739 -0.419259,1.1963 0.002,0.034 -0.141081,-0.3495 -0.139713,-0.3894 -0.161175,0.1428 -0.315163,0.1815 -0.523369,0.2409 -0.355,0.1004 -0.665823,0.027 -1.008154,-0.061 -0.320751,-0.082 -0.553265,-0.1278 -0.808496,-0.3548 -0.10833,-0.097 -0.222362,-0.1919 -0.310829,-0.3106 -0.09702,-0.1301 -0.124078,-0.2705 -0.201125,-0.3961 -0.288001,0.2523 -0.493347,0.7865 -0.665936,1.1232 -0.16529,0.3208 -0.290854,0.6335 -0.380676,0.9965 -0.175337,0.7123 -0.131166,1.5787 0.09416,2.2602 0.06559,0.052 0.152614,0.2431 0.213794,0.4348 -0.07404,-0.06 -0.149635,-0.1209 -0.222355,-0.1803 -0.471997,-0.3869 -0.919799,-0.7316 -1.452977,-1.017 -0.255349,-0.1371 -0.489237,-0.2284 -0.738761,-0.3642 -0.239602,-0.1278 -0.447801,-0.29 -0.67735,-0.427 -0.228188,-0.1358 -0.4163,-0.267 -0.648814,-0.4098 -0.178296,-0.1083 -0.40077,-0.2955 -0.598936,-0.3276 -0.05423,-0.08 -0.168249,-0.1117 -0.249411,-0.1551 -0.05139,0.01 -0.05866,0.01 -0.108555,-0.038 -0.0085,0.012 -0.01982,0.018 -0.03263,0.018 -0.01143,-0.024 -0.0257,-0.044 -0.04564,-0.063 -0.01724,0 -0.03283,0.01 -0.04432,0.016 -0.05852,-0.04 -0.146795,-0.091 -0.213801,-0.07 -0.118477,-0.1119 -0.32235,-0.1256 -0.453621,-0.1804 -0.190966,-0.08 -0.389118,-0.1277 -0.610225,-0.1632 -0.138346,-0.022 -0.286627,-0.032 -0.416293,-0.08 -0.111303,-0.042 -0.216767,-0.1187 -0.329556,-0.1484 -0.153975,-0.1918 -0.38353,-0.3412 -0.568907,-0.5148 -0.10695,-0.1028 -0.335025,-0.4509 -0.491854,-0.4166 -0.0059,0.075 -0.06851,0.1141 -0.08847,0.1826 -0.02702,0.01 -0.02847,0.022 -0.05417,0.031 -0.0059,0.1244 -0.213913,0.2604 -0.295194,0.3493 -0.114136,0.1302 -0.171215,0.2489 -0.256717,0.3848 -0.0727,0.1175 -0.144046,0.1929 -0.205345,0.3116 -0.03851,0.074 -0.114032,0.3607 -0.169736,0.379 -0.01427,0.071 -0.01427,0.1574 -0.0033,0.2294 0.432054,0.1654 0.82575,0.4166 1.242036,0.6221 0.238116,0.1175 0.490493,0.217 0.711606,0.3551 0.18948,0.1197 0.402131,0.2487 0.606004,0.3401 0.282399,0.1267 0.54049,0.2704 0.812849,0.4086 0.290841,0.1484 0.613197,0.2683 0.908378,0.411 0.513328,0.2488 0.980979,0.6198 1.491454,0.8915 0.50624,0.2659 0.979612,0.6118 1.494532,0.872 0.159576,0.08 0.305109,0.1997 0.46195,0.2785 0.118371,0.057 0.235262,0.095 0.357854,0.1678 0.05707,0.034 0.112657,0.073 0.16391,0.1154 0.01143,0.01 0.02292,0.018 0.03435,0.032 -0.0257,0.05 -0.05423,0.098 -0.08135,0.1483 -0.07975,0.1439 -0.158202,0.2866 -0.198152,0.4509 -0.03996,0.161 -0.05846,0.25 -0.17967,0.3436 -0.115524,0.087 -0.260938,0.1004 -0.39073,0.1633 -0.279427,0.1358 -0.560465,0.3321 -0.811356,0.4896 -0.256724,0.161 -0.497567,0.3836 -0.675864,0.6073 -0.169742,0.2113 -0.293813,0.371 -0.510474,0.5342 -0.215274,0.161 -0.439234,0.3128 -0.630319,0.5102 -0.178296,0.1862 -0.238109,0.3711 -0.283766,0.6198 -0.02285,0.1199 -0.03712,0.2512 -0.03712,0.3905 0,0.1291 0.07002,0.2956 0.04432,0.4064 0.09406,0.048 0.04842,0.2705 -0.01004,0.4623 -0.0428,-0.013 -0.08413,-0.028 -0.129785,-0.034 -0.102729,-0.1005 -0.461957,-0.4567 -0.617425,-0.4281 -0.07001,-0.056 -0.145539,-0.13 -0.238115,-0.1415 -0.004,-0.022 -0.01433,-0.04 -0.03283,-0.052 -0.06269,-0.012 -0.122479,-0.057 -0.203859,-0.042 -0.0613,-0.048 -0.04703,-0.062 -0.131166,-0.036 -0.03276,-0.064 -0.08697,-0.1041 -0.152608,-0.1051 -0.05846,-0.05 -0.03996,-0.044 -0.0984,-0.05 -0.05139,-0.041 -0.0257,-0.04 -0.09406,-0.048 -0.302381,-0.3265 -0.626098,-0.2717 -1.035317,-0.2911 -0.0067,0.019 -0.01295,0.036 -0.01982,0.052 -0.174075,-0.013 -0.348045,0.2055 -0.477711,0.2843 -0.109817,0.067 -0.306602,0.1758 -0.452023,0.1391 -0.0075,0.018 -0.01427,0.034 -0.02147,0.053 -0.450655,0.044 -0.621652,0.4726 -0.665935,0.9018 -0.08277,0.038 -0.182524,0.3608 -0.216767,0.46 -0.05707,0.161 -0.06985,0.3174 -0.139713,0.4612 -0.158328,0.3254 -0.193938,0.5912 -0.248163,0.9588 -0.04855,0.3323 -0.185377,0.6472 -0.192452,1.0411 -0.0067,0.3549 -0.04703,0.7192 -0.04703,1.0935 0,0.7761 -0.151247,1.4907 -0.235375,2.2361 -0.07975,0.6964 -0.0099,1.5045 -0.0984,2.1848 -0.04842,0.3642 -0.08972,0.7797 0,1.1403"
       style="fill:#370f1f;fill-opacity:1;fill-rule:nonzero;stroke:none;stroke-width:0.0114147"
       id="path349" />
    <path
       d="m 44.994526,1948.0767 c -0.0085,0.01 -0.0185,0.01 -0.02867,0.01 0.0059,-0.028 0.01579,-0.031 0.02867,-0.01 z m -11.242371,12.7479 c 0.151016,0.088 0.270985,0.2615 0.280913,0.4394 0.0085,0.1553 -0.08412,0.2421 -0.14976,0.3744 -0.0428,0.088 -0.07409,0.1747 -0.118364,0.2615 -0.03996,0.079 -0.04267,0.1211 -0.04122,0.2135 0,0.083 -0.03435,0.137 -0.04142,0.2145 -0.01579,0.1575 0.06837,0.2934 0.112663,0.4406 0.01143,0.022 0.03851,0.042 0.067,0.048 0.01143,-0.062 -0.01143,-0.1347 0.02134,-0.1952 0.02134,-0.041 0.08002,-0.07 0.108324,-0.113 0.06004,0.042 0.06849,0.1484 0.08858,0.2216 0.03983,0.1381 0.151015,0.2237 0.213794,0.3481 0.0059,0 0.01143,0 0.0185,0 0.02292,-0.028 0.03574,-0.046 0.05853,-0.076 0.148161,0.014 0.165395,0.3402 0.206719,0.4532 0.03283,0.089 0.101243,0.1802 0.168256,0.2488 0.02854,0.031 0.07408,0.099 0.119738,0.099 0.02854,0 0.05423,-0.059 0.09851,-0.06 0.118258,0.1883 0.2751,0.3858 0.424853,0.5537 0.111185,0.1256 0.223848,0.275 0.356487,0.3743 -0.01704,-0.098 -0.17533,-0.2305 -0.08698,-0.315 0.06566,0.028 0.278066,0.1255 0.328056,0.089 0.0541,0.063 0.179558,0.06 0.255238,0.1028 0.0855,0.048 0.165395,0.1163 0.256604,0.1506 0.08698,0.034 0.162661,0.052 0.243935,0.083 0.04987,0.019 0.118252,0.071 0.171103,0.052 0.162549,0.1655 0.493347,-0.034 0.653147,-0.082 0.153869,-0.047 0.286508,-0.137 0.457618,-0.1312 0.129792,0.01 0.252383,0.016 0.382169,0.037 0.232402,0.036 0.521994,0.081 0.778487,0.018 0.06004,-0.015 0.119969,-0.038 0.171221,-0.047 0.03422,-0.01 0.08698,-0.016 0.119739,-0.028 0.01143,-0.022 0.02721,-0.039 0.04564,-0.053 0.01863,0.01 0.03574,0.01 0.05423,0 0.09269,-0.048 0.162436,-0.063 0.257979,-0.1153 0.07419,-0.042 0.121337,-0.063 0.206832,-0.088 0.0033,-0.011 0.0046,-0.022 0.0085,-0.033 0.0356,0.018 0.146907,-0.026 0.185371,-0.038 0.06414,-0.018 0.205352,-0.042 0.240962,-0.089 -0.06539,-0.046 -0.131152,-0.1268 -0.21676,-0.1746 -0.05271,-0.028 -0.139601,-0.024 -0.162548,-0.082 0.104215,-0.028 0.238109,-0.049 0.32943,-0.1073 -0.103991,-0.071 -0.306483,-0.068 -0.406365,-0.1654 -0.05284,-0.052 -0.07134,-0.1782 0.02134,-0.1953 0.05562,-0.065 0.159807,-0.086 0.218134,-0.1563 0.06414,0.025 0.181156,-0.014 0.243935,-0.04 0.06269,-0.027 0.156954,-0.038 0.165403,-0.1221 0.101361,-0.016 0.232514,-0.2202 0.262417,-0.3013 0.04267,-0.031 0.05985,-0.091 0.09406,-0.1417 0.03996,-0.058 0.102504,-0.1129 0.132639,-0.1769 0.0541,-0.1141 -0.0144,-0.2693 0.05833,-0.3709 0.03574,-0.016 0.08139,-0.081 0.09429,-0.1255 0.04135,-0.012 0.05423,-0.042 0.08402,-0.063 0.01863,-0.034 0.02721,-0.059 0.0356,-0.096 0.0046,-0.01 0.03283,-0.061 0.03712,-0.069 0.0059,-0.057 0.03574,-0.1119 0.03283,-0.1689 0.08263,-0.032 0.251009,-0.1381 0.303748,-0.2157 0.01427,0.01 0.02854,0.011 0.0428,0.01 0.01427,-0.044 0.08835,-0.06 0.123965,-0.08 0.0572,-0.028 0.08984,-0.057 0.13686,-0.1073 0.03996,-0.042 0.08561,-0.097 0.129898,-0.1462 0.03415,-0.02 0.02992,-0.01 0.04842,-0.05 0.08275,0 0.139826,-0.177 0.165515,-0.2361 0.0185,-0.048 0.09691,-0.1862 0.132526,-0.2113 -0.004,-0.072 0.0541,-0.1519 0.08263,-0.2226 0.0013,-0.01 0.0013,-0.01 0.0033,-0.01 0.225215,0.2238 0.461957,0.443 0.668789,0.677 0.536151,0.6061 1.199232,1.2545 1.974978,1.5616 0.446203,0.1745 0.986693,0.2247 1.401731,0.4588 0.481926,0.2705 0.767073,0.6301 1.076522,1.0822 0.258084,0.3755 0.547683,0.7613 0.881335,1.0706 0.235255,0.218 0.511835,0.2626 0.812723,0.3414 0.650188,0.17 1.283367,0.356 1.85376,0.719 0.427707,0.2707 0.878356,0.4669 1.276272,0.7762 0.296562,0.2318 0.534671,0.4955 0.765706,0.7889 0.195411,0.2499 0.286494,0.582 0.461957,0.8503 0.36218,0.5502 1.105163,0.661 1.621463,1.041 0.879724,0.6461 0.989534,1.9576 1.942103,2.5422 0.272344,0.1666 0.576079,0.2807 0.87846,0.3984 0.116772,0.1323 0.238003,0.2498 0.357748,0.3972 0.191197,0.2328 0.349406,0.4895 0.500534,0.7337 0.173956,0.2833 0.390716,0.7821 0.653147,0.3106 0.08549,-0.1529 0.184003,-0.2841 0.293708,-0.4063 -0.03283,-0.044 -0.06414,-0.09 -0.09692,-0.1369 0.06123,0.036 0.119731,0.058 0.169742,0.058 -0.0257,0.025 -0.04994,0.052 -0.07279,0.079 0.162661,0.2248 0.318017,0.4007 0.570394,0.5741 0.275311,0.1895 0.429306,0.5102 0.573247,0.8071 0.0856,0.1791 0.07707,0.3047 0.07992,0.4725 0.0059,0.2443 -0.06708,0.4955 -0.04558,0.7284 0.02147,0.2475 0.162535,0.3628 0.380781,0.4634 0.202387,0.092 0.343593,0.2042 0.526104,0.3355 0.216766,0.1564 0.275212,0.044 0.520402,0.01 0.185483,-0.027 0.383649,0.024 0.570499,0 0.152628,-0.02 0.30935,-0.076 0.382176,-0.2351 0.03996,-0.087 -0.03428,-0.1963 0.0912,-0.2454 0.05271,-0.019 0.169742,0.052 0.239477,0.052 0.50488,-0.01 0.162674,-0.5992 0.520522,-0.7146 0.211178,-0.068 0.302374,0.1404 0.51344,-0.057 0.08414,-0.08 0.236735,-0.2637 0.105576,-0.3401 -0.02147,-0.121 -0.08277,-0.3059 -0.142673,-0.3813 -0.0075,-0.2923 -0.356486,-0.5798 -0.556138,-0.7637 -0.122698,-0.1118 -0.519036,-0.4257 -0.667303,-0.315 -0.08847,-0.1302 -0.299521,-0.091 -0.429306,-0.2112 -0.01143,0.015 -0.02721,0.021 -0.04558,0.019 -0.08686,-0.1277 -0.359347,-0.2293 -0.489013,-0.3481 -0.08412,-0.3217 -0.28662,-0.8046 -0.519135,-1.0706 -0.122598,-0.1382 -0.303636,-0.274 -0.479085,-0.3779 -0.02847,0.015 -0.05555,0.03 -0.08126,0.047 0.0026,-0.026 0.0026,-0.058 0.0013,-0.093 0.02576,0.014 0.05291,0.03 0.07992,0.046 0,0 0.0013,0 0.0013,0 0.151128,-0.076 0.289355,-0.1792 0.417654,-0.2864 0.171215,-0.1462 0.21962,-0.2009 0.118497,-0.4087 -0.117011,0.036 -0.330805,-0.1553 -0.433541,-0.2238 -0.10547,-0.07 -0.226694,-0.1529 -0.340838,-0.2362 -0.06559,-0.046 -0.129679,-0.097 -0.193944,-0.1496 -0.01,-0.028 -0.01988,-0.057 -0.02986,-0.086 -0.216774,-0.6004 -0.563319,-1.178 -0.857027,-1.7464 -0.48752,-0.9486 -1.227649,-1.7728 -2.041978,-2.4393 -0.373601,-0.3037 -0.757138,-0.5867 -1.106542,-0.9235 -0.345072,-0.331 -0.655875,-0.4874 -1.095129,-0.6427 -0.457717,-0.1621 -0.697193,-0.4702 -0.958263,-0.8401 -0.185377,-0.2625 -0.317897,-0.541 -0.513322,-0.799 -0.17247,-0.2271 -0.337984,-0.4566 -0.531922,-0.6654 -0.531923,-0.572 -1.286089,-0.8437 -1.809464,-1.4246 -0.228174,-0.2546 -0.457723,-0.492 -0.71444,-0.7204 -0.260944,-0.2292 -0.591742,-0.4336 -0.894116,-0.663 0.0059,-0.01 0.01004,-0.013 0.01579,-0.022 0.262305,-0.3551 0.53615,-0.4647 0.901191,-0.2148 0.259571,0.1747 0.49482,0.4464 0.799942,0.2135 0.25957,-0.1964 0.357973,-0.3207 0.711593,-0.3196 0.141087,0 0.288113,-0.012 0.427813,0 0.158222,0.016 0.231041,0.016 0.380689,0 0.387989,-0.046 0.633179,-0.105 0.961117,-0.3538 0.01136,-0.01 0.0214,-0.017 0.03276,-0.024 0.08277,0.05 0.176823,0.087 0.252503,0.1301 0.162429,0.092 0.236609,0.194 0.356486,0.3344 0.219502,0.2569 0.577468,0.6689 0.916827,0.6758 0.155342,0.01 0.32223,0.015 0.477585,0 0.142686,-0.013 0.276686,-0.071 0.425085,-0.047 0.373601,0.053 0.600302,0.6869 0.774259,0.9872 0.220994,0.3802 0.376461,0.7797 0.520521,1.1997 0.121218,0.3527 0.313558,0.717 0.654515,0.9041 0.182418,0.1006 0.404879,0.1632 0.570274,0.3036 0.191091,0.1643 0.342219,0.4201 0.46345,0.6359 0.235243,0.4234 0.452009,0.8675 0.641726,1.3012 0.05417,0.1255 0.155349,0.4897 0.369269,0.4235 0.18401,-0.057 0.132632,-0.3778 0.151134,-0.5171 0.03567,-0.2604 0.11563,-0.5593 0.232508,-0.8527 0.165409,0.3345 0.393583,0.638 0.660241,0.8459 0.255231,0.1986 0.600297,0.274 0.845593,0.4862 0.166776,0.1426 0.192465,0.3173 0.24805,0.5228 0.05853,0.2157 0.134013,0.3619 0.275318,0.5102 0.2622,0.2739 0.59311,0.4464 0.818332,0.7591 0.238228,0.3356 0.400876,0.7088 0.62759,1.0456 0.145408,0.2158 0.248038,0.4692 0.41492,0.6666 0.186857,0.2192 0.429306,0.3448 0.671636,0.4875 0.101249,0.059 0.208212,0.1162 0.319383,0.1711 0.0257,0.3105 0.131166,0.6175 0.28378,0.8721 0.09131,0.153 0.231028,0.2546 0.296555,0.4179 0.0727,0.1826 0.09703,0.3812 0.144053,0.5706 0.08549,0.3437 0.347919,0.4932 0.60463,0.7249 0.307975,0.2763 0.479078,0.6028 0.685924,0.9383 0.233881,0.379 0.564686,0.6188 0.861234,0.9383 0.225327,0.242 0.449169,0.5502 0.661714,0.8185 0.249531,0.3138 0.370636,0.6974 0.654409,1.001 0.335145,0.3572 0.701553,0.6381 1.03531,0.9977 0.292327,0.3127 0.520522,0.6643 0.760005,1.0113 0.205339,0.2944 0.466283,0.855 0.85702,0.4588 0.08411,-0.084 0.156835,-0.1586 0.236735,-0.2237 h 0.0013 c 0.306609,0.2831 0.586148,0.5811 0.877002,0.8789 0.281025,0.2889 0.457848,0.6381 0.688757,0.9635 0.240963,0.3413 0.595957,0.5947 0.834311,0.9383 0.233776,0.3379 0.109684,0.7191 0.259418,1.0696 0.114012,0.2671 0.268013,0.1574 0.48762,0.2351 0.131133,0.047 0.286666,0.2204 0.390782,0.3083 0.161097,0.138 0.253797,0.3195 0.427727,0.4324 0.13983,0.089 0.24811,0.1725 0.37933,0.2832 0.23958,0.2054 0.47763,0.4407 0.71302,0.6404 0.14968,0.1267 0.3122,0.2648 0.51327,0.2751 0.23676,0.011 0.24247,-0.1141 0.34372,-0.2981 0.10121,-0.1802 0.26378,-0.2989 0.35649,-0.4747 0.0898,-0.1678 0.0484,-0.3607 0.0969,-0.5478 0.0827,-0.3209 0.43634,-0.5685 0.43919,-0.9156 10e-4,-0.1655 -0.13546,-0.2659 -0.14398,-0.4246 -0.008,-0.1256 0.18398,-0.3196 0.0455,-0.4029 0.0229,-0.1679 -0.16528,-0.3915 -0.31791,-0.4156 -0.0129,-0.024 -0.0285,-0.047 -0.047,-0.068 -0.0613,0.046 -0.23811,-0.022 -0.30941,-0.016 -0.0527,0.01 -0.13403,0.04 -0.1911,0.058 -0.16538,0.057 -0.27089,0.1371 -0.45347,0.1565 -0.0456,0.01 -0.10122,0.01 -0.16392,0.01 -0.0558,-0.1381 -0.12979,-0.2637 -0.22533,-0.3653 -0.17252,-0.1849 -0.3266,-0.3971 -0.52331,-0.5639 -0.18107,-0.153 -0.42494,-0.2522 -0.61034,-0.4201 -0.21536,0.082 -0.675922,-0.323 -0.781465,-0.4908 -0.112585,-0.179 -0.205366,-0.3698 -0.285101,-0.5627 -0.04842,-0.1199 -0.112664,-0.5136 -0.179723,-0.5537 0.03428,-0.4589 -0.383556,-1.1014 -0.650333,-1.4507 -0.09542,-0.1245 -0.210941,-0.2168 -0.333526,-0.3071 0.03276,-0.178 0.139713,-0.3823 0.236616,-0.5 0.18687,-0.2316 0.288007,-0.4975 0.453509,-0.7466 0.202446,-0.3058 0.357933,-0.6482 0.547478,-0.9598 0.08423,-0.1416 0.223967,-0.2842 0.235381,-0.4601 0.363634,-0.1619 -0.817102,-1.0239 -0.914012,-1.122 -0.252496,-0.2558 -0.452009,-0.5719 -0.665936,-0.8596 -0.176928,-0.2397 -0.387869,-0.428 -0.573246,-0.6529 -0.370755,-0.4519 -0.712954,-0.6906 -1.272058,-0.8686 -0.566054,-0.1816 -1.042272,-0.4395 -1.279008,-0.9851 -0.172476,-0.3973 -0.330811,-0.8048 -0.680216,-1.0832 -0.151121,-0.12 -0.339352,-0.1976 -0.463444,-0.3448 -0.126918,-0.1508 -0.216773,-0.3539 -0.337991,-0.516 -0.372115,-0.5067 -0.594582,-1.0478 -0.91968,-1.5752 -0.228174,-0.3686 -0.342212,-0.7602 -0.544823,-1.138 -0.333658,-0.6187 -0.598817,-1.2933 -1.143521,-1.7602 -0.38925,-0.3333 -0.675877,-0.7842 -0.901205,-1.2351 -0.171109,-0.3401 -0.164028,-0.7522 -0.239595,-1.1014 -0.08424,-0.3916 -0.198153,-0.8208 -0.499054,-1.1211 -0.134125,-0.1346 -0.305109,-0.2339 -0.405004,-0.3915 -0.118358,-0.186 -0.185364,-0.4018 -0.258071,-0.6061 -0.175443,-0.4942 -0.146907,-0.8754 -0.131285,-1.3915 0.01156,-0.3835 -0.02418,-0.848 -0.200999,-1.1871 -0.09554,-0.1826 -0.238228,-0.3344 -0.333652,-0.5136 -0.0013,-0.01 -0.0026,-0.01 -0.004,-0.01 0.0075,-0.013 0.01295,-0.028 0.01856,-0.042 0.211053,-0.5045 0.382155,-1.0753 0.460583,-1.6173 0.05126,-0.3551 0.11267,-0.7729 0.06269,-1.1335 -0.0471,-0.3391 -0.229661,-0.6598 -0.242442,-1.0125 -0.01579,-0.4829 0.266638,-0.9464 0.28946,-1.4201 0.0086,-0.1472 -0.03276,-0.3731 -0.04835,-0.5261 -0.01301,-0.1359 -0.04994,-0.3037 -0.107069,-0.4282 -0.10261,-0.2283 -0.270978,-0.4097 -0.357854,-0.6539 -0.17395,-0.4853 -0.127031,-0.9852 -0.0613,-1.4851 0.03283,-0.241 0.06691,-0.4703 0.03844,-0.7215 -0.0185,-0.1633 -0.03977,-0.3151 -0.09544,-0.4645 -0.05139,-0.1359 -0.176803,-0.2455 -0.216872,-0.3825 -0.148162,-0.4999 0.04994,-0.9451 0.166888,-1.4223 0.164147,-0.6676 0.144159,-1.3822 0.0013,-2.0625 -0.07555,-0.3607 -0.236735,-0.6792 -0.333664,-1.0285 -0.09416,-0.3402 -0.124072,-0.702 -0.166882,-1.049 -0.04274,-0.347 0.06414,-0.6141 0.14544,-0.9383 0.09132,-0.3709 0.109909,-0.7774 0.08261,-1.162 -0.02847,-0.3996 -0.185265,-0.7717 -0.19086,-1.178 -0.0059,-0.4864 0.12534,-0.895 0.202393,-1.3687 0.04835,-0.3059 0.21106,-0.5262 0.275206,-0.8173 0.03996,-0.1827 0.01,-0.452 -0.01143,-0.6392 -0.0026,-0.028 -0.02286,-0.1232 -0.05271,-0.2317 0.02708,-0.086 0.05139,-0.17 0.0727,-0.2544 0.16813,-0.6383 0.01559,-1.314 0.08126,-1.9761 0.03428,-0.332 0.233881,-0.6815 0.345065,-0.9952 0.126925,-0.3619 0.25101,-0.7112 0.336499,-1.0868 0.05139,-0.2237 0.175555,-0.4851 0.178177,-0.7145 0.0026,-0.218 -0.03976,-0.2923 -0.240963,-0.3264 -0.376336,-0.066 -0.834191,0.044 -1.233363,-0.038 -0.429312,-0.091 -0.837045,-0.2512 -1.25483,-0.3561 -0.265272,-0.069 -0.527696,-0.1314 -0.78864,-0.2021 0,-0.039 -0.002,-0.077 -0.0026,-0.1165 -0.0142,-0.477 -0.05271,-0.9566 -0.175324,-1.4211 -0.169736,-0.6494 -0.298041,-1.2681 -0.298041,-1.9428 0,-0.6734 0.08698,-1.3115 0.191084,-1.9645 0.06985,-0.4371 0.149767,-0.8925 0.141094,-1.3287 -0.004,-0.2374 -0.01704,-0.3653 -0.188244,-0.5227 -0.173837,-0.1576 -0.402137,-0.2375 -0.630318,-0.2968 -0.237997,-0.064 -0.469039,-0.026 -0.701553,0 -0.218141,0.024 -0.444829,0.01 -0.665817,0.01 -0.424972,0.01 -0.859867,-0.06 -1.283472,-0.047 -0.434789,0.015 -0.841154,-0.1267 -1.246257,-0.2717 -0.33217,-0.1198 -0.627358,-0.3287 -0.988065,-0.3481 -0.350886,-0.021 -0.744344,0.1427 -1.093749,0.013 -0.29382,-0.1083 -0.493466,-0.3115 -0.841385,-0.3457 -0.179663,-0.019 -0.372228,-0.028 -0.53329,-0.05 -0.163916,-0.019 -0.3622,0.021 -0.278066,0.2339 0.1412,-0.01 0.236742,0.1964 0.33091,0.265 0.121231,0.089 0.374982,0.1859 0.52611,0.095 0.268125,0.194 0.553278,0.3012 0.78568,0.5627 0.116991,0.1312 0.223954,0.2522 0.343699,0.3767 0.141193,0.1462 0.275199,0.2351 0.427701,0.3709 0.305221,0.2694 0.621764,0.4874 0.948334,0.6998 0.357965,0.2341 0.69161,0.5307 1.046611,0.7385 0.443468,0.2603 0.737282,0.6335 0.892749,1.1267 0.149529,0.4782 0.01136,0.8891 0.01136,1.3834 0,0.5593 0.08561,1.0776 0.1541,1.6254 0.02272,0.1895 0.05271,0.3779 0.08261,0.5674 -0.02708,-0.01 -0.05416,-0.011 -0.07975,-0.011 -0.128438,0 -0.212546,0.072 -0.339478,0.057 -0.02986,0.088 0.02292,0.1884 0.03996,0.2727 0.03006,0.1381 0.03864,0.2911 0.04842,0.4316 0.02015,0.3001 -0.0013,0.6084 0,0.9074 0.0013,0.4875 -0.09131,0.9555 -0.142699,1.4235 -0.09553,0.848 -0.463311,1.7214 -0.477585,2.591 -0.0026,0.1405 0.06414,0.3893 0.106969,0.5297 0.05991,0.194 0.152608,0.4053 0.263792,0.5754 0.0613,0.095 0.195299,0.146 0.260938,0.2305 0.161062,0.2065 0.03996,0.4326 -0.01143,0.6347 -0.114018,0.4474 -0.09267,0.719 0.09408,1.1425 0.218253,0.4921 -0.02695,0.6358 -0.250898,1.0446 -0.18823,0.3424 -0.357959,0.7499 -0.307969,1.1413 0.02563,0.201 0.07832,0.4543 0.03719,0.6668 -0.02999,0.1598 -0.142685,0.3698 -0.223966,0.5227 -0.126925,0.2385 -0.20238,0.4075 -0.16677,0.6667 0.03276,0.2442 0.148281,0.4702 0.235262,0.6951 0.101243,0.2557 0.0356,0.5204 0.05846,0.7865 0.01275,0.1472 0.05258,0.2785 0.04835,0.428 -0.0026,0.1679 -0.05555,0.3242 -0.04987,0.4931 0.03712,0.01 0.02999,-0.01 0.04987,-0.028 l 0.112777,0.06 c -0.116991,0.2284 -0.199633,0.4692 -0.255337,0.7214 -0.136866,0.6267 -0.28228,1.3174 -0.712967,1.7956 -0.360818,0.4018 -0.51332,0.9531 -0.653033,1.4645 -0.07127,0.2603 -0.178303,0.5172 -0.309456,0.7579 -0.09988,0.1862 -0.352259,0.411 -0.367901,0.6187 l -0.03712,0.014 c -0.0685,-0.1642 -0.116885,-0.3355 -0.151128,-0.4896 -0.06707,-0.2911 -0.05139,-0.5959 -0.04987,-0.9006 0.0026,-0.3368 -0.07841,-0.6837 -0.07421,-1.0285 0.0086,-0.6175 0.327945,-1.243 0.538991,-1.8023 0.208206,-0.548 0.412191,-1.1827 0.336637,-1.7751 -0.126938,0.013 -0.286752,-0.04 -0.420758,-0.055 -0.151128,-0.018 -0.256711,-0.055 -0.390717,-0.1313 -0.265271,-0.1494 -0.453403,-0.4406 -0.750063,-0.5297 -0.24097,0.2466 -0.0469,0.8311 -0.0469,1.1575 0,0.3551 0.03567,0.6758 0,1.0263 -0.06546,0.6562 -0.286502,1.2864 -0.285253,1.9473 0,0.2876 -0.04703,0.5342 -0.0013,0.8035 0.05416,0.3209 0.193819,0.605 0.2736,0.903 0.07707,0.2876 0.171116,0.5742 0.269631,0.8641 -0.323723,-0.1678 -0.805655,-0.3379 -1.163615,-0.3744 -0.306602,-0.032 -0.630332,-0.044 -0.918326,-0.05 -0.454869,-0.01 -0.902552,0.1701 -1.350466,0.2193 -1.046611,0.1175 -2.069027,0.5775 -3.132767,0.5832 -0.288,0.01 -0.597449,-0.032 -0.901197,-0.086 0.260944,-0.1107 0.539003,-0.1747 0.849826,-0.2066 0.362194,-0.036 0.785674,-0.03 1.018195,-0.3607 0.272352,-0.3893 0.296555,-1.1129 0.07123,-1.5296 -0.139601,-0.2579 -0.38639,-0.3996 -0.681578,-0.3801 -0.111177,0.01 -0.209573,0.084 -0.322349,0.089 -0.152389,0.01 -0.268019,-0.062 -0.393359,-0.1314 -0.252489,-0.1426 -0.368007,-0.1528 -0.559091,0.086 -0.189598,0.2351 -0.239595,0.2009 -0.282399,-0.098 -0.03283,-0.2292 -0.0046,-0.5433 -0.105471,-0.7522 -0.223847,-0.064 -0.553159,0.1177 -0.751549,0.193 -0.146788,0.056 -0.228062,0.1004 -0.380676,0.052 -0.118371,-0.038 -0.206839,-0.136 -0.330798,-0.1702 -0.262431,-0.071 -0.577475,0.01 -0.725868,0.2499 -0.179663,0.2922 -0.02992,0.5492 0.01427,0.8562 0.04426,0.3093 -0.108443,0.2934 -0.297922,0.4634 -0.219627,0.1964 -0.231035,0.4669 -0.382281,0.7124 -0.09406,0.154 -0.17533,0.1986 -0.322237,0.2967 -0.178184,0.1188 -0.310823,0.1325 -0.489126,0.1963 -0.149648,-0.089 -0.303741,-0.1723 -0.461957,-0.2316 -0.213906,-0.082 -0.449169,-0.1142 -0.675976,-0.1656 -0.239595,-0.055 -0.432047,-0.1404 -0.64162,-0.2614 -0.367901,-0.2089 -0.618792,-0.6529 -1.058033,-0.2968 -0.266757,0.2169 -0.409331,0.5308 -0.626098,0.79 -0.206719,0.2476 -0.40077,0.4737 -0.657262,0.6712 -0.272465,0.21 -0.514914,0.3903 -0.757257,0.6381 -0.293695,0.3001 -0.487633,0.6334 -0.704399,0.9884 -0.2824,0.4624 -0.39221,0.8995 -0.390724,1.4304 0,0.2807 -0.03422,0.5558 -0.01143,0.8252 0.01856,0.2237 0.02147,0.46 0,0.6814 -0.03574,0.3812 -0.118371,0.7351 -0.134125,1.1312 0.04578,0.024 0.05707,0.062 0.08709,0.1154 0.04842,0.087 0.101249,0.1369 0.155474,0.2259 0.0855,0.1347 0.165283,0.3323 0.189591,0.4897 0.04129,0.2614 -0.17681,0.605 0.0911,0.782 0.206832,0.1369 0.514914,0.1427 0.751655,0.2397 0.07682,0.031 0.16677,0.071 0.252378,0.1277 -0.05132,0.037 -0.102617,0.072 -0.153982,0.1085 -0.246789,0.1769 -0.456362,0.3824 -0.675982,0.5902 -0.266645,0.2546 -0.614571,0.4496 -0.961004,0.5685 -0.11563,0.038 -0.198278,0.038 -0.298154,-0.022 -0.07123,-0.044 -0.128187,-0.1164 -0.201012,-0.1565 -0.153988,-0.083 -0.342325,-0.071 -0.490493,0.013 -0.312309,0.1804 -0.668789,0.3436 -0.939662,0.5901 -0.206839,0.1884 -0.32521,0.4567 -0.530555,0.6336 -0.164035,0.1392 -0.396437,0.1848 -0.554639,0.3298 -0.142574,0.1313 -0.269506,0.2855 -0.356599,0.4612 -0.108324,0.2191 -0.161175,0.4795 -0.283655,0.6895 -0.112782,0.194 -0.35934,0.2294 -0.477823,0.4234 -0.07122,0.1199 -0.148169,0.387 -0.142567,0.524 0.0072,0.1644 0.148274,0.201 0.268124,0.2694"
       style="fill:#370f1f;fill-opacity:1;fill-rule:nonzero;stroke:none;stroke-width:0.0114147"
       id="path463" />
  </g>
</svg>
