<?xml version="1.0" encoding="UTF-8" standalone="no"?>
<!-- Created with Inkscape (http://www.inkscape.org/) -->

<svg
   version="1.1"
   id="svg2"
   width="155"
   height="337"
   viewBox="0 0 155 336.99999"
   sodipodi:docname="BroadcastAssetRight.svg"
   inkscape:version="1.2.2 (b0a8486541, 2022-12-01)"
   xmlns:inkscape="http://www.inkscape.org/namespaces/inkscape"
   xmlns:sodipodi="http://sodipodi.sourceforge.net/DTD/sodipodi-0.dtd"
   xmlns="http://www.w3.org/2000/svg"
   xmlns:svg="http://www.w3.org/2000/svg">
  <defs
     id="defs6">
    <clipPath
       clipPathUnits="userSpaceOnUse"
       id="clipPath20">
      <path
         d="M 0,2394 H 28286 V 20000 H 0 Z"
         id="path18" />
    </clipPath>
    <linearGradient
       x1="0"
       y1="0"
       x2="1"
       y2="0"
       gradientUnits="userSpaceOnUse"
       gradientTransform="matrix(0,-17403.7,-17403.7,0,14142.9,19697.7)"
       spreadMethod="pad"
       id="linearGradient28">
      <stop
         style="stop-opacity:1;stop-color:#481629"
         offset="0"
         id="stop22" />
      <stop
         style="stop-opacity:1;stop-color:#cc3c2d"
         offset="0.417241"
         id="stop24" />
      <stop
         style="stop-opacity:1;stop-color:#f6ae5a"
         offset="1"
         id="stop26" />
    </linearGradient>
    <clipPath
       clipPathUnits="userSpaceOnUse"
       id="clipPath38">
      <path
         d="m 23386.3,13478.7 c 0,2280.3 -1848.6,4128.9 -4128.9,4128.9 -2280.4,0 -4129,-1848.6 -4129,-4128.9 0,-2280.4 1848.6,-4129 4129,-4129 2280.3,0 4128.9,1848.6 4128.9,4129 z"
         id="path36" />
    </clipPath>
    <linearGradient
       x1="0"
       y1="0"
       x2="1"
       y2="0"
       gradientUnits="userSpaceOnUse"
       gradientTransform="matrix(0,-8479.71,-8479.71,0,19257.3,17607.6)"
       spreadMethod="pad"
       id="linearGradient46">
      <stop
         style="stop-opacity:1;stop-color:#f57572"
         offset="0"
         id="stop40" />
      <stop
         style="stop-opacity:1;stop-color:#f8a26c"
         offset="0.417241"
         id="stop42" />
      <stop
         style="stop-opacity:1;stop-color:#fcdf81"
         offset="1"
         id="stop44" />
    </linearGradient>
    <clipPath
       clipPathUnits="userSpaceOnUse"
       id="clipPath56">
      <path
         d="m -32.6875,14924 c 0,0 711.1285,-28.8 1299.6475,-288.8 588.52,-259.9 760.17,-288.8 1029.91,-231 269.73,57.7 171.65,404.3 -564,519.8 0,0 274.38,86.7 701.19,0 426.8,-86.6 966.28,-361.9 1309.58,-253.1 343.31,108.7 662.08,22.1 956.34,-151.2 0,0 73.57,389 662.09,151.2 588.51,-237.8 956.34,-461.1 1299.65,-291.7 343.3,169.4 858.25,202.8 1397.73,-59.4 539.47,-262.2 907.3,60.1 1054.42,0 147.13,-60 637.57,-119.6 931.83,-104.3 294.3,15.4 907.3,-13.5 1054.4,-186.8 147.2,-173.3 -858.2,28.9 -1103.44,-231 -245.22,-260 -539.48,-144.4 -1103.48,-144.4 0,0 -956.34,-173.3 -1226.07,-548.8 0,0 416.86,-57.7 1103.47,0 686.6,57.8 1103.47,-317.7 1814.62,-317.7 711.1,0 956.3,346.6 1373.2,202.2 416.9,-144.4 735.6,-202.2 1128,-202.2 392.3,0 1226.1,-288.8 1373.2,-433.2 0,0 -711.1,86.7 -1152.5,-202.2 -441.4,-288.8 -613.1,-28.9 -1152.5,-173.3 -539.5,-144.3 -833.8,173.3 -1177.1,-173.2 -343.3,-346.6 -907.3,-491 -1544.84,-433.3 -637.56,57.8 -539.48,206.3 -1078.95,-12.3 -539.48,-218.7 -1152.52,-218.7 -1397.74,-218.7 -245.21,0 -784.69,-86.7 -1177.04,-404.3 0,0 514.96,-86.7 564.01,-288.9 49.04,-202.1 858.25,-115.5 1103.47,-231 0,0 -1275.13,-202.2 -1593.91,-346.6 -318.78,-144.4 -809.21,-28.9 -1544.86,0 -735.65,28.9 -1618.43,60 -1986.26,-71.1 -367.81,-131.1 -1275.11,302.2 -1422.243,302.2 0,0 465.903,288.8 931.823,259.9 465.91,-28.9 760.17,231.1 907.3,317.7 147.13,86.6 441.38,577.6 1029.91,548.7 588.52,-28.8 -1275.14,202.2 -1520.35,202.2 -245.22,0 -2255.98797,375.5 -2721.898,173.3 v 3359.9 z"
         id="path54" />
    </clipPath>
    <clipPath
       clipPathUnits="userSpaceOnUse"
       id="clipPath62">
      <path
         d="M 28285.7,0 H 0.00390625 V 20000 H 28285.7 Z"
         id="path60" />
    </clipPath>
    <linearGradient
       x1="0"
       y1="0"
       x2="1"
       y2="0"
       gradientUnits="userSpaceOnUse"
       gradientTransform="matrix(0,-17466.4,17466.4,0,6992.75,19966.5)"
       spreadMethod="pad"
       id="linearGradient70">
      <stop
         style="stop-opacity:1;stop-color:#8d3453"
         offset="0"
         id="stop64" />
      <stop
         style="stop-opacity:1;stop-color:#cc3c2d"
         offset="0.151723"
         id="stop66" />
      <stop
         style="stop-opacity:1;stop-color:#f6c77d"
         offset="1"
         id="stop68" />
    </linearGradient>
    <clipPath
       clipPathUnits="userSpaceOnUse"
       id="clipPath80">
      <path
         d="m -12.8672,19693.2 c 0,0 331.1642,-14 503.3792,70.4 172.207,84.5 264.933,55.4 490.125,-35.6 225.193,-91.1 397.403,-36.5 556.363,-35.6 158.97,0.8 529.87,199.8 861.04,121.4 331.18,-78.3 516.63,-100 741.83,-138.4 225.19,-38.5 649.09,-193.3 768.31,-207.4 0,0 -596.11,-98.5 -808.06,-239.2 -211.94,-140.8 -357.66,-183 -357.66,-183 0,0 317.92,140.7 503.38,84.4 185.46,-56.3 543.12,-56.3 728.57,14.1 185.46,70.4 543.12,211.1 662.34,183 119.22,-28.2 304.67,-140.8 516.63,-140.8 211.94,0 715.32,-28.1 794.8,-140.7 79.48,-112.6 211.95,-98.5 423.9,0 211.95,98.5 476.89,126.7 635.84,28.1 158.97,-98.5 490.14,-70.3 609.36,-28.1 119.22,42.2 781.56,-31.9 914.03,-79.3 132.47,-47.4 622.59,-103.7 914.02,-131.8 291.44,-28.2 556.37,-70.4 556.37,-70.4 0,0 -781.56,-140.8 -1218.7,-140.8 -437.15,0 -556.37,-14 -675.59,-70.3 -119.22,-56.3 -304.68,42.2 -582.86,0 -278.18,-42.3 -728.57,-154.9 -1006.75,-168.9 -278.18,-14.1 -490.14,0 -675.59,-112.6 -185.45,-112.6 -410.65,-112.6 -635.85,-70.4 0,0 158.96,-267.4 384.16,-253.4 225.2,14.1 596.11,183 741.82,140.8 145.71,-42.3 410.65,-198.1 569.61,-141.3 158.96,56.8 384.16,155.4 543.12,99 158.96,-56.2 450.39,-138.3 649.09,-111.3 198.7,26.9 516.63,32.8 688.84,-5.3 172.2,-38.2 516.62,-60.4 794.81,0 278.17,60.4 1258.39,-207.1 1258.39,-207.1 0,0 -1019.96,-154.8 -1139.18,-239.3 -119.21,-84.4 -410.65,-182.9 -675.59,-126.6 -264.93,56.3 -662.33,14 -847.78,-112.6 -185.46,-126.7 -609.36,-126.7 -794.81,-98.6 -185.46,28.2 -331.18,138.6 -569.61,-15.1 -238.45,-153.8 -397.41,-210.1 -582.87,-210.1 -185.45,0 -635.84,-42.2 -814.67,-140.7 -178.83,-98.5 -457.02,-112.6 -735.2,-112.6 -278.18,0 -1006.76,-450.4 -1245.19,-394.1 -238.45,56.3 -543.12,-28.2 -755.07,-98.6 -211.96,-70.3 -914.03,-380 -1271.7,-394 -357.66,-14.1 -1324.6745,-211.2 -1510.128,-140.8 z"
         id="path78" />
    </clipPath>
    <clipPath
       clipPathUnits="userSpaceOnUse"
       id="clipPath86">
      <path
         d="M 28285.7,0 H 0.00390625 V 20000 H 28285.7 Z"
         id="path84" />
    </clipPath>
    <linearGradient
       x1="0"
       y1="0"
       x2="1"
       y2="0"
       gradientUnits="userSpaceOnUse"
       gradientTransform="matrix(0,-17466.4,-17466.4,0,5365.32,19966.5)"
       spreadMethod="pad"
       id="linearGradient94">
      <stop
         style="stop-opacity:1;stop-color:#8d3453"
         offset="0"
         id="stop88" />
      <stop
         style="stop-opacity:1;stop-color:#cc3c2d"
         offset="0.151723"
         id="stop90" />
      <stop
         style="stop-opacity:1;stop-color:#f6c77d"
         offset="1"
         id="stop92" />
    </linearGradient>
    <clipPath
       clipPathUnits="userSpaceOnUse"
       id="clipPath104">
      <path
         d="m 28181,13046.1 c 0,0 -858.1,-278.6 -1382.5,-151.9 -524.4,126.6 -834.2,35.2 -1167.9,-33 -333.7,-68.4 -858.1,-83.7 -1072.6,0 -214.5,83.6 -548.2,58.3 -1024.9,-169.7 -476.7,-227.9 -1430.1,-25.3 -1573.2,0 0,0 -333.7,430.6 -834.2,228 -500.5,-202.6 -649.5,-25.3 -1147.1,-25.3 -497.5,0 -974.2,-290.4 -1212.6,-309.8 -238.3,-19.5 -929.6,120.7 -1310.9,0 -381.4,-120.8 -762.8,-247.4 -1120.3,-222.1 -357.5,25.3 -762.7,-25.3 -1120.2,-151.9 0,0 524.3,0 572,-228 47.7,-227.9 309.9,-253.2 524.4,-253.2 214.5,0 452.8,202.6 595.9,0 143,-202.6 643.5,-303.9 762.7,-228 119.2,76 333.7,-101.1 572,-25.2 238.4,75.9 715.1,-215.9 1025,-19.3 309.8,196.5 1406.2,-69.4 1406.2,-69.4 0,0 -953.4,-38 -1334.7,-190 -381.4,-151.9 -1001.1,0 -1215.6,-202.6 -214.6,-202.6 -595.9,-177.3 -953.5,-227.9 0,0 524.4,-228 953.5,-202.6 429,25.3 1024.9,173.3 1430.1,-2 405.2,-175.3 834.2,23.4 1167.9,0 333.7,-23.4 667.4,130.7 1096.4,-73 429.1,-203.6 834.3,-416.1 1263.3,-360.5 429,55.6 953.4,179.7 1215.6,-9 262.2,-188.7 643.6,-290 1001.1,-138 357.5,151.9 929.6,-20.8 1072.6,-73.7 143,-53 1048.7,52.9 1334.8,0 286,-53 935.5,-15.3 935.5,-15.3 v 3153.4 z"
         id="path102" />
    </clipPath>
    <clipPath
       clipPathUnits="userSpaceOnUse"
       id="clipPath110">
      <path
         d="M 28285.7,0 H 0.00390625 V 20000 H 28285.7 Z"
         id="path108" />
    </clipPath>
    <linearGradient
       x1="0"
       y1="0"
       x2="1"
       y2="0"
       gradientUnits="userSpaceOnUse"
       gradientTransform="matrix(0,-17466.4,-17466.4,0,21927.2,19966.5)"
       spreadMethod="pad"
       id="linearGradient118">
      <stop
         style="stop-opacity:1;stop-color:#8d3453"
         offset="0"
         id="stop112" />
      <stop
         style="stop-opacity:1;stop-color:#cc3c2d"
         offset="0.151723"
         id="stop114" />
      <stop
         style="stop-opacity:1;stop-color:#f6c77d"
         offset="1"
         id="stop116" />
    </linearGradient>
    <clipPath
       clipPathUnits="userSpaceOnUse"
       id="clipPath128">
      <path
         d="m -81.8047,6765.3 c 0,0 732.8517,227.9 1025.9927,0 293.142,-228 537.412,-25.3 732.842,0 195.43,25.3 903.85,151.9 1270.28,101.3 l 219.85,177.3 c 0,0 -390.85,101.3 -610.71,151.9 -219.85,50.7 -439.7,152 -610.71,126.7 -170.99,-25.4 -488.56,-118.7 -757.27,4 -268.716,122.6 -488.572,233.7 -635.138,165.5 0,0 390.856,185 708.418,134.4 317.57,-50.7 659.57,-134.4 879.42,8.8 219.86,143.1 708.42,219.1 928.28,219.1 219.85,0 683.99,177.3 683.99,177.3 0,0 -378.64,202.6 -525.21,183.6 -146.57,-19 -329.78,38 -531.31,151.9 -201.54,114 -513,285 -677.89,247 C 1854.14,8576.1 1561,8804 1561,8804 c 0,0 934.38,-113.9 1264.16,0 329.79,114 586.28,152 824.46,114 238.18,-38 421.39,104.5 769.49,14.2 348.11,-90.2 622.92,94.3 916.06,30.5 293.14,-63.7 861.1,-177.7 1374.1,-177.7 0,0 -659.57,-76 -650.41,-170.9 9.16,-95 -265.66,-114 -448.87,-95 -183.21,19 -238.17,-19 -274.82,-76 0,0 201.54,-170.9 513,-170.9 311.46,0 494.67,-95 769.49,-171 274.82,-76 604.6,-94.9 769.5,-94.9 164.88,0 531.31,-38 531.31,-38 0,0 -641.25,-74.1 -842.78,-151 -201.53,-77 -641.24,-77 -806.14,-96 -164.88,-19 -567.95,-94.9 -769.49,-151.9 -201.53,-57 -384.74,-77.4 -384.74,-77.4 0,0 256.5,-131.6 567.96,-283.5 311.46,-152 531.31,-95 714.53,-95 183.21,0 567.95,57 879.41,-170.9 311.47,-228 384.75,-360 641.25,-284.5 256.49,75.5 476.35,189.5 751.17,132.5 274.82,-57 494.67,19 824.45,76 329.78,57 439.71,170.9 824.41,0 384.8,-171 1026,-38 1026,-38 0,0 -256.5,-284.9 -403,-303.9 -146.6,-19 238.1,-114 567.9,0 329.8,114 238.2,151.9 476.4,57 238.2,-95 787.8,132.9 952.7,38 164.9,-95 311.4,132.9 567.9,170.9 256.5,38 604.6,95 604.6,95 0,0 -751.1,114 -952.7,227.9 -201.5,114 -366.4,190 -531.3,114 -164.9,-76 -366.4,-95 -513,-38 -146.5,57 -366.4,114 -513,95 -146.5,-19 -476.3,-76 -586.2,0 -110,75.9 -769.5,207.5 -769.5,207.5 0,0 806.1,96.4 934.3,96.4 128.3,0 366.5,-76 659.6,19 293.2,94.9 586.3,208.9 696.2,208.9 109.9,0 201.6,227.9 513,95 311.5,-133 476.4,-243.6 641.3,-188.3 164.8,55.3 769.4,-36.4 1117.5,0 0,0 -476.3,245.3 -732.8,226.3 -256.5,-19 659.6,57 732.8,57 73.3,0 531.4,18.9 696.3,75.9 164.8,57 458,228 458,228 0,0 -274.8,0 -549.7,0 -274.8,0 -403,208.9 -586.2,208.9 0,0 348.1,-38 513,19 164.9,57 329.7,170.9 622.9,57 293.1,-114 586.3,-133 659.5,-76 73.3,57 36.7,208.9 421.4,133 384.8,-76 384.8,0 824.5,-38 439.7,-38 641.2,-284.9 952.7,-284.9 0,0 -403.1,-76 -677.9,-114 -274.8,-38 -494.7,-19 -586.3,-133 -91.6,-113.9 -311.4,-189.9 -458,-170.9 -146.6,19 -476.4,-95 -476.4,-95 l -403,-208.9 c 0,0 384.7,35.1 549.6,-115.4 164.9,-150.5 403.1,-131.6 641.3,-131.6 238.1,0 439.7,152 677.9,0 238.1,-151.9 659.5,-94.9 732.8,-75.9 73.3,19 421.4,-57 604.6,-95 183.2,-38 714.5,19 787.8,19 73.3,0 -677.9,-265.9 -897.7,-265.9 -219.9,0 -604.6,-19 -732.9,-133 -128.2,-114 -513,-133 -696.2,-133 0,0 183.2,-186.2 568,-207.1 0,0 -348.1,-96.8 -439.7,-191.7 -91.6,-95 -458.1,-38 -586.3,0 -128.3,38 -879.4,10 -952.7,-52 -73.3,-62 -458.1,5 -769.5,0 -311.5,-5 -659.6,85 -824.5,-26.5 -164.9,-111.5 -531.3,-130.5 -806.1,-130.5 -274.8,0 -842.8,-57 -1135.9,-151.9 0,0 604.6,-171 1007.7,-133 403,38 512.9,-11 861,-5.5 348.2,5.5 1245.9,-108.5 1703.9,-165.4 0,0 -403,-38 -458,-133 -55,-95 -458,-152 -604.6,-152 -146.6,0 -604.6,-113.9 -604.6,-113.9 0,0 989.3,38 1520.7,0 531.3,-38 476.3,189.9 916,189.9 439.7,0 622.9,0 879.4,19 256.5,19 366.5,-312.4 732.9,-213.2 366.4,99.2 824.4,91.5 1172.5,-18.6 348.1,-110.1 916.1,-22.8 1154.3,0 238.2,22.9 604.6,22.9 806.1,22.9 201.5,0 989.4,189.9 989.4,189.9 0,0 -311.5,-38 -513,76 -201.6,114 -806.2,114 -971.1,114 -164.8,0 -641.2,208.9 -769.4,208.9 0,0 531.3,114 641.2,152 109.9,37.9 329.8,132.9 513,132.9 183.2,0 421.4,-38 531.3,0 109.9,38 384.8,0 568,0 183.2,0 458,284.9 458,284.9 0,0 -421.4,57 -622.9,76 -201.6,19 -256.5,152 -513,114 0,0 348.1,151.9 494.7,151.9 146.5,0 439.7,38 641.2,76 201.5,38 311.5,95 458,-19 146.6,-113.9 458.1,-132.9 659.6,-113.9 201.5,18.9 732.8,56.9 806.1,75.9 73.3,19 677.9,-75.9 861.1,-75.9 0,0 -329.8,-171 -604.6,-285 -274.8,-113.9 -366.4,-170.9 -622.9,-189.9 -256.5,-19 -311.5,-38 -476.4,-19 -164.8,19 -403,-133 -403,-133 0,0 403,-151.9 604.6,-151.9 201.5,0 366.4,76 531.3,76 164.9,0 531.3,0 714.5,0 183.2,0 568,0 696.2,-57 128.3,-57 256.5,-57 439.7,-57 183.3,0 604.6,-190 604.6,-190 0,0 -128.2,-75.9 -403,-189.9 -274.8,-114 -384.8,-227.9 -641.3,-227.9 -256.5,0 -549.6,35.4 -769.5,-96.3 -219.8,-131.7 -604.6,-36.7 -861.1,-150.7 -256.5,-113.9 -769.5,-208.9 -769.5,-208.9 0,0 531.4,-303.9 806.2,-189.9 274.8,113.9 586.3,113.9 824.4,56.9 238.2,-56.9 384.8,-127.1 696.2,-82.5 311.5,44.6 586.3,291.5 806.2,177.5 219.8,-114 696.2,-191.6 696.2,-191.6 l 513,-264.3 V 2561.2 H -497.082 Z"
         id="path126" />
    </clipPath>
    <clipPath
       clipPathUnits="userSpaceOnUse"
       id="clipPath134">
      <path
         d="M 28285.7,0 H 0.00390625 V 20000 H 28285.7 Z"
         id="path132" />
    </clipPath>
    <linearGradient
       x1="0"
       y1="0"
       x2="1"
       y2="0"
       gradientUnits="userSpaceOnUse"
       gradientTransform="matrix(0,-17466.4,-17466.4,0,14071.4,19966.5)"
       spreadMethod="pad"
       id="linearGradient142">
      <stop
         style="stop-opacity:1;stop-color:#8d3453"
         offset="0"
         id="stop136" />
      <stop
         style="stop-opacity:1;stop-color:#cc3c2d"
         offset="0.151723"
         id="stop138" />
      <stop
         style="stop-opacity:1;stop-color:#f6c77d"
         offset="1"
         id="stop140" />
    </linearGradient>
    <clipPath
       clipPathUnits="userSpaceOnUse"
       id="clipPath152">
      <path
         d="m 28145.9,20194.9 c 0,0 -1191.1,-400.8 -1919,-218.7 -727.9,182.2 -1158.1,50.8 -1621.3,-47.4 -463.2,-98.3 -1191.1,-120.4 -1488.9,0 -297.7,120.3 -761,83.9 -1422.7,-244 -661.7,-328 -1985.2,-36.5 -2183.7,0 0,0 -463.2,619.4 -1158,327.9 -694.8,-291.5 -901.6,-36.5 -1592.3,-36.5 -690.7,0 -1352.4,-417.6 -1683.3,-445.6 -330.8,-28 -1290.3,173.7 -1819.7,0 -529.4,-173.8 -1058.8,-355.9 -1555.1,-319.5 -496.3,36.4 -1058.8,-36.4 -1555.1,-218.6 0,0 727.9,0 794.1,-327.9 66.2,-327.9 430.1,-364.4 727.9,-364.4 297.8,0 628.7,291.5 827.2,0 198.5,-291.4 893.3,-437.2 1058.7,-327.9 165.5,109.3 463.3,-145.4 794.1,-36.3 330.9,109.2 992.6,-310.5 1422.7,-27.8 430.2,282.7 1952.1,-99.7 1952.1,-99.7 0,0 -1323.4,-54.8 -1852.8,-273.4 -529.4,-218.6 -1389.6,0 -1687.4,-291.5 -297.8,-291.5 -827.2,-255 -1323.5,-327.9 0,0 727.9,-327.9 1323.5,-291.5 595.5,36.5 1422.7,249.4 1985.2,-2.8 562.4,-252.2 1158,33.6 1621.2,0 463.2,-33.6 926.4,188 1522,-105 595.5,-293 1158,-598.6 1753.6,-518.6 595.5,79.9 1323.4,258.5 1687.4,-13 363.9,-271.4 893.3,-417.2 1389.6,-198.6 496.3,218.6 1290.4,-29.8 1488.9,-106 198.5,-76.1 1455.8,76.2 1852.9,0 397,-76.1 1298.6,-22 1298.6,-22 v 4536.7 z"
         id="path150" />
    </clipPath>
    <clipPath
       clipPathUnits="userSpaceOnUse"
       id="clipPath158">
      <path
         d="M 28285.7,0 H 0.00390625 V 20000 H 28285.7 Z"
         id="path156" />
    </clipPath>
    <linearGradient
       x1="0"
       y1="0"
       x2="1"
       y2="0"
       gradientUnits="userSpaceOnUse"
       gradientTransform="matrix(0,-17466.4,17466.4,0,19464.8,19966.5)"
       spreadMethod="pad"
       id="linearGradient166">
      <stop
         style="stop-opacity:1;stop-color:#8d3453"
         offset="0"
         id="stop160" />
      <stop
         style="stop-opacity:1;stop-color:#cc3c2d"
         offset="0.151723"
         id="stop162" />
      <stop
         style="stop-opacity:1;stop-color:#f6c77d"
         offset="1"
         id="stop164" />
    </linearGradient>
  </defs>
  <sodipodi:namedview
     id="namedview4"
     pagecolor="#ffffff"
     bordercolor="#999999"
     borderopacity="1"
     inkscape:showpageshadow="0"
     inkscape:pageopacity="0"
     inkscape:pagecheckerboard="0"
     inkscape:deskcolor="#d1d1d1"
     showgrid="false"
     inkscape:zoom="2.8319997"
     inkscape:cx="210.98166"
     inkscape:cy="196.68081"
     inkscape:window-width="2494"
     inkscape:window-height="1371"
     inkscape:window-x="0"
     inkscape:window-y="0"
     inkscape:window-maximized="1"
     inkscape:current-layer="g10"
     inkscape:document-units="in">
    <inkscape:page
       x="0"
       y="0"
       id="page8"
       width="155"
       height="337"
       inkscape:export-filename="BroadcastAssetRight.png"
       inkscape:export-xdpi="96"
       inkscape:export-ydpi="96" />
  </sodipodi:namedview>
  <g
     id="g10"
     inkscape:groupmode="layer"
     inkscape:label="Page 1"
     transform="matrix(1.3333333,0,0,-1.3333333,0,2666.6667)">
    <path
       id="path238"
       style="fill:#481629;fill-opacity:1;fill-rule:nonzero;stroke:none;stroke-width:0.0128289"
       d="m 0,2000.0001 v -252.75 h 116.25 v 252.75 z"
       sodipodi:nodetypes="ccccc" />
    <path
       d="m 66.034412,1884.7298 v 0.2783 c 0.01606,0.027 0.03946,0.054 0.06283,0.08 0.161376,-0.025 0.576419,-0.043 0.682366,-0.037 0.311592,0.019 0.725397,0.181 1.022224,0.144 0.06531,0.1429 0.396569,0.2095 0.543183,0.2845 0.187175,0.096 0.369496,0.1713 0.566531,0.2512 0.273427,0.1146 0.50745,0.073 0.826416,0.1 0.200757,0.2796 -0.236477,0.4176 -0.406422,0.5075 -0.286974,0.1501 -0.272205,0.2783 -0.42246,0.5197 -0.291901,0.4704 -0.761162,-0.075 -1.04687,-0.266 -0.200756,-0.1354 -0.373201,-0.1651 -0.57764,-0.2364 -0.258669,-0.087 -0.422466,-0.2563 -0.580142,-0.4989 -0.113302,-0.176 -0.198257,-0.3534 -0.341136,-0.5185 -0.06531,-0.075 -0.179781,-0.1576 -0.26605,-0.25 -0.03688,0.01 -0.06151,0.011 -0.06283,0.017 v -0.097 c -0.05426,-0.085 -0.07144,-0.1761 0,-0.2782 z m -38.632707,11.0846 c 0.200763,0.076 0.625672,-0.197 0.84492,-0.2438 0.210633,-0.043 0.545637,-0.2339 0.718037,-0.058 0.109641,-0.01 0.192136,0.056 0.279587,-0.028 0.146578,0.08 0.378112,0.1109 0.485247,0.2144 0.186016,-0.025 0.534561,0.1798 0.736534,0.2327 0.231568,0.062 0.465551,0.084 0.686049,0.076 0.469223,-0.019 0.899086,-0.01 1.327672,-0.032 0.452026,-0.024 0.87323,-0.1588 1.327717,-0.1563 0.341169,0 0.702035,0.027 1.043175,0.034 0.18476,0.01 0.354701,-0.011 0.502541,-0.016 0.114499,-0.01 0.268459,0.01 0.390386,-0.024 0.10102,0.1022 0.161359,0.07 0.283292,0.086 0,0 0.11576,-0.037 0.137957,-0.037 0.07388,0.01 0.173644,0.032 0.253736,0.034 0.251219,0.01 0.440901,0.016 0.683549,0.053 0.278331,0.043 0.59115,-0.035 0.864571,0.013 0.09114,0.016 0.219242,0.036 0.311601,0.062 0.09732,0.026 0.140414,-0.057 0.246355,0.049 0.52219,0.068 1.179883,0.041 1.768623,0.041 0.179816,0 0.359627,0.01 0.543143,0.013 0.147782,0.01 0.347335,0.092 0.47046,0.087 0.219254,-0.012 0.445867,-0.1983 0.657699,-0.1256 0.0074,-0.031 0.01485,-0.058 0.02684,-0.087 0.16874,-0.076 0.36087,-0.133 0.533317,-0.2156 0.172434,-0.083 0.541913,-0.095 0.655237,-0.223 0.179812,0.043 0.43107,-0.076 0.607174,-0.1046 0.197052,-0.032 0.412595,0.016 0.610891,-0.017 0.07882,-0.012 0.155199,-0.036 0.219243,-0.047 0.142879,-0.03 0.173661,-0.061 0.311613,-0.1256 0.224164,-0.1046 0.485258,-0.2586 0.718032,-0.3387 0.411384,-0.1441 1.319096,-0.3399 1.768599,-0.081 0.163826,0.093 0.300539,0.2413 0.463102,0.3584 0.135458,0.093 0.254947,0.1983 0.405242,0.2476 0.146526,0.046 0.322661,-0.017 0.427347,0.1182 0.208138,-0.028 0.423693,0.01 0.625676,0.016 0.120683,0.01 0.427381,0.025 0.573948,0 0.200751,-0.034 0.412612,-0.1205 0.645367,-0.085 0.273433,0.043 0.543143,0.1318 0.793156,0.2685 0.493891,0.2696 0.923778,0.2918 1.455839,0.234 0.355899,-0.039 0.671206,-0.2439 1.038254,-0.2488 0.279586,-0.01 0.628137,-0.01 0.894188,-0.069 0.161296,0.207 0.438422,-0.1577 0.564071,0.088 0.221663,-0.1 0.774659,0.2538 0.969301,0.3598 0.11821,-0.084 0.355922,0.067 0.502488,0.075 0.104681,0.01 0.225369,-0.032 0.339931,-0.016 0.1761,0.023 0.169985,0.01 0.310364,0.133 0.19583,0.1824 0.31159,0.4373 0.528372,0.6171 -0.01268,0.013 -0.02609,0.025 -0.03935,0.036 -0.387967,0.3228 -0.934802,0.04 -1.301851,0.4335 -0.311625,0.3374 -0.252474,0.7871 -0.400263,1.1887 -0.07638,0.2081 -0.199558,0.3177 -0.346079,0.4495 -0.236483,0.2093 -0.254981,0.2771 -0.268528,0.5849 0.121949,0.01 0.339936,0.1885 0.304215,0.324 -0.05655,0.218 -0.585,0.1787 -0.74017,0.261 -0.663865,0.3536 0.507386,0.7848 0.500027,1.1604 0.185953,0.1108 0.02093,0.6145 -0.04542,0.7795 -0.134259,0.3424 -0.241411,0.6221 -0.204479,0.9988 0.02467,0.223 0.03051,0.547 0.139208,0.7366 0.107152,0.1909 0.307902,0.3128 0.359626,0.5481 0.118228,0.1342 0.290668,0.2956 0.46312,0.4285 -0.0046,0.01 -0.0052,0.01 -0.0089,0.01 -0.101005,0.1725 -0.24756,0.1676 -0.411391,0.25 -0.121955,0.062 -0.254941,0.2082 -0.402735,0.197 -0.114562,0.2452 0.262322,0.2919 0.163802,0.579 -0.135451,-0.036 -0.275909,-0.021 -0.415049,-0.029 0,0.1724 0.363314,0.3806 0.504961,0.5197 0.201977,0.2033 0.337435,0.4496 0.549329,0.6418 0.198262,0.1809 0.551758,0.3792 0.809125,0.5184 0.262362,0.1405 0.699596,0.016 0.880652,0.2315 -0.08991,0.056 -0.147795,0.1392 -0.187215,0.25 0.172446,0.1738 0.60968,0.032 0.807925,-0.019 0.225402,-0.056 0.44831,-0.045 0.684834,-0.045 0.500033,0 0.917583,0.1761 1.360932,0 0.488957,-0.1933 0.905262,-0.4606 1.337599,-0.7365 0.231523,-0.1466 0.380549,-0.1724 0.565264,-0.3879 0.576414,-0.6848 0.932382,-1.4324 1.034606,-2.3267 0.09118,-0.8079 0.151523,-1.5985 0.07268,-2.4017 -0.03935,-0.3929 -0.07885,-0.7686 -0.183521,-1.1429 -0.136719,-0.4952 -0.401502,-0.9311 -0.609669,-1.3941 -0.169957,-0.3758 -0.26234,-0.8117 -0.205684,-1.2317 0.0046,-0.023 0.0052,-0.045 0.0089,-0.067 0.146573,0 0.296828,0.017 0.37194,0.017 0.07637,0.026 0.155217,0.047 0.235245,0.059 0.06283,-0.019 0.11088,-0.054 0.15029,-0.1046 0.156409,-0.045 0.221714,-0.054 0.316518,-0.1688 0.243859,-0.2881 0.0052,-0.9065 0.04163,-1.271 0.04537,-0.4669 0.367003,-0.5185 0.736518,-0.6835 0.171178,-0.076 0.316506,-0.1786 0.500033,-0.2353 0.102224,-0.03 0.268511,-0.066 0.341163,-0.1441 0.148988,0.067 0.666319,-0.4102 0.79689,-0.5381 0.31525,-0.3093 0.709399,-0.8598 1.152782,-0.9571 0.242632,-0.053 0.484026,-0.01 0.713093,-0.057 0.280814,-0.067 0.438497,-0.2476 0.651585,-0.4015 0.174843,-0.1255 0.330054,-0.1156 0.422396,-0.3337 0.0616,-0.1404 0.0616,-0.3719 0.07518,-0.5247 0.158871,-0.051 0.348551,-0.2044 0.535726,-0.1306 0.07879,-0.1218 0.161371,-0.054 0.259868,-0.1096 0.09852,-0.056 0.157665,-0.1564 0.236512,-0.2414 0.190863,-0.2007 0.298009,-0.4026 0.437229,-0.6244 0.166218,-0.2674 0.387932,-0.4434 0.575141,-0.654 0.27217,-0.3055 0.496346,-0.691 0.67494,-1.0629 0.108414,-0.2228 0.218015,-0.399 0.388006,-0.5924 0.168706,-0.1883 0.315245,-0.3559 0.442155,-0.5863 0.07143,-0.1243 0.109562,-0.3559 0.183522,-0.4629 0.142799,-0.1973 0.387921,-0.3672 0.577607,-0.5569 0.341158,-0.3448 0.352238,-0.787 0.423653,-1.2415 0.08991,-0.5924 0.566606,-1.1109 0.625676,-1.7107 0.04807,-0.4815 0.03436,-1.3068 -0.30913,-1.6776 -0.424886,-0.4593 -1.298116,-0.3865 -1.864723,-0.5763 -0.369467,-0.1232 -0.672438,-0.3092 -1.023484,-0.4815 -0.402701,-0.1971 -0.886773,-0.2488 -1.250086,-0.526 -0.37439,-0.2869 -0.630558,-0.6872 -0.943452,-1.0259 -0.20075,-0.2192 -0.360853,-0.2907 -0.546841,-0.011 -0.378073,0.5701 -0.298049,1.3103 -0.545568,1.9385 -0.101021,0.2549 -0.210622,0.4248 -0.374465,0.6368 -0.165023,0.2154 -0.134247,0.4199 -0.376844,0.5628 -0.272205,0.1588 -0.426165,0.1108 -0.702058,-0.01 -0.341158,-0.1366 -0.676167,-0.2118 -0.995146,-0.1625 -0.01606,-0.1061 -0.03946,-0.1996 -0.06524,-0.2723 -0.121984,-0.3374 -0.378123,-0.6281 -0.549336,-0.942 -0.139185,-0.2552 -0.11949,-0.34 -0.06406,-0.6086 0.27958,-0.1133 0.321502,-0.4323 0.493941,-0.6466 -0.0813,-0.1811 -0.09241,-0.33 -0.254969,-0.4593 -0.163802,-0.1269 -0.375662,-0.138 -0.551756,-0.2488 -0.420006,-0.266 -0.503768,-0.6096 -0.573954,-1.0457 -0.08376,-0.5308 -0.08376,-1.0653 -0.07637,-1.6123 0.355927,-0.2512 0.800537,-0.5024 1.013637,-0.8891 0.113296,-0.2031 0.07391,-0.388 0.139185,-0.6084 0.06771,-0.2255 0.298044,-0.3375 0.423693,-0.5137 0.258623,-0.3645 0.312813,-0.819 0.247507,-1.2501 -0.03355,-0.2253 -0.103441,-0.4791 -0.125603,-0.6847 -0.01492,-0.1158 0.03573,-0.2551 -0.01124,-0.3634 -0.05673,-0.1281 -0.136719,-0.1182 -0.221703,-0.218 -0.140407,-0.1699 -0.220448,-0.3103 -0.280826,-0.5345 -0.06407,-0.2463 -0.05295,-0.3745 -0.217975,-0.5886 -0.363354,-0.4744 -0.498812,-1.0594 -0.826434,-1.5631 -0.21186,-0.3238 -0.437188,-0.6367 -0.751308,-0.8596 -0.286986,-0.2033 -0.592411,-0.3843 -0.872015,-0.6023 0.09979,-0.2759 0.183528,-0.5457 0.243871,-0.8253 0.140407,-0.6551 0.280866,-1.393 0.391701,-2.0445 0.100991,-0.5923 0.34481,-1.1786 0.487718,-1.7735 0.08987,-0.3743 0.184755,-0.7353 0.312865,-1.1023 0.08741,-0.255 0.284467,-0.5715 0.323854,-0.8117 0.32886,-0.2093 0.587483,-0.9199 0.796894,-1.2709 0.178595,-0.2982 0.358382,-0.6036 0.562873,-0.8794 0.137947,-0.1874 0.338698,-0.3239 0.486498,-0.4977 0.153942,-0.1784 0.275852,-0.3805 0.400268,-0.5665 0.224141,-0.3375 0.567794,-0.6898 0.800543,-1.0407 0.246326,-0.3707 0.520998,-0.7083 0.762396,-1.0641 0.588752,-0.8721 0.954527,-1.8993 1.362183,-2.8255 0.195864,-0.4459 0.394126,-0.8953 0.549301,-1.3289 0.085,-0.2364 0.153944,-0.468 0.26483,-0.6958 0.06531,-0.1381 0.256163,-0.4237 0.263544,-0.5789 0.129343,-0.096 0.274677,-0.3941 0.375635,-0.5542 0.140441,-0.2204 0.309153,-0.4374 0.41014,-0.6552 0.113306,-0.2427 0.222947,-0.5062 0.325166,-0.7661 0.08004,-0.2045 0.2414,-0.431 0.263556,-0.6466 0.08872,-0.1244 0.257435,-0.4091 0.347357,-0.5888 0.07884,-0.1577 0.168713,-0.5985 0.312813,-0.6539 0.02943,-0.087 0.01864,-0.087 0.06167,-0.1245 0.01721,-0.047 0.01124,-0.086 0.02833,-0.1329 0.277137,-0.2956 0.09608,-0.9103 -0.064,-1.2761 -0.194602,-0.4545 -0.629376,-0.7253 -1.124477,-0.5493 -0.405208,0.1442 -0.853546,0.3462 -1.325234,0.362 -0.585029,0.019 -1.155288,-0.059 -1.748921,-0.064 -0.248787,-0.01 -0.481576,0.088 -0.700825,0.1121 -0.262328,0.027 -0.54438,0.03 -0.799315,0.061 -0.242632,0.031 -0.506187,0.1 -0.748854,0.077 -0.278319,-0.029 -0.525872,-0.083 -0.814085,-0.049 -0.229062,0.026 -0.47046,0.1181 -0.686015,0.1724 -0.284548,0.074 -0.470501,0.027 -0.750088,0 -0.263555,-0.024 -0.503721,0.011 -0.750053,0.067 -0.176099,0.04 -0.621984,-0.02 -0.690936,0.1799 -0.171178,0.4802 0.758661,0.4667 0.988985,0.4765 0.0097,-0.025 0.01944,-0.046 0.02845,-0.072 0.214275,0.024 0.410151,-0.079 0.626898,-0.058 0.165064,0.016 0.550529,0.012 0.670019,0.1293 0.203211,-0.083 0.450771,0.1798 0.562872,0.3067 0.257367,0.2932 0.552955,0.4052 0.894113,0.5801 0.280866,0.1417 0.444623,0.2452 0.775972,0.2342 0.174873,-0.01 0.520986,-0.01 0.64168,0.1255 0.282007,0.099 0.80177,0.5037 0.747581,0.8769 0.288207,0.1466 -0.28328,1.0271 -0.434722,1.2132 -0.359667,0.4422 -0.502535,1.0124 -0.794446,1.5014 -0.247543,0.4138 -0.525902,0.8079 -0.816569,1.1909 -0.332543,0.4372 -0.700796,0.7907 -1.077675,1.1824 -0.39166,0.4064 -0.721713,0.92 -1.120789,1.2994 -0.209372,0.1996 -0.470508,0.3743 -0.690977,0.5604 -0.085,0.07 -0.152681,0.1478 -0.235211,0.2204 -0.105952,0.096 -0.222907,0.1083 -0.327627,0.1823 -0.429842,0.298 -0.840004,0.7538 -1.213126,1.1133 -0.565327,0.5432 -1.221769,0.9706 -1.734158,1.5728 -0.290667,0.3412 -0.622023,0.659 -0.84493,1.0494 -0.247554,0.4335 -0.461847,0.8461 -0.753736,1.2527 -0.455703,0.6392 -0.779631,1.33 -0.95085,2.0616 -0.05912,0.2587 -0.08253,0.5777 -0.109595,0.8252 -0.01606,0.1269 -0.03573,0.2563 -0.05912,0.3857 -0.04806,-0.026 -0.09734,-0.057 -0.141645,-0.087 -0.440923,-0.2844 -0.896615,-0.5185 -0.987799,-1.0776 -0.07136,-0.4348 0.05174,-0.7908 0.187249,-1.1603 0.204416,-0.5517 0.04806,-0.9792 -0.153943,-1.5123 -0.177372,-0.4706 -0.10468,-0.9374 0.01343,-1.3893 0.155147,-0.5851 0.256139,-1.1566 0.374395,-1.7527 0.103453,-0.51 0.199524,-1.0271 0.253748,-1.5444 0.02833,-0.2624 0.06401,-0.4841 0.0616,-0.7501 0,-0.1687 -0.06524,-0.6922 0.03573,-0.776 -0.0788,-0.1133 0.03212,-0.5479 0.02609,-0.7205 -0.0089,-0.303 -0.03688,-0.633 -0.07514,-0.9409 -0.02983,-0.2439 -0.06277,-0.489 -0.04806,-0.7488 0.0074,-0.1429 0.01985,-0.6097 0.109595,-0.6529 0.01268,-0.1 -0.01125,-0.2117 0.06283,-0.2499 0.181066,-0.9447 0.360849,-1.9337 0.841191,-2.8304 0.187226,-0.3498 0.449584,-0.9704 -0.02833,-1.25 -0.456919,-0.2661 -1.002533,-0.061 -1.486564,0.049 -0.535801,0.1195 -1.07148,-0.01 -1.624505,-0.01 -0.247559,0 -0.505006,0.016 -0.750093,-0.012 -0.273437,-0.034 -0.516041,-0.1454 -0.811664,-0.1134 -0.461841,0.05 -1.006222,0.1873 -1.433608,0.062 -0.405225,-0.1194 -1.033322,-0.2315 -1.42871,0.013 -0.491424,0.3078 0.219237,0.7932 0.506216,0.7009 0.08991,0.1502 0.251294,0.064 0.406435,0.088 0.0074,-0.032 0.01715,-0.058 0.02604,-0.088 0.275911,-0.05 0.444657,0.298 0.624445,0.4593 0.129308,0.1146 0.742711,0.4669 0.876924,0.419 0.206905,0.1254 0.598604,0.3668 0.816585,0.3767 0.02358,0.016 0.03688,0.038 0.04307,0.067 0.445849,0.1332 0.626864,0.4164 0.625677,0.9016 0,0.2439 -0.04164,0.473 -0.06531,0.6849 -0.02834,0.2229 0.102225,0.4704 0.0616,0.6638 0.03688,0.037 0.06779,0.08 0.08992,0.1293 -0.110846,-0.01 -0.21922,-0.017 -0.322673,-0.027 -0.05415,-0.01 -0.275893,-0.087 -0.327621,-0.066 -0.183516,0.072 -0.07143,0.1441 -0.07514,0.2536 -0.0075,0.2637 0.04445,0.5063 0.07636,0.7515 0.07761,0.6206 -0.123149,1.1071 -0.190904,1.6675 -0.03688,0.3042 -0.05168,0.6047 -0.119454,0.8906 -0.03797,0.1539 -0.07392,0.7807 -0.176168,0.8287 -0.03573,0.3992 -0.282019,0.8217 -0.375589,1.2207 -0.103487,0.4287 -0.209366,0.8288 -0.326394,1.2537 -0.183522,0.6786 -0.39661,1.2735 -0.560412,1.9362 -0.28082,1.1527 -0.916339,2.1923 -1.188549,3.3094 -0.11945,0.4939 -0.263591,0.989 -0.248788,1.563 0.01347,0.5504 0.183522,0.9742 0.327628,1.4828 0.230329,0.8227 0.688483,1.7342 1.372036,2.3118 0.631832,0.5319 1.231664,1.0937 1.826484,1.6773 -0.06035,0.1184 -0.109555,0.2231 -0.140367,0.2908 -0.102225,0.2155 -0.172406,0.5531 -0.200751,0.7981 -0.01721,0.1442 0.04078,0.2489 -0.07392,0.3584 -0.173633,0.1614 -0.238933,-0.032 -0.415038,0.026 0.0052,0.1911 -0.10222,0.4089 -0.145334,0.6061 -0.369469,0.1342 -0.497567,-0.5013 -0.81658,-0.5407 -0.447077,-0.054 -0.332509,0.9508 -0.200745,1.1736 -0.0074,0.025 -0.03573,0.094 -0.04927,0.1195 -0.176094,-0.1046 -0.188443,-0.4901 -0.237711,-0.6822 -0.06895,-0.2734 -0.136708,-0.5431 -0.200746,-0.8241 -0.119448,-0.5234 -0.168711,-1.0443 -0.294355,-1.5444 -0.144107,-0.5678 -0.205672,-1.138 -0.391665,-1.6762 -0.151477,-0.4409 -0.395348,-0.8154 -0.657704,-1.2205 -0.300522,-0.4632 -0.38055,-0.866 -0.466802,-1.4055 -0.03935,-0.2462 -0.144077,-0.5701 -0.34729,-0.1994 -0.149027,0.2759 -0.06531,0.6281 -0.02833,0.9225 0.09853,0.7599 0.343625,1.5013 0.390393,2.2625 0.03573,0.5887 0.22667,1.1443 0.434774,1.702 0.351046,0.9398 0.783353,1.8426 1.077703,2.7972 0.124411,0.3989 0.25494,0.7832 0.360894,1.1823 0.06276,0.2513 0.07267,0.505 0.120677,0.7538 0.04072,0.1909 0.145294,0.399 0.126843,0.5961 0.05787,0.057 0.116988,0.1958 0.172439,0.2722 0.102225,0.1441 0.237711,0.2253 0.346085,0.3707 0.02466,0 0.04537,-0.01 0.06167,-0.026 0.103487,0.1848 0.450764,0.1465 0.596104,0.3486 0.20694,0.2882 0.200746,0.7007 0.200746,1.0629 0,0.4211 0.02833,0.8079 0.119483,1.2143 -0.133019,0.4557 -0.224169,0.9435 -0.181049,1.4102 0.04308,0.4632 0.168718,0.909 0.327622,1.3463 0.171213,0.4655 0.178561,0.8461 0.113329,1.3227 -0.06406,0.4521 -0.272233,0.952 -0.519793,1.3228 -0.119414,0.1822 -0.309089,0.3904 -0.438462,0.6023 -0.08987,0.1465 -0.193334,0.2832 -0.247558,0.4482 -0.290668,0.8659 -0.16129,1.8364 0.311625,2.6198 -0.472915,0.013 -0.879419,0.1281 -1.381918,0.3792 -0.437223,0.2193 -0.933569,0.3264 -1.354761,0.5665 -0.270984,0.1516 -0.540675,0.3179 -0.806737,0.4669 -0.288208,0.1589 -0.577607,0.2881 -0.879385,0.4236 -0.25248,0.1135 -0.495113,0.122 -0.757435,0.1959 -0.715588,0.2081 -1.517393,0.3449 -2.239129,0.505 -0.5912,0.1293 -1.133081,0.076 -1.736601,0.048 -0.344834,-0.016 -0.676179,-0.1058 -1.02348,-0.1256 -0.359661,-0.019 -0.704494,-0.021 -1.051824,-0.066 -0.633041,-0.083 -1.210712,-0.1971 -1.822796,-0.3855 -0.84738,-0.2612 -1.592523,-0.4237 -2.482995,-0.4237 -0.458146,0 -0.938484,-0.034 -1.380639,-0.046 -0.448321,-0.016 -0.603526,0.3423 -0.682356,0.7328 -0.07882,0.3805 -0.05788,0.7477 -0.06779,1.1392 -0.0097,0.3794 -0.0874,0.6972 -0.189642,1.0493 -0.04072,0.143 -0.08253,0.2871 -0.125632,0.4336 -0.52469,0.1725 -1.060457,0.5149 -1.558035,0.7403 -0.477837,0.2155 -1.13187,0.3289 -1.641729,0.3116 -0.513621,-0.016 -0.831394,-0.2722 -1.154078,-0.686 -0.307898,-0.3942 -0.509899,-0.606 -1.019768,-0.6713 -0.121927,-0.016 -0.135503,-0.041 -0.261147,-0.021 -0.100969,0.016 -0.237683,0.072 -0.346079,0.093 -0.282041,0.061 -0.357154,0.1145 -0.652732,0.01 -0.230318,-0.086 -0.445873,-0.1983 -0.661403,0 -0.189682,0.1724 -0.298072,0.5543 -0.326384,0.7969 -0.03183,0.2797 -0.02455,0.5481 -0.06035,0.8278 -0.02966,0.2463 -0.252474,0.4666 -0.254934,0.7069 0.211826,0.1441 0.465551,0.1944 0.674934,-0.011"
       style="fill:#370f1f;fill-opacity:1;fill-rule:nonzero;stroke:none;stroke-width:0.0123162"
       id="path353" />
    <path
       id="path615"
       style="fill:#370f1f;fill-opacity:1;fill-rule:nonzero;stroke:none;stroke-width:0.0108209"
       d="m 39.709359,1983.588 c -0.150582,-0.016 -0.305598,-0.1422 -0.407044,-0.2104 -0.17638,-0.1157 -0.33116,-0.088 -0.532427,-0.12 -0.06174,-0.2219 -0.255434,-0.3387 -0.320361,-0.5422 -0.07898,-0.2424 -0.04754,-0.383 -0.333179,-0.4609 -0.04542,-0.3149 0.03894,-0.5704 -0.158033,-0.8463 -0.1634,-0.2251 -0.22297,-0.4123 -0.252187,-0.7034 -0.03453,-0.3602 0.0931,-0.7034 0.138543,-1.055 0.04549,-0.3494 0.01514,-0.7261 -0.02702,-1.0648 -0.02386,-0.2025 -0.01187,-0.4219 -0.04973,-0.6028 -0.03137,-0.1481 -0.07245,-0.2953 -0.124428,-0.4412 -0.132022,-0.3681 -0.265052,-0.7132 -0.291011,-1.1073 -0.02283,-0.3461 0.150363,-0.646 0.454429,-0.7952 0.109303,-0.054 0.325793,-0.016 0.452383,-0.019 0.133099,-0.01 0.367851,0.022 0.453345,-0.096 0.03034,0.01 0.04876,0.021 0.05956,0.051 0.240229,-0.159 0.599454,-0.161 0.866726,-0.2704 0.28675,-0.1157 0.577831,-0.2424 0.829949,-0.436 0.318147,-0.2445 0.508608,-0.593 0.749903,-0.9003 0.194781,-0.2468 0.408942,-0.4751 0.619954,-0.7109 0.02495,-0.03 0.05415,-0.062 0.08447,-0.099 -0.0029,-0.01 -0.0058,-0.012 -0.0065,-0.016 -0.02604,0.016 -0.05081,0.021 -0.08004,0.021 -0.106039,-0.2174 -0.241312,-0.2577 -0.04973,-0.4849 0.148241,-0.1732 0.309417,-0.3234 0.453334,-0.5032 0.289996,-0.3559 0.645981,-0.6569 0.954378,-1.0009 0.515082,-0.5734 1.110269,-1.1167 1.531197,-1.7736 0.219673,-0.343 0.45984,-0.6382 0.703303,-0.963 0.241313,-0.3181 0.387473,-0.7109 0.614704,-1.0442 0.478285,-0.698 1.432731,-0.8386 1.849334,-1.5961 0.215331,-0.3916 0.387255,-0.8136 0.562546,-1.214 0.08982,-0.2068 0.19158,-0.4146 0.28897,-0.619 0.140676,-0.2934 0.364736,-0.487 0.56492,-0.737 0.31057,-0.3862 0.483658,-0.859 0.666531,-1.3082 0.150404,-0.3743 0.403544,-0.7411 0.596156,-1.0971 0.475038,-0.87 0.991297,-1.6667 1.58969,-2.4306 0.255365,-0.3256 0.441369,-0.6978 0.712967,-1.0193 0.214257,-0.251 0.414578,-0.4739 0.580142,-0.7346 -0.0046,-0.1181 -0.0076,-0.2361 -0.01525,-0.3476 -0.03247,-0.4781 0.162311,-1.0612 0.337625,-1.5049 0.18286,-0.4544 0.54103,-0.9285 0.854835,-1.3051 0.03355,-0.04 0.06823,-0.08 0.102875,-0.117 -0.07144,-0.2163 -0.12557,-0.435 -0.151541,-0.6771 -0.07034,-0.6493 -0.04009,-1.2282 0.190369,-1.8591 0.259713,-0.7098 0.550817,-1.3192 0.300854,-2.0832 -0.190449,-0.5799 -0.278066,-1.201 -0.242374,-1.819 0.02168,-0.3471 0.09194,-0.6913 0.160115,-1.0333 -0.0029,-0.01 -0.0065,-0.02 -0.0086,-0.029 -0.169888,-0.5582 -0.24024,-1.1653 -0.312732,-1.7486 -0.07359,-0.5767 -0.01853,-1.1254 0.05295,-1.7023 0.03567,-0.3051 0.06502,-0.6003 0.06072,-0.9077 -0.0059,-0.2845 -0.105083,-0.4922 -0.154867,-0.7694 -0.10063,-0.5551 -0.115675,-1.1069 -0.0086,-1.6576 0.07359,-0.3777 0.0941,-0.7598 0.148214,-1.1396 0.04978,-0.3366 0.147192,-0.5399 0.269457,-0.8321 0.299758,-0.7228 0.757452,-1.3634 0.966307,-2.1296 0.146074,-0.5388 0.257464,-1.0938 0.347272,-1.6371 0.06495,-0.3928 0.111512,-0.9123 0.351751,-1.2576 0.280257,-0.4068 0.918651,-0.6481 1.391531,-0.7066 0.121217,-0.014 0.246671,0.016 0.366791,0.01 0.153651,-0.013 0.289027,-0.084 0.440482,-0.104 0.17747,-0.027 0.382029,0 0.563841,0 0.09088,0.01 0.173105,0 0.255382,0.016 0.01084,-0.053 0.02283,-0.1058 0.03475,-0.1589 0.06436,-0.017 0.131448,-0.035 0.192877,-0.033 0.03046,0 0.05999,0.01 0.08686,0.019 0.0269,0.012 0.0511,0.032 0.07194,0.061 -0.02088,-0.03 -0.04508,-0.049 -0.07194,-0.061 -0.02673,-0.012 -0.05616,-0.019 -0.08686,-0.019 -0.06137,0 -0.128518,0.015 -0.192877,0.033 0.111431,-0.4761 0.259712,-0.9458 0.401502,-1.4164 0.184967,-0.6083 0.208798,-1.2023 -0.01302,-1.8049 -0.09093,-0.2468 -0.203401,-0.3854 -0.399305,-0.5639 -0.039,-0.036 -0.09637,-0.1082 -0.139587,-0.131 -0.06276,-0.032 -0.165546,-0.01 -0.199105,-0.027 -0.08769,-0.044 -0.173123,-0.157 -0.254275,-0.2144 -0.03355,-0.022 -0.152539,-0.081 -0.197946,-0.1104 -0.245661,-0.1513 -0.466555,-0.2922 -0.704593,-0.448 -0.129859,-0.087 -0.206613,-0.1861 -0.351608,-0.2531 -0.134144,-0.065 -0.379759,-0.1018 -0.467439,-0.2057 -0.0844,0.058 -0.111499,0.01 -0.185127,-0.01 -0.02799,-0.04 -0.06174,-0.072 -0.100654,-0.1 -0.03469,0 -0.06925,0.01 -0.100652,0.025 -0.11364,-0.043 -0.233725,-0.085 -0.343029,-0.1384 0.0034,-0.058 -0.04422,-0.088 -0.05518,-0.1223 -0.135215,0.074 -0.505315,-0.2381 -0.450127,-0.4145 0.449061,-0.061 0.862459,0.095 1.299612,-0.019 0.318113,-0.085 0.439277,0.2542 0.704438,0.1643 0.124416,-0.045 0.203441,-0.1569 0.339822,-0.1937 0.13634,-0.034 0.201239,0.031 0.310512,0.045 0.238067,0.027 0.476088,-0.03 0.704393,-0.054 0.323561,-0.038 0.596327,0.058 0.907953,0.1136 0.258623,0.045 0.496678,0.1332 0.761799,0.1375 0.281342,0.01 0.522706,-0.04 0.79428,-0.1006 0.499953,-0.1136 0.968481,0.081 1.446766,0.01 0.255353,-0.043 0.503199,-0.014 0.600577,0.2987 0.09089,0.2857 -0.09308,0.4372 -0.242362,0.6373 -0.122294,0.1624 -0.242488,0.4373 -0.339867,0.6212 -0.124451,0.2348 -0.274884,0.543 -0.312744,0.8007 -0.03017,0.2121 0.0421,0.4437 0.0046,0.6525 -0.04215,0.2295 -0.210862,0.4025 -0.350484,0.5854 -0.3625,0.4762 -0.241399,1.1752 -0.366939,1.7248 -0.08006,0.3486 -0.226062,0.7899 -0.434946,1.2087 -0.0822,-0.032 -0.167748,-0.054 -0.256622,-0.071 -0.08882,-0.018 -0.181134,-0.031 -0.276913,-0.043 0.09578,0.012 0.188086,0.026 0.276913,0.043 0.08887,0.017 0.17442,0.04 0.256622,0.071 0.147186,0.056 0.284548,0.1384 0.410083,0.2726 0.376546,0.4057 -0.218504,0.7239 -0.377562,1.1189 -0.16343,0.4113 -0.288987,0.8732 -0.288987,1.3288 0,0.5822 0.11474,1.159 0.039,1.738 -0.108185,0.8224 -0.34082,1.5333 -0.879671,2.1805 -0.213209,0.2552 -0.571385,0.5485 -0.617889,0.8937 -0.03017,0.2197 -0.01641,0.4436 -0.05853,0.6644 -0.110347,0.5691 -0.451143,1.1101 -0.391666,1.7096 0.02799,0.2987 0.08653,0.5594 0.0476,0.8896 -0.05088,0.4176 0.158016,0.6503 0.357119,0.9815 0.170996,0.2825 0.149332,0.4662 0.08656,0.7756 -0.05737,0.2782 0.132021,0.5682 0.312739,0.7987 0.180698,0.2294 0.310627,0.5119 0.376603,0.8072 0.0097,0 0.01939,10e-5 0.02954,0.01 0.200224,0.019 0.456627,0.039 0.649285,0.1016 0.19907,0.064 0.345202,0.1939 0.498805,0.3475 0.447972,0.4459 0.795325,1.0226 1.117802,1.5593 0.13962,0.2294 0.252073,0.4827 0.403543,0.6947 0.164515,0.2304 0.368064,0.4403 0.541175,0.6642 0.577825,0.7489 1.192352,1.5498 1.856813,2.2195 0.33755,0.3409 0.558335,0.7293 0.854808,1.0962 0.265115,0.3255 0.290105,0.4479 0.104008,0.8299 -0.203463,0.067 -0.306279,0.1374 -0.506445,0.1515 0.120097,0.1429 0.227226,0.2964 0.32573,0.4243 0.194738,0.2553 0.414435,0.5184 0.581076,0.79 0.06166,0.1005 0.103819,0.1968 0.134098,0.2997 0.06385,0.035 0.123373,0.067 0.180687,0.1038 0.399306,0.2532 0.800733,0.4882 1.103744,0.8635 0.281348,0.3484 0.42746,0.7834 0.638462,1.1729 0.218588,0.4016 0.399391,0.9025 0.702361,1.24 0.272687,0.3041 0.551791,0.4493 0.758439,0.8193 0.101732,0.1829 0.220854,0.356 0.308459,0.5433 0.113633,0.238 0.157895,0.516 0.275818,0.7464 0.122248,0.2404 0.337762,0.4341 0.480607,0.6666 0.257516,0.4112 0.415486,0.8323 0.548597,1.2899 0.100647,0.3496 0.191487,0.6114 0.191487,0.9858 0,0.3041 -0.0065,0.5995 0.03786,0.8993 0.1071,0.7185 0.11463,1.412 0.02352,2.1263 -0.04221,0.3266 0.08336,0.632 0.08877,0.9565 0.0065,0.3246 0.08768,0.8322 -0.112521,1.1005 -0.126653,0.1699 -0.360298,0.3714 -0.529124,0.4946 -0.177482,0.1299 -0.488093,0.2413 -0.626566,0.3928 -0.132016,0.1461 -0.05729,0.355 -0.08436,0.5291 -0.03654,0.2304 -0.182964,0.4101 -0.366933,0.5421 -0.214247,0.1558 -0.49556,0.1819 -0.741174,0.3009 -0.08548,0.041 -0.156862,0.096 -0.228282,0.1503 -0.02088,0.1234 -0.0476,0.2435 -0.07577,0.3637 -0.04646,0.1861 -0.0769,0.3927 -0.110427,0.5972 -0.03573,0.2175 4.1e-5,0.2456 0.05306,0.4481 0.07253,0.2802 -0.0065,0.6427 -0.04118,0.9174 -0.03786,0.2912 -0.123217,0.564 -0.150261,0.8474 -0.0347,0.3549 -0.07802,0.6774 -0.153764,1.0216 -0.06166,0.2845 -0.08439,0.554 -0.212085,0.8298 -0.08222,0.1786 -0.280326,0.459 -0.295474,0.657 -0.0844,0.032 -0.210977,0 -0.280223,-0.051 -0.156931,-0.1179 -0.05299,-0.2035 -0.265047,-0.1538 -0.231596,0.054 -0.265166,0.315 -0.395026,0.4644 -0.109257,0.1234 -0.258623,0.1578 -0.406859,0.2033 -0.08872,0.027 -0.210892,0.076 -0.301823,0.089 -0.139581,0.019 -0.251138,-0.043 -0.40371,0.058 -0.09087,0.059 -0.156805,0.1525 -0.241245,0.2153 -0.09737,-0.069 -0.233719,-0.1286 -0.362534,-0.1157 -0.178525,0.016 -0.274855,0.1796 -0.463108,0.2055 -0.356035,0.047 -0.703434,-0.3353 -0.980416,-0.5182 -0.121205,-0.08 -0.278095,-0.2326 -0.41228,-0.2793 -0.05737,-0.019 -0.159024,0.022 -0.204478,-0.016 -0.08336,-0.069 -0.0065,-0.1235 -0.04221,-0.1937 -0.09088,-0.1688 -0.498869,-0.3656 -0.702344,-0.3582 -0.01084,-0.1156 0.03573,-0.2379 0.146148,-0.2683 0.0052,-0.024 0.01944,-0.043 0.04107,-0.054 -0.0175,0 -0.345081,-0.4133 -0.394866,-0.5226 -0.0898,-0.198 -0.0964,-0.4546 -0.14835,-0.6581 -0.05518,-0.2195 -0.07997,-0.4706 -0.164399,-0.6913 -0.0476,-0.1233 -0.08875,-0.1493 -0.08875,-0.3105 0,-0.1245 0.0046,-0.1958 0.05088,-0.3008 0.112554,-0.2489 0.312629,-0.317 0.351562,-0.6026 0.03137,-0.2446 0.0086,-0.4904 -0.114596,-0.6917 -0.09629,-0.159 -0.257551,-0.2758 -0.287869,-0.4629 -0.03573,-0.2154 0.09853,-0.4567 0.301954,-0.4762 0.05409,-0.045 0.03131,-0.035 0.100511,-0.049 0.02088,-0.013 0.0683,-0.066 0.09211,-0.09 -0.319224,-0.4524 0.611246,-0.7824 0.613415,-1.1936 0,-0.2489 -0.307261,-0.4629 -0.341909,-0.7152 -0.01944,-0.1363 -0.0097,-0.3668 0.03647,-0.5475 0.04221,0.01 0.08011,0.01 0.112556,-0.01 -0.01084,-0.058 -0.02501,-0.1112 -0.04525,-0.1643 -0.02725,0.044 -0.04996,0.1028 -0.06721,0.1677 -0.186096,-0.045 -0.445769,-0.2944 -0.561571,-0.3831 -0.172072,-0.1342 -0.350558,-0.1602 -0.542102,-0.2251 -0.394975,-0.1331 -0.598451,-0.3744 -0.888442,-0.6752 -0.334373,-0.3463 -0.681616,-0.3808 -1.081993,-0.5572 -0.166636,-0.074 -0.32144,-0.1798 -0.476174,-0.2923 0.0065,0.1991 0.02799,0.3875 0.07253,0.5336 0.165546,0.5268 0.455616,1.0474 0.716424,1.5539 0.47287,0.9143 0.426332,1.873 0.542094,2.8641 0.02352,0.2188 0.07143,0.3993 0.09952,0.6149 0.02352,0.1805 0.09947,0.371 0.114649,0.5246 0.03469,0.3647 -0.210892,0.2425 -0.456507,0.2154 -0.194786,-0.022 -0.379839,0.049 -0.549709,0.1136 -0.320314,0.1212 -0.32577,0.065 -0.363659,-0.263 -0.0347,-0.3073 -0.039,-0.6297 -0.039,-0.95 0,-0.7165 -0.0487,-1.5 -0.238089,-2.1913 -0.179604,-0.6482 -0.490076,-1.2703 -0.712972,-1.9024 -0.160138,-0.4488 -0.262959,-0.8915 -0.306224,-1.3708 -0.0086,-0.1039 -0.02501,-0.2424 -0.03246,-0.3863 -0.111447,-0.044 -0.223027,-0.088 -0.32905,-0.1397 -0.264043,-0.1276 -0.722751,-0.3215 -0.833132,-0.6406 -0.04542,-0.1343 -0.03017,-0.3646 -0.0487,-0.5063 -0.03131,-0.2435 -0.12016,-0.4611 -0.16566,-0.7023 -0.05518,-0.2954 -0.01302,-0.6181 -0.05512,-0.9177 -0.0046,-0.019 -0.0065,-0.04 -0.01049,-0.058 -0.05087,0.023 -0.08883,0.045 -0.110496,0.06 -0.33221,0.2359 -0.596144,0.5648 -0.888297,0.8538 -0.276982,0.2758 -0.577824,0.5863 -0.806181,0.9056 -0.107106,0.1493 -0.18721,0.329 -0.332216,0.4632 -0.242403,0.225 -0.57568,0.3083 -0.798588,0.5647 -0.100635,0.117 -0.181703,0.2392 -0.296425,0.3507 -0.292142,0.2824 -0.601772,0.4814 -0.879872,0.7779 -0.181785,0.1926 -0.384043,0.3419 -0.589658,0.5118 -0.219656,0.1839 -0.162271,0.3486 -0.285638,0.5585 -0.241295,0.4037 -0.692645,0.5053 -0.959923,0.8559 -0.228323,0.2934 -0.283383,0.8225 -0.712967,0.9404 -0.230478,0.063 -0.344112,0 -0.543205,0.161 -0.132022,0.1061 -0.249968,0.2382 -0.374413,0.3377 -0.161233,0.1277 -0.313926,0.2815 -0.497883,0.3778 -0.221816,0.1148 -0.460835,0.1308 -0.681575,0.2033 -0.242386,0.8776 -0.07803,1.8472 -0.566044,2.648 -0.107124,0.1742 -0.260712,0.3106 -0.390564,0.4653 -0.141755,0.1677 -0.168781,0.2413 -0.210984,0.4382 -0.06924,0.3246 -0.05955,0.766 -0.362506,0.9922 -0.339774,0.2533 -0.733694,0.2122 -1.143805,0.2132 -0.462053,0 -0.886307,-0.1006 -1.358105,-0.1006 -0.45556,0 -0.941391,-0.048 -1.353671,-0.047 -0.06385,0 -0.157888,0.01 -0.265024,0.01 -0.187197,0.1688 -0.385212,0.3117 -0.62976,0.4523 -0.75529,0.434 -1.047552,1.2368 -1.5583,1.8936 -0.537791,0.6936 -0.81264,1.5475 -1.166467,2.3113 -0.333283,0.7208 -0.736861,1.5409 -0.441456,2.3602 0.08333,0.2283 0.53022,0.8471 0.1807,1.0463 -0.04709,0.026 -0.09673,0.034 -0.146935,0.03 z m 21.393699,-52.0166 c -0.05956,-0.031 -0.124601,-0.048 -0.184537,-0.072 0.05991,0.023 0.125007,0.043 0.184537,0.072 z" />
    <path
       d="m 63.876818,1804.6874 c 0.11993,0.052 0.04163,0.1507 0.0507,0.2419 0.01307,0.1338 -0.02604,0.2576 0.01423,0.4232 0.07049,0.2864 0.151333,0.5818 0.245092,0.8504 0.14877,0.4281 0.345609,0.8206 0.523045,1.2379 0.329824,0.7769 0.305058,1.6561 0.415984,2.5195 0.282867,0.064 0.514986,-0.5491 0.692388,-0.7265 0.255646,-0.2567 0.629886,-0.1725 0.554177,-0.5689 -0.06524,-0.3391 -0.341674,-0.5679 -0.425098,-0.9129 -0.02352,-0.093 -0.100396,-0.3143 -0.101709,-0.3657 -0.0052,-0.1884 0.104388,-0.3609 -0.02609,-0.5194 -0.327272,0.1071 -0.580314,-0.5124 -0.684553,-0.7135 -0.164353,-0.3173 -0.575066,-0.7078 -0.619483,-1.0626 -0.156409,-0.016 -0.217751,-0.1913 -0.329818,-0.2885 -0.113495,-0.099 -0.225632,-0.1278 -0.350794,-0.2576 0.04422,0.04 0.08078,0.088 0.106848,0.1427 z m 20.068235,-29.9603 c -0.335979,0.2032 -0.7602,0.2865 -1.017893,0.6205 -0.165511,0.214 -0.165511,0.4768 -0.207124,0.7215 -0.09913,0.5749 -0.510489,0.8069 -0.9783,1.0902 -0.541157,0.3271 -0.959413,0.7544 -1.304345,1.2995 -0.514389,0.8148 -1.075357,1.6057 -1.646283,2.3827 -0.433138,0.5877 -0.754268,1.1616 -1.288469,1.6791 -0.01674,0.016 -0.04364,0.04 -0.0773,0.065 -0.06341,0.052 -0.153652,0.1201 -0.260677,0.1943 0.0089,0.1527 -0.06838,0.3212 -0.117964,0.4747 -0.108006,0.3371 -0.278513,0.5283 -0.521323,0.7603 -0.259684,0.2488 -0.499546,0.3498 -0.782013,0.5401 -0.370482,0.2508 -0.637801,0.4668 -0.912943,0.8374 -0.546394,0.7367 -1.163083,1.4592 -1.765651,2.15 -0.159042,0.1844 -0.299793,0.4143 -0.464221,0.5847 -0.192996,0.1982 -0.402912,0.2498 -0.644133,0.3748 -0.796707,0.4131 -0.461697,1.3329 -1.038037,1.9068 -0.169498,0.1685 -0.303786,0.2885 -0.535909,0.3271 -0.229538,0.04 -0.348201,0.04 -0.559403,0.1804 -0.23868,0.1585 -0.601134,0.4399 -0.718576,0.7285 -0.110794,0.2686 -0.140814,0.6889 -0.207352,0.9792 -0.02988,0.132 -0.0183,0.333 -0.07421,0.455 -0.07306,0.1585 -0.232148,0.1784 -0.302598,0.2756 -0.172188,0.2328 -0.225592,0.6163 -0.356048,0.8851 -0.130416,0.2645 -0.342913,0.4627 -0.505963,0.7184 -0.202093,0.3163 -0.234609,0.4946 -0.260751,0.8762 -0.02352,0.338 -0.08615,0.572 -0.391207,0.7543 -0.26733,0.1586 -0.508459,0.2428 -0.704151,0.4867 -0.149916,0.1862 -0.267393,0.347 -0.469491,0.5054 -0.560671,0.4411 -0.708161,1.2855 -0.843647,1.9565 -0.106922,0.5303 0.09256,1.2787 -0.524208,1.5006 -0.164347,0.059 -0.307743,0.047 -0.459007,0.1903 -0.126469,0.1199 -0.168201,0.2438 -0.241255,0.3936 -0.136978,0.2793 -0.298612,0.7096 -0.189074,1.0159 0.02093,0.057 0.0495,0.1089 0.09137,0.1556 0.0034,-0.032 0.01049,-0.066 0.0183,-0.098 0.307749,0.1804 0.672886,0.5591 1.05101,0.676 0.332543,-0.6443 0.843773,-1.1636 1.553138,-1.5363 0.435468,-0.2279 0.755042,-0.556 1.224459,-0.6818 0.236072,-0.063 0.414665,-0.078 0.616798,0.078 0.253038,0.1941 0.187813,0.4885 0.243894,0.782 0.05999,0.3181 0.04812,0.6244 0.19684,0.9167 0.110909,0.2191 0.251775,0.4302 0.37693,0.6532 0.158974,0.2875 0.230841,0.5312 0.483779,0.789 0.297258,0.3052 0.327169,0.4866 0.457694,0.8374 0.1917,0.5135 0.443348,1.0626 0.558145,1.6157 0.05853,0.2863 0.09383,0.555 0.191684,0.8474 0.130347,0.3875 0.157682,0.4836 -0.03125,0.8623 -0.194379,0.3904 -0.457815,0.7096 -0.615497,1.1199 -0.149968,0.3885 -0.366452,0.7245 -0.524243,1.0804 -0.142128,0.3172 -0.275113,0.7116 -0.436903,1.0259 -0.195633,0.3776 -0.477233,0.5411 -0.739373,0.8017 -0.439356,0.4362 -0.63631,1.1627 -0.960909,1.7107 -0.211311,0.3559 -0.262174,0.8712 -0.538709,1.2261 -0.196834,0.2527 -0.467994,0.093 -0.684552,0.3082 -0.105667,-0.034 -0.459025,0.2726 -0.5841,0.3718 -0.255681,0.2021 -0.478635,0.44 -0.719844,0.6729 -0.429056,0.4142 -1.045865,0.5283 -1.532208,0.8653 -0.02352,-0.01 -0.04566,-0.01 -0.06524,-0.027 -0.02609,0.019 -0.04175,0.042 -0.04565,0.074 -0.123883,-0.012 -0.361186,0.045 -0.474665,0.075 -0.205976,0.056 -0.239953,0.032 -0.434212,0 -0.179902,-0.03 -0.384651,0.025 -0.572388,-0.01 -0.121416,-0.023 -0.273953,-0.1101 -0.426497,-0.071 -0.607581,0.1536 -0.696379,1.7592 -1.301466,1.6254 -0.02983,0.041 -0.11337,0.068 -0.203355,0.078 0.01158,0.1071 0.02352,0.2133 0.03533,0.3184 0.02879,0.2596 0.143396,0.6074 0.185018,0.8761 0.02765,0.1853 -0.07165,0.3022 -0.07165,0.4609 0,0.1299 0.09257,0.2239 0.08216,0.3627 0.07575,0.035 0.08862,0.5471 0.117367,0.6789 0.06524,0.2895 0.07306,0.5938 0.06393,0.9001 -0.01566,0.5371 -0.192997,1.0426 -0.470788,1.5086 -0.166894,0.2814 -0.299822,0.4181 -0.558112,0.6104 -0.208655,0.1536 -0.206046,0.2786 -0.340257,0.5034 -0.135681,0.2251 -0.228277,0.4292 -0.456512,0.5719 -0.186441,0.118 -0.439409,0.1646 -0.632468,0.2667 -0.225587,-0.2299 -0.709365,-0.116 -0.883973,0.1288 -0.39915,-0.2171 -0.826835,-0.451 -1.23756,-0.6264 -0.359873,-0.1506 -0.739403,-0.6859 -1.159235,-0.4341 -0.376902,-0.4094 -0.846318,-0.5788 -0.766841,-1.2111 0.03923,-0.3063 0.166997,-0.6126 0.03791,-0.914 -0.09913,-0.2329 -0.290804,-0.4083 -0.396391,-0.6362 -0.208695,-0.449 -0.247845,-0.9892 0.165547,-1.3698 0.08346,-0.078 0.170764,-0.1486 0.260871,-0.21 -0.0065,-0.022 -0.01153,-0.044 -0.01721,-0.064 -0.0899,-0.3568 -0.169497,-0.7047 -0.391097,-1.0446 -0.142122,-0.218 -0.551683,-0.6532 -0.148684,-0.8177 0.143321,-0.058 0.499432,0.01 0.653265,0.026 0.01307,-0.014 0.08086,-0.079 0.08347,-0.083 0.02466,-0.053 0.04566,-0.1022 0.06779,-0.1308 -0.0046,-0.1428 -0.01456,-0.2558 0.04182,-0.3768 0.08743,-0.1863 0.252911,-0.2289 0.28156,-0.442 0.04038,-0.2944 -0.212567,-0.4489 -0.118635,-0.7819 0.05999,-0.2092 0.174757,-0.3807 0.303786,-0.5431 -0.129029,-0.066 -0.263373,-0.132 -0.381978,-0.1616 -0.193067,-0.048 -0.393858,-0.032 -0.586848,-0.092 -0.726302,-0.2308 -1.426553,-0.218 -2.022434,-0.772 -0.562167,-0.5213 -1.182802,-1.0585 -1.821797,-1.4955 -0.33513,-0.2301 -0.790259,-0.5463 -1.180163,-0.6521 -0.170766,-0.047 -0.332544,-0.077 -0.494173,-0.096 0.08731,0.3468 0.427754,0.9743 -0.183969,0.9059 -0.385843,-0.043 -0.757548,-0.2716 -1.006703,0.1656 -0.205867,0.3598 -0.172078,1.0495 -0.05999,1.4351 0.104455,0.3598 0.675576,0.6283 0.626009,1.0456 -0.01674,0.1348 -0.116054,0.1924 -0.102965,0.3242 0.01044,0.101 0.09782,0.209 0.131603,0.3002 0.07188,0.035 0.160475,0.084 0.232234,0.1229 0.06378,0.072 0.144697,0.1558 0.160361,0.2667 0.09783,0.045 0.117252,0.1447 0.230736,0.1892 0.03791,0.092 0.09912,0.1477 0.198319,0.1775 0.0651,0.2973 -0.05743,0.2775 -0.236065,0.4629 -0.08216,0.085 -0.256913,0.2716 -0.09257,0.3359 0.02879,0.064 0.02988,0.1556 0.0034,0.222 -0.241245,0.034 -0.412131,0.057 -0.637711,0.1407 -0.172079,0.066 -0.417177,0.1924 -0.590632,0.1985 -0.258169,0.01 -0.818955,-0.2409 -0.993615,-0.4432 -0.237367,-0.2725 -0.211304,-0.7632 -0.245195,-1.124 -0.03912,-0.4252 0.07301,-0.8879 -0.01457,-1.3044 -0.08719,-0.4093 -0.277803,-0.777 -0.378118,-1.1724 -0.104353,-0.4084 -0.01721,-0.7493 0.07034,-1.1418 0.09002,-0.4084 0.176018,-0.8038 0.234797,-1.2211 -0.183929,0.01 -0.361262,-0.049 -0.500814,-0.1942 -0.322099,-0.3341 -0.129039,-1.2657 -0.129039,-1.7475 0,-0.6621 -0.242631,-1.2488 -0.340378,-1.89 -0.05357,-0.3488 -0.01566,-0.6314 0.01457,-0.9783 0.01944,-0.2249 0.02609,-0.6066 0.196839,-0.7463 0.02357,-0.071 0.03023,-0.091 0.06523,-0.1298 0.109606,-0.5363 0.631159,-0.9476 1.108286,-1.1101 0.104467,-0.1418 0.353552,-0.1735 0.504701,-0.2687 0.155223,0.062 0.423882,-0.026 0.586853,-0.01 0.164313,0.014 0.345483,-0.01 0.521628,0.012 0.105661,0.012 0.161737,0.058 0.292085,0.066 0.12519,0.01 0.245093,-0.026 0.36383,-0.018 0.122512,0.01 0.677963,0.061 0.745849,0.1535 0.129136,-0.041 0.215176,0.039 0.305167,0.1299 0.156414,-0.072 0.389824,0.1716 0.538593,0.2559 0.190428,0.11 0.405489,0.1882 0.560677,0.2883 0.323331,0.2082 0.60512,0.4789 0.944196,0.6928 0.353329,0.2231 0.692393,0.4668 0.975386,0.7483 0.05484,0.054 0.118623,0.1051 0.187691,0.1586 0.146115,-0.5471 0.354735,-1.0675 0.562093,-1.5956 0.367719,-0.9338 1.097887,-1.8664 1.19175,-2.8665 0.02093,-0.223 -0.03906,-0.4788 -0.06254,-0.7186 -0.03017,-0.2853 -0.172187,-0.5798 -0.203406,-0.8434 -0.0613,-0.5381 0.0089,-1.0198 0.345534,-1.4224 0.358662,-0.4281 0.02203,-0.78 -0.01566,-1.2547 -0.02357,-0.2933 0.07158,-0.5213 0.145953,-0.7969 0.0078,-0.03 0.01566,-0.059 0.02237,-0.088 -0.185248,-0.083 -0.391184,-0.1379 -0.545098,-0.1922 -0.294694,-0.1041 -0.546343,-0.1695 -0.847541,-0.3192 -0.07316,-0.1962 -0.198244,-0.3697 -0.275221,-0.5777 -0.05357,-0.1459 -0.09259,-0.5463 -0.181285,-0.5968 0.0046,-0.2974 -0.315502,-0.5224 -0.41985,-0.79 -0.217768,-0.109 -0.336494,-0.4361 -0.506072,-0.6294 -0.211121,-0.2428 -0.448534,-0.4599 -0.664875,-0.6888 -0.429066,-0.4529 -0.915409,-0.8077 -1.340639,-1.2409 -0.429055,-0.4361 -0.770478,-0.8166 -1.241392,-1.2528 -0.216374,-0.2022 -0.39904,-0.4658 -0.61806,-0.6837 -0.199528,-0.1994 -0.451178,-0.4294 -0.582907,-0.6544 -0.209915,-0.074 -0.356001,-0.2676 -0.508538,-0.4193 -0.166808,-0.1665 -0.354735,-0.318 -0.507261,-0.4914 -0.224324,-0.2539 -0.460315,-0.4541 -0.682028,-0.7187 -0.668901,-0.7978 -0.993724,-1.9961 -1.027626,-3.029 -0.0194,-0.6084 -0.01044,-1.2012 -0.07937,-1.778 -0.07443,-0.6125 -0.232216,-1.2201 -0.246613,-1.8743 -0.0065,-0.2964 -0.03395,-0.5659 -0.06896,-0.8473 -0.02093,-0.1725 -0.04175,-0.6484 0.08208,-0.7702 0.157786,-0.1527 0.571194,0 0.770597,0.052 0.298651,0.075 0.52562,0.1595 0.846342,0.1318 1.11109,-0.1011 2.03422,-0.9257 3.086648,-1.2251 0.07049,-0.4846 0.208619,-0.9257 0.421117,-1.3885 0.307862,-0.668 0.412141,-1.4045 -0.03642,-2.0398 -0.08862,-0.125 -0.286835,-0.2418 -0.393787,-0.3518 -0.09771,-0.1021 -0.160366,-0.2311 -0.255508,-0.3301 -0.07969,-0.081 -0.20082,-0.1378 -0.277837,-0.2071 -0.125253,-0.1141 -0.251649,-0.2122 -0.379489,-0.3311 -0.189114,-0.1744 -0.39248,-0.2795 -0.612852,-0.4351 -0.199479,-0.1418 -0.582855,-0.1804 -0.718571,-0.3797 -0.12121,0.051 -0.811062,-0.111 -0.847541,-0.2615 -0.156483,0.043 -0.271269,-0.058 -0.392594,-0.1101 -0.238519,-0.1031 -0.376805,-0.08 -0.163,-0.3549 0.451259,-0.5847 1.057647,-0.016 1.613167,0.047 0.602407,0.068 1.178786,0.3349 1.826873,0.2628 0.611653,-0.068 1.243885,-0.1281 1.894667,-0.132 0.654654,-0.01 1.396723,0.1239 2.016084,0.3113 0.661112,0.2011 0.5816,0.7225 0.260764,1.225 -0.212498,0.3311 -0.430256,0.6621 -0.650772,0.9902 -0.239866,0.3587 -0.302419,0.6313 -0.391098,1.0575 -0.106962,0.5144 -0.136907,1.0536 -0.234721,1.564 -0.02609,0.1329 -0.05604,0.2636 -0.09258,0.3895 -0.07947,0.2746 -0.266016,0.4947 -0.440739,0.7266 0.09246,0.049 0.177299,0.114 0.245099,0.205 0.165632,0.2213 0.123894,0.3967 0.132985,0.6741 -0.337648,0.2825 -0.49276,0.995 -0.520314,1.4947 -0.0034,0.056 -0.0034,0.111 -0.0034,0.1606 0,0.6004 0.215142,1.0535 0.340332,1.6333 0.04439,0.2072 -0.03137,0.6026 0.06254,0.785 0.110908,0.218 0.538588,0.2755 0.719878,0.3875 0.608924,0.3757 0.499436,1.0159 0.584162,1.6196 0.410726,0.2101 0.858014,-0.041 1.241393,0.2576 0.147386,0.115 0.298656,0.2101 0.426416,0.357 0.100372,0.1169 0.207415,0.3894 0.339064,0.4459 0.182661,0.076 0.451132,-0.027 0.642948,0.073 0.190375,0.099 0.378111,0.3519 0.51904,0.5113 0.239867,0.2697 0.384571,0.575 0.555342,0.8723 0.332624,-0.088 0.669009,-0.1289 1.024948,-0.2121 0.19049,-0.045 0.3887,0.018 0.579127,-0.01 0.252922,-0.032 0.464042,-0.1229 0.723726,-0.1357 0.325976,-0.014 0.703979,-0.016 1.030081,-0.063 0.221703,-0.033 0.478514,-0.1239 0.599833,-0.3271 0.110834,-0.1883 0.07437,-0.4223 0.251654,-0.4985 0.01187,-0.1249 0.03126,-0.2498 0.06269,-0.3717 -0.06918,-0.043 -0.113489,-0.336 -0.119936,-0.4302 -0.01566,-0.2309 0.02609,-0.3369 0.211121,-0.446 0.135675,-0.079 0.294763,-0.038 0.440843,-0.076 0.2464,-0.064 0.435513,-0.1704 0.653391,-0.2833 0.171964,-0.09 0.298491,-0.1706 0.396356,0.018 0.13041,0.2547 -0.172181,0.5104 -0.266056,0.7088 -0.12527,0.2675 -0.199523,0.6143 -0.195635,0.9077 0,0.12 0.02352,0.233 0.04308,0.3449 0.0034,0.019 0.0052,0.036 0.0078,0.054 0.0052,-0.014 0.01044,-0.032 0.01566,-0.047 0.06523,-0.1825 0.135595,-0.3628 0.20862,-0.5332 0.233415,-0.5452 0.800658,-1.1051 1.285813,-1.4362 0.174763,-0.1179 0.338996,-0.1793 0.511143,-0.3103 0.12132,-0.092 0.249079,-0.1763 0.369091,-0.2694 0.292089,-0.2281 0.564667,-0.473 0.820165,-0.7395 0.212611,-0.221 0.473368,-0.4529 0.654543,-0.6977 0.298646,-0.4075 0.453863,-0.8831 0.727708,-1.3065 0.374252,-0.5808 0.636311,-1.1913 1.043175,-1.7591 0.459019,-0.6403 0.923249,-1.3836 1.532214,-1.8911 0.567311,-0.4719 1.264999,-0.902 1.696526,-1.5136 0.16047,-0.2269 0.324708,-0.4213 0.491712,-0.6382 0.160365,-0.2082 0.276345,-0.5591 0.502017,-0.7037 0.744524,-0.4809 1.293528,0.9227 1.643002,1.3063 0.329985,0.3628 0.704214,0.6621 1.172329,0.8137 0.41985,0.1357 0.685866,0.2855 1.00145,0.5203 0.07435,-0.1249 0.155221,-0.2429 0.241066,-0.3458 0.168494,-0.2002 0.401387,-0.334 0.571895,-0.5463 0.199225,-0.2476 0.441036,-0.4806 0.71955,-0.6561 0.744335,-0.4679 1.375724,-1 1.968422,-1.6254 0.287427,-0.3033 0.42024,-0.7126 0.636311,-1.0635 0.221037,-0.3568 0.420228,-0.6235 0.522333,-1.0288 0.08718,-0.3479 -0.02684,-1.1437 -0.324112,-1.4312 -0.294361,-0.2874 -0.720554,-0.116 -1.059516,-0.3092 -0.177441,-0.099 -0.321135,-0.2984 -0.45693,-0.457 -0.174448,-0.2002 -0.388511,-0.343 -0.05145,-0.4896 0.331023,-0.1436 0.678932,-0.01 0.980233,0.1328 0.284474,0.1328 0.55307,0.1556 0.847421,0.2289 0.292371,0.074 0.498542,-0.021 0.783015,-0.018 0.213094,0.01 0.216076,0.086 0.390496,0.1853 0.176443,0.1002 0.284478,0.041 0.456924,0.01 0.116954,-0.022 0.341949,-0.095 0.455915,-0.054 0.186366,0.068 0.1814,0.446 0.448013,0.3727 0.01268,-0.031 0.01492,-0.062 0.0078,-0.093 0.193243,0.2884 0.801811,0.3449 1.105119,0.3805 0.244795,0.03 0.797859,0.1893 0.907885,0.442 0.141715,0.326 -0.262672,0.4313 -0.460882,0.5531"
       style="fill:#370f1f;fill-opacity:1;fill-rule:nonzero;stroke:none;stroke-width:0.00991143"
       id="path523" />
  </g>
</svg>
