<?xml version="1.0" encoding="UTF-8" standalone="no"?>
<!-- Created with Inkscape (http://www.inkscape.org/) -->

<svg
   version="1.1"
   id="svg2"
   width="1280"
   height="720"
   viewBox="0 0 1280 719.99998"
   sodipodi:docname="LibraryLogo.svg"
   inkscape:version="1.2.2 (b0a8486541, 2022-12-01)"
   xmlns:inkscape="http://www.inkscape.org/namespaces/inkscape"
   xmlns:sodipodi="http://sodipodi.sourceforge.net/DTD/sodipodi-0.dtd"
   xmlns="http://www.w3.org/2000/svg"
   xmlns:svg="http://www.w3.org/2000/svg">
  <defs
     id="defs6">
    <clipPath
       clipPathUnits="userSpaceOnUse"
       id="clipPath20">
      <path
         d="M 0,2394 H 28286 V 20000 H 0 Z"
         id="path18" />
    </clipPath>
    <linearGradient
       x1="0"
       y1="0"
       x2="1"
       y2="0"
       gradientUnits="userSpaceOnUse"
       gradientTransform="matrix(0,-17403.7,-17403.7,0,14142.9,19697.7)"
       spreadMethod="pad"
       id="linearGradient28">
      <stop
         style="stop-opacity:1;stop-color:#481629"
         offset="0"
         id="stop22" />
      <stop
         style="stop-opacity:1;stop-color:#cc3c2d"
         offset="0.417241"
         id="stop24" />
      <stop
         style="stop-opacity:1;stop-color:#f6ae5a"
         offset="1"
         id="stop26" />
    </linearGradient>
    <clipPath
       clipPathUnits="userSpaceOnUse"
       id="clipPath38">
      <path
         d="m 23386.3,13478.7 c 0,2280.3 -1848.6,4128.9 -4128.9,4128.9 -2280.4,0 -4129,-1848.6 -4129,-4128.9 0,-2280.4 1848.6,-4129 4129,-4129 2280.3,0 4128.9,1848.6 4128.9,4129 z"
         id="path36" />
    </clipPath>
    <linearGradient
       x1="0"
       y1="0"
       x2="1"
       y2="0"
       gradientUnits="userSpaceOnUse"
       gradientTransform="matrix(0,-8479.71,-8479.71,0,19257.3,17607.6)"
       spreadMethod="pad"
       id="linearGradient46">
      <stop
         style="stop-opacity:1;stop-color:#f57572"
         offset="0"
         id="stop40" />
      <stop
         style="stop-opacity:1;stop-color:#f8a26c"
         offset="0.417241"
         id="stop42" />
      <stop
         style="stop-opacity:1;stop-color:#fcdf81"
         offset="1"
         id="stop44" />
    </linearGradient>
    <clipPath
       clipPathUnits="userSpaceOnUse"
       id="clipPath56">
      <path
         d="m -32.6875,14924 c 0,0 711.1285,-28.8 1299.6475,-288.8 588.52,-259.9 760.17,-288.8 1029.91,-231 269.73,57.7 171.65,404.3 -564,519.8 0,0 274.38,86.7 701.19,0 426.8,-86.6 966.28,-361.9 1309.58,-253.1 343.31,108.7 662.08,22.1 956.34,-151.2 0,0 73.57,389 662.09,151.2 588.51,-237.8 956.34,-461.1 1299.65,-291.7 343.3,169.4 858.25,202.8 1397.73,-59.4 539.47,-262.2 907.3,60.1 1054.42,0 147.13,-60 637.57,-119.6 931.83,-104.3 294.3,15.4 907.3,-13.5 1054.4,-186.8 147.2,-173.3 -858.2,28.9 -1103.44,-231 -245.22,-260 -539.48,-144.4 -1103.48,-144.4 0,0 -956.34,-173.3 -1226.07,-548.8 0,0 416.86,-57.7 1103.47,0 686.6,57.8 1103.47,-317.7 1814.62,-317.7 711.1,0 956.3,346.6 1373.2,202.2 416.9,-144.4 735.6,-202.2 1128,-202.2 392.3,0 1226.1,-288.8 1373.2,-433.2 0,0 -711.1,86.7 -1152.5,-202.2 -441.4,-288.8 -613.1,-28.9 -1152.5,-173.3 -539.5,-144.3 -833.8,173.3 -1177.1,-173.2 -343.3,-346.6 -907.3,-491 -1544.84,-433.3 -637.56,57.8 -539.48,206.3 -1078.95,-12.3 -539.48,-218.7 -1152.52,-218.7 -1397.74,-218.7 -245.21,0 -784.69,-86.7 -1177.04,-404.3 0,0 514.96,-86.7 564.01,-288.9 49.04,-202.1 858.25,-115.5 1103.47,-231 0,0 -1275.13,-202.2 -1593.91,-346.6 -318.78,-144.4 -809.21,-28.9 -1544.86,0 -735.65,28.9 -1618.43,60 -1986.26,-71.1 -367.81,-131.1 -1275.11,302.2 -1422.243,302.2 0,0 465.903,288.8 931.823,259.9 465.91,-28.9 760.17,231.1 907.3,317.7 147.13,86.6 441.38,577.6 1029.91,548.7 588.52,-28.8 -1275.14,202.2 -1520.35,202.2 -245.22,0 -2255.98797,375.5 -2721.898,173.3 v 3359.9 z"
         id="path54" />
    </clipPath>
    <clipPath
       clipPathUnits="userSpaceOnUse"
       id="clipPath62">
      <path
         d="M 28285.7,0 H 0.00390625 V 20000 H 28285.7 Z"
         id="path60" />
    </clipPath>
    <linearGradient
       x1="0"
       y1="0"
       x2="1"
       y2="0"
       gradientUnits="userSpaceOnUse"
       gradientTransform="matrix(0,-17466.4,17466.4,0,6992.75,19966.5)"
       spreadMethod="pad"
       id="linearGradient70">
      <stop
         style="stop-opacity:1;stop-color:#8d3453"
         offset="0"
         id="stop64" />
      <stop
         style="stop-opacity:1;stop-color:#cc3c2d"
         offset="0.151723"
         id="stop66" />
      <stop
         style="stop-opacity:1;stop-color:#f6c77d"
         offset="1"
         id="stop68" />
    </linearGradient>
    <clipPath
       clipPathUnits="userSpaceOnUse"
       id="clipPath80">
      <path
         d="m -12.8672,19693.2 c 0,0 331.1642,-14 503.3792,70.4 172.207,84.5 264.933,55.4 490.125,-35.6 225.193,-91.1 397.403,-36.5 556.363,-35.6 158.97,0.8 529.87,199.8 861.04,121.4 331.18,-78.3 516.63,-100 741.83,-138.4 225.19,-38.5 649.09,-193.3 768.31,-207.4 0,0 -596.11,-98.5 -808.06,-239.2 -211.94,-140.8 -357.66,-183 -357.66,-183 0,0 317.92,140.7 503.38,84.4 185.46,-56.3 543.12,-56.3 728.57,14.1 185.46,70.4 543.12,211.1 662.34,183 119.22,-28.2 304.67,-140.8 516.63,-140.8 211.94,0 715.32,-28.1 794.8,-140.7 79.48,-112.6 211.95,-98.5 423.9,0 211.95,98.5 476.89,126.7 635.84,28.1 158.97,-98.5 490.14,-70.3 609.36,-28.1 119.22,42.2 781.56,-31.9 914.03,-79.3 132.47,-47.4 622.59,-103.7 914.02,-131.8 291.44,-28.2 556.37,-70.4 556.37,-70.4 0,0 -781.56,-140.8 -1218.7,-140.8 -437.15,0 -556.37,-14 -675.59,-70.3 -119.22,-56.3 -304.68,42.2 -582.86,0 -278.18,-42.3 -728.57,-154.9 -1006.75,-168.9 -278.18,-14.1 -490.14,0 -675.59,-112.6 -185.45,-112.6 -410.65,-112.6 -635.85,-70.4 0,0 158.96,-267.4 384.16,-253.4 225.2,14.1 596.11,183 741.82,140.8 145.71,-42.3 410.65,-198.1 569.61,-141.3 158.96,56.8 384.16,155.4 543.12,99 158.96,-56.2 450.39,-138.3 649.09,-111.3 198.7,26.9 516.63,32.8 688.84,-5.3 172.2,-38.2 516.62,-60.4 794.81,0 278.17,60.4 1258.39,-207.1 1258.39,-207.1 0,0 -1019.96,-154.8 -1139.18,-239.3 -119.21,-84.4 -410.65,-182.9 -675.59,-126.6 -264.93,56.3 -662.33,14 -847.78,-112.6 -185.46,-126.7 -609.36,-126.7 -794.81,-98.6 -185.46,28.2 -331.18,138.6 -569.61,-15.1 -238.45,-153.8 -397.41,-210.1 -582.87,-210.1 -185.45,0 -635.84,-42.2 -814.67,-140.7 -178.83,-98.5 -457.02,-112.6 -735.2,-112.6 -278.18,0 -1006.76,-450.4 -1245.19,-394.1 -238.45,56.3 -543.12,-28.2 -755.07,-98.6 -211.96,-70.3 -914.03,-380 -1271.7,-394 -357.66,-14.1 -1324.6745,-211.2 -1510.128,-140.8 z"
         id="path78" />
    </clipPath>
    <clipPath
       clipPathUnits="userSpaceOnUse"
       id="clipPath86">
      <path
         d="M 28285.7,0 H 0.00390625 V 20000 H 28285.7 Z"
         id="path84" />
    </clipPath>
    <linearGradient
       x1="0"
       y1="0"
       x2="1"
       y2="0"
       gradientUnits="userSpaceOnUse"
       gradientTransform="matrix(0,-17466.4,-17466.4,0,5365.32,19966.5)"
       spreadMethod="pad"
       id="linearGradient94">
      <stop
         style="stop-opacity:1;stop-color:#8d3453"
         offset="0"
         id="stop88" />
      <stop
         style="stop-opacity:1;stop-color:#cc3c2d"
         offset="0.151723"
         id="stop90" />
      <stop
         style="stop-opacity:1;stop-color:#f6c77d"
         offset="1"
         id="stop92" />
    </linearGradient>
    <clipPath
       clipPathUnits="userSpaceOnUse"
       id="clipPath104">
      <path
         d="m 28181,13046.1 c 0,0 -858.1,-278.6 -1382.5,-151.9 -524.4,126.6 -834.2,35.2 -1167.9,-33 -333.7,-68.4 -858.1,-83.7 -1072.6,0 -214.5,83.6 -548.2,58.3 -1024.9,-169.7 -476.7,-227.9 -1430.1,-25.3 -1573.2,0 0,0 -333.7,430.6 -834.2,228 -500.5,-202.6 -649.5,-25.3 -1147.1,-25.3 -497.5,0 -974.2,-290.4 -1212.6,-309.8 -238.3,-19.5 -929.6,120.7 -1310.9,0 -381.4,-120.8 -762.8,-247.4 -1120.3,-222.1 -357.5,25.3 -762.7,-25.3 -1120.2,-151.9 0,0 524.3,0 572,-228 47.7,-227.9 309.9,-253.2 524.4,-253.2 214.5,0 452.8,202.6 595.9,0 143,-202.6 643.5,-303.9 762.7,-228 119.2,76 333.7,-101.1 572,-25.2 238.4,75.9 715.1,-215.9 1025,-19.3 309.8,196.5 1406.2,-69.4 1406.2,-69.4 0,0 -953.4,-38 -1334.7,-190 -381.4,-151.9 -1001.1,0 -1215.6,-202.6 -214.6,-202.6 -595.9,-177.3 -953.5,-227.9 0,0 524.4,-228 953.5,-202.6 429,25.3 1024.9,173.3 1430.1,-2 405.2,-175.3 834.2,23.4 1167.9,0 333.7,-23.4 667.4,130.7 1096.4,-73 429.1,-203.6 834.3,-416.1 1263.3,-360.5 429,55.6 953.4,179.7 1215.6,-9 262.2,-188.7 643.6,-290 1001.1,-138 357.5,151.9 929.6,-20.8 1072.6,-73.7 143,-53 1048.7,52.9 1334.8,0 286,-53 935.5,-15.3 935.5,-15.3 v 3153.4 z"
         id="path102" />
    </clipPath>
    <clipPath
       clipPathUnits="userSpaceOnUse"
       id="clipPath110">
      <path
         d="M 28285.7,0 H 0.00390625 V 20000 H 28285.7 Z"
         id="path108" />
    </clipPath>
    <linearGradient
       x1="0"
       y1="0"
       x2="1"
       y2="0"
       gradientUnits="userSpaceOnUse"
       gradientTransform="matrix(0,-17466.4,-17466.4,0,21927.2,19966.5)"
       spreadMethod="pad"
       id="linearGradient118">
      <stop
         style="stop-opacity:1;stop-color:#8d3453"
         offset="0"
         id="stop112" />
      <stop
         style="stop-opacity:1;stop-color:#cc3c2d"
         offset="0.151723"
         id="stop114" />
      <stop
         style="stop-opacity:1;stop-color:#f6c77d"
         offset="1"
         id="stop116" />
    </linearGradient>
    <clipPath
       clipPathUnits="userSpaceOnUse"
       id="clipPath128">
      <path
         d="m -81.8047,6765.3 c 0,0 732.8517,227.9 1025.9927,0 293.142,-228 537.412,-25.3 732.842,0 195.43,25.3 903.85,151.9 1270.28,101.3 l 219.85,177.3 c 0,0 -390.85,101.3 -610.71,151.9 -219.85,50.7 -439.7,152 -610.71,126.7 -170.99,-25.4 -488.56,-118.7 -757.27,4 -268.716,122.6 -488.572,233.7 -635.138,165.5 0,0 390.856,185 708.418,134.4 317.57,-50.7 659.57,-134.4 879.42,8.8 219.86,143.1 708.42,219.1 928.28,219.1 219.85,0 683.99,177.3 683.99,177.3 0,0 -378.64,202.6 -525.21,183.6 -146.57,-19 -329.78,38 -531.31,151.9 -201.54,114 -513,285 -677.89,247 C 1854.14,8576.1 1561,8804 1561,8804 c 0,0 934.38,-113.9 1264.16,0 329.79,114 586.28,152 824.46,114 238.18,-38 421.39,104.5 769.49,14.2 348.11,-90.2 622.92,94.3 916.06,30.5 293.14,-63.7 861.1,-177.7 1374.1,-177.7 0,0 -659.57,-76 -650.41,-170.9 9.16,-95 -265.66,-114 -448.87,-95 -183.21,19 -238.17,-19 -274.82,-76 0,0 201.54,-170.9 513,-170.9 311.46,0 494.67,-95 769.49,-171 274.82,-76 604.6,-94.9 769.5,-94.9 164.88,0 531.31,-38 531.31,-38 0,0 -641.25,-74.1 -842.78,-151 -201.53,-77 -641.24,-77 -806.14,-96 -164.88,-19 -567.95,-94.9 -769.49,-151.9 -201.53,-57 -384.74,-77.4 -384.74,-77.4 0,0 256.5,-131.6 567.96,-283.5 311.46,-152 531.31,-95 714.53,-95 183.21,0 567.95,57 879.41,-170.9 311.47,-228 384.75,-360 641.25,-284.5 256.49,75.5 476.35,189.5 751.17,132.5 274.82,-57 494.67,19 824.45,76 329.78,57 439.71,170.9 824.41,0 384.8,-171 1026,-38 1026,-38 0,0 -256.5,-284.9 -403,-303.9 -146.6,-19 238.1,-114 567.9,0 329.8,114 238.2,151.9 476.4,57 238.2,-95 787.8,132.9 952.7,38 164.9,-95 311.4,132.9 567.9,170.9 256.5,38 604.6,95 604.6,95 0,0 -751.1,114 -952.7,227.9 -201.5,114 -366.4,190 -531.3,114 -164.9,-76 -366.4,-95 -513,-38 -146.5,57 -366.4,114 -513,95 -146.5,-19 -476.3,-76 -586.2,0 -110,75.9 -769.5,207.5 -769.5,207.5 0,0 806.1,96.4 934.3,96.4 128.3,0 366.5,-76 659.6,19 293.2,94.9 586.3,208.9 696.2,208.9 109.9,0 201.6,227.9 513,95 311.5,-133 476.4,-243.6 641.3,-188.3 164.8,55.3 769.4,-36.4 1117.5,0 0,0 -476.3,245.3 -732.8,226.3 -256.5,-19 659.6,57 732.8,57 73.3,0 531.4,18.9 696.3,75.9 164.8,57 458,228 458,228 0,0 -274.8,0 -549.7,0 -274.8,0 -403,208.9 -586.2,208.9 0,0 348.1,-38 513,19 164.9,57 329.7,170.9 622.9,57 293.1,-114 586.3,-133 659.5,-76 73.3,57 36.7,208.9 421.4,133 384.8,-76 384.8,0 824.5,-38 439.7,-38 641.2,-284.9 952.7,-284.9 0,0 -403.1,-76 -677.9,-114 -274.8,-38 -494.7,-19 -586.3,-133 -91.6,-113.9 -311.4,-189.9 -458,-170.9 -146.6,19 -476.4,-95 -476.4,-95 l -403,-208.9 c 0,0 384.7,35.1 549.6,-115.4 164.9,-150.5 403.1,-131.6 641.3,-131.6 238.1,0 439.7,152 677.9,0 238.1,-151.9 659.5,-94.9 732.8,-75.9 73.3,19 421.4,-57 604.6,-95 183.2,-38 714.5,19 787.8,19 73.3,0 -677.9,-265.9 -897.7,-265.9 -219.9,0 -604.6,-19 -732.9,-133 -128.2,-114 -513,-133 -696.2,-133 0,0 183.2,-186.2 568,-207.1 0,0 -348.1,-96.8 -439.7,-191.7 -91.6,-95 -458.1,-38 -586.3,0 -128.3,38 -879.4,10 -952.7,-52 -73.3,-62 -458.1,5 -769.5,0 -311.5,-5 -659.6,85 -824.5,-26.5 -164.9,-111.5 -531.3,-130.5 -806.1,-130.5 -274.8,0 -842.8,-57 -1135.9,-151.9 0,0 604.6,-171 1007.7,-133 403,38 512.9,-11 861,-5.5 348.2,5.5 1245.9,-108.5 1703.9,-165.4 0,0 -403,-38 -458,-133 -55,-95 -458,-152 -604.6,-152 -146.6,0 -604.6,-113.9 -604.6,-113.9 0,0 989.3,38 1520.7,0 531.3,-38 476.3,189.9 916,189.9 439.7,0 622.9,0 879.4,19 256.5,19 366.5,-312.4 732.9,-213.2 366.4,99.2 824.4,91.5 1172.5,-18.6 348.1,-110.1 916.1,-22.8 1154.3,0 238.2,22.9 604.6,22.9 806.1,22.9 201.5,0 989.4,189.9 989.4,189.9 0,0 -311.5,-38 -513,76 -201.6,114 -806.2,114 -971.1,114 -164.8,0 -641.2,208.9 -769.4,208.9 0,0 531.3,114 641.2,152 109.9,37.9 329.8,132.9 513,132.9 183.2,0 421.4,-38 531.3,0 109.9,38 384.8,0 568,0 183.2,0 458,284.9 458,284.9 0,0 -421.4,57 -622.9,76 -201.6,19 -256.5,152 -513,114 0,0 348.1,151.9 494.7,151.9 146.5,0 439.7,38 641.2,76 201.5,38 311.5,95 458,-19 146.6,-113.9 458.1,-132.9 659.6,-113.9 201.5,18.9 732.8,56.9 806.1,75.9 73.3,19 677.9,-75.9 861.1,-75.9 0,0 -329.8,-171 -604.6,-285 -274.8,-113.9 -366.4,-170.9 -622.9,-189.9 -256.5,-19 -311.5,-38 -476.4,-19 -164.8,19 -403,-133 -403,-133 0,0 403,-151.9 604.6,-151.9 201.5,0 366.4,76 531.3,76 164.9,0 531.3,0 714.5,0 183.2,0 568,0 696.2,-57 128.3,-57 256.5,-57 439.7,-57 183.3,0 604.6,-190 604.6,-190 0,0 -128.2,-75.9 -403,-189.9 -274.8,-114 -384.8,-227.9 -641.3,-227.9 -256.5,0 -549.6,35.4 -769.5,-96.3 -219.8,-131.7 -604.6,-36.7 -861.1,-150.7 -256.5,-113.9 -769.5,-208.9 -769.5,-208.9 0,0 531.4,-303.9 806.2,-189.9 274.8,113.9 586.3,113.9 824.4,56.9 238.2,-56.9 384.8,-127.1 696.2,-82.5 311.5,44.6 586.3,291.5 806.2,177.5 219.8,-114 696.2,-191.6 696.2,-191.6 l 513,-264.3 V 2561.2 H -497.082 Z"
         id="path126" />
    </clipPath>
    <clipPath
       clipPathUnits="userSpaceOnUse"
       id="clipPath134">
      <path
         d="M 28285.7,0 H 0.00390625 V 20000 H 28285.7 Z"
         id="path132" />
    </clipPath>
    <linearGradient
       x1="0"
       y1="0"
       x2="1"
       y2="0"
       gradientUnits="userSpaceOnUse"
       gradientTransform="matrix(0,-17466.4,-17466.4,0,14071.4,19966.5)"
       spreadMethod="pad"
       id="linearGradient142">
      <stop
         style="stop-opacity:1;stop-color:#8d3453"
         offset="0"
         id="stop136" />
      <stop
         style="stop-opacity:1;stop-color:#cc3c2d"
         offset="0.151723"
         id="stop138" />
      <stop
         style="stop-opacity:1;stop-color:#f6c77d"
         offset="1"
         id="stop140" />
    </linearGradient>
    <clipPath
       clipPathUnits="userSpaceOnUse"
       id="clipPath152">
      <path
         d="m 28145.9,20194.9 c 0,0 -1191.1,-400.8 -1919,-218.7 -727.9,182.2 -1158.1,50.8 -1621.3,-47.4 -463.2,-98.3 -1191.1,-120.4 -1488.9,0 -297.7,120.3 -761,83.9 -1422.7,-244 -661.7,-328 -1985.2,-36.5 -2183.7,0 0,0 -463.2,619.4 -1158,327.9 -694.8,-291.5 -901.6,-36.5 -1592.3,-36.5 -690.7,0 -1352.4,-417.6 -1683.3,-445.6 -330.8,-28 -1290.3,173.7 -1819.7,0 -529.4,-173.8 -1058.8,-355.9 -1555.1,-319.5 -496.3,36.4 -1058.8,-36.4 -1555.1,-218.6 0,0 727.9,0 794.1,-327.9 66.2,-327.9 430.1,-364.4 727.9,-364.4 297.8,0 628.7,291.5 827.2,0 198.5,-291.4 893.3,-437.2 1058.7,-327.9 165.5,109.3 463.3,-145.4 794.1,-36.3 330.9,109.2 992.6,-310.5 1422.7,-27.8 430.2,282.7 1952.1,-99.7 1952.1,-99.7 0,0 -1323.4,-54.8 -1852.8,-273.4 -529.4,-218.6 -1389.6,0 -1687.4,-291.5 -297.8,-291.5 -827.2,-255 -1323.5,-327.9 0,0 727.9,-327.9 1323.5,-291.5 595.5,36.5 1422.7,249.4 1985.2,-2.8 562.4,-252.2 1158,33.6 1621.2,0 463.2,-33.6 926.4,188 1522,-105 595.5,-293 1158,-598.6 1753.6,-518.6 595.5,79.9 1323.4,258.5 1687.4,-13 363.9,-271.4 893.3,-417.2 1389.6,-198.6 496.3,218.6 1290.4,-29.8 1488.9,-106 198.5,-76.1 1455.8,76.2 1852.9,0 397,-76.1 1298.6,-22 1298.6,-22 v 4536.7 z"
         id="path150" />
    </clipPath>
    <clipPath
       clipPathUnits="userSpaceOnUse"
       id="clipPath158">
      <path
         d="M 28285.7,0 H 0.00390625 V 20000 H 28285.7 Z"
         id="path156" />
    </clipPath>
    <linearGradient
       x1="0"
       y1="0"
       x2="1"
       y2="0"
       gradientUnits="userSpaceOnUse"
       gradientTransform="matrix(0,-17466.4,17466.4,0,19464.8,19966.5)"
       spreadMethod="pad"
       id="linearGradient166">
      <stop
         style="stop-opacity:1;stop-color:#8d3453"
         offset="0"
         id="stop160" />
      <stop
         style="stop-opacity:1;stop-color:#cc3c2d"
         offset="0.151723"
         id="stop162" />
      <stop
         style="stop-opacity:1;stop-color:#f6c77d"
         offset="1"
         id="stop164" />
    </linearGradient>
  </defs>
  <sodipodi:namedview
     id="namedview4"
     pagecolor="#ffffff"
     bordercolor="#999999"
     borderopacity="1"
     inkscape:showpageshadow="0"
     inkscape:pageopacity="0"
     inkscape:pagecheckerboard="0"
     inkscape:deskcolor="#d1d1d1"
     showgrid="false"
     inkscape:zoom="0.70799995"
     inkscape:cx="778.24864"
     inkscape:cy="509.88704"
     inkscape:window-width="2494"
     inkscape:window-height="1371"
     inkscape:window-x="0"
     inkscape:window-y="0"
     inkscape:window-maximized="1"
     inkscape:current-layer="g10"
     inkscape:document-units="in">
    <inkscape:page
       x="0"
       y="0"
       id="page8"
       width="1280"
       height="720"
       inkscape:export-filename="LibraryLogo.png"
       inkscape:export-xdpi="96"
       inkscape:export-ydpi="96" />
  </sodipodi:namedview>
  <g
     id="g10"
     inkscape:groupmode="layer"
     inkscape:label="Page 1"
     transform="matrix(1.3333333,0,0,-1.3333333,0,2666.6667)">
    <g
       id="g2502"
       transform="matrix(2.9112378,0,0,2.9112378,-1164.8577,-3452.3085)">
      <text
         xml:space="preserve"
         style="font-style:normal;font-variant:normal;font-weight:normal;font-stretch:normal;font-size:42.6671px;line-height:1.25;font-family:Karate;-inkscape-font-specification:'Karate, Normal';font-variant-ligatures:normal;font-variant-caps:normal;font-variant-numeric:normal;font-variant-east-asian:normal;fill:none;fill-opacity:1;stroke:#ffffff;stroke-width:7.51333;stroke-dasharray:none;stroke-opacity:0.6"
         x="413.73029"
         y="-1774.1282"
         id="text1223"
         transform="scale(1,-1)"><tspan
           sodipodi:role="line"
           id="tspan1221"
           style="font-style:normal;font-variant:normal;font-weight:normal;font-stretch:normal;font-size:42.6671px;font-family:Karate;-inkscape-font-specification:'Karate, Normal';font-variant-ligatures:normal;font-variant-caps:normal;font-variant-numeric:normal;font-variant-east-asian:normal;fill:none;fill-opacity:1;stroke:#ffffff;stroke-width:7.51333;stroke-dasharray:none;stroke-opacity:0.6"
           x="413.73029"
           y="-1774.1282">Enter the Dojo</tspan></text>
      <text
         xml:space="preserve"
         style="font-style:normal;font-variant:normal;font-weight:normal;font-stretch:normal;font-size:42.6671px;line-height:1.25;font-family:Karate;-inkscape-font-specification:'Karate, Normal';font-variant-ligatures:normal;font-variant-caps:normal;font-variant-numeric:normal;font-variant-east-asian:normal;fill:#000000;fill-opacity:1;stroke-width:2.9091"
         x="413.73029"
         y="-1774.1282"
         id="text665"
         transform="scale(1,-1)"><tspan
           sodipodi:role="line"
           id="tspan663"
           style="font-style:normal;font-variant:normal;font-weight:normal;font-stretch:normal;font-size:42.6671px;font-family:Karate;-inkscape-font-specification:'Karate, Normal';font-variant-ligatures:normal;font-variant-caps:normal;font-variant-numeric:normal;font-variant-east-asian:normal;fill:#000000;fill-opacity:1;stroke-width:2.9091"
           x="413.73029"
           y="-1774.1282">Enter the Dojo</tspan></text>
    </g>
  </g>
</svg>
