<?xml version="1.0" encoding="UTF-8" standalone="no"?>
<!-- Created with Inkscape (http://www.inkscape.org/) -->

<svg
   version="1.1"
   id="svg2"
   width="491.67999"
   height="437.17334"
   viewBox="0 0 491.67999 437.17334"
   sodipodi:docname="Health.svg"
   inkscape:version="1.2.2 (b0a8486541, 2022-12-01)"
   xmlns:inkscape="http://www.inkscape.org/namespaces/inkscape"
   xmlns:sodipodi="http://sodipodi.sourceforge.net/DTD/sodipodi-0.dtd"
   xmlns="http://www.w3.org/2000/svg"
   xmlns:svg="http://www.w3.org/2000/svg">
  <defs
     id="defs6" />
  <sodipodi:namedview
     id="namedview4"
     pagecolor="#ffffff"
     bordercolor="#999999"
     borderopacity="1"
     inkscape:showpageshadow="0"
     inkscape:pageopacity="0"
     inkscape:pagecheckerboard="0"
     inkscape:deskcolor="#d1d1d1"
     showgrid="false"
     inkscape:zoom="0.53983164"
     inkscape:cx="245.4469"
     inkscape:cy="218.58667"
     inkscape:window-width="1854"
     inkscape:window-height="1011"
     inkscape:window-x="0"
     inkscape:window-y="0"
     inkscape:window-maximized="1"
     inkscape:current-layer="g10">
    <inkscape:page
       x="0"
       y="0"
       id="page8"
       width="491.67999"
       height="437.17334" />
  </sodipodi:namedview>
  <g
     id="g10"
     inkscape:groupmode="layer"
     inkscape:label="Page 1"
     transform="matrix(1.3333333,0,0,-1.3333333,0,437.17333)">
    <path
       d="m 161.275,304.533 c 42.34,45.573 81.468,12.748 94.434,-0.872 12.607,13.243 49.942,44.627 90.916,4.48 2.569,-2.518 4.204,-4.232 6.329,-7.111 6.415,-8.692 21.3,-33.459 13.689,-67.907 -0.154,-0.699 -1.92,-7.164 -2.094,-7.871 -9.679,-31.153 -38.079,-69.254 -105.556,-110.128 -1.81,-1.254 -4.259,-1.407 -6.264,-0.194 l 0.003,0.005 c -67.449,40.794 -95.964,78.829 -105.763,109.963 -0.175,0.704 -1.973,7.165 -2.129,7.86 -9.109,40.469 12.873,67.653 15.994,71.261 0.131,0.179 0.273,0.353 0.429,0.52 l 0.012,-0.006"
       style="fill:#e63434;fill-opacity:1;fill-rule:nonzero;stroke:none;stroke-width:0.1"
       id="path18" />
    <path
       d="m 291.265,170.761 18.95,54.491 h 54.334 l 1.603,5.761 h -57.966 c -1.412,0 -2.42,-1.125 -2.856,-2.38 l -14.432,-41.497 -4.357,103.933 c -0.22,1.429 -1.488,2.497 -2.966,2.435 -1.446,-0.061 -2.429,-1.252 -2.76,-2.58 l -17.705,-71.137 -15.286,18.501 c -1.031,1.083 -2.753,1.2 -3.922,0.235 -0.438,-0.362 -0.743,-0.977 -0.971,-1.485 l -23.69,-52.8 -4.478,106.831 c -0.22,1.429 -1.489,2.497 -2.968,2.435 -1.445,-0.061 -2.428,-1.252 -2.758,-2.58 l -17.49,-70.268 -5.819,8.953 c -0.562,0.68 -1.405,1.05 -2.296,1.05 h -38.094 l 1.631,-5.761 h 34.995 l 8.126,-12.503 c 0.462,-0.711 1.1,-1.405 1.953,-1.617 1.446,-0.36 2.92,0.454 3.41,1.831 l 14.437,58.008 4.11,-98.019 c 1.136,-2.25 1.354,-6.643 6.68,0.869 l 25.777,57.452 15.672,-18.966 c 0.443,-0.537 1.003,-1.004 1.693,-1.175 1.445,-0.36 2.921,0.454 3.409,1.831 l 14.439,58.008 4.118,-98.263 c 0.054,-1.286 0.642,-2.62 1.933,-3.068 1.4,-0.487 2.92,0.168 3.544,1.475"
       style="fill:#e3f2fd;fill-opacity:1;fill-rule:evenodd;stroke:none;stroke-width:0.1"
       id="path20" />
  </g>
</svg>
