<?xml version="1.0" encoding="UTF-8" standalone="no"?>
<!-- Created with Inkscape (http://www.inkscape.org/) -->

<svg
   version="1.1"
   id="svg2"
   width="4096"
   height="4096"
   viewBox="0 0 4096 4096"
   sodipodi:docname="pagoda2.svg"
   inkscape:version="1.2.2 (b0a8486541, 2022-12-01)"
   xmlns:inkscape="http://www.inkscape.org/namespaces/inkscape"
   xmlns:sodipodi="http://sodipodi.sourceforge.net/DTD/sodipodi-0.dtd"
   xmlns="http://www.w3.org/2000/svg"
   xmlns:svg="http://www.w3.org/2000/svg">
  <defs
     id="defs6">
    <clipPath
       clipPathUnits="userSpaceOnUse"
       id="clipPath132">
      <path
         d="m 15351.8,21277.6 c 1253.4,-524.1 2527.4,-998.1 3781.9,-1518.3 l 2569.4,-1072.1 c 446.6,-189.2 887.1,-395 1338.3,-572.6 -101.4,-58.7 -1016.7,157.1 -1198.8,205.4 -937.3,248.7 -1835.5,673.8 -2734.9,1033.4 -1252.5,500.9 -2513,976.6 -3751.5,1511.9 -1141.5,-484.2 -2305.1,-920 -3455.7,-1382.3 -1305,-524.3 -2604.67,-1076.9 -3924.94,-1560.9 -169.06,54.7 -337.69,110.6 -505.89,167.9 224.79,109.7 480.96,190.5 714.06,285 l 1987.67,786.8 z"
         id="path130" />
    </clipPath>
    <linearGradient
       x1="0"
       y1="0"
       x2="1"
       y2="0"
       gradientUnits="userSpaceOnUse"
       gradientTransform="matrix(6140.93,-7515.34,7515.34,6140.93,12167.2,21881.9)"
       spreadMethod="pad"
       id="linearGradient138">
      <stop
         style="stop-opacity:1;stop-color:#ed2d3b"
         offset="0"
         id="stop134" />
      <stop
         style="stop-opacity:1;stop-color:#f46b58"
         offset="1"
         id="stop136" />
    </linearGradient>
  </defs>
  <sodipodi:namedview
     id="namedview4"
     pagecolor="#ffffff"
     bordercolor="#999999"
     borderopacity="1"
     inkscape:showpageshadow="0"
     inkscape:pageopacity="0"
     inkscape:pagecheckerboard="0"
     inkscape:deskcolor="#d1d1d1"
     showgrid="false"
     inkscape:zoom="0.081483008"
     inkscape:cx="2301.0933"
     inkscape:cy="2233.5945"
     inkscape:window-width="1854"
     inkscape:window-height="1011"
     inkscape:window-x="0"
     inkscape:window-y="0"
     inkscape:window-maximized="1"
     inkscape:current-layer="g10">
    <inkscape:page
       x="0"
       y="0"
       id="page8"
       width="4096"
       height="4096" />
  </sodipodi:namedview>
  <g
     id="g10"
     inkscape:groupmode="layer"
     inkscape:label="Page 1"
     transform="matrix(1.3333333,0,0,-1.3333333,0,4096)">
    <path
       d="M 0,3072 H 3072 V 0 H 0 v 3072"
       style="fill:#100f0d;fill-opacity:1;fill-rule:nonzero;stroke:none;stroke-width:0.1"
       id="path14" />
    <path
       d="m 920.871,1454.45 c 30.849,15.43 69.105,31.7 101.769,42.45 l 0.68,-100.42 c 0.05,-14.57 1.78,-32.24 -0.85,-46.51 -2.83,33.68 -0.53,69.46 -0.87,103.35 -30.709,0.65 -71.623,-3.46 -100.729,1.13"
       style="fill:#224b3e;fill-opacity:1;fill-rule:nonzero;stroke:none;stroke-width:0.1"
       id="path16" />
    <path
       d="m 2041.48,1508.24 c 49.99,-20.74 108.19,-40.02 155.11,-65.49 -51.86,1.88 -103.15,6.36 -155.14,6.41 l 0.03,59.08"
       style="fill:#224b3e;fill-opacity:1;fill-rule:nonzero;stroke:none;stroke-width:0.1"
       id="path18" />
    <path
       d="m 1391.36,1003.38 66.24,0.08 c -1.3,-37.7 -0.07,-75.85 -0.02,-113.6 l -65.71,0.16 c -1.32,37.65 -0.56,75.67 -0.51,113.36"
       style="fill:#a81e27;fill-opacity:1;fill-rule:nonzero;stroke:none;stroke-width:0.1"
       id="path20" />
    <path
       d="m 1615.66,1003.37 68.05,0.03 c -0.56,-37.48 -0.32,-75.01 -0.45,-112.5 l -67.45,-0.31 -0.15,112.78"
       style="fill:#a81e27;fill-opacity:1;fill-rule:nonzero;stroke:none;stroke-width:0.1"
       id="path22" />
    <path
       d="m 1115.54,2069.88 c 4.46,-7.31 1.91,-68.54 1.87,-81.58 -33.67,-16.4 -69.64,-29.23 -104.33,-43.33 -4.7,7.04 -1.53,70.22 -1.43,83.51 34.5,14.12 69.13,27.92 103.89,41.4"
       style="fill:#f8d195;fill-opacity:1;fill-rule:nonzero;stroke:none;stroke-width:0.1"
       id="path24" />
    <path
       d="m 1576.88,1455.94 c 8.43,3.04 179.88,1.16 202.1,0.23 -1.13,-28.8 -0.67,-57.85 -0.81,-86.68 -67.88,26.77 -133.92,58.36 -201.29,86.45"
       style="fill:#50a981;fill-opacity:1;fill-rule:nonzero;stroke:none;stroke-width:0.1"
       id="path26" />
    <path
       d="m 467.058,1087.27 438.834,1.26 c -0.135,-7.17 0.126,-14.58 -0.684,-21.69 l -437.607,0.36 -0.543,20.07"
       style="fill:#f8d195;fill-opacity:1;fill-rule:nonzero;stroke:none;stroke-width:0.1"
       id="path28" />
    <path
       d="m 1495.5,1002.82 81.04,-0.1 -0.1,-110.17 -1.17,-1.84 c -17.7,-3.63 -59.66,-1.05 -79.92,-1.08 l 0.15,113.19"
       style="fill:#e12d38;fill-opacity:1;fill-rule:nonzero;stroke:none;stroke-width:0.1"
       id="path30" />
    <path
       d="m 1952.12,2072.81 c 38.62,-12.22 76.58,-32.27 114.04,-48.18 0.18,-26.61 1.51,-53.77 -0.28,-80.31 -35.52,10.48 -79.21,31.29 -114.1,45.98 -0.05,27.49 -0.47,55.04 0.34,82.51"
       style="fill:#f8d195;fill-opacity:1;fill-rule:nonzero;stroke:none;stroke-width:0.1"
       id="path32" />
    <path
       d="m 2161.87,1070.8 c 1.42,6.69 1.65,8.99 7.63,12.9 6.84,4.48 12.5,5.9 20.59,6.51 20.88,1.58 42.46,0.33 63.45,0.19 l 112.49,-0.34 148.22,-0.05 c 26.77,-0.05 54,0.95 80.7,-0.71 l -0.13,-21.4 c -80.06,-1.58 -160.44,-0.05 -240.53,0.04 -60.36,0.06 -121.41,-1.85 -181.7,0.36 -4.55,0.16 -6.95,-0.03 -10.72,2.5"
       style="fill:#f8d195;fill-opacity:1;fill-rule:nonzero;stroke:none;stroke-width:0.1"
       id="path34" />
    <path
       d="m 1062.95,1006.16 46.94,0.37 -1.47,-292.47 c -15.24,0.48 -30.55,0.17 -45.8,0.13 -2.1,97.1 0.06,194.81 0.33,291.97"
       style="fill:#a81e27;fill-opacity:1;fill-rule:nonzero;stroke:none;stroke-width:0.1"
       id="path36" />
    <path
       d="m 944.49,1006.37 47.247,-0.18 0.21,-292.54 c -15.87,-0.39 -31.739,-0.38 -47.607,0.03 1.089,97.56 -0.951,195.15 0.15,292.69"
       style="fill:#a81e27;fill-opacity:1;fill-rule:nonzero;stroke:none;stroke-width:0.1"
       id="path38" />
    <path
       d="m 1970.22,1002.75 44.36,0.44 c -0.67,-66.9 -0.83,-133.79 -0.48,-200.69 0.03,-26.4 1.54,-53.59 0.68,-79.88 -0.08,-2.58 -0.19,-4.85 -1.64,-7.09 -1.23,-1.9 -3.72,-1.28 -5.76,-1.43 l -45.61,0.06 c -0.77,32.79 -1.38,279.32 0.37,284.35 0.41,1.22 1.43,2.14 2.15,3.21 l 5.93,1.03"
       style="fill:#a81e27;fill-opacity:1;fill-rule:nonzero;stroke:none;stroke-width:0.1"
       id="path40" />
    <path
       d="m 920.871,1454.45 c 29.106,-4.59 70.02,-0.48 100.729,-1.13 0.34,-33.89 -1.96,-69.67 0.87,-103.35 l -148.552,-0.27 c -0.897,34.47 -0.267,69.13 -0.282,103.61 26.232,-5.9 18.864,-8.74 47.235,1.14"
       style="fill:#50a981;fill-opacity:1;fill-rule:nonzero;stroke:none;stroke-width:0.1"
       id="path42" />
    <path
       d="m 2041.45,1449.16 c 51.99,-0.05 103.28,-4.53 155.14,-6.41 l 1.32,-0.4 c 4.65,-7.95 1.88,-77.6 1.88,-91.55 -52.76,0.09 -105.52,-0.17 -158.27,-0.77 l -0.07,99.13"
       style="fill:#348768;fill-opacity:1;fill-rule:nonzero;stroke:none;stroke-width:0.1"
       id="path44" />
    <path
       d="m 1179.03,1006.17 55.32,0.07 c -1.06,-97.36 -1.42,-194.72 -1.06,-292.09 -17.49,0.36 -35.03,0.01 -52.51,-0.07 -4.25,96.94 -2.32,195.04 -1.75,292.09"
       style="fill:#a81e27;fill-opacity:1;fill-rule:nonzero;stroke:none;stroke-width:0.1"
       id="path46" />
    <path
       d="m 2120.71,1050.57 c 4.13,-0.25 5.62,0.32 8.74,-2.55 3.48,-10.39 1.59,-45.42 1.77,-58.23 1.27,-91.97 0.33,-184.07 0.31,-276.06 l -46.9,-0.24 c -2.86,0.02 -3.3,0.13 -6.02,1.49 -3.49,9.43 -1.22,259.76 -1.51,289.94 l 44.02,0.45 c -1.77,14.96 -0.97,30.18 -0.41,45.2"
       style="fill:#a81e27;fill-opacity:1;fill-rule:nonzero;stroke:none;stroke-width:0.1"
       id="path48" />
    <path
       d="m 1841.84,1003.41 57.08,0.18 -0.21,-289.38 -56.49,-0.16 -0.38,289.36"
       style="fill:#a81e27;fill-opacity:1;fill-rule:nonzero;stroke:none;stroke-width:0.1"
       id="path50" />
    <path
       d="m 2077.35,2455.05 c -0.68,-58.17 -8.7,-107.86 -52.07,-150.26 -30.24,-29.58 -67.76,-39.2 -108.4,-45.65 -19.28,8.38 -40.16,15.83 -58.69,25.62 0.83,22.3 -2.04,44.09 -6.4,65.91 72.13,-0.4 125.37,-11.53 181.62,43.71 18.34,18 31.48,38.36 43.94,60.67"
       style="fill:#e12d38;fill-opacity:1;fill-rule:nonzero;stroke:none;stroke-width:0.1"
       id="path52" />
    <path
       d="m 991.287,2451.85 c 4.234,-8.07 8.933,-15.84 14.103,-23.34 5.17,-7.5 10.77,-14.66 16.81,-21.48 60.37,-68.17 110.69,-52.2 191.96,-57.1 -7.72,-22.09 -13.66,-47.78 -12.61,-71.33 -19.11,-7.76 -38.03,-15.98 -56.75,-24.65 -33.12,6.27 -68.81,18.27 -93.82,41.78 -44.33,41.65 -57.782,97.25 -59.693,156.12"
       style="fill:#e12d38;fill-opacity:1;fill-rule:nonzero;stroke:none;stroke-width:0.1"
       id="path54" />
    <path
       d="m 1536.36,2814.09 c 1.34,-4.49 2.21,-9.12 3.21,-13.7 -7.49,-11.56 -5.85,-176.12 -4.5,-202.19 -37.75,-20.44 -77.82,-36.81 -117.43,-53.24 0.01,30.97 -3.52,69.04 2.43,99.33 11.41,58.15 56.55,67.3 87.81,107.77 14.6,18.88 21.85,39.44 28.48,62.03"
       style="fill:#e12d38;fill-opacity:1;fill-rule:nonzero;stroke:none;stroke-width:0.1"
       id="path56" />
    <path
       d="m 1539.57,2800.39 c 7.76,-21.33 16.57,-40.58 31.59,-57.86 28.36,-32.63 72.89,-49.31 82.09,-97.4 5.46,-28.61 1.71,-74.55 1.53,-104.95 l -73.29,34.66 c -15.47,7.27 -32.36,13.55 -46.42,23.36 -1.35,26.07 -2.99,190.63 4.5,202.19"
       style="fill:#f04042;fill-opacity:1;fill-rule:nonzero;stroke:none;stroke-width:0.1"
       id="path58" />
    <path
       d="m 435.066,687.89 217.038,-0.72 c -19.875,-37.41 -42.93,-73.58 -64.935,-109.79 -50.499,-1.56 -101.418,-0.26 -151.965,-0.31 l -0.138,110.82"
       style="fill:#e12d38;fill-opacity:1;fill-rule:nonzero;stroke:none;stroke-width:0.1"
       id="path60" />
    <path
       d="m 1150.45,2054.81 c 57.53,19.43 112.72,45.19 168.83,68.22 72.87,29.91 146.48,57.9 218.35,90.27 0.18,-18.69 -0.01,-37.47 0.63,-56.16 -15.26,0.07 -335.03,-137.21 -387.58,-156 -0.33,17.88 -0.16,35.79 -0.23,53.67"
       style="fill:#a81e27;fill-opacity:1;fill-rule:nonzero;stroke:none;stroke-width:0.1"
       id="path62" />
    <path
       d="m 1060.83,1509.01 c 66.55,34.25 140.44,56.53 209.69,85 0.03,-46.42 0.66,-92.91 0.05,-139.31 -69.92,1.6 -140.51,-0.76 -210.51,-0.95 0.24,18.41 0.29,36.85 0.77,55.26"
       style="fill:#224b3e;fill-opacity:1;fill-rule:nonzero;stroke:none;stroke-width:0.1"
       id="path64" />
    <path
       d="m 2416.18,687.43 151.92,0.2 c 25.23,0.05 50.68,0.93 75.88,0.19 l 0.44,-109.86 c -54.49,-0.17 -109.11,0.47 -163.58,-0.56 -4.7,12.26 -13.96,24.72 -20.67,36.12 -14.32,24.84 -28.98,49.47 -43.99,73.91"
       style="fill:#e12d38;fill-opacity:1;fill-rule:nonzero;stroke:none;stroke-width:0.1"
       id="path66" />
    <path
       d="m 1060.06,1453.75 c 70,0.19 140.59,2.55 210.51,0.95 l -0.05,-90.29 c -12.36,-5.55 -24.26,-11.07 -37.71,-13.29 -20.11,-3.32 -43,-0.96 -63.5,-0.88 l -109.37,-0.31 0.12,103.82"
       style="fill:#50a981;fill-opacity:1;fill-rule:nonzero;stroke:none;stroke-width:0.1"
       id="path68" />
    <path
       d="m 1537.63,2213.3 383.78,-153.99 c -0.2,-19.52 0.11,-39.22 -0.93,-58.7 -127.15,52.66 -256.2,101.3 -382.22,156.53 -0.64,18.69 -0.45,37.47 -0.63,56.16"
       style="fill:#e12d38;fill-opacity:1;fill-rule:nonzero;stroke:none;stroke-width:0.1"
       id="path70" />
    <path
       d="m 2501.48,547.4 c 84.38,0.27 169.08,-0.2 253.42,1.37 l 0.38,-109.22 -25.95,0.28 c -16.4,4.06 -39.26,1.6 -56.36,1.59 l -107.64,-0.17 c -11.28,20.54 -59.49,90.96 -63.85,106.15"
       style="fill:#e12d38;fill-opacity:1;fill-rule:nonzero;stroke:none;stroke-width:0.1"
       id="path72" />
    <path
       d="m 320.958,547.56 114.795,0.19 c 46.122,-2.68 93.432,-0.36 139.683,-0.48 -13.606,-21.43 -26.887,-43.07 -39.843,-64.91 -8.388,-14.22 -16.191,-29.41 -25.41,-43.07 -63,-1.08 -126.291,0.29 -189.318,0.45 l 0.093,107.82"
       style="fill:#e12d38;fill-opacity:1;fill-rule:nonzero;stroke:none;stroke-width:0.1"
       id="path74" />
    <path
       d="m 467.034,1006.51 c 0.27,26.25 -2.961,54.85 0.024,80.76 l 0.543,-20.07 437.607,-0.36 c -1.155,-20.02 -0.447,-40.46 -0.516,-60.54 l -437.658,0.21"
       style="fill:#348768;fill-opacity:1;fill-rule:nonzero;stroke:none;stroke-width:0.1"
       id="path76" />
    <path
       d="m 2161.58,1007.34 0.29,63.46 c 3.77,-2.53 6.17,-2.34 10.72,-2.5 60.29,-2.21 121.34,-0.3 181.7,-0.36 80.09,-0.09 160.47,-1.62 240.53,-0.04 l -0.21,-61.46 -433.03,0.9"
       style="fill:#348768;fill-opacity:1;fill-rule:nonzero;stroke:none;stroke-width:0.1"
       id="path78" />
    <path
       d="m 1537.56,2388.56 c 96.22,-41.69 193.1,-81.79 290.64,-120.28 38.38,-15.29 76.56,-32.83 115.71,-45.92 -0.04,-21.29 0.42,-42.7 -0.25,-63.98 -77.2,32.56 -156.66,60.44 -234.59,91.36 l -125.51,50.66 c -15.57,6.25 -31.03,13.52 -46.84,19.04 -2.54,18.29 -1.4,50.6 0.84,69.12"
       style="fill:#50a981;fill-opacity:1;fill-rule:nonzero;stroke:none;stroke-width:0.1"
       id="path80" />
    <path
       d="m 435.753,547.75 c 59.766,4.23 120.942,0.36 180.858,-0.14 61.752,-0.5 123.765,1.81 185.466,0.28 -0.23,-36.14 -0.135,-72.29 0.285,-108.43 -97.365,0.15 -194.823,1.03 -292.179,-0.17 9.219,13.66 17.022,28.85 25.41,43.07 12.956,21.84 26.237,43.48 39.843,64.91 -46.251,0.12 -93.561,-2.2 -139.683,0.48"
       style="fill:#a81e27;fill-opacity:1;fill-rule:nonzero;stroke:none;stroke-width:0.1"
       id="path82" />
    <path
       d="m 2265.49,546.99 235.99,0.41 c 4.36,-15.19 52.57,-85.61 63.85,-106.15 l 107.64,0.17 c 17.1,0.01 39.96,2.47 56.36,-1.59 -79.98,-1.93 -160.34,0.34 -240.34,0.87 -74.6,0.49 -149.46,-1.02 -223.97,3.13 l 0.47,103.16"
       style="fill:#a81e27;fill-opacity:1;fill-rule:nonzero;stroke:none;stroke-width:0.1"
       id="path84" />
    <path
       d="m 1130.95,2220.71 c 28.78,15 61.03,26.2 91.19,38.31 l 167.12,67.23 c 34.45,14.2 68.56,29.47 102.83,44.11 14.06,6.01 30.64,15.28 45.47,18.2 -2.24,-18.52 -3.38,-50.83 -0.84,-69.12 -9.75,-5.75 -22.02,-10.17 -32.42,-14.86 -36.11,-16.28 -73.15,-30.81 -109.8,-45.85 -87.91,-36.07 -175.32,-73.15 -263.62,-108.29 l 0.07,70.27"
       style="fill:#224b3e;fill-opacity:1;fill-rule:nonzero;stroke:none;stroke-width:0.1"
       id="path86" />
    <path
       d="m 652.104,687.17 c 83.85,-1.47 167.691,-0.06 251.529,-1.05 l -0.456,-109.54 -316.008,0.8 c 22.005,36.21 45.06,72.38 64.935,109.79"
       style="fill:#a81e27;fill-opacity:1;fill-rule:nonzero;stroke:none;stroke-width:0.1"
       id="path88" />
    <path
       d="m 2163.79,686.92 252.39,0.51 c 15.01,-24.44 29.67,-49.07 43.99,-73.91 6.71,-11.4 15.97,-23.86 20.67,-36.12 l -317.13,0.02 0.08,109.5"
       style="fill:#a81e27;fill-opacity:1;fill-rule:nonzero;stroke:none;stroke-width:0.1"
       id="path90" />
    <path
       d="m 2578.54,412.81 c 86.75,0.08 173.82,1.19 260.53,-0.59 l -0.81,-146.05 -171.87,-0.71 c -8.86,21.1 -23.99,41.71 -36.04,61.28 l -51.81,86.07"
       style="fill:#f8d195;fill-opacity:1;fill-rule:nonzero;stroke:none;stroke-width:0.1"
       id="path92" />
    <path
       d="m 1328.32,1004.25 25.65,0.04 c 0.02,-38.33 -0.35,-76.67 -1.11,-115 l -27.34,-0.46 c -3.44,-147.39 -0.92,-295.38 -0.94,-442.84 l -29.81,-0.19 -26.45,-0.21 0.23,558.24 59.77,0.42"
       style="fill:#e12d38;fill-opacity:1;fill-rule:nonzero;stroke:none;stroke-width:0.1"
       id="path94" />
    <path
       d="m 1720.37,1003.12 85.27,0.11 c -0.55,-68.29 -0.58,-136.58 -0.1,-204.87 -0.99,-117.61 -1.27,-235.21 -0.82,-352.81 -19.58,0.62 -39.15,0.31 -58.73,0.13 l 0.1,290.04 c 0.02,51.22 1.06,102.81 -0.99,153.98 l -25.9,-0.21 1.17,113.63"
       style="fill:#e12d38;fill-opacity:1;fill-rule:nonzero;stroke:none;stroke-width:0.1"
       id="path96" />
    <path
       d="m 2163.89,943.52 92.07,0.35 c 15.66,-29.79 34.27,-57.93 52.14,-86.42 20.58,-33.5 41.63,-66.7 63.17,-99.59 10.18,-15.29 22.06,-29.64 31.59,-45.32 -79.71,0.58 -159.42,0.55 -239.13,-0.08 -2.3,76.58 0.58,154.33 0.16,231.06"
       style="fill:#c59e7c;fill-opacity:1;fill-rule:nonzero;stroke:none;stroke-width:0.1"
       id="path98" />
    <path
       d="m 808.041,946.53 97.8,0.04 0.045,-234.08 c -79.14,-0.03 -158.964,2.18 -238.032,-0.22 13.191,28.16 32.478,55.72 48.645,82.4 l 91.542,151.86"
       style="fill:#c59e7c;fill-opacity:1;fill-rule:nonzero;stroke:none;stroke-width:0.1"
       id="path100" />
    <path
       d="m 1535.92,2566.37 c 45.03,-18.75 89.71,-42.15 133.21,-64.35 22.75,-11.61 47.39,-19.33 69.79,-31.15 43.03,-22.72 91.97,-72.02 111.57,-116.73 0.75,-1.71 0.79,-1.94 1.3,-3.47 4.36,-21.82 7.23,-43.61 6.4,-65.91 -88.63,38.67 -179.25,72.68 -268.11,110.84 -18.42,7.92 -37.21,15.06 -55.4,23.52 l 0.5,83.8 c -0.04,20.93 -1.22,42.61 0.74,63.45"
       style="fill:#f8d195;fill-opacity:1;fill-rule:nonzero;stroke:none;stroke-width:0.1"
       id="path102" />
    <path
       d="m 1804.24,1597.86 c 34.84,-14.86 70.33,-26.9 105.81,-40.02 34.37,-12.72 68.44,-26.37 102.95,-38.68 -0.37,-38.1 -0.31,-76.19 0.17,-114.28 0.11,-17.55 2.23,-37.84 -0.67,-54.99 l -112.66,0.09 c -24.65,0.05 -51.18,-1.6 -75.5,2.69 -7.06,1.25 -13.52,4.62 -19.92,7.71 0.11,31.05 0.05,62.1 -0.17,93.15 l -0.01,144.33"
       style="fill:#224b3e;fill-opacity:1;fill-rule:nonzero;stroke:none;stroke-width:0.1"
       id="path104" />
    <path
       d="m 1804.25,1453.53 207.2,-0.46 c 0.06,-31.14 -2.57,-73.23 1.05,-103.18 l -112.66,0.09 c -24.65,0.05 -51.18,-1.6 -75.5,2.69 -7.06,1.25 -13.52,4.62 -19.92,7.71 0.11,31.05 0.05,62.1 -0.17,93.15"
       style="fill:#348768;fill-opacity:1;fill-rule:nonzero;stroke:none;stroke-width:0.1"
       id="path106" />
    <path
       d="m 1214.16,2349.93 c 7.04,20.76 20.23,39.96 34.35,56.51 13.68,16.04 31.08,34.29 48.86,45.91 8.52,5.56 17.16,11.21 26.24,15.82 16.78,8.52 35.06,14.12 52.13,22.09 29.33,13.69 138.12,74.38 160.18,76.11 -1.96,-20.84 -0.78,-42.52 -0.74,-63.45 l -0.5,-83.8 c -108.7,-51.61 -222.21,-93.93 -333.13,-140.52 -1.05,23.55 4.89,49.24 12.61,71.33"
       style="fill:#c59e7c;fill-opacity:1;fill-rule:nonzero;stroke:none;stroke-width:0.1"
       id="path108" />
    <path
       d="m 1548.95,1693.79 142.56,-54.19 c 29.06,-10.77 58.8,-20.33 87.54,-31.83 0.15,-50.46 1.35,-101.16 -0.07,-151.6 -22.22,0.93 -193.67,2.81 -202.1,-0.23 -10.27,3.86 -19.53,9.57 -29.53,13.96 -0.43,74.58 1.38,149.28 1.6,223.89"
       style="fill:#224b3e;fill-opacity:1;fill-rule:nonzero;stroke:none;stroke-width:0.1"
       id="path110" />
    <path
       d="m 522.528,946.15 285.513,0.38 -91.542,-151.86 c -16.167,-26.68 -35.454,-54.24 -48.645,-82.4 -14.937,-0.89 -30.492,0.14 -45.492,0.16 l -99.459,0.08 c 0.274,77.88 0.149,155.76 -0.375,233.64"
       style="fill:#f8d195;fill-opacity:1;fill-rule:nonzero;stroke:none;stroke-width:0.1"
       id="path112" />
    <path
       d="m 2255.96,943.87 291.47,-0.47 -0.28,-230.72 -144.29,-0.14 c -9.53,15.68 -21.41,30.03 -31.59,45.32 -21.54,32.89 -42.59,66.09 -63.17,99.59 -17.87,28.49 -36.48,56.63 -52.14,86.42"
       style="fill:#f8d195;fill-opacity:1;fill-rule:nonzero;stroke:none;stroke-width:0.1"
       id="path114" />
    <path
       d="m 1290.75,1601.85 c 29.98,10.48 59.31,23.38 88.85,35.08 l 144.43,56.53 c 0.27,-74.53 0.04,-149.06 -0.68,-223.58 -14.01,-4.54 -27.33,-11.11 -41.45,-15.4 -63.94,-25.23 -126.83,-54.25 -190.1,-81.26 l -1.55,0.8 c -1.28,27.51 -0.29,55.44 -0.28,83 -0.23,48.28 0.03,96.56 0.78,144.83"
       style="fill:#224b3e;fill-opacity:1;fill-rule:nonzero;stroke:none;stroke-width:0.1"
       id="path116" />
    <path
       d="m 1291.26,1455.61 c 23.75,-0.3 180.13,4.79 190.64,-1.13 -63.94,-25.23 -126.83,-54.25 -190.1,-81.26 -1.74,27.13 -0.43,55.15 -0.54,82.39"
       style="fill:#50a981;fill-opacity:1;fill-rule:nonzero;stroke:none;stroke-width:0.1"
       id="path118" />
    <path
       d="m 796.854,1308.44 c 43.455,2.14 87.39,1.01 130.896,1.03 l 218.86,-0.06 c -43.81,-21.62 -88.36,-40.38 -132.99,-60.11 l -206.287,-91.58 c 11.256,-8.42 34.296,-22.13 42.273,-31.73 -4.737,1.23 -12.912,7.26 -17.445,4.79 -2.94,-1.59 -5.043,-3.73 -7.395,-6.05 -107.806,0.79 -215.611,0.68 -323.415,-0.34 l -8.262,9.52 c 45.801,23.53 92.553,45.26 138.762,67.97 32.109,15.78 63.753,32.52 95.808,48.42 38.079,18.91 77.043,37.01 113.985,58.05 -14.925,-0.21 -29.877,-0.65 -44.79,0.09"
       style="fill:#e12d38;fill-opacity:1;fill-rule:nonzero;stroke:none;stroke-width:0.1"
       id="path120" />
    <path
       d="m 2231.55,1308.15 c 73.6,0.98 147.16,0.14 220.64,5.4 144.5,10.33 293.46,46.08 414.81,128.12 -34.77,-38.91 -69.63,-78.14 -105.39,-116.13 -24.98,-26.53 -50.98,-52.17 -76.23,-78.46 -36.75,-38.26 -72.44,-77.44 -111.22,-113.69 -79.66,45.44 -161.64,86.38 -243.67,127.32 -32.2,16.07 -68.43,28.68 -98.94,47.44"
       style="fill:#f8d195;fill-opacity:1;fill-rule:nonzero;stroke:none;stroke-width:0.1"
       id="path122" />
    <path
       d="m 202.421,1441.79 c 18.653,-11.86 36.057,-24.82 55.727,-35.21 110.294,-58.22 241.373,-84.91 364.859,-93.71 57.912,-4.14 115.824,-4.19 173.847,-4.43 14.913,-0.74 29.865,-0.3 44.79,-0.09 -36.942,-21.04 -75.906,-39.14 -113.985,-58.05 -32.055,-15.9 -63.699,-32.64 -95.808,-48.42 -46.209,-22.71 -92.961,-44.44 -138.762,-67.97 -19.062,21.6 -39.621,42.24 -59.31,63.3 -45.986,49.26 -92.364,98.15 -139.133,146.67 -31.103,32.28 -62.63,64.22 -92.225,97.91"
       style="fill:#f8d195;fill-opacity:1;fill-rule:nonzero;stroke:none;stroke-width:0.1"
       id="path124" />
    <g
       id="g126"
       transform="scale(0.1)">
      <g
         id="g128"
         clip-path="url(#clipPath132)">
        <path
           d="m 15351.8,21277.6 c 1253.4,-524.1 2527.4,-998.1 3781.9,-1518.3 l 2569.4,-1072.1 c 446.6,-189.2 887.1,-395 1338.3,-572.6 -101.4,-58.7 -1016.7,157.1 -1198.8,205.4 -937.3,248.7 -1835.5,673.8 -2734.9,1033.4 -1252.5,500.9 -2513,976.6 -3751.5,1511.9 -1141.5,-484.2 -2305.1,-920 -3455.7,-1382.3 -1305,-524.3 -2604.67,-1076.9 -3924.94,-1560.9 -169.06,54.7 -337.69,110.6 -505.89,167.9 224.79,109.7 480.96,190.5 714.06,285 l 1987.67,786.8 5180.4,2115.8"
           style="fill:url(#linearGradient138);fill-opacity:1;fill-rule:nonzero;stroke:none"
           id="path140" />
      </g>
    </g>
    <path
       d="m 1911.59,1309.6 c 106.4,-3.97 213.46,-0.7 319.96,-1.45 30.51,-18.76 66.74,-31.37 98.94,-47.44 82.03,-40.94 164.01,-81.88 243.67,-127.32 l -16.01,-15.59 c -50.29,4.03 -102.58,1.71 -153.09,1.59 -65.97,-0.15 -132.29,1.06 -198.17,-1.83 19.17,9.77 38.42,19.49 56.22,31.64 -34.34,16.52 -69.92,31.11 -104.63,46.91 l -145.5,67.61 c -33.35,15.18 -69.36,28.31 -101.39,45.88"
       style="fill:#e12d38;fill-opacity:1;fill-rule:nonzero;stroke:none;stroke-width:0.1"
       id="path142" />
    <path
       d="m 797.556,1792.21 c 132.027,48.4 261.994,103.66 392.494,156.09 115.06,46.23 231.42,89.81 345.57,138.23 123.85,-53.53 249.9,-101.1 375.15,-151.19 89.94,-35.96 179.76,-78.47 273.49,-103.34 18.21,-4.83 109.74,-26.41 119.88,-20.54 l 5,-1.59 0.06,-2.06 c -14.84,-8.29 -31.45,-14.59 -47.03,-21.43 -43.44,-19.09 -88.18,-36.1 -131.19,-56.01 -0.61,20.68 -0.65,41.36 -1.05,62.04 -49.13,23.68 -101.35,42.46 -151.94,62.91 -36.38,14.7 -72.29,30.56 -108.63,45.34 -38.27,15.55 -77.02,30.01 -115.5,45.01 -35.58,13.69 -71,27.77 -106.26,42.24 -37.94,15.75 -75.84,32.49 -114.66,45.95 -197.16,-82.1 -397.78,-155.81 -594.021,-240.15 -0.036,-18.13 0.291,-36.35 -0.228,-54.47 -46.812,18.35 -94.527,34.14 -141.135,52.97"
       style="fill:#a81e27;fill-opacity:1;fill-rule:nonzero;stroke:none;stroke-width:0.1"
       id="path144" />
    <path
       d="m 1537.01,1909.28 c 93.49,-38.9 188.76,-73.55 283.18,-110.12 l 260.82,-103.17 c 87.3,-32.76 173.85,-67.42 259.64,-103.97 29.25,-12.35 59.01,-23.92 87.79,-37.31 -20.51,-6.18 -42.13,-9.83 -63.15,-13.87 -38.68,17.06 -81.05,25.66 -120.55,41.12 -29.29,11.47 -58.07,24.28 -87.3,35.94 l -273,106.98 -254.42,96.86 c -29.05,10.86 -67.53,29.09 -96.11,36.68 -134.38,-50.35 -267.12,-105.78 -400.32,-159.19 -69.12,-27.72 -139.078,-53.52 -208.318,-81.05 -52.338,-20.81 -105.477,-39.69 -158.016,-60.02 -17.727,-6.86 -38.667,-12.28 -54.99,-21.69 -18.408,7.27 -36.573,15.23 -54.921,22.67 54.852,24.63 112.485,44.66 168.204,67.45 236.151,96.56 476.251,183.81 711.461,282.69"
       style="fill:#e12d38;fill-opacity:1;fill-rule:nonzero;stroke:none;stroke-width:0.1"
       id="path146" />
    <path
       d="m 869.211,1147.17 446.719,199.17 125.44,55.13 c 30.07,13.31 60.21,27.78 91.39,38.34 27.94,-7.96 55.69,-21.74 82.63,-32.76 66.68,-26.97 132.63,-55.61 197.86,-85.92 59.76,-27.43 120.59,-52.65 180.52,-79.8 l 152.51,-69.13 c 19.86,-9.08 39.4,-19.27 59.38,-28.01 -22.69,-13.32 -47.08,-23.73 -71.04,-34.53 l -22.13,8.16 c -52.56,29.14 -111.36,49.07 -166.11,74.05 -53.23,24.29 -107.11,47.02 -160.35,71.2 -58.1,26.56 -116.33,52.84 -174.7,78.81 -24.47,11.07 -48.54,23.06 -73.16,33.77 -28.21,-11.46 -55.91,-24.73 -83.82,-36.99 l -156.42,-68.71 c -69.45,-30.89 -139.81,-60 -209.59,-90.16 l -78.11,-33.84 c -22.192,-9.78 -47.641,-24.06 -71.416,-28.22 -26.115,-0.69 -50.085,13.14 -69.603,29.44"
       style="fill:#f8d195;fill-opacity:1;fill-rule:nonzero;stroke:none;stroke-width:0.1"
       id="path148" />
    <path
       d="m 1538.17,1375.65 c 24.62,-10.71 48.69,-22.7 73.16,-33.77 58.37,-25.97 116.6,-52.25 174.7,-78.81 53.24,-24.18 107.12,-46.91 160.35,-71.2 54.75,-24.98 113.55,-44.91 166.11,-74.05 -42.76,-2.96 -87.48,1.24 -130.49,1.38 l -278.84,-0.05 -764.346,-1.42 c 23.775,4.16 49.224,18.44 71.416,28.22 l 78.11,33.84 c 69.78,30.16 140.14,59.27 209.59,90.16 l 156.42,68.71 c 27.91,12.26 55.61,25.53 83.82,36.99"
       style="fill:#e12d38;fill-opacity:1;fill-rule:nonzero;stroke:none;stroke-width:0.1"
       id="path150" />
    <path
       d="m 1533.91,1858.42 c 28.58,-7.59 67.06,-25.82 96.11,-36.68 l 254.42,-96.86 273,-106.98 c 29.23,-11.66 58.01,-24.47 87.3,-35.94 39.5,-15.46 81.87,-24.06 120.55,-41.12 -33.42,-9.52 -63.99,-25.09 -95.34,-39.76 -21.65,-10.13 -43.58,-19.62 -65.22,-29.78 -53.3,23.8 -107.73,43.95 -161.87,65.68 -98.33,40.41 -197.25,79.32 -296.76,116.74 l -136.27,51.51 c -24.72,9.53 -50.38,18.3 -73.92,30.51 -31.07,-14.11 -63.34,-25.99 -95.07,-38.55 -48.22,-19.53 -96.61,-38.63 -145.16,-57.29 -97.65,-37.85 -194.82,-76.89 -291.51,-117.13 -41.485,-16.99 -83.299,-32.67 -124.432,-50.56 -55.686,21.76 -111.909,42.25 -167.472,64.26 16.323,9.41 37.263,14.83 54.99,21.69 52.539,20.33 105.678,39.21 158.016,60.02 69.24,27.53 139.198,53.33 208.318,81.05 133.2,53.41 265.94,108.84 400.32,159.19"
       style="fill:#a81e27;fill-opacity:1;fill-rule:nonzero;stroke:none;stroke-width:0.1"
       id="path152" />
    <path
       d="m 769.143,412.93 1112.897,0.59 399.02,0.47 121.29,-0.38 c 21.42,-0.08 44,1.19 65.31,-0.86 36.72,1.77 74.08,0.03 110.88,0.06 l 51.81,-86.07 c 12.05,-19.57 27.18,-40.18 36.04,-61.28 l -272.75,-0.41 -1718.046,0.41 -244.347,0.47 c -43.719,0.07 -88.185,-1.71 -131.799,0.82 -21.457,-0.69 -42.964,-0.17 -64.428,0.09 l 0.102,144.45 c 17.63,2.45 37.197,0.77 55.104,0.78 l 111.399,0.15 367.518,0.71"
       style="fill:#c59e7c;fill-opacity:1;fill-rule:nonzero;stroke:none;stroke-width:0.1"
       id="path154" />
    <path
       d="m 235.02,266.84 0.102,144.45 c 27.847,-2.3 56.805,-0.87 84.771,-0.82 58.107,0.09 116.316,0.96 174.408,0.29 -11.826,-20.44 -23.658,-40.89 -36.699,-60.59 -18.102,-27.35 -37.587,-54.05 -53.736,-82.62 -29.991,-0.08 -76.797,2.82 -104.418,-0.8 -21.457,-0.69 -42.964,-0.17 -64.428,0.09"
       style="fill:#f8d195;fill-opacity:1;fill-rule:nonzero;stroke:none;stroke-width:0.1"
       id="path156" />
  </g>
</svg>
