<?xml version="1.0" encoding="UTF-8" standalone="no"?>
<!-- Created with Inkscape (http://www.inkscape.org/) -->

<svg
   version="1.1"
   id="svg2"
   width="4096"
   height="4096"
   viewBox="0 0 4096 4096"
   sodipodi:docname="pagoda.svg"
   inkscape:version="1.2.2 (b0a8486541, 2022-12-01)"
   xmlns:inkscape="http://www.inkscape.org/namespaces/inkscape"
   xmlns:sodipodi="http://sodipodi.sourceforge.net/DTD/sodipodi-0.dtd"
   xmlns="http://www.w3.org/2000/svg"
   xmlns:svg="http://www.w3.org/2000/svg">
  <defs
     id="defs6">
    <clipPath
       clipPathUnits="userSpaceOnUse"
       id="clipPath156">
      <path
         d="m 7569.6,13171.9 c 322.77,-127.3 591.21,-419.4 878.1,-608.8 l -5.7,-24.5 c 143.4,-206.9 327.27,-402.3 504.6,-581.1 87,-87.7 189.93,-174.9 265.26,-272.1 26.85,-34.7 34.86,-49.5 31.86,-93.2 -30.63,-18 -44.52,-16.9 -79.56,-7.7 -4.11,1.1 -7.41,4.2 -11.1,6.4 -243.57,11.1 -433.53,53.8 -659.79,145.5 -319.2,203 -592.98,466.1 -906.99,674.6 l -15.99,-8.6 c -316.77,-298.8 -985.56,-776 -1390.65,-907.7 -32.82,10.1 -58.38,29.1 -87.12,47.6 -74.85,73.8 -178.92,163.1 -212.94,264.7 l 131.76,-11.1 c 51.72,9.6 109.41,44.3 147.72,80.3 24.54,23.2 23.52,21.3 23.22,56.8 -105.09,25.3 -203.28,56.4 -304.17,95.1 240.63,2.3 400.11,14.3 619.08,122 -97.83,-7.5 -193.65,-17.2 -291.48,-5.2 -13.65,36.5 -25.5,65.2 -22.71,105.2 346.14,119.1 1090.68,674.8 1386.6,921.8 z"
         id="path154" />
    </clipPath>
    <linearGradient
       x1="0"
       y1="0"
       x2="1"
       y2="0"
       gradientUnits="userSpaceOnUse"
       gradientTransform="matrix(-871.793,1367.29,-1367.29,-871.793,8015.69,11002.8)"
       spreadMethod="pad"
       id="linearGradient162">
      <stop
         style="stop-opacity:1;stop-color:#191e27"
         offset="0"
         id="stop158" />
      <stop
         style="stop-opacity:1;stop-color:#182730"
         offset="1"
         id="stop160" />
    </linearGradient>
  </defs>
  <sodipodi:namedview
     id="namedview4"
     pagecolor="#ffffff"
     bordercolor="#999999"
     borderopacity="1"
     inkscape:showpageshadow="0"
     inkscape:pageopacity="0"
     inkscape:pagecheckerboard="0"
     inkscape:deskcolor="#d1d1d1"
     showgrid="false"
     inkscape:zoom="0.16296602"
     inkscape:cx="2402.3414"
     inkscape:cy="2319.502"
     inkscape:window-width="1854"
     inkscape:window-height="1011"
     inkscape:window-x="0"
     inkscape:window-y="0"
     inkscape:window-maximized="1"
     inkscape:current-layer="g10">
    <inkscape:page
       x="0"
       y="0"
       id="page8"
       width="4096"
       height="4096" />
  </sodipodi:namedview>
  <g
     id="g10"
     inkscape:groupmode="layer"
     inkscape:label="Page 1"
     transform="matrix(1.3333333,0,0,-1.3333333,0,4096)">
    <path
       d="M 0,3072 H 3072 V 0 H 0 v 3072"
       style="fill:#1c363e;fill-opacity:1;fill-rule:nonzero;stroke:none;stroke-width:0.1"
       id="path14" />
    <path
       d="m 2563.42,1350.49 c 8.52,-13.24 11.51,-31.13 18.27,-45.54 22.29,-47.55 59.96,-76.55 102.42,-104.85 -29.08,-0.62 -96.95,44.14 -120.51,62.09 -0.37,29.43 -0.43,58.86 -0.18,88.3"
       style="fill:#be3125;fill-opacity:1;fill-rule:nonzero;stroke:none;stroke-width:0.1"
       id="path16" />
    <path
       d="m 519.912,1364.51 c 12.78,-38.28 27.645,-76.37 52.098,-108.92 3.243,-4.31 6.642,-9.11 10.707,-12.65 8.748,-7.62 23.577,-14.44 27.78,-25.52 -9.666,0.89 -19.68,0.51 -29.397,0.61 -20.136,11.33 -37.641,26.69 -57.21,38.92 -0.009,35.94 -7.899,71.62 -3.978,107.56"
       style="fill:#922722;fill-opacity:1;fill-rule:nonzero;stroke:none;stroke-width:0.1"
       id="path18" />
    <path
       d="m 507.627,1362.4 c 3.777,-25.64 0.693,-76.64 0.579,-105.16 -11.172,-8.53 -23.919,-15.04 -36.192,-21.83 -28.167,-15.61 -54.102,-30.48 -86.943,-32.75 l -0.069,1.28 c 5.517,6.66 18.15,11.67 25.731,16.32 54.582,33.47 82.095,81.12 96.894,142.14"
       style="fill:#f6c453;fill-opacity:1;fill-rule:nonzero;stroke:none;stroke-width:0.1"
       id="path20" />
    <path
       d="m 2566.65,1233.78 c 11.88,-7.63 22.31,-22.16 32.06,-32.39 13.02,-13.62 26.42,-26.85 40.2,-39.69 19.75,-18.22 41.96,-32.87 62.19,-50.37 -29.67,-0.69 -109.75,45.82 -134.52,62.92 l 0.07,59.53"
       style="fill:#be3125;fill-opacity:1;fill-rule:nonzero;stroke:none;stroke-width:0.1"
       id="path22" />
    <path
       d="m 2569.16,1063.72 c 23.68,-18.18 44.1,-39.42 69.11,-56.12 17.72,-11.84 69.85,-40.83 80.32,-54.13 -40.36,4.04 -111.79,30.52 -149.34,47.74 -0.09,20.51 -2.13,42.16 -0.09,62.51"
       style="fill:#be3125;fill-opacity:1;fill-rule:nonzero;stroke:none;stroke-width:0.1"
       id="path24" />
    <path
       d="m 509.43,1236.6 c 0.039,-15.9 -2.364,-36.37 1.494,-51.41 -5.016,-9.73 -20.43,-16.4 -28.935,-23.41 -14.247,-7.72 -27.135,-18.47 -40.818,-27.22 -27.795,-17.76 -61.836,-23.29 -93.684,-29.3 58.197,37 111.057,84.97 161.943,131.34"
       style="fill:#f6c453;fill-opacity:1;fill-rule:nonzero;stroke:none;stroke-width:0.1"
       id="path26" />
    <path
       d="m 2568.07,1151.52 c 6.57,-2.96 13.62,-11.2 19.03,-16.09 25.97,-23.44 52.34,-46.41 79.12,-68.91 16.4,-13.65 33.79,-26.32 49.4,-40.86 -12.28,1.82 -25.25,7.54 -37.04,11.53 -38.41,13 -74.17,26.36 -110.57,44.38 l 0.06,69.95"
       style="fill:#be3125;fill-opacity:1;fill-rule:nonzero;stroke:none;stroke-width:0.1"
       id="path28" />
    <path
       d="m 510.141,1155.02 c 1.059,-20.14 -0.846,-41.19 1.629,-61.08 -7.317,-7.36 -20.826,-13.6 -29.871,-19.18 -14.361,-8.86 -28.617,-18.96 -43.827,-26.26 -27.654,-13.27 -59.535,-17.29 -89.199,-24.45 18.906,14.49 38.55,28.03 57.282,42.75 17.592,13.82 34.233,28.83 51.36,43.22 13.089,10.99 27.474,21.65 39.534,33.7 4.959,3.36 8.94,6.99 13.092,11.3"
       style="fill:#f6c453;fill-opacity:1;fill-rule:nonzero;stroke:none;stroke-width:0.1"
       id="path30" />
    <path
       d="m 2551.42,1070.13 c -0.03,-21.74 -0.29,-43.51 -0.07,-65.25 -40.19,-21.35 -80.63,-39.94 -123.44,-55.49 -14.01,-3.84 -28.05,-7.58 -42.11,-11.21 14.09,12.22 29.69,23.13 44.31,34.76 23.14,18.58 46.03,37.47 68.67,56.66 17.03,14.48 33.99,28.18 52.64,40.53"
       style="fill:#d3d36e;fill-opacity:1;fill-rule:nonzero;stroke:none;stroke-width:0.1"
       id="path32" />
    <path
       d="m 509.733,1069.62 c 1.248,-20.51 -0.948,-41.35 1.119,-61.72 -8.697,-7.18 -22.221,-12.79 -32.31,-18.11 -22.341,-11.79 -45.351,-24.33 -69.456,-32.08 -24.171,-7.77 -50.475,-11.66 -75.249,-17.67 41.325,24.63 76.497,54.14 114.618,83.11 20.331,15.44 42.546,29.06 61.278,46.47"
       style="fill:#f6c453;fill-opacity:1;fill-rule:nonzero;stroke:none;stroke-width:0.1"
       id="path34" />
    <path
       d="m 2568.15,985.08 c 14.02,-6.6 32.39,-24.3 45.14,-34.25 34.82,-27.15 68.83,-51.6 109.24,-69.94 -17.63,-0.11 -35.62,2.17 -53.3,2.73 -33.79,1.08 -67.66,0.84 -101.46,1.05 -0.44,33.45 0.18,66.96 0.38,100.41"
       style="fill:#be3125;fill-opacity:1;fill-rule:nonzero;stroke:none;stroke-width:0.1"
       id="path36" />
    <path
       d="m 509.733,1069.62 2.817,3.18 c 11.598,-3.62 24.903,-17.25 34.446,-25.06 29.259,-23.95 86.208,-72.14 122.049,-82.17 4.851,-1.35 10.281,-1.44 15.291,-1.92 3.378,-0.34 2.031,-0.13 5.52,-1.13 l -1.344,-1.94 c -17.013,-1.96 -51.978,3.81 -63.294,-10.61 -0.654,-0.83 -1.263,-1.69 -1.875,-2.55 -29.187,7.83 -94.695,58.34 -112.491,60.48 -2.067,20.37 0.129,41.21 -1.119,61.72"
       style="fill:#922722;fill-opacity:1;fill-rule:nonzero;stroke:none;stroke-width:0.1"
       id="path38" />
    <path
       d="m 510.525,986.43 c 0.21,-32.77 0.945,-66.05 -0.483,-98.77 l -2.484,-1.42 c -14.7,2.13 -31.614,0.5 -46.59,0.46 -35.704,0.23 -71.393,-0.38 -107.067,-1.82 29.988,15.26 134.499,79.15 156.624,101.55"
       style="fill:#f6c453;fill-opacity:1;fill-rule:nonzero;stroke:none;stroke-width:0.1"
       id="path40" />
    <path
       d="m 2497.51,947.44 c 16.63,11.46 33.27,26.26 51.4,35.04 0.38,-32.28 2.19,-65.04 1.48,-97.26 -28.21,-0.3 -77.25,2.86 -102.59,-1.56 -19.3,0.23 -37.44,-1.38 -56.48,-4.45 33.97,24.34 71.41,44.85 106.19,68.23"
       style="fill:#d3d36e;fill-opacity:1;fill-rule:nonzero;stroke:none;stroke-width:0.1"
       id="path42" />
    <path
       d="m 510.525,986.43 c 31.512,-1.07 109.518,-93.46 169.104,-100.82 -16.518,-7.28 -120.579,2.38 -147.027,2.37 l -22.56,-0.32 c 1.428,32.72 0.693,66 0.483,98.77"
       style="fill:#be3125;fill-opacity:1;fill-rule:nonzero;stroke:none;stroke-width:0.1"
       id="path44" />
    <path
       d="m 2329.73,875.7 c 21.57,-3.03 38.69,-13.95 59.06,-20.06 44.84,-20.98 90.92,-41.73 132.91,-68.15 -67.74,1.05 -137.94,-26.07 -192.78,-65 2.13,50.86 0.8,102.27 0.81,153.21"
       style="fill:#245f5d;fill-opacity:1;fill-rule:nonzero;stroke:none;stroke-width:0.1"
       id="path46" />
    <path
       d="m 1399.63,893.79 c 87.09,1.13 174.5,0.37 261.59,-0.66 3.54,-11.19 13.8,-36.8 14.74,-47.01 0.06,-0.66 -0.12,-1.31 -0.17,-1.97 1.91,-2.54 1.13,-1.02 1.98,-4.71 -3.27,-1.34 -5.92,-1.06 -9.39,-1.05 l -282.14,-0.03 c 5.59,18.12 9.4,36.9 13.39,55.43"
       style="fill:#eca330;fill-opacity:1;fill-rule:nonzero;stroke:none;stroke-width:0.1"
       id="path48" />
    <path
       d="m 711.417,1708.6 c 57.222,-3.37 114.192,-3.76 171.474,-4.84 50.343,-0.95 100.626,-2.68 150.989,-2.86 51.62,-0.17 103.67,1.32 155.24,-0.5 -17.59,-16.75 -93.08,-78.25 -99.44,-91.5 3.92,-1.24 7.55,-1.61 11.61,-1.96 0.6,-0.15 1.19,-0.34 1.8,-0.45 10.61,-1.98 23.93,-0.55 34.8,-0.48 29.51,0.2 60.09,1.8 89.49,-0.27 -13.54,-2.17 -134.32,-2.53 -140.64,1.02 -0.51,3.8 0.04,5.15 2.53,8.15 6.62,8.01 16.15,14.08 24,20.81 3.59,3.07 5.52,7.17 9.09,10.25 18.14,15.72 40.57,29.84 55.46,48.65 l -0.66,1.88 c -13.39,2.25 -28.27,0.87 -41.86,0.8 -24.99,-0.14 -50.04,-0.21 -75.04,0.06 l -290.208,4.18 c -15.606,0.16 -35.895,6.06 -50.766,3.14 69.735,-72.2 152.118,-144.18 245.625,-183.47 23.562,-9.9 48.649,-15.58 73.869,-19.34 2.52,-0.38 15.18,-1.3 16.32,-3.45 1.96,-3.71 2.24,-485.69 1.51,-534.68 -0.25,-16.79 -1.97,-33.52 -2.06,-50.33 -0.13,-24.13 1.69,-49.4 -0.56,-73.37 -9.14,-6.78 -25.8,-10.99 -36.57,-15.71 -58.379,-25.76 -117.199,-50.46 -176.463,-74.11 -8.763,-3.4 -16.542,-9.17 -25.32,-12.59 C 781.29,724.27 541.425,626 530.853,625.9 c -0.93,4.79 -0.168,10.21 -0.27,15.15 l -2.913,0.19 1.911,0.77 c -0.195,38.68 -0.75,77.51 0.201,116.18 0.945,38.34 3.501,78.23 1.518,116.48 -0.195,3.73 -0.483,6.27 -2.346,9.52 -4.947,1.9 -9.453,2.41 -14.376,0.03 -3.96,-1.92 -6.465,-5.76 -7.293,-10.02 -2.718,-13.95 -0.306,-35.16 -0.309,-50.1 l 0.132,-143.36 c 0.048,-21.08 2.691,-45.81 -0.552,-66.41 -11.304,-6.04 -24.189,-9.87 -36.111,-14.67 l -87.312,-35.04 c -44.049,-17.92 -87.815,-36.55 -132.008,-54.13 -16.543,-6.57 -33.067,-13.47 -49.747,-19.67 -3.106,-1.15 -6.596,-1.24 -9.571,-2.49 -4.6,-1.92 -8.308,-5.17 -13.142,-6.64 l -1.692,1.95 c 30.519,15.44 65.523,25.96 97.348,38.95 76.803,31.79 153.872,62.91 231.206,93.38 -0.42,18.64 -0.505,37.28 -0.255,55.93 2.721,20.17 0.456,42.91 0.147,63.34 -0.472,33.02 -0.561,66.05 -0.267,99.07 0.057,16.69 -1.317,35.58 2.406,51.93 l 2.484,1.42 22.56,0.32 c 0.018,-40.26 1.089,-80.87 -0.228,-121.09 -0.368,-46.6 -0.393,-93.19 -0.075,-139.78 79.584,31.7 158.532,65.65 238.731,95.72 -7.521,3.53 -14.985,7.24 -22.77,10.16 0.408,35.77 -0.735,71.62 -0.93,107.41 l -0.606,220.8 10.443,0.95 c 4.599,-0.07 9.135,0.44 13.716,0.84 -0.822,-59.19 -0.957,-118.39 -0.405,-177.59 0.129,-54.37 -0.486,-108.84 0.405,-163.21 63.732,27.31 127.632,54.21 191.7,80.72 30.183,12.81 59.947,26.6 90.467,38.61 l 0.11,109.17 1.17,545.88 c -107.557,13.59 -188.185,69.61 -267.028,139.68 -26.037,23.15 -52.212,46.76 -75.885,72.35"
       style="fill:#1d212a;fill-opacity:1;fill-rule:nonzero;stroke:none;stroke-width:0.1"
       id="path50" />
    <path
       d="m 509.43,1236.6 c 2.772,2.52 2.814,2.64 6.531,2.93 l 2.865,-2.7 c 23.232,-18.26 46.893,-36.67 69.132,-56.13 3.402,-10.16 13.809,-19.09 21.294,-26.47 2.874,-1.85 5.43,-3.75 8.712,-4.76 l -0.966,-1.83 c 7.902,-12.84 18.135,-24.14 25.626,-37.23 l 3.93,-24.36 c 0.327,-0.86 0.483,-1.8 0.978,-2.58 0.414,-0.64 3.054,-2.96 3.693,-3.54 l -1.047,-1.37 c -3.039,1.12 -5.604,1.88 -8.082,4.02 -5.964,-3.1 -11.925,-6.56 -18.048,-9.31 7.593,-5.21 15.09,-10.85 23.289,-15.06 l 3.561,-5.07 c -8.811,-3.48 -18.225,-3.36 -26.898,-6.89 -7.641,-0.97 -15.507,-1.62 -23.034,-3.26 -19.506,7.43 -75.816,52.8 -89.196,50.95 -2.475,19.89 -0.57,40.94 -1.629,61.08 -4.152,-4.31 -8.133,-7.94 -13.092,-11.3 l -0.861,1.39 c 3.78,5.03 8.658,9.43 13.074,13.91 0.06,4.67 1.23,11.97 -1.338,15.71 -7.671,-1.35 -15.975,-10.22 -23.136,-14.06 l -2.799,1.11 c 8.505,7.01 23.919,13.68 28.935,23.41 -3.858,15.04 -1.455,35.51 -1.494,51.41"
       style="fill:#922722;fill-opacity:1;fill-rule:nonzero;stroke:none;stroke-width:0.1"
       id="path52" />
    <path
       d="m 509.43,1236.6 c 2.772,2.52 2.814,2.64 6.531,2.93 l 2.865,-2.7 c 3.003,-18.82 2.976,-39.86 2.295,-58.93 -3.327,2.61 -6.606,5.05 -10.197,7.29 -3.858,15.04 -1.455,35.51 -1.494,51.41"
       style="fill:#42211e;fill-opacity:1;fill-rule:nonzero;stroke:none;stroke-width:0.1"
       id="path54" />
    <path
       d="m 510.924,1185.19 c 3.591,-2.24 6.87,-4.68 10.197,-7.29 14.268,-14.24 33.237,-25.56 49.698,-37.18 15.777,-11.13 31.116,-22.85 46.758,-34.16 8.835,-6.39 19.56,-12.4 27.387,-19.9 -1.122,-3.5 -0.081,-2.21 -2.868,-4.08 -5.964,-3.1 -11.925,-6.56 -18.048,-9.31 -21.636,5 -104.475,82.31 -112.185,84.05 l -1.722,-2.3 c -4.152,-4.31 -8.133,-7.94 -13.092,-11.3 l -0.861,1.39 c 3.78,5.03 8.658,9.43 13.074,13.91 0.06,4.67 1.23,11.97 -1.338,15.71 -7.671,-1.35 -15.975,-10.22 -23.136,-14.06 l -2.799,1.11 c 8.505,7.01 23.919,13.68 28.935,23.41"
       style="fill:#1d212a;fill-opacity:1;fill-rule:nonzero;stroke:none;stroke-width:0.1"
       id="path56" />
    <path
       d="m 510.141,1155.02 1.722,2.3 c 7.71,-1.74 90.549,-79.05 112.185,-84.05 7.593,-5.21 15.09,-10.85 23.289,-15.06 l 3.561,-5.07 c -8.811,-3.48 -18.225,-3.36 -26.898,-6.89 -7.641,-0.97 -15.507,-1.62 -23.034,-3.26 -19.506,7.43 -75.816,52.8 -89.196,50.95 -2.475,19.89 -0.57,40.94 -1.629,61.08"
       style="fill:#922722;fill-opacity:1;fill-rule:nonzero;stroke:none;stroke-width:0.1"
       id="path58" />
    <path
       d="m 1448.73,821.26 235.15,0.1 c 5.81,-17.67 10.47,-35.77 15.47,-53.69 l -74.47,0.02 -256.42,0.48 c 3.84,17.69 9.03,35.12 13.87,52.56 l 66.4,0.53"
       style="fill:#eca330;fill-opacity:1;fill-rule:nonzero;stroke:none;stroke-width:0.1"
       id="path60" />
    <path
       d="m 2329.79,1048.7 c 21.68,-6.16 45.2,-10.92 60.92,-28.29 5.08,0.27 10.26,1.91 15.21,3.06 19.89,-4.23 45.41,1.44 65.41,4.5 7.61,-1.94 18.73,2.48 27.45,1.63 -22.64,-19.19 -45.53,-38.08 -68.67,-56.66 -14.62,-11.63 -30.22,-22.54 -44.31,-34.76 14.06,3.63 28.1,7.37 42.11,11.21 23.2,-1.22 46.42,0.06 69.6,-1.95 -34.78,-23.38 -72.22,-43.89 -106.19,-68.23 -0.93,-7.85 -1.94,-15.69 -2.53,-23.57 -20.37,6.11 -37.49,17.03 -59.06,20.06 0.21,10.02 0.11,20.04 -0.3,30.05 1.27,47.58 0.39,95.35 0.36,142.95"
       style="fill:#245f5d;fill-opacity:1;fill-rule:nonzero;stroke:none;stroke-width:0.1"
       id="path62" />
    <path
       d="m 1363.1,747.99 343.35,0.4 c 5.37,-16.28 9.73,-33.04 14.51,-49.51 l -0.92,-0.22 1.63,-3.32 c -3.28,-1.62 -9.7,-0.67 -13.48,-0.57 -119.98,2.39 -240.19,1 -360.2,1.37 4.8,17.35 9.84,34.64 15.11,51.85"
       style="fill:#eca330;fill-opacity:1;fill-rule:nonzero;stroke:none;stroke-width:0.1"
       id="path64" />
    <path
       d="m 532.374,766.89 c 79.632,9.36 142.545,-6.12 215.886,-33.9 7.785,-2.92 15.249,-6.63 22.77,-10.16 -80.199,-30.07 -159.147,-64.02 -238.731,-95.72 -0.318,46.59 -0.293,93.18 0.075,139.78"
       style="fill:#49ad95;fill-opacity:1;fill-rule:nonzero;stroke:none;stroke-width:0.1"
       id="path66" />
    <path
       d="m 2521.7,787.49 18.08,-4.9 c -4.34,-50.33 0.55,-102.2 -0.96,-152.79 -48.67,15.48 -96.24,35.74 -143.84,54.27 -22.41,8.72 -49.12,16.07 -69.7,28.11 l -0.83,2.03 c 1.47,2.76 2.85,5.61 4.47,8.28 54.84,38.93 125.04,66.05 192.78,65"
       style="fill:#49ad95;fill-opacity:1;fill-rule:nonzero;stroke:none;stroke-width:0.1"
       id="path68" />
    <path
       d="m 1343.86,677.81 383.2,-1.15 c 4.94,-16.54 12.83,-36.73 14,-53.89 -2.56,-1.13 -8.23,-0.3 -11.18,-0.27 l -400.69,0.98 c 4.03,18.31 9.53,36.3 14.67,54.33"
       style="fill:#eca330;fill-opacity:1;fill-rule:nonzero;stroke:none;stroke-width:0.1"
       id="path70" />
    <path
       d="m 1922.68,1498.25 c 17.96,0.11 35.92,-0.01 53.88,-0.37 -0.53,-209.01 3.98,-418.25 -0.35,-627.25 -18.61,6.85 -36.66,16.35 -54.58,24.86 l 1.05,602.76"
       style="fill:#fefefe;fill-opacity:1;fill-rule:nonzero;stroke:none;stroke-width:0.1"
       id="path72" />
    <path
       d="m 1097.09,1498.33 56.14,-0.42 1.25,-308.99 c 0.06,-99.96 -0.84,-200 0.45,-299.96 l -21.73,-9.9 c -11.57,-5.61 -23.15,-10.99 -35,-16 l -1.11,635.27"
       style="fill:#fefefe;fill-opacity:1;fill-rule:nonzero;stroke:none;stroke-width:0.1"
       id="path74" />
    <path
       d="m 1742.96,600.79 4.13,-0.3 c 7.15,-9.48 19.6,-65.71 23.72,-81 -53.48,1.73 -107.32,0.09 -160.84,0 l -275.72,0.1 -32.15,0.04 c 8.66,26.22 15.15,53.53 21.93,80.31 l 264.68,0.15 c 51.34,0.02 102.94,-1.04 154.25,0.7"
       style="fill:#eca330;fill-opacity:1;fill-rule:nonzero;stroke:none;stroke-width:0.1"
       id="path76" />
    <path
       d="m 2578.88,773.6 c 27.99,-11.34 55.5,-23.31 81.66,-38.5 80.57,-46.79 158.5,-122.45 212.2,-198.24 13.08,-18.45 27.5,-37.34 37.39,-57.77 -52.32,18.23 -103.6,42.08 -154.8,63.34 -57.97,24.08 -116.95,46.19 -175.3,69.39 -2.76,53.65 -1.19,108.04 -1.15,161.78"
       style="fill:#49ad95;fill-opacity:1;fill-rule:nonzero;stroke:none;stroke-width:0.1"
       id="path78" />
    <path
       d="m 162.065,478.26 c 10.711,20.55 23.067,40.68 36.103,59.84 72.961,107.2 175.023,198.61 305.82,223.54 -0.036,-29.74 -1.044,-60.08 1.284,-89.74 -0.25,-18.65 -0.165,-37.29 0.255,-55.93 C 428.193,585.5 351.124,554.38 274.321,522.59 242.496,509.6 207.492,499.08 176.973,483.64 l -14.908,-5.38"
       style="fill:#49ad95;fill-opacity:1;fill-rule:nonzero;stroke:none;stroke-width:0.1"
       id="path80" />
    <path
       d="m 647.337,1058.21 c 32.934,2.96 66.339,1.93 99.387,2.99 l 0.606,-220.8 c 0.195,-35.79 1.338,-71.64 0.93,-107.41 -73.341,27.78 -136.254,43.26 -215.886,33.9 1.317,40.22 0.246,80.83 0.228,121.09 26.448,0.01 130.509,-9.65 147.027,-2.37 11.535,0.83 24.432,-1.13 35.982,-2 -16.701,9.67 -33.387,19.91 -48.849,31.47 -14.301,10.69 -28.23,23.02 -43.419,32.34 0.612,0.86 1.221,1.72 1.875,2.55 11.316,14.42 46.281,8.65 63.294,10.61 l 1.344,1.94 c -27.297,27.98 -57.876,56.65 -88.89,80.47 7.527,1.64 15.393,2.29 23.034,3.26 8.673,3.53 18.087,3.41 26.898,6.89 l -3.561,5.07"
       style="fill:#245f5d;fill-opacity:1;fill-rule:nonzero;stroke:none;stroke-width:0.1"
       id="path82" />
    <path
       d="m 650.898,1053.14 c 18.228,-13.06 36.318,-25.71 55.44,-37.44 -28.833,7.52 -56.871,14.36 -82.338,30.55 8.673,3.53 18.087,3.41 26.898,6.89"
       style="fill:#1d212a;fill-opacity:1;fill-rule:nonzero;stroke:none;stroke-width:0.1"
       id="path84" />
    <path
       d="m 2180.76,1051.75 c 38.62,-0.15 77.96,-2.33 116.48,-0.69 0.13,-7.15 0.05,-14.36 0.51,-21.48 -3.27,-39.49 -0.57,-90.13 -0.53,-130.69 0.06,-60.76 -2.37,-122.93 1.87,-183.49 -66.65,34.5 -136.08,64.37 -203.44,97.65 -23.66,11.7 -49.06,22.32 -71.42,36.3 0.05,30.08 -0.08,60.17 -0.4,90.25 16.34,9.74 31.68,22.16 47.02,33.39 36.19,26.5 72.13,54.59 109.91,78.76"
       style="fill:#245f5d;fill-opacity:1;fill-rule:nonzero;stroke:none;stroke-width:0.1"
       id="path86" />
    <path
       d="m 770.883,1062.99 c 19.434,0.91 38.418,4.66 57.936,3.3 17.928,-5.93 36.36,-10.94 53.976,-17.72 60.534,-23.31 119.065,-58.4 170.365,-97.88 l -0.11,-109.17 c -30.52,-12.01 -60.284,-25.8 -90.467,-38.61 -64.068,-26.51 -127.968,-53.41 -191.7,-80.72 -0.891,54.37 -0.276,108.84 -0.405,163.21 -0.552,59.2 -0.417,118.4 0.405,177.59"
       style="fill:#245f5d;fill-opacity:1;fill-rule:nonzero;stroke:none;stroke-width:0.1"
       id="path88" />
    <path
       d="m 2551.88,1370.16 c 2.37,-11.49 0.48,-23.1 2.51,-34.26 2.65,-10.67 3.17,-63.73 0.95,-74.4 -15.46,-19.74 -59.53,-42.16 -80.99,-56.55 -3.82,-2.56 -8.4,-4.08 -12.65,-5.77 2.83,-0.05 4.08,-0.01 6.68,1.12 11.07,4.85 23.79,-0.74 38.16,7.34 13.71,7.7 34.18,35.4 46.79,37.47 2.41,-5.36 2.48,-65.16 0.01,-70.39 -1.02,-2.16 -2.1,-2.98 -4.19,-3.78 -12.88,-4.96 -22.57,-12.82 -34.45,-19 -28.14,-14.65 -56.74,-28.39 -84.84,-43.15 l -0.77,-3.13 -3.16,-0.06 2.08,2.12 -2.16,-1.91 c 0.01,0 0.02,0.01 0.02,0.01 l 0.59,1.1 c 4,-2.62 5.09,-2.13 9.85,-1.18 2.53,0.5 3.89,1.21 6.1,2.41 18.4,9.94 45,9.31 66.06,21.56 12.6,7.32 29.85,28.27 44.88,28.63 2.64,-12.75 2.58,-56.25 0.54,-69.11 -12.75,-16.66 -110.38,-54.25 -135.69,-63.84 17.33,-2.42 37.03,6.41 53.13,2.58 -20,-3.06 -45.52,-8.73 -65.41,-4.5 -4.95,-1.15 -10.13,-2.79 -15.21,-3.06 10.75,11.43 25.2,20.45 37.23,30.66 -12.96,-1.58 -24.89,-3.4 -36.47,3.7 -11.14,-5.78 -76.19,-2.47 -94.23,-3.71 -38.52,-1.64 -77.86,0.54 -116.48,0.69 -12.3,2.71 -37.73,5.15 -46.17,13.92 -7.29,-1.89 -14.36,-4.09 -21.94,-4.07 l -3.8,-0.01 -0.95,1.71 c 7.44,16.57 89.89,92.13 109.6,109.79 -33.31,-3.03 -65.02,-18.9 -98.25,-19.96 -2.85,0.11 -1.64,-0.43 -3.62,1.65 6.13,13.81 55.34,51.54 69.5,64.4 9.74,8.84 18.89,18.18 27.95,27.71 25.63,23.08 49.82,45.53 79.93,62.77 3.76,2.38 4.25,2.74 8.67,2.72 0.84,-0.6 3.56,-2.29 4.17,-3.05 -0.66,-20.59 -0.38,-41.2 -0.25,-61.8 11.83,-5.94 39.51,-17.81 52.1,-17.24 20.15,-13.61 40.24,-31.36 62.08,-41.88 2.23,1.87 2.07,2.86 2.89,5.55 3.64,6.82 20.09,15.17 26.83,20.54 56.42,44.96 78.44,87.96 102.38,155.66"
       style="fill:#1d212a;fill-opacity:1;fill-rule:nonzero;stroke:none;stroke-width:0.1"
       id="path90" />
    <path
       d="m 2427.7,1102.26 c 26.04,5.67 51.9,13.27 77.47,20.8 -12.95,-16.4 -29.64,-30.65 -44.92,-44.9 -9.21,8.67 -21.51,18.04 -32.55,24.1"
       style="fill:#e35e3c;fill-opacity:1;fill-rule:nonzero;stroke:none;stroke-width:0.1"
       id="path92" />
    <path
       d="m 2437.88,1192.05 c 13.34,-1.4 49.77,8.37 67.96,9.7 -14.2,-14.8 -29.71,-31.2 -45.79,-43.92 l -0.18,2.65 c -12.24,10.33 -26.64,19.24 -40.09,27.93 2.23,1.87 2.07,2.86 2.89,5.55 5.34,-2.06 9.54,-2.04 15.21,-1.91"
       style="fill:#e35e3c;fill-opacity:1;fill-rule:nonzero;stroke:none;stroke-width:0.1"
       id="path94" />
    <path
       d="m 2238.68,1185.04 c 9.61,-4.13 30.14,-8.21 34.65,-18.12 1.35,-2.98 1.29,-7.72 1.52,-11.01 -55.99,-27.6 -109.93,-60.24 -162.2,-94.31 l -3.8,-0.01 -0.95,1.71 c 7.44,16.57 89.89,92.13 109.6,109.79 10.02,1.59 14.07,4.71 21.18,11.95"
       style="fill:#d3d36e;fill-opacity:1;fill-rule:nonzero;stroke:none;stroke-width:0.1"
       id="path96" />
    <path
       d="m 2505.84,1201.75 c 16.49,12.39 29.72,28.76 46.4,40.77 l 0.02,-66.05 c -32.88,-16.61 -65.02,-34.94 -97.8,-51.88 -10.2,-5.27 -20.81,-12.42 -31.44,-16.6 -2.82,-1.12 -4.91,-0.85 -7.78,-0.16 1.55,6.75 6.25,11.3 10.6,16.47 11.53,11.05 22.93,22.23 34.21,33.53 16.08,12.72 31.59,29.12 45.79,43.92"
       style="fill:#d3d36e;fill-opacity:1;fill-rule:nonzero;stroke:none;stroke-width:0.1"
       id="path98" />
    <path
       d="m 2551.88,1370.16 c 2.37,-11.49 0.48,-23.1 2.51,-34.26 -0.58,-24.27 -0.7,-48.55 -0.37,-72.83 -36.08,-27.29 -72.98,-55.75 -116.14,-71.02 -5.67,-0.13 -9.87,-0.15 -15.21,1.91 3.64,6.82 20.09,15.17 26.83,20.54 56.42,44.96 78.44,87.96 102.38,155.66"
       style="fill:#d3d36e;fill-opacity:1;fill-rule:nonzero;stroke:none;stroke-width:0.1"
       id="path100" />
    <path
       d="m 2505.17,1123.06 c 15.34,11.01 29.59,24.46 46.48,33.06 l -0.01,-66.84 -1.83,-0.84 c -19.01,-8.87 -36.51,-20.69 -55.37,-29.82 -28.18,-13.64 -59.11,-24.41 -88.52,-35.15 -4.95,-1.15 -10.13,-2.79 -15.21,-3.06 10.75,11.43 25.2,20.45 37.23,30.66 3.95,2.55 7.75,6.81 11.28,9.99 2.19,1.33 4.31,3.53 6.3,5.2 5.1,3.6 9.88,7.94 14.73,11.9 15.28,14.25 31.97,28.5 44.92,44.9"
       style="fill:#d3d36e;fill-opacity:1;fill-rule:nonzero;stroke:none;stroke-width:0.1"
       id="path102" />
    <path
       d="m 2295.39,1144.11 c 4.52,-15.2 1.76,-73.13 1.85,-93.05 -38.52,-1.64 -77.86,0.54 -116.48,0.69 -12.3,2.71 -37.73,5.15 -46.17,13.92 56.74,19.37 108.08,50.52 160.8,78.44"
       style="fill:#eca330;fill-opacity:1;fill-rule:nonzero;stroke:none;stroke-width:0.1"
       id="path104" />
    <path
       d="m 2295.39,1144.11 c 4.32,1.79 7.47,0.3 11.66,-1.39 32.76,-13.18 68.39,-37.83 99.14,-55.96 12.35,-7.28 25.42,-16.74 39.33,-20.5 -1.99,-1.67 -4.11,-3.87 -6.3,-5.2 -3.53,-3.18 -7.33,-7.44 -11.28,-9.99 -12.96,-1.58 -24.89,-3.4 -36.47,3.7 -11.14,-5.78 -76.19,-2.47 -94.23,-3.71 -0.09,19.92 2.67,77.85 -1.85,93.05"
       style="fill:#be3125;fill-opacity:1;fill-rule:nonzero;stroke:none;stroke-width:0.1"
       id="path106" />
    <path
       d="m 2391.47,1054.77 c 14.55,3.82 32.58,4.13 47.75,6.29 -3.53,-3.18 -7.33,-7.44 -11.28,-9.99 -12.96,-1.58 -24.89,-3.4 -36.47,3.7"
       style="fill:#eca330;fill-opacity:1;fill-rule:nonzero;stroke:none;stroke-width:0.1"
       id="path108" />
    <path
       d="m 2293.01,1309.66 c 3.76,2.38 4.25,2.74 8.67,2.72 0.84,-0.6 3.56,-2.29 4.17,-3.05 -0.66,-20.59 -0.38,-41.2 -0.25,-61.8 11.83,-5.94 39.51,-17.81 52.1,-17.24 20.15,-13.61 40.24,-31.36 62.08,-41.88 13.45,-8.69 27.85,-17.6 40.09,-27.93 l 0.18,-2.65 c -11.28,-11.3 -22.68,-22.48 -34.21,-33.53 -4.35,-5.17 -9.05,-9.72 -10.6,-16.47 -16.1,13.9 -34.74,28.2 -53.08,38.94 -19.12,6.71 -38.64,12.88 -58.44,17.21 l -10.02,-0.69 -18.85,-7.38 c -0.23,3.29 -0.17,8.03 -1.52,11.01 -4.51,9.91 -25.04,13.99 -34.65,18.12 -7.11,-7.24 -11.16,-10.36 -21.18,-11.95 -33.31,-3.03 -65.02,-18.9 -98.25,-19.96 -2.85,0.11 -1.64,-0.43 -3.62,1.65 6.13,13.81 55.34,51.54 69.5,64.4 9.74,8.84 18.89,18.18 27.95,27.71 25.63,23.08 49.82,45.53 79.93,62.77"
       style="fill:#1d212a;fill-opacity:1;fill-rule:nonzero;stroke:none;stroke-width:0.1"
       id="path110" />
    <path
       d="m 2293.06,1228.36 c 1.97,-21.35 0.69,-43.6 0.64,-65.07 l -18.85,-7.38 c -0.23,3.29 -0.17,8.03 -1.52,11.01 -4.51,9.91 -25.04,13.99 -34.65,18.12 16.54,17.01 34.85,30.1 54.38,43.32"
       style="fill:#f6c453;fill-opacity:1;fill-rule:nonzero;stroke:none;stroke-width:0.1"
       id="path112" />
    <path
       d="m 2293.01,1309.66 c 3.76,2.38 4.25,2.74 8.67,2.72 0.84,-0.6 3.56,-2.29 4.17,-3.05 -0.66,-20.59 -0.38,-41.2 -0.25,-61.8 l -12.03,0.17 c -21.8,-12.85 -44.62,-24.17 -66.75,-36.49 -35.86,-19.97 -70.55,-40.24 -107.57,-58.08 -2.85,0.11 -1.64,-0.43 -3.62,1.65 6.13,13.81 55.34,51.54 69.5,64.4 9.74,8.84 18.89,18.18 27.95,27.71 25.63,23.08 49.82,45.53 79.93,62.77"
       style="fill:#f6c453;fill-opacity:1;fill-rule:nonzero;stroke:none;stroke-width:0.1"
       id="path114" />
    <path
       d="m 2293.01,1309.66 c 3.76,2.38 4.25,2.74 8.67,2.72 0.84,-0.6 3.56,-2.29 4.17,-3.05 -0.66,-20.59 -0.38,-41.2 -0.25,-61.8 l -12.03,0.17 c -0.52,20.64 0.06,41.3 -0.56,61.96"
       style="fill:#42211e;fill-opacity:1;fill-rule:nonzero;stroke:none;stroke-width:0.1"
       id="path116" />
    <path
       d="m 2293.06,1228.36 c 0.23,0.19 0.41,0.45 0.68,0.57 4.23,1.83 7.27,1.52 11.63,0.65 39.27,-25.91 75.81,-49.91 120.7,-65.58 7.19,-2.51 19.57,-7.27 27.2,-6.24 2.41,0.33 4.54,1.5 6.6,2.72 l 0.18,-2.65 c -11.28,-11.3 -22.68,-22.48 -34.21,-33.53 -4.35,-5.17 -9.05,-9.72 -10.6,-16.47 -16.1,13.9 -34.74,28.2 -53.08,38.94 -19.12,6.71 -38.64,12.88 -58.44,17.21 l -10.02,-0.69 c 0.05,21.47 1.33,43.72 -0.64,65.07"
       style="fill:#be3125;fill-opacity:1;fill-rule:nonzero;stroke:none;stroke-width:0.1"
       id="path118" />
    <path
       d="m 2293.06,1228.36 c 0.23,0.19 0.41,0.45 0.68,0.57 4.23,1.83 7.27,1.52 11.63,0.65 -4.57,-14.9 -1.68,-48.76 -1.65,-65.6 l -10.02,-0.69 c 0.05,21.47 1.33,43.72 -0.64,65.07"
       style="fill:#42211e;fill-opacity:1;fill-rule:nonzero;stroke:none;stroke-width:0.1"
       id="path120" />
    <path
       d="m 2362.16,1146.77 c 2.9,5.05 4.91,7.16 10.6,8.82 9.47,2.78 20.06,2.84 28.78,-2.23 10.93,-6.33 17.92,-18.56 24.3,-29.06 -4.35,-5.17 -9.05,-9.72 -10.6,-16.47 -16.1,13.9 -34.74,28.2 -53.08,38.94"
       style="fill:#e35e3c;fill-opacity:1;fill-rule:nonzero;stroke:none;stroke-width:0.1"
       id="path122" />
    <path
       d="m 1194.27,1498.12 451.29,0.28 149.69,-0.48 c 27.67,-0.06 55.73,0.86 83.36,-0.24 -1.71,-200.51 -2.05,-401.02 -1,-601.53 l -75.33,-0.61 c -0.48,71.58 -0.33,143.16 0.44,214.74 0.28,39.98 3.3,82.35 -1.25,122.09 -1.35,11.32 -3.46,22.5 -6.34,33.54 -2.89,11.03 -6.51,21.82 -10.88,32.36 -27.05,65.46 -82.32,122.25 -147.98,149.34 -1.93,0.8 -3.87,1.59 -5.83,2.34 -1.95,0.76 -3.91,1.49 -5.88,2.2 -1.97,0.7 -3.95,1.39 -5.94,2.05 -1.98,0.66 -3.98,1.29 -5.98,1.9 -2.01,0.61 -4.02,1.2 -6.04,1.76 -2.01,0.56 -4.04,1.09 -6.07,1.6 -2.03,0.51 -4.06,0.99 -6.11,1.45 -2.04,0.46 -4.09,0.89 -6.14,1.3 -2.06,0.41 -4.11,0.79 -6.18,1.15 -2.06,0.35 -4.13,0.68 -6.2,0.99 -2.07,0.31 -4.15,0.59 -6.23,0.84 -2.07,0.25 -4.15,0.48 -6.24,0.68 -2.08,0.21 -4.17,0.38 -6.26,0.54 -2.08,0.15 -4.17,0.27 -6.27,0.37 -2.09,0.1 -4.18,0.17 -6.27,0.22 -2.1,0.05 -4.19,0.07 -6.28,0.06 -2.1,-0.01 -4.19,-0.04 -6.29,-0.09 -2.09,-0.06 -4.18,-0.14 -6.27,-0.25 -2.09,-0.11 -4.18,-0.25 -6.27,-0.41 -2.09,-0.16 -4.17,-0.35 -6.25,-0.56 -2.09,-0.21 -4.17,-0.45 -6.24,-0.71 -2.08,-0.27 -4.16,-0.56 -6.23,-0.87 -2.07,-0.32 -4.13,-0.66 -6.19,-1.03 -2.06,-0.36 -4.12,-0.76 -6.17,-1.17 -2.05,-0.42 -4.1,-0.87 -6.14,-1.34 -2.04,-0.46 -4.08,-0.96 -6.1,-1.48 -2.03,-0.52 -4.05,-1.06 -6.07,-1.63 -2.01,-0.57 -4.02,-1.17 -6.02,-1.79 -2,-0.62 -3.99,-1.26 -5.98,-1.93 -1.98,-0.66 -3.96,-1.36 -5.93,-2.08 -1.96,-0.71 -3.92,-1.46 -5.87,-2.22 -1.95,-0.77 -3.89,-1.56 -5.81,-2.38 -2.14,-0.89 -4.27,-1.81 -6.39,-2.75 -2.12,-0.94 -4.22,-1.92 -6.31,-2.91 -2.1,-1 -4.18,-2.02 -6.25,-3.07 -2.06,-1.05 -4.12,-2.12 -6.16,-3.22 -2.04,-1.1 -4.07,-2.22 -6.08,-3.37 -2.01,-1.15 -4.01,-2.32 -6,-3.52 -1.98,-1.2 -3.95,-2.42 -5.91,-3.67 -1.95,-1.24 -3.89,-2.51 -5.81,-3.81 -1.93,-1.29 -3.83,-2.61 -5.72,-3.95 -1.89,-1.34 -3.77,-2.71 -5.62,-4.1 -1.86,-1.38 -3.7,-2.79 -5.52,-4.23 -1.82,-1.43 -3.63,-2.89 -5.42,-4.36 -1.78,-1.48 -3.55,-2.98 -5.3,-4.5 -1.74,-1.53 -3.47,-3.07 -5.19,-4.63 -1.71,-1.57 -3.4,-3.15 -5.07,-4.76 -1.67,-1.6 -3.32,-3.23 -4.95,-4.88 -1.63,-1.64 -3.25,-3.31 -4.84,-5 -1.59,-1.68 -3.16,-3.39 -4.71,-5.12 -1.54,-1.72 -3.07,-3.46 -4.58,-5.23 -1.5,-1.76 -2.98,-3.54 -4.45,-5.34 -1.45,-1.8 -2.89,-3.62 -4.31,-5.45 -1.42,-1.84 -2.81,-3.69 -4.18,-5.56 -1.37,-1.87 -2.72,-3.76 -4.04,-5.66 -1.33,-1.9 -2.63,-3.82 -3.91,-5.76 -1.27,-1.93 -2.52,-3.88 -3.75,-5.85 -1.23,-1.96 -2.43,-3.94 -3.61,-5.94 -1.18,-1.99 -2.34,-4 -3.47,-6.03 -1.13,-2.02 -2.23,-4.06 -3.31,-6.11 -1.08,-2.05 -2.14,-4.12 -3.17,-6.2 -1.02,-2.07 -2.03,-4.16 -3,-6.26 -0.98,-2.11 -1.93,-4.22 -2.86,-6.35 -0.92,-2.12 -1.82,-4.26 -2.69,-6.41 -9.64,-23.79 -15.14,-48.32 -17.44,-73.88 -4.54,-50.36 -1.51,-103.05 -1.42,-153.74 l 0.44,-124.07 c 0,-10.13 -1.73,-20.33 -1.53,-30.37 0.09,-4.42 1.15,-7.86 2.86,-11.9 4.17,-2.97 7.2,-2.33 12.24,-2.54 -29.42,-1.64 -59.32,-0.91 -88.79,-0.6 l -0.03,602.1"
       style="fill:#be3125;fill-opacity:1;fill-rule:nonzero;stroke:none;stroke-width:0.1"
       id="path124" />
    <path
       d="m 1283.09,896.62 c -5.04,0.21 -8.07,-0.43 -12.24,2.54 -1.71,4.04 -2.77,7.48 -2.86,11.9 -0.2,10.04 1.53,20.24 1.53,30.37 l -0.44,124.07 c -0.09,50.69 -3.12,103.38 1.42,153.74 2.3,25.56 7.8,50.09 17.44,73.88 0.87,2.15 1.77,4.29 2.69,6.41 0.93,2.13 1.88,4.24 2.86,6.35 0.97,2.1 1.98,4.19 3,6.26 1.04,2.08 2.09,4.15 3.17,6.2 1.08,2.05 2.18,4.09 3.31,6.11 1.13,2.03 2.29,4.04 3.47,6.03 1.18,2 2.38,3.98 3.61,5.94 1.23,1.97 2.48,3.92 3.75,5.85 1.28,1.94 2.58,3.86 3.91,5.76 1.32,1.9 2.67,3.79 4.04,5.66 1.37,1.87 2.76,3.72 4.18,5.56 1.42,1.83 2.86,3.65 4.31,5.45 1.47,1.8 2.95,3.58 4.45,5.34 1.51,1.77 3.04,3.51 4.58,5.23 1.55,1.73 3.12,3.44 4.71,5.12 1.59,1.69 3.21,3.36 4.84,5 1.63,1.65 3.28,3.28 4.95,4.88 1.67,1.61 3.36,3.19 5.07,4.76 1.72,1.56 3.45,3.1 5.19,4.63 1.75,1.52 3.52,3.02 5.31,4.5 1.78,1.47 3.59,2.93 5.41,4.36 1.82,1.44 3.66,2.85 5.52,4.23 1.85,1.39 3.73,2.76 5.62,4.1 1.89,1.34 3.79,2.66 5.72,3.95 1.92,1.3 3.86,2.57 5.81,3.81 1.96,1.25 3.93,2.47 5.91,3.67 1.99,1.2 3.99,2.37 6,3.52 2.01,1.15 4.04,2.27 6.08,3.37 2.04,1.1 4.1,2.17 6.16,3.22 2.07,1.05 4.15,2.07 6.25,3.07 2.09,0.99 4.19,1.97 6.31,2.91 2.12,0.94 4.25,1.86 6.39,2.75 1.92,0.82 3.86,1.61 5.81,2.38 1.95,0.76 3.91,1.51 5.87,2.22 1.97,0.72 3.95,1.42 5.93,2.08 1.99,0.67 3.98,1.31 5.98,1.93 2,0.62 4.01,1.22 6.02,1.79 2.02,0.57 4.04,1.11 6.07,1.63 2.02,0.52 4.06,1.02 6.1,1.48 2.04,0.47 4.09,0.91 6.14,1.33 2.05,0.42 4.11,0.82 6.17,1.18 2.06,0.37 4.12,0.71 6.19,1.03 2.07,0.31 4.15,0.6 6.23,0.86 2.07,0.27 4.15,0.51 6.24,0.72 2.08,0.21 4.16,0.4 6.25,0.56 2.09,0.16 4.18,0.3 6.27,0.41 2.09,0.11 4.18,0.19 6.27,0.25 2.1,0.05 4.19,0.08 6.29,0.09 2.09,0.01 4.18,-0.01 6.28,-0.06 2.09,-0.05 4.18,-0.12 6.27,-0.22 2.1,-0.1 4.19,-0.22 6.27,-0.37 2.09,-0.16 4.18,-0.33 6.26,-0.54 2.09,-0.2 4.17,-0.43 6.24,-0.68 2.08,-0.25 4.16,-0.53 6.23,-0.84 2.07,-0.31 4.14,-0.64 6.2,-0.99 2.07,-0.36 4.12,-0.74 6.18,-1.15 2.05,-0.41 4.1,-0.84 6.14,-1.3 2.05,-0.46 4.08,-0.94 6.11,-1.45 2.03,-0.51 4.06,-1.04 6.07,-1.6 2.02,-0.56 4.03,-1.15 6.04,-1.76 2,-0.61 4,-1.24 5.98,-1.9 1.99,-0.66 3.97,-1.35 5.94,-2.05 1.97,-0.71 3.93,-1.44 5.88,-2.2 1.96,-0.75 3.9,-1.54 5.83,-2.34 65.66,-27.09 120.93,-83.88 147.98,-149.34 4.37,-10.54 7.99,-21.33 10.88,-32.36 2.88,-11.04 4.99,-22.22 6.34,-33.54 4.55,-39.74 1.53,-82.11 1.25,-122.09 -0.77,-71.58 -0.92,-143.16 -0.44,-214.74 l -125.38,-0.07 -0.19,188.14 c -0.02,37.03 4.37,90 -4.79,124.89 -6.27,23.88 -20.5,45.76 -37.64,63.31 -1.59,1.65 -3.22,3.27 -4.88,4.84 -1.67,1.57 -3.38,3.1 -5.12,4.59 -1.75,1.48 -3.53,2.92 -5.34,4.32 -1.82,1.4 -3.68,2.74 -5.56,4.05 -1.89,1.3 -3.81,2.55 -5.76,3.76 -1.95,1.2 -3.93,2.36 -5.93,3.46 -2.01,1.1 -4.05,2.16 -6.11,3.16 -2.06,1 -4.15,1.95 -6.26,2.84 -2.11,0.9 -4.24,1.74 -6.4,2.53 -2.15,0.78 -4.32,1.51 -6.51,2.19 -2.19,0.68 -4.4,1.3 -6.62,1.87 -2.22,0.56 -4.45,1.07 -6.7,1.52 -2.25,0.45 -4.5,0.85 -6.77,1.18 -2.27,0.34 -4.54,0.62 -6.82,0.84 -2.28,0.22 -4.57,0.39 -6.86,0.49 -2.29,0.11 -4.58,0.16 -6.87,0.15 -39.02,0.2 -73.9,-14.81 -101.48,-42.38 -2.23,-2.24 -4.39,-4.55 -6.46,-6.94 -2.07,-2.39 -4.06,-4.85 -5.96,-7.38 -1.9,-2.53 -3.71,-5.12 -5.43,-7.77 -1.72,-2.66 -3.35,-5.37 -4.88,-8.14 -1.53,-2.76 -2.97,-5.58 -4.3,-8.45 -1.34,-2.86 -2.57,-5.77 -3.71,-8.73 -1.13,-2.95 -2.16,-5.94 -3.09,-8.96 -0.92,-3.02 -1.74,-6.08 -2.46,-9.16 -8.63,-37.78 -3.51,-82.19 -3.35,-120.84 l -0.11,-188.22 c -37.15,0.34 -74.3,0.33 -111.45,-0.01"
       style="fill:#eca330;fill-opacity:1;fill-rule:nonzero;stroke:none;stroke-width:0.1"
       id="path126" />
    <path
       d="m 1534.67,2015.05 c 66.14,-65.01 136.01,-125.9 204.75,-188.06 23.06,-20.99 46.34,-41.74 69.84,-62.25 10.84,-9.63 21.56,-21.37 33.4,-29.53 12.54,-11.33 25.67,-22.09 38.61,-32.95 40.02,-30.03 79.27,-60.4 116.03,-94.43 l -666.55,-0.14 -160.32,0.06 c -19.12,0.02 -51.71,2.68 -69.14,-0.81 -4.06,0.35 -7.69,0.72 -11.61,1.96 6.36,13.25 81.85,74.75 99.44,91.5 12.9,11.97 26.53,23.09 39.14,35.39 26.09,16.59 55.03,49.79 78.8,71.3 l 227.61,207.96"
       style="fill:#eca330;fill-opacity:1;fill-rule:nonzero;stroke:none;stroke-width:0.1"
       id="path128" />
    <path
       d="m 1533.61,1830.61 c 9.54,-1.82 56.97,-51.65 67.66,-62.25 -19.67,-21.93 -42.12,-41.72 -63.58,-61.88 -0.89,-0.44 -1.98,-0.17 -2.97,-0.2 -22.91,18.46 -43.5,41.52 -64.19,62.42 21.26,20.41 42.28,41.04 63.08,61.91"
       style="fill:#fce5a9;fill-opacity:1;fill-rule:nonzero;stroke:none;stroke-width:0.1"
       id="path130" />
    <path
       d="m 1296.64,498.14 479.76,0.92 c 2.28,-6.93 3.91,-14.1 5.72,-21.18 60.36,1.77 120.98,0.76 181.38,1 l 336.52,1.11 186.16,0.63 c 36.92,0.28 75.03,2.33 111.84,-0.22 l 0.1,-32.18 -187.72,0.34 v -21.13 l -324.31,-0.22 0.11,-33.69 c 49.78,0.06 100.39,2.05 150.07,0.08 l -0.05,-38.21 -379.43,0.03 0.16,-30.77 c 53.93,-0.89 107.9,0.23 161.82,-0.71 l 0.15,-38.65 -967.44,-0.35 v 37.45 l 156.05,-0.4 -0.12,33.33 -368.079,-1.49 c -0.51,12.27 -0.756,24.29 0.177,36.54 52.71,0.3 105.579,1.05 158.283,0.2 l -0.18,35.59 -345.696,-0.25 -0.282,24.01 -172.473,-0.3 c -0.159,9.61 -0.486,19.23 -0.411,28.83 l 527.091,0.05 184.02,-0.2 c 33.54,-0.08 67.69,1.1 101.14,-1.1 l 5.64,20.94"
       style="fill:#49ad95;fill-opacity:1;fill-rule:nonzero;stroke:none;stroke-width:0.1"
       id="path132" />
    <path
       d="m 1296.64,498.14 479.76,0.92 c 2.28,-6.93 3.91,-14.1 5.72,-21.18 5.95,-26.66 15.73,-54.48 18.94,-81.4 l -531.93,-0.26 c 7.49,26.94 14.78,53.93 21.87,80.98 l 5.64,20.94"
       style="fill:#eca330;fill-opacity:1;fill-rule:nonzero;stroke:none;stroke-width:0.1"
       id="path134" />
    <path
       d="m 519.912,1364.51 c -46.578,108.98 -57.588,276.27 -49.062,393.11 20.652,283.01 151.716,557.87 367.635,743.76 5.552,4.7 11.151,9.34 16.797,13.93 5.644,4.59 11.334,9.12 17.07,13.59 5.734,4.47 11.513,8.89 17.337,13.25 5.824,4.36 11.69,8.66 17.598,12.9 5.91,4.24 11.861,8.42 17.853,12.54 5.994,4.12 12.028,8.19 18.102,12.19 6.074,4 12.187,7.94 18.339,11.82 6.152,3.88 12.342,7.7 18.57,11.46 6.23,3.75 12.496,7.45 18.798,11.08 6.301,3.63 12.641,7.2 19.011,10.7 6.38,3.5 12.78,6.95 19.23,10.32 6.44,3.38 12.91,6.69 19.42,9.94 6.51,3.25 13.05,6.43 19.62,9.55 6.58,3.11 13.18,6.16 19.81,9.15 6.64,2.98 13.3,5.9 19.99,8.75 6.69,2.86 13.41,5.64 20.16,8.36 6.74,2.72 13.52,5.37 20.32,7.95 6.8,2.58 13.62,5.1 20.47,7.54 6.85,2.45 13.72,4.83 20.62,7.14 6.9,2.31 13.82,4.55 20.76,6.72 6.94,2.17 13.91,4.27 20.89,6.3 6.98,2.03 13.99,4 21.01,5.89 7.03,1.89 14.07,3.72 21.12,5.47 7.06,1.75 14.14,3.43 21.23,5.04 7.1,1.61 14.2,3.15 21.33,4.62 7.12,1.47 14.26,2.86 21.41,4.19 7.16,1.32 14.32,2.58 21.5,3.76 7.17,1.19 14.36,2.3 21.56,3.34 7.2,1.04 14.41,2.01 21.63,2.9 7.21,0.9 14.44,1.72 21.68,2.47 7.23,0.75 14.47,1.43 21.72,2.04 7.25,0.61 14.5,1.14 21.76,1.6 55.02,3.16 110.2,0.28 165.07,-3.85 266.49,-20.1 530.91,-163.93 703.96,-365.42 197.2,-229.63 283.48,-508.79 250.86,-809.45 -2.33,-22.41 -5.47,-44.71 -9.41,-66.89 -3.94,-22.19 -8.68,-44.2 -14.21,-66.05 -4.45,-17.97 -18.76,-58.86 -19.52,-74 -0.04,-0.68 -0.05,-1.37 -0.07,-2.06 -23.94,-67.7 -45.96,-110.7 -102.38,-155.66 -6.74,-5.37 -23.19,-13.72 -26.83,-20.54 -0.82,-2.69 -0.66,-3.68 -2.89,-5.55 -21.84,10.52 -41.93,28.27 -62.08,41.88 -12.59,-0.57 -40.27,11.3 -52.1,17.24 -0.13,20.6 -0.41,41.21 0.25,61.8 -0.61,0.76 -3.33,2.45 -4.17,3.05 -4.42,0.02 -4.91,-0.34 -8.67,-2.72 -30.11,-17.24 -54.3,-39.69 -79.93,-62.77 -9.06,-9.53 -18.21,-18.87 -27.95,-27.71 -14.16,-12.86 -63.37,-50.59 -69.5,-64.4 1.98,-2.08 0.77,-1.54 3.62,-1.65 33.23,1.06 64.94,16.93 98.25,19.96 -19.71,-17.66 -102.16,-93.22 -109.6,-109.79 l 0.95,-1.71 3.8,0.01 c 7.58,-0.02 14.65,2.18 21.94,4.07 8.44,-8.77 33.87,-11.21 46.17,-13.92 -37.78,-24.17 -73.72,-52.26 -109.91,-78.76 -15.34,-11.23 -30.68,-23.65 -47.02,-33.39 -1.22,20.06 -0.33,40.67 -0.39,60.78 l -0.46,116.03 -1.02,380.18 c 28.11,4.69 54.94,10.04 81.96,19.32 100.94,34.68 183.3,108.73 251.89,188 -158.11,1.13 -316.42,-0.58 -474.54,-1.65 -12.94,10.86 -26.07,21.62 -38.61,32.95 -11.84,8.16 -22.56,19.9 -33.4,29.53 -23.5,20.51 -46.78,41.26 -69.84,62.25 -68.74,62.16 -138.61,123.05 -204.75,188.06 l -227.61,-207.96 c -23.77,-21.51 -52.71,-54.71 -78.8,-71.3 -12.61,-12.3 -26.24,-23.42 -39.14,-35.39 -51.57,1.82 -103.62,0.33 -155.24,0.5 -50.363,0.18 -100.646,1.91 -150.989,2.86 -57.282,1.08 -114.252,1.47 -171.474,4.84 23.673,-25.59 49.848,-49.2 75.885,-72.35 78.843,-70.07 159.471,-126.09 267.028,-139.68 l -1.17,-545.88 c -51.3,39.48 -109.831,74.57 -170.365,97.88 -17.616,6.78 -36.048,11.79 -53.976,17.72 -19.518,1.36 -38.502,-2.39 -57.936,-3.3 -4.581,-0.4 -9.117,-0.91 -13.716,-0.84 l -10.443,-0.95 c -33.048,-1.06 -66.453,-0.03 -99.387,-2.99 -8.199,4.21 -15.696,9.85 -23.289,15.06 6.123,2.75 12.084,6.21 18.048,9.31 2.478,-2.14 5.043,-2.9 8.082,-4.02 l 1.047,1.37 c -0.639,0.58 -3.279,2.9 -3.693,3.54 -0.495,0.78 -0.651,1.72 -0.978,2.58 l -3.93,24.36 c -7.491,13.09 -17.724,24.39 -25.626,37.23 l 0.966,1.83 c -3.282,1.01 -5.838,2.91 -8.712,4.76 -7.485,7.38 -17.892,16.31 -21.294,26.47 l 13.176,-1.11 c 5.172,0.96 10.941,4.43 14.772,8.03 2.454,2.32 2.352,2.13 2.322,5.68 -10.509,2.53 -20.328,5.64 -30.417,9.51 24.063,0.23 40.011,1.43 61.908,12.2 -9.783,-0.75 -19.365,-1.72 -29.148,-0.52 l -10.074,2.93 c -4.203,11.08 -19.032,17.9 -27.78,25.52 -4.065,3.54 -7.464,8.34 -10.707,12.65 -24.453,32.55 -39.318,70.64 -52.098,108.92"
       style="fill:#e35e3c;fill-opacity:1;fill-rule:nonzero;stroke:none;stroke-width:0.1"
       id="path136" />
    <path
       d="m 757.398,1518.51 0.366,-29.18 -0.828,-59.09 c -22.624,-22.7 -46.461,-44.05 -71.511,-64.05 -9.843,-3.07 -19.488,-8.49 -29.055,-12.48 -17.184,-7.15 -33.645,-11.37 -51.825,-14.95 l 1.458,0.66 c 83.97,38.59 120.492,95.64 151.395,179.09"
       style="fill:#f6c453;fill-opacity:1;fill-rule:nonzero;stroke:none;stroke-width:0.1"
       id="path138" />
    <path
       d="m 759.336,1550.65 c 0.222,-0.61 0.45,-1.22 0.663,-1.83 5.859,-16.89 7.416,-34.96 12.195,-52.16 17.838,-64.21 52.965,-94.44 105.132,-131.09 -9.567,-1.49 -18.918,-2.14 -28.593,-2.54 -21.159,8.37 -69.888,52.73 -91.797,67.21 l 0.828,59.09 c 2.001,20.39 0.858,40.87 1.572,61.32"
       style="fill:#922722;fill-opacity:1;fill-rule:nonzero;stroke:none;stroke-width:0.1"
       id="path140" />
    <path
       d="m 756.936,1430.24 c 21.909,-14.48 70.638,-58.84 91.797,-67.21 17.31,-10.9 32.886,-24.18 50.295,-34.86 -31.329,5.17 -54.933,14.31 -83.097,28.89 -14.049,9.86 -43.878,37.11 -57.111,42.27 l -2.022,-1.16 c 0.015,-15.61 -2.019,-33.99 1.2,-49.19 -14.421,-15.22 -46.989,-37.9 -65.004,-50.83 -25.917,-2.29 -52.653,-1.15 -78.672,-1 l 17.718,13.02 c 17.595,18.9 36.033,36.83 53.385,56.02 25.05,20 48.887,41.35 71.511,64.05"
       style="fill:#1d212a;fill-opacity:1;fill-rule:nonzero;stroke:none;stroke-width:0.1"
       id="path142" />
    <path
       d="m 756.798,1398.17 c 0.015,-15.61 -2.019,-33.99 1.2,-49.19 -14.421,-15.22 -46.989,-37.9 -65.004,-50.83 -25.917,-2.29 -52.653,-1.15 -78.672,-1 l 17.718,13.02 c 47.388,21.02 88.251,51.36 124.758,88"
       style="fill:#f6c453;fill-opacity:1;fill-rule:nonzero;stroke:none;stroke-width:0.1"
       id="path144" />
    <path
       d="m 756.798,1398.17 2.022,1.16 c 13.233,-5.16 43.062,-32.41 57.111,-42.27 14.736,-26.18 48.135,-60.01 69.465,-81.07 9.384,-9.27 34.176,-27.04 39.087,-37.58 l -1.074,-1.29 -1.878,0.2 c -26.016,0.62 -52.29,10.92 -76.761,18.99 -28.689,18.94 -55.533,48.15 -87.81,60.88 -29.592,-24.7 -104.046,-80.27 -138.66,-92.18 2.376,11.12 63.072,62.4 74.694,73.14 18.015,12.93 50.583,35.61 65.004,50.83 -3.219,15.2 -1.185,33.58 -1.2,49.19"
       style="fill:#1d212a;fill-opacity:1;fill-rule:nonzero;stroke:none;stroke-width:0.1"
       id="path146" />
    <path
       d="m 756.798,1398.17 2.022,1.16 c 13.233,-5.16 43.062,-32.41 57.111,-42.27 14.736,-26.18 48.135,-60.01 69.465,-81.07 9.384,-9.27 34.176,-27.04 39.087,-37.58 l -1.074,-1.29 -1.878,0.2 c -9.024,9.69 -55.323,35.03 -69.966,44.98 -24.159,16.4 -68.652,57.43 -93.567,66.68 -3.219,15.2 -1.185,33.58 -1.2,49.19"
       style="fill:#be3125;fill-opacity:1;fill-rule:nonzero;stroke:none;stroke-width:0.1"
       id="path148" />
    <g
       id="g150"
       transform="scale(0.1)">
      <g
         id="g152"
         clip-path="url(#clipPath156)">
        <path
           d="m 7569.6,13171.9 c 322.77,-127.3 591.21,-419.4 878.1,-608.8 l -5.7,-24.5 c 143.4,-206.9 327.27,-402.3 504.6,-581.1 87,-87.7 189.93,-174.9 265.26,-272.1 26.85,-34.7 34.86,-49.5 31.86,-93.2 -30.63,-18 -44.52,-16.9 -79.56,-7.7 -4.11,1.1 -7.41,4.2 -11.1,6.4 -243.57,11.1 -433.53,53.8 -659.79,145.5 -319.2,203 -592.98,466.1 -906.99,674.6 l -15.99,-8.6 c -316.77,-298.8 -985.56,-776 -1390.65,-907.7 -32.82,10.1 -58.38,29.1 -87.12,47.6 -74.85,73.8 -178.92,163.1 -212.94,264.7 l 131.76,-11.1 c 51.72,9.6 109.41,44.3 147.72,80.3 24.54,23.2 23.52,21.3 23.22,56.8 -105.09,25.3 -203.28,56.4 -304.17,95.1 240.63,2.3 400.11,14.3 619.08,122 -97.83,-7.5 -193.65,-17.2 -291.48,-5.2 -13.65,36.5 -25.5,65.2 -22.71,105.2 346.14,119.1 1090.68,674.8 1386.6,921.8"
           style="fill:url(#linearGradient162);fill-opacity:1;fill-rule:nonzero;stroke:none"
           id="path164" />
      </g>
    </g>
    <path
       d="m 618.228,1193.3 c 8.534,-1.61 17.097,-3.05 25.689,-4.31 l 2.781,0.35 c -11.736,-12.74 -23.835,-24.38 -37.446,-35.11 -7.485,7.38 -17.892,16.31 -21.294,26.47 l 13.176,-1.11 c 5.172,0.96 10.941,4.43 14.772,8.03 2.454,2.32 2.352,2.13 2.322,5.68"
       style="fill:#e35e3c;fill-opacity:1;fill-rule:nonzero;stroke:none;stroke-width:0.1"
       id="path166" />
    <path
       d="m 618.228,1193.3 c 8.534,-1.61 17.097,-3.05 25.689,-4.31 -7.659,-7.13 -14.163,-13.35 -25.452,-12.86 -5.814,0.25 -11.718,2 -17.331,3.46 5.172,0.96 10.941,4.43 14.772,8.03 2.454,2.32 2.352,2.13 2.322,5.68"
       style="fill:#922722;fill-opacity:1;fill-rule:nonzero;stroke:none;stroke-width:0.1"
       id="path168" />
    <path
       d="m 756.96,1317.19 c 32.277,-12.73 59.121,-41.94 87.81,-60.88 l -0.57,-2.45 c 14.34,-20.69 32.727,-40.23 50.46,-58.11 8.7,-8.77 18.993,-17.49 26.526,-27.21 2.685,-3.47 3.486,-4.95 3.186,-9.32 -3.063,-1.8 -4.452,-1.69 -7.956,-0.77 -0.411,0.11 -0.741,0.42 -1.11,0.64 l 0.606,1.88 c -19.47,14.47 -41.829,25.25 -61.611,39.34 -15.408,10.96 -83.742,66.93 -95.898,69.56 -4.704,11.92 -1.647,34.25 -1.443,47.32"
       style="fill:#be3125;fill-opacity:1;fill-rule:nonzero;stroke:none;stroke-width:0.1"
       id="path170" />
    <path
       d="m 756.96,1317.19 c -0.204,-13.07 -3.261,-35.4 1.443,-47.32 -4.791,-6.31 -100.677,-74.5 -111.705,-80.53 l -2.781,-0.35 c -8.592,1.26 -17.155,2.7 -25.689,4.31 -10.509,2.53 -20.328,5.64 -30.417,9.51 24.063,0.23 40.011,1.43 61.908,12.2 -9.783,-0.75 -19.365,-1.72 -29.148,-0.52 -1.365,3.65 -2.55,6.52 -2.271,10.52 34.614,11.91 109.068,67.48 138.66,92.18"
       style="fill:#f6c453;fill-opacity:1;fill-rule:nonzero;stroke:none;stroke-width:0.1"
       id="path172" />
    <path
       d="m 757.029,1240.24 1.599,0.86 c 31.401,-20.85 58.779,-47.16 90.699,-67.46 7.149,-24.81 87.375,-95.16 91.374,-110.43 -3.048,-1.06 -4.728,0.21 -7.695,1.31 -0.132,0.05 -0.249,0.14 -0.372,0.21 -9.255,0.39 -18.423,1.84 -27.591,3.08 -25.065,-3.36 -51.099,1.01 -76.224,-1.52 -19.518,1.36 -38.502,-2.39 -57.936,-3.3 -4.581,-0.4 -9.117,-0.91 -13.716,-0.84 l -10.443,-0.95 c -33.048,-1.06 -66.453,-0.03 -99.387,-2.99 -8.199,4.21 -15.696,9.85 -23.289,15.06 6.123,2.75 12.084,6.21 18.048,9.31 2.478,-2.14 5.043,-2.9 8.082,-4.02 l 1.047,1.37 c -0.639,0.58 -3.279,2.9 -3.693,3.54 -0.495,0.78 -0.651,1.72 -0.978,2.58 l -3.93,24.36 c -7.491,13.09 -17.724,24.39 -25.626,37.23 l 0.966,1.83 c 40.509,13.17 107.388,60.89 139.065,90.77"
       style="fill:#be3125;fill-opacity:1;fill-rule:nonzero;stroke:none;stroke-width:0.1"
       id="path174" />
    <path
       d="m 758.1,1187.48 c 15.897,-8.34 30.528,-20.28 44.994,-30.88 l 71.73,-52.73 c 19.05,-13.95 39.252,-25.06 58.653,-38.22 l -0.843,-0.92 c -9.255,0.39 -18.423,1.84 -27.591,3.08 -8.586,3.77 -17.355,6.42 -25.746,10.83 -19.098,10.04 -36.735,23.88 -54.624,35.94 -22.218,14.98 -44.988,29.08 -67.359,43.81 2.172,5.75 3.567,15.07 1.143,20.92 -1.074,2.6 -3.369,2.54 -5.847,3.45 l 5.49,4.72"
       style="fill:#1d212a;fill-opacity:1;fill-rule:nonzero;stroke:none;stroke-width:0.1"
       id="path176" />
    <path
       d="m 757.314,1158.39 c 22.371,-14.73 45.141,-28.83 67.359,-43.81 17.889,-12.06 35.526,-25.9 54.624,-35.94 8.391,-4.41 17.16,-7.06 25.746,-10.83 -25.065,-3.36 -51.099,1.01 -76.224,-1.52 -19.518,1.36 -38.502,-2.39 -57.936,-3.3 -4.581,-0.4 -9.117,-0.91 -13.716,-0.84 -0.111,31.14 1.122,63.11 -1.413,94.12 l 1.56,2.12"
       style="fill:#be3125;fill-opacity:1;fill-rule:nonzero;stroke:none;stroke-width:0.1"
       id="path178" />
    <path
       d="m 757.029,1240.24 c -0.018,-16.45 -2.067,-36.85 1.071,-52.76 l -5.49,-4.72 c 2.478,-0.91 4.773,-0.85 5.847,-3.45 2.424,-5.85 1.029,-15.17 -1.143,-20.92 l -1.56,-2.12 c 2.535,-31.01 1.302,-62.98 1.413,-94.12 l -10.443,-0.95 c -33.048,-1.06 -66.453,-0.03 -99.387,-2.99 -8.199,4.21 -15.696,9.85 -23.289,15.06 6.123,2.75 12.084,6.21 18.048,9.31 2.478,-2.14 5.043,-2.9 8.082,-4.02 l 1.047,1.37 c -0.639,0.58 -3.279,2.9 -3.693,3.54 -0.495,0.78 -0.651,1.72 -0.978,2.58 l -3.93,24.36 c -7.491,13.09 -17.724,24.39 -25.626,37.23 l 0.966,1.83 c 40.509,13.17 107.388,60.89 139.065,90.77"
       style="fill:#f6c453;fill-opacity:1;fill-rule:nonzero;stroke:none;stroke-width:0.1"
       id="path180" />
    <path
       d="m 752.61,1182.76 c 2.478,-0.91 4.773,-0.85 5.847,-3.45 2.424,-5.85 1.029,-15.17 -1.143,-20.92 l -1.56,-2.12 c -26.805,-24.14 -76.983,-51.17 -109.2,-70.22 l -3.93,24.36 c 38.31,21.38 72.006,50.55 109.986,72.35"
       style="fill:#1d212a;fill-opacity:1;fill-rule:nonzero;stroke:none;stroke-width:0.1"
       id="path182" />
    <path
       d="m 755.754,1156.27 c 2.535,-31.01 1.302,-62.98 1.413,-94.12 l -10.443,-0.95 c -33.048,-1.06 -66.453,-0.03 -99.387,-2.99 -8.199,4.21 -15.696,9.85 -23.289,15.06 6.123,2.75 12.084,6.21 18.048,9.31 2.478,-2.14 5.043,-2.9 8.082,-4.02 l 1.047,1.37 c -0.639,0.58 -3.279,2.9 -3.693,3.54 -0.495,0.78 -0.651,1.72 -0.978,2.58 32.217,19.05 82.395,46.08 109.2,70.22"
       style="fill:#f6c453;fill-opacity:1;fill-rule:nonzero;stroke:none;stroke-width:0.1"
       id="path184" />
    <path
       d="m 2292.68,1512.41 c 0.52,7.11 0.92,14.25 1.67,21.35 3,-15.71 6.94,-30.95 11.2,-46.35 16.95,-48.78 45.56,-81.92 84.39,-115.11 11.62,-9.93 25.93,-19.38 35.79,-30.88 10.29,-7.75 20.53,-15.57 30.71,-23.46 -14.36,5.04 -28.91,8.58 -43.68,12.13 -0.96,-0.32 -1.91,-0.66 -2.88,-0.95 -13.52,-3.94 -32.02,4.81 -44.09,-3.78 -1,-3.03 -1.44,-3.69 0.16,-6.71 9.46,-17.84 54.74,-41.12 70.04,-61.3 l 27.92,-21.26 c -15.42,5.23 -42.14,17.25 -58.13,13.59 -0.63,-1.59 -1.21,-3 -1.55,-4.68 l 0.03,-6.84 c -10.78,-8.95 -32.9,-1.73 -46.56,-7.87 -12.59,-0.57 -40.27,11.3 -52.1,17.24 -0.13,20.6 -0.41,41.21 0.25,61.8 -0.61,0.76 -3.33,2.45 -4.17,3.05 -4.42,0.02 -4.91,-0.34 -8.67,-2.72 -30.11,-17.24 -54.3,-39.69 -79.93,-62.77 -28.19,4.92 -55.78,-13.63 -83.36,-10.51 -2.58,-0.54 -5.11,-0.88 -7.73,-1.15 l -0.5,2.14 c 8.86,16.95 60.92,54.64 78.44,69.69 11.25,9.67 22.09,19.79 32.51,30.35 -32.07,-2.55 -69.39,-24.26 -101.19,-20.07 l -3.97,0.35 c 0.68,3.06 1.78,4.07 3.94,6.26 10.65,10.86 24.18,20.42 35.8,30.32 36.46,31.02 67.72,61.52 92.81,102.83 7.4,12.18 14.39,24.85 20.11,37.92 3.73,8.53 5.95,17.82 10.6,25.88 l 1.45,-0.97 0.69,-7.52"
       style="fill:#1d212a;fill-opacity:1;fill-rule:nonzero;stroke:none;stroke-width:0.1"
       id="path186" />
    <path
       d="m 2305.55,1487.41 c 16.95,-48.78 45.56,-81.92 84.39,-115.11 11.62,-9.93 25.93,-19.38 35.79,-30.88 -2.26,0.47 -4.57,0.89 -6.69,1.87 -9.63,4.45 -19.12,13.26 -28.31,19.03 -28.24,17.39 -56.62,34.57 -85.13,51.53 l -0.05,73.56"
       style="fill:#be3125;fill-opacity:1;fill-rule:nonzero;stroke:none;stroke-width:0.1"
       id="path188" />
    <path
       d="m 2305.85,1309.33 c 31.78,-21.48 63.1,-44.38 95.47,-64.9 l 2.91,0.57 0.03,-6.84 c -10.78,-8.95 -32.9,-1.73 -46.56,-7.87 -12.59,-0.57 -40.27,11.3 -52.1,17.24 -0.13,20.6 -0.41,41.21 0.25,61.8"
       style="fill:#be3125;fill-opacity:1;fill-rule:nonzero;stroke:none;stroke-width:0.1"
       id="path190" />
    <path
       d="m 2305.1,1395.39 c 22.79,-17.14 45.18,-43.54 70.99,-54.95 11.61,-5.14 24.34,-7.54 36.67,-10.35 -0.96,-0.32 -1.91,-0.66 -2.88,-0.95 -13.52,-3.94 -32.02,4.81 -44.09,-3.78 -1,-3.03 -1.44,-3.69 0.16,-6.71 9.46,-17.84 54.74,-41.12 70.04,-61.3 -18.28,6.01 -41.37,25.16 -59.08,35.6 -23.44,13.81 -47.75,26.22 -71.4,39.73 l -0.41,62.71"
       style="fill:#be3125;fill-opacity:1;fill-rule:nonzero;stroke:none;stroke-width:0.1"
       id="path192" />
    <path
       d="m 2232.44,1337.41 c 20.89,18.57 38.07,40.08 59.79,58.21 l -0.2,-65.81 c -55.21,-29.01 -105.55,-66.85 -162.31,-93.43 -2.58,-0.54 -5.11,-0.88 -7.73,-1.15 l -0.5,2.14 c 8.86,16.95 60.92,54.64 78.44,69.69 11.25,9.67 22.09,19.79 32.51,30.35"
       style="fill:#d3d36e;fill-opacity:1;fill-rule:nonzero;stroke:none;stroke-width:0.1"
       id="path194" />
    <path
       d="m 2131.25,1317.34 -3.97,0.35 c 0.68,3.06 1.78,4.07 3.94,6.26 10.65,10.86 24.18,20.42 35.8,30.32 36.46,31.02 67.72,61.52 92.81,102.83 7.4,12.18 14.39,24.85 20.11,37.92 3.73,8.53 5.95,17.82 10.6,25.88 l 1.45,-0.97 0.69,-7.52 c -2.08,-31.98 -0.98,-64.73 -0.64,-96.78 -53.87,-40.77 -98.85,-70.26 -160.79,-98.29"
       style="fill:#d3d36e;fill-opacity:1;fill-rule:nonzero;stroke:none;stroke-width:0.1"
       id="path196" />
    <path
       d="m 826.728,2294.87 c 1.574,2.09 3.175,4.17 4.803,6.23 1.626,2.06 3.278,4.1 4.956,6.12 1.678,2.01 3.381,4.01 5.109,5.98 1.728,1.98 3.481,3.93 5.259,5.86 1.776,1.93 3.577,3.84 5.403,5.73 1.824,1.88 3.672,3.75 5.544,5.59 1.87,1.83 3.764,3.65 5.682,5.44 1.916,1.79 3.855,3.56 5.817,5.31 1.96,1.74 3.942,3.46 5.946,5.15 2.004,1.69 4.029,3.36 6.075,5.01 2.046,1.64 4.113,3.25 6.201,4.85 2.086,1.59 4.192,3.15 6.318,4.69 2.124,1.54 4.268,3.05 6.432,4.54 2.164,1.48 4.346,2.94 6.546,4.37 2.2,1.43 4.418,2.83 6.654,4.2 2.234,1.38 4.486,2.73 6.756,4.04 2.268,1.32 4.553,2.61 6.855,3.87 2.3,1.26 4.616,2.49 6.948,3.7 2.332,1.2 4.679,2.37 7.041,3.52 2.362,1.14 4.738,2.26 7.128,3.34 2.388,1.09 4.79,2.14 7.206,3.17 2.416,1.02 4.844,2.01 7.284,2.98 2.442,0.96 4.895,1.89 7.359,2.8 2.464,0.9 4.939,1.77 7.425,2.61 2.486,0.84 4.982,1.65 7.488,2.43 2.506,0.77 5.021,1.52 7.545,2.23 2.526,0.72 5.06,1.4 7.602,2.05 2.54,0.65 5.09,1.27 7.65,1.86 2.56,0.59 5.12,1.14 7.69,1.67 2.57,0.52 5.15,1.01 7.73,1.47 2.59,0.46 5.18,0.88 7.77,1.28 2.59,0.39 5.19,0.75 7.8,1.08 2.66,0.35 5.33,0.68 8,0.97 2.67,0.28 5.34,0.54 8.02,0.76 2.68,0.23 5.36,0.42 8.04,0.57 2.68,0.16 5.37,0.29 8.05,0.38 2.69,0.09 5.37,0.15 8.06,0.17 2.68,0.03 5.37,0.02 8.06,-0.02 2.68,-0.04 5.37,-0.12 8.05,-0.23 2.69,-0.1 5.37,-0.25 8.05,-0.42 2.68,-0.17 5.36,-0.38 8.04,-0.62 2.67,-0.24 5.34,-0.51 8.02,-0.81 2.67,-0.31 5.33,-0.65 7.99,-1.02 2.66,-0.37 5.32,-0.78 7.97,-1.21 2.65,-0.44 5.29,-0.91 7.93,-1.41 2.64,-0.5 5.28,-1.04 7.9,-1.6 2.63,-0.57 5.25,-1.17 7.86,-1.8 2.61,-0.63 5.21,-1.29 7.81,-1.99 2.59,-0.69 5.18,-1.42 7.76,-2.18 2.57,-0.76 5.14,-1.55 7.7,-2.37 2.56,-0.82 5.1,-1.68 7.64,-2.56 2.54,-0.89 5.06,-1.8 7.58,-2.75 2.51,-0.95 5.01,-1.93 7.5,-2.94 2.49,-1.01 4.97,-2.05 7.43,-3.12 2.47,-1.07 4.92,-2.17 7.36,-3.3 2.43,-1.13 4.86,-2.29 7.26,-3.48 2.41,-1.19 4.81,-2.41 7.19,-3.66 2.38,-1.25 4.74,-2.52 7.08,-3.83 2.35,-1.31 4.68,-2.64 7,-4.01 2.31,-1.37 4.61,-2.76 6.89,-4.18 2.28,-1.42 4.54,-2.87 6.78,-4.35 2.25,-1.47 4.47,-2.98 6.68,-4.51 2.21,-1.53 4.39,-3.09 6.56,-4.68 2.17,-1.58 4.32,-3.2 6.45,-4.83 21.92,-16.81 42.52,-35.99 57.66,-59.27 -18.76,-1.3 -38.43,-0.19 -57.29,-0.17 l -117.88,0.38 -337.222,0.92"
       style="fill:#fce5a9;fill-opacity:1;fill-rule:nonzero;stroke:none;stroke-width:0.1"
       id="path198" />
    <path
       d="m 826.728,2294.87 337.222,-0.92 117.88,-0.38 c 18.86,-0.02 38.53,-1.13 57.29,0.17 13.43,-18.09 26.14,-37.62 35.86,-58 18.39,-36.84 26.41,-77.99 28.99,-118.85 l 0.43,-9.07 c -19.15,-14.44 -49.59,-40.52 -70.68,-49.37 -12.71,4.16 -118.33,0.92 -139.52,0.91 l -430.103,-0.06 c -2.367,19.7 -5.574,43.26 -2.649,62.89 2.442,41.39 12.138,76.32 29.031,113.94 10.83,20.46 23.157,39.68 36.249,58.74"
       style="fill:#fce5a9;fill-opacity:1;fill-rule:nonzero;stroke:none;stroke-width:0.1"
       id="path200" />
    <path
       d="m 826.728,2294.87 337.222,-0.92 117.88,-0.38 c 18.86,-0.02 38.53,-1.13 57.29,0.17 13.43,-18.09 26.14,-37.62 35.86,-58 -95.3,2.64 -191.08,0.8 -286.43,0.72 -99.288,-0.09 -198.813,1.47 -298.071,-0.33 10.83,20.46 23.157,39.68 36.249,58.74"
       style="fill:#f6c453;fill-opacity:1;fill-rule:nonzero;stroke:none;stroke-width:0.1"
       id="path202" />
    <path
       d="m 764.097,2059.3 c -2.367,19.7 -5.574,43.26 -2.649,62.89 l 1.632,-3.41 c 15.801,-3.83 37.26,-0.97 53.829,-0.92 l 87.696,-0.46 c 108.955,-0.91 217.905,-1.21 326.855,-0.9 57.29,0 115.33,-1.99 172.51,0.39 l 0.43,-9.07 c -19.15,-14.44 -49.59,-40.52 -70.68,-49.37 -12.71,4.16 -118.33,0.92 -139.52,0.91 l -430.103,-0.06"
       style="fill:#f6c453;fill-opacity:1;fill-rule:nonzero;stroke:none;stroke-width:0.1"
       id="path204" />
    <path
       d="m 1535.04,2236.43 c 65.4,-110.37 249.43,-212.16 365.98,-258.54 80.44,-32.02 165.36,-56.1 249.24,-77.28 3.83,-0.96 7.68,-1.87 11.54,-2.71 -129.17,0.73 -258.37,-1.81 -387.51,2.29 l -77.96,2.59 c -14.04,0.47 -28.73,0.1 -42.63,2.14 52.02,-18.35 106.11,-31.8 159.15,-46.8 84.35,-23.85 168.87,-47.89 253.65,-70.14 31.38,-8.11 62.81,-16.04 94.28,-23.8 18.13,-4.51 37.04,-8.14 54.59,-14.47 -124.29,-2.9 -248.35,-13.7 -372.71,-14.5 -11.84,8.16 -22.56,19.9 -33.4,29.53 -23.5,20.51 -46.78,41.26 -69.84,62.25 -68.74,62.16 -138.61,123.05 -204.75,188.06 l -227.61,-207.96 c -23.77,-21.51 -52.71,-54.71 -78.8,-71.3 -69.39,0.32 -138.72,2.46 -208,6.4 -69.282,3.94 -138.411,9.69 -207.389,17.24 58.047,9.86 117.057,13.19 174.153,28.63 -1.944,1.22 -1.137,0.84 -3.102,1.64 -22.554,9.13 -46.008,20.17 -66.081,33.9 -82.938,56.72 -135.189,137.39 -153.744,235.7 l 430.103,0.06 c 21.19,0.01 126.81,3.25 139.52,-0.91 21.09,8.85 51.53,34.93 70.68,49.37 50.25,37.03 96.93,75.1 130.64,128.61"
       style="fill:#1d212a;fill-opacity:1;fill-rule:nonzero;stroke:none;stroke-width:0.1"
       id="path206" />
    <path
       d="m 764.097,2059.3 430.103,0.06 c 21.19,0.01 126.81,3.25 139.52,-0.91 -29.19,-19.73 -62.32,-34.92 -94.39,-49.28 -125.31,-56.14 -262.821,-93.69 -400.617,-97.39 77.496,-15.65 155.919,-18.23 234.707,-19.01 55.05,-0.54 109.78,-0.24 164.78,2.28 56.74,2.61 114.62,8.43 171.41,6.69 -20.31,-6.36 -41.13,-10.84 -61.66,-16.38 -25.57,-7.13 -51.05,-14.54 -76.45,-22.24 -93.35,-27.91 -187.94,-60.16 -284.476,-75.06 -1.944,1.22 -1.137,0.84 -3.102,1.64 -22.554,9.13 -46.008,20.17 -66.081,33.9 -82.938,56.72 -135.189,137.39 -153.744,235.7"
       style="fill:#fce5a9;fill-opacity:1;fill-rule:nonzero;stroke:none;stroke-width:0.1"
       id="path208" />
  </g>
</svg>
