<?xml version="1.0" encoding="UTF-8" standalone="no"?>
<!-- Created with Inkscape (http://www.inkscape.org/) -->

<svg
   version="1.1"
   id="svg2"
   width="6666.6665"
   height="5555.5601"
   viewBox="0 0 6666.6665 5555.5601"
   sodipodi:docname="speed.svg"
   inkscape:version="1.2.2 (b0a8486541, 2022-12-01)"
   xmlns:inkscape="http://www.inkscape.org/namespaces/inkscape"
   xmlns:sodipodi="http://sodipodi.sourceforge.net/DTD/sodipodi-0.dtd"
   xmlns="http://www.w3.org/2000/svg"
   xmlns:svg="http://www.w3.org/2000/svg">
  <defs
     id="defs6">
    <clipPath
       clipPathUnits="userSpaceOnUse"
       id="clipPath20">
      <path
         d="M 50000,0 H 0 V 41666.7 H 50000 V 0 M 23967.8,12240.3 c -7120.2,0 -12892.2,-229.7 -12892.2,-513.1 0,-283.4 5772,-513.1 12892.2,-513.1 7120.2,0 12892.2,229.7 12892.2,513.1 0,283.4 -5772,513.1 -12892.2,513.1"
         id="path18" />
    </clipPath>
    <radialGradient
       fx="0"
       fy="0"
       cx="0"
       cy="0"
       r="1"
       gradientUnits="userSpaceOnUse"
       gradientTransform="matrix(47680.1,0,0,-47680.1,24300,20586.7)"
       spreadMethod="pad"
       id="radialGradient30">
      <stop
         style="stop-opacity:1;stop-color:#ffffff"
         offset="0"
         id="stop22" />
      <stop
         style="stop-opacity:1;stop-color:#ffffff"
         offset="0.173184"
         id="stop24" />
      <stop
         style="stop-opacity:1;stop-color:#eaecec"
         offset="0.379888"
         id="stop26" />
      <stop
         style="stop-opacity:1;stop-color:#74787b"
         offset="1"
         id="stop28" />
    </radialGradient>
    <clipPath
       clipPathUnits="userSpaceOnUse"
       id="clipPath40">
      <path
         d="m 11784,11205.9 h 18638.4 v 1041.6 H 11784 Z"
         id="path38" />
    </clipPath>
    <clipPath
       clipPathUnits="userSpaceOnUse"
       id="clipPath46">
      <path
         d="m 23967.8,11214.1 c -7120.2,0 -12892.2,229.7 -12892.2,513.1 0,283.4 5772,513.1 12892.2,513.1 7120.2,0 12892.2,-229.7 12892.2,-513.1 0,-283.4 -5772,-513.1 -12892.2,-513.1"
         id="path44" />
    </clipPath>
    <clipPath
       clipPathUnits="userSpaceOnUse"
       id="clipPath58">
      <path
         d="m 30408,11205.9 h 5740.8 v 1041.6 H 30408 Z"
         id="path56" />
    </clipPath>
    <clipPath
       clipPathUnits="userSpaceOnUse"
       id="clipPath64">
      <path
         d="m 23967.8,11214.1 c -7120.2,0 -12892.2,229.7 -12892.2,513.1 0,283.4 5772,513.1 12892.2,513.1 7120.2,0 12892.2,-229.7 12892.2,-513.1 0,-283.4 -5772,-513.1 -12892.2,-513.1"
         id="path62" />
    </clipPath>
    <clipPath
       clipPathUnits="userSpaceOnUse"
       id="clipPath76">
      <path
         d="m 11068.8,11546.7 h 729.598 v 360 H 11068.8 Z"
         id="path74" />
    </clipPath>
    <clipPath
       clipPathUnits="userSpaceOnUse"
       id="clipPath82">
      <path
         d="m 23967.8,11214.1 c -7120.2,0 -12892.2,229.7 -12892.2,513.1 0,283.4 5772,513.1 12892.2,513.1 7120.2,0 12892.2,-229.7 12892.2,-513.1 0,-283.4 -5772,-513.1 -12892.2,-513.1"
         id="path80" />
    </clipPath>
    <clipPath
       clipPathUnits="userSpaceOnUse"
       id="clipPath94">
      <path
         d="m 36134.4,11546.7 h 734.398 v 360 H 36134.4 Z"
         id="path92" />
    </clipPath>
    <clipPath
       clipPathUnits="userSpaceOnUse"
       id="clipPath100">
      <path
         d="m 23967.8,11214.1 c -7120.2,0 -12892.2,229.7 -12892.2,513.1 0,283.4 5772,513.1 12892.2,513.1 7120.2,0 12892.2,-229.7 12892.2,-513.1 0,-283.4 -5772,-513.1 -12892.2,-513.1"
         id="path98" />
    </clipPath>
  </defs>
  <sodipodi:namedview
     id="namedview4"
     pagecolor="#ffffff"
     bordercolor="#999999"
     borderopacity="1"
     inkscape:showpageshadow="0"
     inkscape:pageopacity="0"
     inkscape:pagecheckerboard="0"
     inkscape:deskcolor="#d1d1d1"
     showgrid="false"
     inkscape:zoom="0.042479966"
     inkscape:cx="3330.982"
     inkscape:cy="2777.78"
     inkscape:window-width="1854"
     inkscape:window-height="1011"
     inkscape:window-x="0"
     inkscape:window-y="0"
     inkscape:window-maximized="1"
     inkscape:current-layer="g10">
    <inkscape:page
       x="0"
       y="0"
       id="page8"
       width="6666.6665"
       height="5555.5601" />
  </sodipodi:namedview>
  <g
     id="g10"
     inkscape:groupmode="layer"
     inkscape:label="Page 1"
     transform="matrix(1.3333333,0,0,-1.3333333,0,5555.56)">
    <path
       d="m 1948.11,2056.12 c 1.75,0.03 3.49,0.05 5.24,0.06 -1.75,-0.01 -6.82,-0.8 -5.24,-0.06 z m 1170.52,722.99 c -151.56,100.72 -338.01,162.25 -525.41,189.18 -133.84,19.24 -276.37,28.65 -411.52,19.55 -82.26,-5.53 -241.44,-31.87 -313.72,-70.09 48.95,-2.65 88.63,-33.28 118.97,-70.04 48.78,-59.12 153.22,-125.81 153.22,-125.81 -25.18,15.36 -49.92,28.58 -74.2,39.89 -287.13,133.82 -509.18,-1.44 -606.91,-82.78 -35.36,-29.44 -54.45,-51.81 -54.45,-51.81 15.45,15.31 33.95,23.46 54.2,26.34 112.15,15.95 219.02,-147.34 219.02,-147.34 -86.72,-10.08 -132.22,-16.2 -221.09,-57.68 -43.27,-20.19 -82.84,-44.82 -114.79,-74.68 -11.15,-10.42 -23.13,-19.31 -35.76,-26.89 -37.13,-22.25 -79.85,-33.03 -123.44,-37.26 -32.73,-3.17 -171.81,-14.08 -189.045,15.63 8.585,-27.18 16.005,-46.02 27.545,-67.96 57.14,-108.52 163.42,-209.33 270.09,-266.68 3.77,-2.02 7.49,-3.95 11.2,-5.84 52.06,-26.48 99.36,-39.78 149.09,-43.29 33.72,-2.4 68.55,-0.31 106.77,5.21 90.32,13.04 105.98,32.32 185.16,24.85 51.14,-4.83 78.51,-25.11 108.25,-71.22 -82.04,50.92 -180.44,-5.36 -211.18,-21.18 42.52,-5.3 65.94,-27.49 151.17,-103.1 95.15,-84.43 169.09,-192.23 263.29,-276.6 13.43,-12.04 27.3,-23.57 41.75,-34.44 106.36,-80.02 242.85,-91.33 371.46,-87.64 25.45,0.73 51.16,1.84 77.02,3.43 -321.6,46.22 -568.22,312.35 -568.22,633.74 0,353.94 299.1,640.87 668.05,640.87 368.94,0 668.04,-286.93 668.04,-640.87 0,-220.36 -115.95,-414.73 -292.49,-530.07 102.64,45.88 195.77,110.16 270.77,199.53 50.49,60.16 92.09,136.12 119.05,209.87 30.43,83.24 47.81,181.18 47.81,269.95 0,280.56 -139.37,482.11 -339.7,615.23"
       style="fill:#d12724;fill-opacity:1;fill-rule:nonzero;stroke:none;stroke-width:0.1"
       id="path106" />
    <path
       d="m 1609.55,2830.97 c 17.55,5.57 35.3,17.29 52.15,23.56 35.01,13.03 71.67,18.8 105.97,9.16 -24.42,23.48 -59.68,41.61 -94.8,36.76 -43.76,-6.04 -85.95,-36.54 -129.77,-41.79 11.54,-7.32 20.84,-22.46 32.91,-27.65 10.91,-4.68 22.18,-3.65 33.54,-0.04"
       style="fill:#d12724;fill-opacity:1;fill-rule:nonzero;stroke:none;stroke-width:0.1"
       id="path108" />
    <path
       d="m 1159.48,2474.24 c 61.1,35.94 133.37,53.37 204,53.73 25.13,0.13 44.24,-3.49 74.21,-8.58 -27.97,-7.85 -55.75,-16.95 -82.89,-27.3 -31.89,-12.16 -61.82,-26.14 -90.96,-43.91 -32.9,-20.06 -66.1,-37.67 -105.23,-40.35 -28.03,-1.92 -78.48,-4.48 -96.65,23.04 28.22,7.83 63.49,21.48 87.54,37.19 3.28,2.14 6.61,4.2 9.98,6.18"
       style="fill:#d12724;fill-opacity:1;fill-rule:nonzero;stroke:none;stroke-width:0.1"
       id="path110" />
    <path
       d="m 2642.04,1707.64 c -35.02,0 -63.41,28.39 -63.41,63.41 0,35.03 28.39,63.42 63.41,63.42 35.03,0 63.42,-28.39 63.42,-63.42 0,-35.02 -28.39,-63.41 -63.42,-63.41 z m 901.87,717.94 -841.76,-506.75 c -17.6,7.04 -36.81,10.93 -56.92,10.99 -85.31,0.22 -154.65,-68.76 -154.87,-154.07 -0.22,-85.31 68.76,-154.65 154.07,-154.87 85.31,-0.23 154.65,68.75 154.87,154.07 0.01,3.23 -0.09,6.44 -0.28,9.63 l 744.89,641"
       style="fill:#373636;fill-opacity:1;fill-rule:nonzero;stroke:none;stroke-width:0.1"
       id="path112" />
  </g>
</svg>
