<?xml version="1.0" encoding="UTF-8" standalone="no"?>
<!-- Created with Inkscape (http://www.inkscape.org/) -->

<svg
   version="1.1"
   id="svg2"
   width="11in"
   height="9in"
   viewBox="0 0 1055.9662 863.97235"
   sodipodi:docname="ToyotaMR2.svg"
   inkscape:version="1.2.2 (b0a8486541, 2022-12-01)"
   xml:space="preserve"
   xmlns:inkscape="http://www.inkscape.org/namespaces/inkscape"
   xmlns:sodipodi="http://sodipodi.sourceforge.net/DTD/sodipodi-0.dtd"
   xmlns="http://www.w3.org/2000/svg"
   xmlns:svg="http://www.w3.org/2000/svg"><defs
     id="defs6" /><sodipodi:namedview
     id="namedview4"
     pagecolor="#ffffff"
     bordercolor="#999999"
     borderopacity="1"
     inkscape:showpageshadow="0"
     inkscape:pageopacity="0"
     inkscape:pagecheckerboard="0"
     inkscape:deskcolor="#d1d1d1"
     showgrid="false"
     inkscape:zoom="0.70799997"
     inkscape:cx="625.00003"
     inkscape:cy="405.36725"
     inkscape:window-width="1854"
     inkscape:window-height="1011"
     inkscape:window-x="0"
     inkscape:window-y="0"
     inkscape:window-maximized="1"
     inkscape:current-layer="g10"
     inkscape:document-units="in"><inkscape:page
       x="0"
       y="0"
       id="page8"
       width="1055.9662"
       height="863.97235" /></sodipodi:namedview><g
     id="g10"
     inkscape:groupmode="layer"
     inkscape:label="Page 1"
     transform="matrix(1.3333333,0,0,-1.3333333,0,2666.6667)"><path
       d="m 469.0389,1917.074 -18.89308,-1.7766 c -42.35182,-6.4721 -77.92583,-21.9381 -106.71437,-46.394 4.28676,0.149 8.14179,0.2712 11.56126,0.3629 l 12.27573,0.3171 74.95719,1.7843 c 2.31913,0.046 4.55803,0.088 6.71287,0.1261 5.78063,0.099 10.94996,0.1566 15.50417,0.1795 14.7515,0.023 24.47504,-0.038 29.15533,-0.1948 14.66744,-0.4852 25.07105,-1.0048 31.21847,-1.5588 0.54253,0 1.34869,0 2.41083,0.019 0.23687,0 0.48904,0.011 0.75266,0.015 v 0 l -2.2389,-0.4049 c -6.24293,-0.9514 -18.94656,-1.9791 -38.11091,-3.0795 -6.68612,-0.3706 -13.21942,-0.6724 -19.59608,-0.8978 -9.44462,-0.3401 -20.69642,-0.6839 -33.75538,-1.0316 l -73.87595,-1.7995 -12.81825,-0.3515 c -1.78806,-0.05 -5.73861,-0.1796 -11.844,-0.3859 -18.64855,-17.6628 -34.19093,-39.4405 -46.6233,-65.3406 l 0.37442,0.011 c 2.00202,0.042 4.04606,0.08 6.13213,0.1185 5.1082,0.088 10.47239,0.149 16.08873,0.1872 13.11627,0.023 22.25142,-0.027 27.40929,-0.1452 14.04851,-0.4165 25.03285,-0.9552 32.96451,-1.6085 0.70682,0 1.50533,0 2.39554,0.019 0.24834,0 0.50433,0.011 0.76795,0.015 l -2.23889,-0.4088 c -5.73479,-0.7489 -11.19831,-1.2991 -16.38674,-1.6505 -5.96403,-0.4623 -13.20796,-0.9361 -21.72418,-1.4251 -5.23428,-0.3057 -11.76758,-0.6037 -19.59608,-0.8979 -6.22382,-0.2369 -15.86713,-0.5349 -28.92608,-0.8979 -8.04589,-21.9381 -12.86067,-43.3681 -14.447,-64.2899 l 65.827,1.5665 c 2.32295,0.046 4.56185,0.088 6.71287,0.126 6.77782,0.1147 12.70746,0.1758 17.79656,0.1872 14.02176,0.019 23.60393,-0.069 28.74651,-0.2636 15.05716,-0.5387 24.79216,-1.0354 29.20882,-1.4824 -0.0611,-0.027 0.8329,-0.023 2.68209,0.01 0.19103,0 0.39353,0.01 0.6113,0.011 l -2.23889,-0.4088 c -0.27891,-0.1299 -4.24092,-0.5616 -11.8822,-1.2837 -6.89244,-0.5922 -14.68655,-1.1348 -23.38616,-1.6353 -4.26766,-0.2445 -8.52003,-0.4661 -12.76095,-0.6609 l -6.22,-0.2713 c -10.11706,-0.3782 -22.52269,-0.7641 -37.21688,-1.1577 l -16.93309,-0.424 c -17.91118,-0.428 -31.69376,-0.7565 -41.34547,-0.9896 h 0.002 c -0.91046,-21.1014 1.49845,-41.6832 7.22636,-61.7416 l 6.04005,0.1452 c 2.32257,0.046 4.56147,0.088 6.71631,0.1261 5.78063,0.095 10.94996,0.1566 15.50417,0.1796 14.7515,0.027 24.47122,-0.042 29.15533,-0.1949 14.66362,-0.4852 25.07106,-1.0048 31.21465,-1.5588 0.065,-0.012 1.10799,0 3.13293,0.034 0.0115,0 0.0229,0 0.0344,0 l -2.23889,-0.405 c -6.24676,-0.9514 -18.95039,-1.9753 -38.11092,-3.0795 -7.93929,-0.5272 -24.42155,-1.1385 -49.44523,-1.8262 5.49217,-16.9637 13.386,-33.5529 23.68264,-49.7639 l 2.07843,-3.1138 346.44061,13.4066 c 16.51664,29.354 25.42256,61.4016 26.71776,96.135 h -0.004 c -1.43656,-0.034 -2.90369,-0.069 -4.40138,-0.107 l -16.53192,-0.3782 c -7.15989,-0.1528 -13.76196,-0.2827 -19.81004,-0.3859 -6.07482,-0.1031 -11.58801,-0.1834 -16.54338,-0.233 l -6.08247,-0.031 c -4.14157,-0.01 -8.30225,0.01 -12.47439,0.046 -8.50858,0.08 -16.1384,0.2407 -22.88566,0.4929 -7.48846,0.3477 -11.37023,0.5807 -11.64914,0.6954 l -2.20069,0.2942 c 2.20452,0.065 3.27812,0.1107 3.21317,0.1337 4.28294,0.6457 13.75431,1.5855 28.41794,2.8196 5.00504,0.4317 14.34651,0.9666 28.02441,1.6085 6.53712,0.3018 14.5108,0.5846 23.91723,0.8444 l 29.15914,0.7106 h 0.004 c 0.0153,1.7995 0.0153,3.6067 -0.008,5.4215 -1.15765,20.257 -4.54274,39.2495 -10.16291,56.9772 h 0.004 c -0.0267,0 -0.0573,0 -0.0879,0 -7.64893,-0.08 -14.03322,-0.092 -19.1567,-0.042 -8.32901,0.076 -15.41248,0.1987 -21.25042,0.3668 -5.08146,0.1031 -10.43418,0.382 -16.06198,0.8443 l -2.20451,0.2904 c 1.17675,0.031 2.20833,0.069 3.0909,0.1146 7.70241,1.0125 18.39257,2.0517 32.07429,3.1177 4.32879,0.3094 11.53834,0.7068 21.62866,1.1882 h 0.004 c -4.84075,13.8116 -11.07986,26.8285 -18.71351,39.0546 -5.44441,8.2793 -11.20212,16.0276 -17.2693,23.2333 v 0 l -9.50576,-0.1948 -72.13374,-1.7193 c -7.15988,-0.1528 -13.76195,-0.2827 -19.81003,-0.3859 -4.72614,-0.08 -9.11606,-0.1452 -13.16212,-0.1948 -6.23147,-0.077 -12.61576,-0.092 -19.1567,-0.046 -18.74407,0.1758 -31.18027,0.5807 -37.3124,1.215 l -2.20451,0.2903 c 1.40982,0.038 2.43757,0.076 3.08708,0.1147 5.96784,0.829 16.09255,1.8262 30.37411,2.9877 4.56185,0.3706 14.03704,0.8902 28.42558,1.5588 6.09775,0.2675 13.32641,0.5158 21.68597,0.745 l 73.18824,1.7843 10.93086,0.2445 h 0.004 c -39.792,43.7999 -92.15773,65.8832 -157.09338,66.2461 z"
       style="fill:#ff0000;fill-opacity:1;fill-rule:nonzero;stroke:none;stroke-width:0.0382064"
       id="path5180" /><path
       d="m 414.95388,1819.3573 -0.46994,-0.01 z"
       style="fill:#000000;fill-opacity:1;fill-rule:nonzero;stroke:none;stroke-width:0.0382064"
       id="path5182" /><path
       d="m 414.95388,1819.3573 -0.44319,-0.01 -0.7947,-0.015 0.78324,0.015 z"
       style="fill:#000000;fill-opacity:1;fill-rule:nonzero;stroke:none;stroke-width:0.0382064"
       id="path5184" /><path
       d="m 415.25189,1819.3649 -0.29801,-0.01 z"
       style="fill:#000000;fill-opacity:1;fill-rule:nonzero;stroke:none;stroke-width:0.0382064"
       id="path5186" /><path
       d="m 415.24043,1819.3649 -0.28273,-0.01 h -0.004 z"
       style="fill:#000000;fill-opacity:1;fill-rule:nonzero;stroke:none;stroke-width:0.0382064"
       id="path5188" /><path
       d="m 415.26718,1819.3649 h -0.29037 0.27508 z"
       style="fill:#000000;fill-opacity:1;fill-rule:nonzero;stroke:none;stroke-width:0.0382064"
       id="path5190" /><path
       d="m 416.74576,1817.3438 45.43891,0.5807 -0.0458,-22.324 -45.24787,-0.8864 z m 120.80873,2.0631 0.63041,-22.622 -45.2517,-0.6571 -0.80615,22.3087 z m -120.66354,-24.6928 h -0.35914 l -0.45466,-0.012 h -0.0459 0.0573 0.19486 z m -1.05068,-0.019 h -0.19485 z m -137.03079,63.2278 c -0.27012,0 -0.52534,-0.1413 -0.67626,-0.3744 -0.18645,-0.2904 -0.17154,-0.6686 0.0359,-0.9437 l 20.31626,-26.7445 c 0.15283,-0.2025 0.39353,-0.3247 0.64951,-0.3247 l 12.14965,-0.038 6.44924,-12.952 c 0.14137,-0.2827 0.43174,-0.4585 0.74503,-0.4547 l 76.71851,0.9781 0.0573,-22.7787 -60.9469,-1.192 c -0.22159,0 -0.42791,-0.099 -0.58074,-0.256 -0.149,-0.1605 -0.23305,-0.3744 -0.22541,-0.5922 l 0.71446,-21.5064 c 0.0153,-0.447 0.3897,-0.8023 0.83672,-0.7947 l 60.25918,1.0316 0.39352,-153.4256 c 0,-0.4508 0.36679,-0.8138 0.81762,-0.8176 l 20.67732,-0.1375 c 0.004,0 0.0115,0 0.0191,0 0.21014,0 0.41263,0.088 0.56546,0.2407 0.15282,0.1528 0.2407,0.3668 0.2407,0.5845 l -0.98573,153.9299 61.57731,1.043 c 0.042,0 0.0764,0.01 0.10697,0.012 v 0 0 0 c 0.0153,0 0.0229,0 0.0344,0 l 60.07579,1.0201 4.26766,-153.8725 c 0.008,-0.2216 0.0993,-0.4279 0.2598,-0.5808 0.15665,-0.1413 0.36296,-0.2216 0.5731,-0.2177 0.008,0 0.0153,0 0.0191,0 l 20.66204,0.8443 c 0.45083,0.019 0.80233,0.3935 0.78705,0.8444 l -4.84458,153.3529 60.263,1.024 c 0.44702,0.01 0.80616,0.3744 0.80616,0.8214 l -0.0229,21.5179 c 0,0.2178 -0.0879,0.4279 -0.24453,0.5845 -0.15664,0.1529 -0.36678,0.2407 -0.58455,0.2331 l -60.95454,-0.8864 h -0.17575 0.0879 0.0879 l -0.71828,22.7672 76.70705,1.6429 c 0.31329,0.01 0.59602,0.191 0.72592,0.4776 l 6.00223,13.1659 12.142,0.4547 c 0.25981,0.01 0.49286,0.1337 0.64187,0.3438 l 19.38976,27.4246 c 0.19868,0.2827 0.19868,0.6571 0.004,0.9399 -0.16046,0.2292 -0.42027,0.3591 -0.68771,0.3553 -0.065,0 -0.1299,-0.012 -0.19486,-0.027 -29.40748,-7.756 -58.75766,-15.4966 -92.04692,-19.8215 -0.11462,-0.015 -0.23688,-0.027 -0.34768,-0.042 -32.35321,-4.1759 -68.4239,-5.1426 -104.63595,-6.0289 -0.004,0 -0.008,0 -0.0115,0 0,0 -0.004,0 -0.004,0 -36.2197,-0.3515 -72.29039,-0.6152 -104.76203,2.4528 -0.11462,0.012 -0.23688,0.023 -0.3515,0.034 -33.41534,3.1826 -63.01386,9.9184 -92.66855,16.6618 -0.0642,0.015 -0.13143,0.023 -0.19561,0.023 z"
       style="fill:#000000;fill-opacity:1;fill-rule:nonzero;stroke:none;stroke-width:0.0382064"
       id="path5192" /><path
       d="m 482.4379,1586.81 -2.49106,-0.069 2.24272,0.019 c 0.004,0 0.004,0 0.008,0 0.084,0 0.16429,0.019 0.2407,0.05 z"
       style="fill:#000000;fill-opacity:1;fill-rule:nonzero;stroke:none;stroke-width:0.0382064"
       id="path5194" /><path
       d="m 479.70232,1632.4934 h -0.008 c -55.20829,-2.5101 -112.31162,-5.1234 -176.67035,-13.1468 -62.49005,-7.7865 -133.60903,-20.7537 -205.028308,-33.8929 -0.06724,-0.012 -0.115001,-0.076 -0.10736,-0.1452 0.0057,-0.069 0.06419,-0.1223 0.132577,-0.1184 h 0.0015 l 379.551451,2.705 v 0 c 0.0229,-0.027 0.0611,-0.046 0.0993,-0.046 v 0 l 384.03574,10.3731 h 0.004 0.004 c 0.0688,0 0.12226,0.057 0.12608,0.1223 0.004,0.069 -0.0458,0.1299 -0.1108,0.1375 -71.82808,10.694 -143.34288,21.2275 -206.06255,26.8782 v 0 c -0.004,0 -0.008,0 -0.0115,0 -64.8516,5.8456 -120.29677,6.4722 -175.76104,7.1026 h -0.004 c 0,0 -0.004,0 -0.008,0 -0.0497,0 -0.0993,0.01 -0.14136,0.023 -0.0153,0 -0.0267,0 -0.042,0 z"
       style="fill:#000000;fill-opacity:1;fill-rule:nonzero;stroke:none;stroke-width:0.0382064"
       id="path5196" /><path
       d="m 103.69047,1972.3544 c -12.770161,-1.5297 -24.536635,-4.5423 -35.300977,-9.041 v 0 l 48.458267,-4.2567 c -20.098846,-0.5042 -40.197698,-1.0099 -60.298108,-1.5142 h -0.0018 c -5.240124,-2.947 -10.203962,-6.3015 -14.894626,-10.0619 h 0.0018 l 30.301244,0.2732 -32.666092,-2.2244 h -0.0018 c -4.617303,-3.9164 -8.957225,-8.2465 -13.01945,-12.9856 -0.956088,-1.1145 -1.885322,-2.2399 -2.788963,-3.3747 h 6.09e-4 c 22.263892,0.1998 44.527783,0.4012 66.791675,0.6009 -23.317534,-1.5875 -46.635069,-3.1734 -69.951361,-4.7608 h -6.09e-4 C 11.580158,1912.946 5.6600793,1899.7732 2.5583063,1885.492 h 6.086e-4 l 64.5081551,0.5823 -65.2734917,-4.4425 c -1.03538303,-5.774 -1.62245779,-11.7228 -1.76153464,-17.8496 h 6.0865e-4 l 34.26217069,0.3091 -34.29198244,-2.3336 c -0.02203318,-3.2858 0.08413389,-6.62 0.31702828,-10.0026 0.0182595,-0.1889 0.0371277,-0.3762 0.0566655,-0.5651 l 71.01748766,0.64 c -23.503289,-1.5984 -47.007357,-3.1984 -70.51205132,-4.7984 0.87444352,-6.2344 2.25308162,-12.2628 4.13590232,-18.0805 l 41.455518,0.3731 -40.6488175,-2.766 c 0.4237979,-1.2098 0.8702316,-2.4086 1.337895,-3.598 l 6.1681105,-13.0808 c 0.875697,-1.5672 1.786045,-3.1063 2.730581,-4.6205 h 4.68e-4 c 12.14438,0.1093 24.289697,0.2186 36.433925,0.3278 -11.705597,-0.7976 -23.410263,-1.5937 -35.114922,-2.3898 h -6.09e-4 c 3.82059,-5.8286 8.16691,-11.2498 13.039432,-16.262 20.849197,-21.2696 47.057619,-32.7972 78.626366,-34.5845 6.21572,-0.056 12.24412,0.2544 18.08366,0.9319 25.09078,2.9096 46.70063,12.5844 64.82955,29.0259 10.41469,9.5156 18.61282,20.1551 24.59284,31.9215 h 0.002 c -22.88359,2.0355 -45.76718,4.071 -68.65233,6.1049 h 0.002 c 23.52671,-0.7008 47.05342,-1.4017 70.58012,-2.1011 2.35236,5.159 4.29887,10.524 5.83484,16.0982 h 0.003 l -60.77888,5.4056 61.69828,-1.8357 c 1.55471,6.4623 2.58026,13.1947 3.07196,20.1956 h 0.003 c -6.50918,0.5807 -13.01836,1.1582 -19.52754,1.7374 h 0.003 c 6.50761,-0.1936 13.01523,-0.3871 19.52285,-0.5807 l -0.35746,14.1625 c -0.64467,5.2963 -1.57344,10.4116 -2.78942,15.3458 h 0.002 c -14.50907,1.2909 -29.0197,2.5802 -43.53034,3.8711 h 0.002 c 14.28585,-0.4246 28.57015,-0.8492 42.856,-1.2753 -2.86591,10.6005 -7.08361,20.344 -12.65465,29.2305 h 0.002 l -40.12277,3.5683 38.55402,-1.1473 c -2.33519,3.5028 -4.88892,6.8682 -7.65961,10.0962 h 0.002 c -22.51833,2.0027 -45.03666,4.0055 -67.55498,6.0082 h 0.002 l 63.83523,-1.8997 c -3.57146,3.7494 -7.4598,7.299 -11.66501,10.6473 -23.37685,18.6112 -51.22428,26.7734 -83.54228,24.4898 z"
       style="fill:#ff0000;fill-opacity:1;fill-rule:nonzero;stroke:none;stroke-width:0.0156095"
       id="path10418" /><path
       d="m 60.626868,1909.0952 c -0.01564,-0.01 -0.02812,-0.014 -0.03281,-0.03 -0.0049,-0.017 0.003,-0.036 0.01875,-0.045 l 40.119652,-22.1827 c -0.844475,-1.6281 -1.521929,-3.6105 -1.852852,-6.3953 v -0.011 c -0.379312,-3.1672 -0.309067,-7.3646 -0.241945,-11.4621 v -0.019 c 0.0437,-2.5615 0.08585,-5.0825 0.01248,-7.2506 -0.190435,-5.6553 -1.159785,-8.9225 -2.118211,-12.1567 -0.05149,-0.1749 -0.193563,-0.3076 -0.371508,-0.3481 l -4.287944,-0.9662 c -0.05307,-0.013 -0.08897,-0.064 -0.07961,-0.1202 0.0018,-0.01 0.0049,-0.017 0.0094,-0.027 1.184764,-5.4634 2.163482,-11.267 -5.747435,-14.5871 -2.865908,-1.202 -6.90722,-2.0793 -11.073409,-2.983 l -0.05149,-0.011 c -4.636038,-1.0053 -9.440653,-2.0496 -13.151041,-3.6058 -2.230604,-0.9366 -4.010094,-2.0371 -5.118369,-3.3763 -2.99235,-3.6168 -1.359594,-9.2971 0.679011,-16.1684 l 0.0078,-0.025 0.01089,-0.036 c 1.083302,-3.6511 2.241529,-7.566 2.695766,-11.4824 0.935016,-8.0607 -1.125445,-16.07 -2.903371,-22.9788 l -0.01096,-0.047 c -0.683698,-2.6582 -1.325247,-5.1495 -1.748266,-7.4363 -0.05934,-0.3247 -0.11551,-0.6462 -0.16702,-0.9647 15.403495,-8.5259 32.84716,-13.3414 52.334124,-14.4451 6.21728,-0.055 12.24412,0.256 18.08365,0.9335 14.35766,1.664 27.57582,5.5445 39.65449,11.64 -0.2919,2.4788 -0.45424,4.8046 -0.42771,6.9135 l -0.002,0.012 c 0.025,1.82 0.18731,3.47 0.34341,5.0434 l 0.002,0.011 c 0.14517,1.4751 0.2841,2.88 0.30127,4.3114 0.0375,2.9689 -0.44176,6.0814 -2.49753,10.1243 -4.1381,8.1294 -14.62302,19.9615 -21.42722,25.9618 -6.68869,5.8973 -9.70446,6.0612 -12.69212,6.2157 l -0.0687,0.01 c -0.21073,0.011 -0.39179,0.1514 -0.45423,0.3512 l -0.006,0.019 -0.005,0.017 c -0.70556,2.2431 -1.42203,4.5283 -1.78417,7.1695 -0.36214,2.6411 -0.36839,5.6225 -0.37463,8.5633 v 0.025 c -0.002,0.1623 0.0765,0.3153 0.20917,0.4105 0.0702,0.05 0.15141,0.081 0.2357,0.09 0.0718,0.01 0.14673,0 0.21853,-0.022 l 0.0296,-0.011 c 2.33831,-0.7883 4.57672,-1.536 6.22352,-1.6562 0.3403,-0.025 0.6478,-0.022 0.92878,0.011 1.00525,0.1155 1.8029,0.6197 2.70981,1.9137 1.18008,1.6827 2.44758,4.5627 3.74785,7.5223 0.0562,0.1264 0.15922,0.2232 0.28722,0.27 0.039,0.014 0.0765,0.024 0.11551,0.028 0.0952,0.011 0.192,-0.01 0.27941,-0.049 l 0.0125,-0.01 c 0.005,-0.01 0.009,-0.01 0.0156,-0.01 1.0474,-0.5151 1.88875,-0.9022 2.52094,-0.8304 0.31219,0.036 0.60721,0.195 0.86009,0.7008 0.48702,0.9803 0.69462,2.9752 0.90535,5.0778 l 0.002,0.016 0.005,0.052 c 0.10927,1.0943 0.21854,2.1901 0.38088,3.0986 0.47609,2.6754 1.40329,3.7603 2.52406,4.5611 0.57599,0.412 1.19725,0.7476 1.82631,1.0411 l 33.18277,-18.3443 c 0.008,-0.01 0.0156,-0.01 0.0234,-0.01 0.006,0 0.0125,0.01 0.0187,0.01 0.0125,0.01 0.0188,0.023 0.0172,0.038 l -0.008,0.02 -48.55349,66.1033 c -0.008,0.01 -0.0187,0.017 -0.0312,0.017 l -74.257727,1.7967 c -0.0018,0 -0.0049,0 -0.0062,0 z"
       style="fill:#000000;fill-opacity:1;fill-rule:nonzero;stroke:none;stroke-width:0.0156095"
       id="path10420" /></g></svg>
