<?xml version="1.0" encoding="UTF-8" standalone="no"?>
<!-- Created with Inkscape (http://www.inkscape.org/) -->

<svg
   width="256"
   height="256"
   viewBox="0 0 67.733325 67.733325"
   version="1.1"
   id="svg5"
   xml:space="preserve"
   inkscape:version="1.2.2 (b0a8486541, 2022-12-01)"
   sodipodi:docname="icon.svg"
   inkscape:export-filename="logo2.png"
   inkscape:export-xdpi="96"
   inkscape:export-ydpi="96"
   xmlns:inkscape="http://www.inkscape.org/namespaces/inkscape"
   xmlns:sodipodi="http://sodipodi.sourceforge.net/DTD/sodipodi-0.dtd"
   xmlns="http://www.w3.org/2000/svg"
   xmlns:svg="http://www.w3.org/2000/svg"><sodipodi:namedview
     id="namedview7"
     pagecolor="#ffffff"
     bordercolor="#999999"
     borderopacity="1"
     inkscape:showpageshadow="0"
     inkscape:pageopacity="0"
     inkscape:pagecheckerboard="0"
     inkscape:deskcolor="#d1d1d1"
     inkscape:document-units="mm"
     showgrid="false"
     inkscape:zoom="1.6819304"
     inkscape:cx="-18.431203"
     inkscape:cy="54.699053"
     inkscape:window-width="2048"
     inkscape:window-height="1329"
     inkscape:window-x="26"
     inkscape:window-y="23"
     inkscape:window-maximized="0"
     inkscape:current-layer="layer1" /><defs
     id="defs2" /><g
     inkscape:label="Layer 1"
     inkscape:groupmode="layer"
     id="layer1"><rect
       style="fill:#661f3a;fill-opacity:1;stroke-width:5.89667;paint-order:stroke fill markers;stop-color:#000000"
       id="rect1382"
       width="67.73333"
       height="67.73333"
       x="0"
       y="0" /><path
       d="m 23.04833,37.275117 c -0.0076,-0.0089 -0.01653,-0.0089 -0.02575,-0.0089 0.0054,0.02519 0.01424,0.02783 0.02575,0.0089 z M 12.959432,25.835159 c 0.135509,-0.07896 0.243188,-0.234667 0.252092,-0.394316 0.0076,-0.139376 -0.0755,-0.217266 -0.134389,-0.335986 -0.03841,-0.07896 -0.06649,-0.156776 -0.10623,-0.234666 -0.03586,-0.0709 -0.03829,-0.108672 -0.03699,-0.191601 0,-0.07449 -0.03083,-0.122942 -0.03716,-0.192489 -0.01424,-0.141334 0.06136,-0.263297 0.101092,-0.395393 0.01017,-0.01984 0.03457,-0.0377 0.06014,-0.04307 0.01017,0.05564 -0.01017,0.120882 0.01908,0.175167 0.01908,0.03679 0.07181,0.06283 0.09722,0.101396 0.05388,-0.0377 0.06146,-0.133168 0.0795,-0.198875 0.03574,-0.123934 0.135509,-0.200757 0.191854,-0.312385 0.0054,0 0.01017,0 0.01653,0 0.0206,0.02519 0.03207,0.04129 0.05253,0.0682 0.132965,-0.01246 0.148431,-0.305295 0.18552,-0.406701 0.02946,-0.07988 0.09086,-0.16171 0.151,-0.22327 0.02562,-0.02783 0.06647,-0.08886 0.107451,-0.08886 0.02562,0 0.04866,0.05293 0.0884,0.05386 0.106128,-0.168985 0.246877,-0.346217 0.381263,-0.49689 0.09977,-0.112716 0.200885,-0.246775 0.31991,-0.335897 -0.01526,0.08794 -0.157334,0.206862 -0.07804,0.282681 0.05892,-0.02519 0.249547,-0.112615 0.294397,-0.07988 0.04854,-0.05652 0.161125,-0.05385 0.229045,-0.09226 0.07673,-0.04307 0.148431,-0.104373 0.230265,-0.135153 0.07804,-0.0305 0.145965,-0.04668 0.218921,-0.07449 0.04475,-0.01704 0.106128,-0.06372 0.153544,-0.04665 0.145862,-0.148533 0.44273,0.0305 0.586134,0.07359 0.138079,0.04218 0.257113,0.122943 0.410666,0.117728 0.116481,-0.0089 0.2265,-0.01424 0.342959,-0.0332 0.208566,-0.0323 0.468436,-0.07268 0.698613,-0.01602 0.05388,0.01348 0.107655,0.03411 0.153646,0.04218 0.03071,0.0089 0.07807,0.01424 0.107451,0.02519 0.01017,0.01984 0.02442,0.035 0.04096,0.04757 0.01679,-0.0089 0.03207,-0.0089 0.04866,0 0.08318,0.04307 0.14576,0.05652 0.231511,0.103482 0.06657,0.0377 0.108901,0.05652 0.185622,0.07896 0.0031,0.0099 0.004,0.01984 0.0076,0.02961 0.03195,-0.01602 0.131845,0.02341 0.166364,0.03411 0.05757,0.01602 0.184274,0.0377 0.21625,0.07987 -0.05868,0.04129 -0.117702,0.113785 -0.194525,0.156699 -0.04732,0.02519 -0.125283,0.02162 -0.145862,0.07359 0.09353,0.02519 0.213679,0.04398 0.295631,0.09628 -0.09333,0.06372 -0.275039,0.06102 -0.364673,0.148431 -0.04741,0.04665 -0.06403,0.159929 0.01908,0.175268 0.04991,0.05833 0.14342,0.07718 0.195746,0.140266 0.05757,-0.02239 0.162575,0.01246 0.218921,0.03589 0.05627,0.02417 0.14085,0.03408 0.148431,0.109562 0.09097,0.01424 0.208668,0.197603 0.23548,0.270387 0.03829,0.02783 0.0537,0.08166 0.0844,0.127164 0.03587,0.05205 0.09198,0.10132 0.119025,0.15876 0.04856,0.102388 -0.01297,0.241661 0.05235,0.332844 0.03208,0.01424 0.07303,0.07268 0.0846,0.112615 0.03711,0.01069 0.04866,0.0377 0.0754,0.05655 0.01679,0.0305 0.02442,0.05293 0.03195,0.08616 0.004,0.0089 0.02946,0.05474 0.03329,0.06192 0.0054,0.05115 0.03207,0.10043 0.02946,0.151561 0.07415,0.02872 0.225254,0.123934 0.272584,0.193583 0.01272,-0.0089 0.02562,-0.0099 0.03841,-0.0089 0.01272,0.03948 0.07929,0.05385 0.111241,0.07178 0.05134,0.02519 0.08061,0.05115 0.122814,0.09628 0.03587,0.0377 0.07682,0.08704 0.116583,0.13121 0.03065,0.01806 0.02683,0.0089 0.04345,0.04487 0.07425,0 0.125486,0.158836 0.148532,0.211874 0.01653,0.04307 0.08697,0.167103 0.118924,0.189615 -0.0036,0.06461 0.04856,0.136323 0.07415,0.199765 0.0011,0.0089 0.0011,0.0089 0.0031,0.0089 0.202107,-0.200834 0.41456,-0.397549 0.600171,-0.60754 0.481142,-0.543913 1.076189,-1.125786 1.772344,-1.401377 0.400421,-0.156598 0.885456,-0.201648 1.257911,-0.411728 0.43248,-0.242757 0.688373,-0.565451 0.966073,-0.971166 0.231614,-0.336974 0.491489,-0.683191 0.790908,-0.960756 0.211111,-0.195644 0.45932,-0.235658 0.729338,-0.306371 0.583477,-0.152552 1.151692,-0.319475 1.663563,-0.64523 0.383822,-0.242934 0.788234,-0.418996 1.145324,-0.696561 0.266136,-0.208007 0.479813,-0.444663 0.687144,-0.70796 0.17537,-0.224262 0.2571,-0.522284 0.41456,-0.763059 0.325022,-0.493748 0.991772,-0.593181 1.455102,-0.934191 0.789463,-0.57981 0.888005,-1.756749 1.74284,-2.281369 0.244409,-0.1495 0.516973,-0.251889 0.788329,-0.357526 0.104805,-0.118719 0.213578,-0.22416 0.321044,-0.356446 0.17158,-0.208923 0.313557,-0.439277 0.449178,-0.658421 0.156114,-0.254229 0.350629,-0.701858 0.586135,-0.278733 0.07672,0.137213 0.165118,0.254951 0.263573,0.364614 -0.02946,0.03948 -0.05757,0.08077 -0.08697,0.122841 0.05494,-0.0323 0.10745,-0.05205 0.152323,-0.05205 -0.02315,-0.02238 -0.04482,-0.04665 -0.06532,-0.0709 0.145964,-0.201724 0.285388,-0.359588 0.511871,-0.515195 0.247055,-0.170054 0.38526,-0.457853 0.514432,-0.724292 0.07682,-0.160717 0.06917,-0.273439 0.07171,-0.424022 0.0054,-0.219226 -0.06019,-0.444661 -0.0409,-0.653665 0.01933,-0.2221 0.145861,-0.325577 0.341714,-0.415854 0.181628,-0.08257 0.308341,-0.183256 0.472124,-0.301078 0.194525,-0.140341 0.246979,-0.03948 0.46701,-0.0089 0.166442,0.02417 0.344285,-0.02162 0.511965,0 0.136959,0.01806 0.277611,0.0682 0.342964,0.210984 0.03587,0.07807 -0.03076,0.176159 0.08183,0.220217 0.04729,0.01704 0.152323,-0.04668 0.2149,-0.04668 0.453079,0.0089 0.14599,0.537723 0.467115,0.641282 0.189514,0.06103 0.271351,-0.125995 0.46076,0.05116 0.0755,0.07179 0.212459,0.23665 0.09473,0.305204 -0.01933,0.108595 -0.07428,0.274515 -0.12803,0.34218 -0.0066,0.262307 -0.31991,0.520311 -0.499078,0.685343 -0.110121,0.100328 -0.465781,0.382022 -0.598836,0.282681 -0.07939,0.116837 -0.268791,0.08166 -0.385259,0.189539 -0.01017,-0.01348 -0.02442,-0.01882 -0.0409,-0.01704 -0.07794,0.114599 -0.322476,0.205769 -0.438837,0.312385 -0.0755,0.288692 -0.257215,0.722048 -0.465874,0.960756 -0.110019,0.124011 -0.272482,0.245884 -0.429929,0.339125 -0.02554,-0.01348 -0.04986,-0.02691 -0.07293,-0.04218 0.0024,0.0234 0.0024,0.05205 0.0011,0.08346 0.02315,-0.01246 0.04747,-0.02691 0.07171,-0.04129 0,0 0.0011,0 0.0011,0 0.135611,0.0682 0.259667,0.160821 0.374802,0.257017 0.153647,0.13121 0.197094,0.18028 0.106332,0.366766 -0.105009,-0.0323 -0.296863,0.139375 -0.389059,0.200834 -0.09465,0.06281 -0.203428,0.137213 -0.305867,0.211975 -0.05887,0.04129 -0.116379,0.08705 -0.174048,0.134263 -0.0089,0.02519 -0.01781,0.05115 -0.02678,0.07718 -0.194524,0.538799 -0.505522,1.057138 -0.769094,1.567218 -0.437502,0.851273 -1.101694,1.590911 -1.832472,2.189027 -0.335269,0.272541 -0.679454,0.526505 -0.993009,0.82875 -0.309668,0.297038 -0.588581,0.43739 -0.98277,0.576758 -0.410754,0.14548 -0.62566,0.421957 -0.859942,0.753903 -0.166366,0.235557 -0.285281,0.485494 -0.460656,0.717024 -0.154766,0.203809 -0.303306,0.409752 -0.477346,0.597128 -0.477348,0.513313 -1.154137,0.757138 -1.623813,1.278436 -0.204751,0.228484 -0.410759,0.441521 -0.641136,0.646488 -0.234183,0.205692 -0.531031,0.389111 -0.802382,0.594974 0.0054,0.0089 0.0089,0.0117 0.01424,0.01984 0.235379,0.318667 0.481139,0.417021 0.808729,0.192769 0.232936,-0.156775 0.444049,-0.400599 0.717867,-0.191599 0.232937,0.17626 0.321242,0.287796 0.638583,0.286809 0.126605,0 0.258552,0.01068 0.383919,0 0.141995,-0.01424 0.207346,-0.01424 0.341629,0 0.348181,0.04129 0.568215,0.09422 0.862506,0.317498 0.01017,0.0089 0.01908,0.01526 0.02941,0.02162 0.07428,-0.04487 0.158682,-0.07807 0.226602,-0.116761 0.145761,-0.08257 0.212332,-0.174098 0.319912,-0.300091 0.196993,-0.230545 0.51822,-0.60027 0.82276,-0.606461 0.1394,-0.0089 0.28917,-0.01348 0.428583,0 0.128056,0.0117 0.248302,0.06372 0.381472,0.04218 0.33527,-0.04757 0.53871,-0.616424 0.694819,-0.885912 0.198315,-0.341192 0.337836,-0.699703 0.467115,-1.076612 0.108773,-0.31651 0.281388,-0.643434 0.587362,-0.811338 0.163695,-0.09028 0.363338,-0.146447 0.511764,-0.272449 0.171478,-0.147439 0.307107,-0.376997 0.4159,-0.570658 0.211111,-0.379959 0.405631,-0.778492 0.575883,-1.167695 0.04862,-0.112615 0.139401,-0.439456 0.331382,-0.380048 0.165144,0.05115 0.119025,0.339037 0.135636,0.464044 0.032,0.233675 0.103762,0.501917 0.208644,0.765214 0.148431,-0.300182 0.3532,-0.572543 0.592498,-0.759111 0.229045,-0.17822 0.538705,-0.245884 0.758834,-0.436316 0.149678,-0.127979 0.172724,-0.284744 0.222609,-0.46916 0.05253,-0.193559 0.120271,-0.324768 0.24708,-0.457853 0.235302,-0.245808 0.532257,-0.400599 0.73437,-0.681217 0.213781,-0.301167 0.359745,-0.636077 0.563199,-0.93832 0.130497,-0.19366 0.222583,-0.421061 0.37235,-0.598207 0.167688,-0.196713 0.385258,-0.309424 0.602725,-0.437482 0.09087,-0.05293 0.186843,-0.10427 0.286614,-0.153544 0.02315,-0.278644 0.117701,-0.554146 0.254663,-0.782623 0.08194,-0.137315 0.207321,-0.228485 0.266128,-0.375024 0.06525,-0.163872 0.08707,-0.342086 0.129277,-0.512056 0.07672,-0.308435 0.312222,-0.442597 0.542594,-0.650523 0.276377,-0.247945 0.429924,-0.540954 0.615549,-0.842032 0.209889,-0.340112 0.506749,-0.555308 0.77287,-0.842029 0.202207,-0.217165 0.403084,-0.493748 0.593822,-0.734522 0.223931,-0.281602 0.332608,-0.625846 0.587266,-0.898296 0.30076,-0.32055 0.629572,-0.572632 0.929086,-0.895337 0.262335,-0.280615 0.467117,-0.596141 0.682028,-0.907539 0.184274,-0.2641923 0.418444,-0.7672764 0.76909,-0.4117256 0.07548,0.075373 0.140749,0.1423259 0.212459,0.2007568 h 0.0011 c 0.275151,-0.2540496 0.526009,-0.5214785 0.787022,-0.788723 0.252193,-0.2592597 0.410873,-0.5726319 0.61809,-0.8646436 0.216249,-0.3062842 0.534813,-0.5336835 0.748712,-0.8420309 0.209787,-0.3032303 0.09842,-0.6453186 0.232809,-0.9598571 0.102312,-0.2397043 0.240517,-0.1412579 0.437589,-0.2109838 0.117676,-0.042175 0.257253,-0.197781 0.350686,-0.2766677 0.144565,-0.1238323 0.227748,-0.2867201 0.383844,-0.3880379 0.125486,-0.079875 0.222659,-0.1547906 0.340409,-0.2541514 0.215003,-0.1843246 0.428625,-0.3954839 0.639865,-0.5746951 0.134314,-0.113708 0.280168,-0.2376429 0.460608,-0.2468765 0.212459,-0.00993 0.217597,0.1023884 0.308454,0.2675148 0.09081,0.1617092 0.236702,0.2682309 0.319913,0.4259938 0.08059,0.1505932 0.04345,0.3236922 0.08695,0.4915961 0.07421,0.2879741 0.391571,0.5101712 0.394128,0.8216584 8.77e-4,0.1485328 -0.121569,0.2386083 -0.1292,0.3810359 -0.0071,0.1127163 0.165093,0.2868096 0.04082,0.3615621 0.02061,0.1506696 -0.14833,0.3513325 -0.28529,0.372958 -0.0117,0.021623 -0.02556,0.042175 -0.04218,0.061025 -0.05502,-0.041289 -0.21368,0.019842 -0.277665,0.014243 -0.04729,-0.00891 -0.120271,-0.035892 -0.171478,-0.052048 -0.148406,-0.051153 -0.243087,-0.1230434 -0.406946,-0.1404435 -0.04093,-0.00891 -0.09084,-0.00891 -0.147108,-0.00891 -0.05007,0.123935 -0.116481,0.2366513 -0.202208,0.327822 -0.154816,0.1659329 -0.293092,0.3563574 -0.469617,0.5060415 -0.162499,0.1373159 -0.381343,0.2263225 -0.54772,0.3769974 -0.193254,-0.073592 -0.606572,0.2898599 -0.701286,0.4404453 -0.101039,0.1606421 -0.184299,0.3318578 -0.255851,0.5049673 -0.04345,0.1076029 -0.101091,0.4609017 -0.161278,0.4968897 0.03076,0.411815 -0.344202,0.988394 -0.583608,1.301855 -0.08562,0.111725 -0.189284,0.194551 -0.299307,0.275592 0.02941,0.15975 0.125384,0.343076 0.212332,0.4487 0.167688,0.207829 0.258459,0.446456 0.406979,0.669998 0.181679,0.274427 0.32121,0.581696 0.491306,0.861324 0.07558,0.127063 0.200986,0.255042 0.211238,0.412893 0.326325,0.145277 -0.733265,0.91885 -0.820233,1.006883 -0.226577,0.229554 -0.405631,0.513224 -0.59761,0.771406 -0.158784,0.215104 -0.348074,0.384087 -0.514429,0.58591 -0.332718,0.405536 -0.639807,0.619746 -1.141545,0.779482 -0.507978,0.162956 -0.935336,0.394408 -1.147782,0.884029 -0.154791,0.356536 -0.29687,0.722226 -0.610425,0.972061 -0.135611,0.10768 -0.304535,0.177329 -0.415896,0.309424 -0.113886,0.135331 -0.194524,0.317589 -0.303311,0.46306 -0.333936,0.454711 -0.533579,0.940293 -0.82532,1.413582 -0.204696,0.330792 -0.307046,0.682214 -0.488868,1.02125 -0.299426,0.555222 -0.53738,1.160609 -1.026196,1.579604 -0.349313,0.299101 -0.606532,0.70374 -0.80874,1.108376 -0.153544,0.305206 -0.14721,0.675025 -0.215003,0.988397 -0.0756,0.351423 -0.177812,0.736586 -0.44785,1.006074 -0.120373,0.12078 -0.273806,0.209915 -0.363452,0.351333 -0.106204,0.166925 -0.166339,0.360575 -0.231588,0.543913 -0.157436,0.443494 -0.131846,0.785584 -0.11783,1.24873 0.01042,0.344154 -0.02162,0.760996 -0.180381,1.065304 -0.08573,0.163873 -0.213782,0.300091 -0.299419,0.460906 -0.0011,0.0089 -0.0024,0.0089 -0.0036,0.0089 0.0066,0.0117 0.0117,0.02519 0.01653,0.0377 0.189387,0.452737 0.342944,0.964973 0.413327,1.451363 0.04599,0.318668 0.101115,0.693599 0.05627,1.017203 -0.04228,0.304308 -0.206099,0.592104 -0.217571,0.908618 -0.01424,0.433353 0.23927,0.849296 0.25976,1.274395 0.0076,0.1321 -0.02941,0.334821 -0.04339,0.472123 -0.0117,0.121951 -0.04483,0.272539 -0.09608,0.384266 -0.09209,0.204878 -0.243188,0.367664 -0.321138,0.586808 -0.156088,0.435511 -0.113988,0.884119 -0.05502,1.33273 0.02946,0.216274 0.06003,0.422046 0.0345,0.647473 -0.01653,0.146549 -0.03569,0.28277 -0.08565,0.416841 -0.04612,0.121951 -0.158658,0.22032 -0.194627,0.343257 -0.132965,0.448608 0.04483,0.848131 0.149754,1.276371 0.147312,0.599103 0.129378,1.240384 0.0011,1.850886 -0.06779,0.323692 -0.212459,0.609512 -0.299429,0.922976 -0.08451,0.305295 -0.111343,0.629974 -0.149754,0.941369 -0.03836,0.311398 0.05757,0.551094 0.130523,0.842031 0.08194,0.332845 0.09862,0.697638 0.07413,1.042779 -0.02554,0.358601 -0.166264,0.692521 -0.171275,1.057137 -0.0054,0.436494 0.112487,0.803172 0.181628,1.22827 0.04339,0.274513 0.189412,0.472209 0.246978,0.733444 0.03587,0.163948 0.0089,0.405625 -0.01017,0.573619 -0.0024,0.02519 -0.02061,0.110554 -0.04729,0.207931 0.02442,0.07718 0.04612,0.152551 0.06525,0.228306 0.150873,0.57281 0.01399,1.179183 0.07293,1.773351 0.03076,0.297936 0.20989,0.611578 0.309661,0.89309 0.113911,0.324771 0.225253,0.638232 0.301975,0.975295 0.04612,0.200757 0.157538,0.43533 0.159904,0.641192 0.0024,0.195644 -0.03569,0.26231 -0.21625,0.292912 -0.337723,0.05922 -0.748602,-0.03948 -1.106819,0.03408 -0.385265,0.08166 -0.751164,0.225433 -1.126083,0.319564 -0.238049,0.06192 -0.473553,0.117906 -0.707726,0.181374 0,0.035 -0.0018,0.06909 -0.0024,0.104551 -0.01272,0.428059 -0.04729,0.858454 -0.157335,1.275295 -0.152323,0.582771 -0.267461,1.13799 -0.267461,1.743468 0,0.604307 0.07804,1.176939 0.171478,1.762942 0.06268,0.392252 0.134389,0.800928 0.126605,1.192372 -0.0036,0.213044 -0.01526,0.32782 -0.168934,0.46907 -0.156012,0.141436 -0.360878,0.213121 -0.565646,0.266351 -0.213578,0.05744 -0.420914,0.0234 -0.629573,0 -0.195772,-0.02162 -0.39919,-0.0089 -0.597506,-0.0089 -0.381367,-0.0089 -0.771644,0.05386 -1.151785,0.04218 -0.390179,-0.01348 -0.75485,0.113708 -1.118391,0.243824 -0.298089,0.107501 -0.562991,0.294975 -0.886688,0.312385 -0.314886,0.01882 -0.667974,-0.128055 -0.981531,-0.0117 -0.263674,0.0972 -0.442834,0.279539 -0.755056,0.31023 -0.161227,0.01704 -0.334038,0.02519 -0.478575,0.04487 -0.147109,0.01704 -0.325038,-0.01882 -0.249548,-0.209915 0.126707,0.0089 0.212459,-0.176261 0.296959,-0.237821 0.108799,-0.07988 0.336508,-0.166823 0.472132,-0.08525 0.240618,-0.174099 0.496511,-0.270295 0.705067,-0.504967 0.104984,-0.117727 0.200987,-0.226322 0.308437,-0.338049 0.126707,-0.13121 0.246953,-0.210984 0.383818,-0.332845 0.273904,-0.241764 0.557971,-0.437392 0.851034,-0.628 0.321237,-0.210093 0.620651,-0.476249 0.939227,-0.662728 0.397969,-0.233599 0.661638,-0.568503 0.801153,-1.011101 0.134186,-0.429138 0.01017,-0.797879 0.01017,-1.241463 0,-0.501916 0.07682,-0.967037 0.138281,-1.458633 0.02035,-0.170054 0.04729,-0.339128 0.07413,-0.509184 -0.02442,0.0089 -0.04861,0.0099 -0.07156,0.0099 -0.115259,0 -0.190734,-0.06461 -0.304647,-0.05115 -0.02678,-0.07896 0.0206,-0.169062 0.03587,-0.244714 0.02697,-0.123935 0.03467,-0.261235 0.04345,-0.387319 0.01806,-0.26931 -0.0011,-0.545978 0,-0.814301 0.0011,-0.437482 -0.08194,-0.857465 -0.128055,-1.277448 -0.08573,-0.760993 -0.415776,-1.544784 -0.428584,-2.325161 -0.0024,-0.126097 0.05757,-0.349359 0.096,-0.475354 0.05378,-0.174099 0.136959,-0.363714 0.236727,-0.516362 0.05502,-0.08525 0.175269,-0.131007 0.234158,-0.206838 0.144539,-0.185316 0.03587,-0.388216 -0.01017,-0.569579 -0.102312,-0.401497 -0.08316,-0.64523 0.08443,-1.02528 0.195848,-0.44161 -0.02417,-0.570566 -0.225153,-0.937422 -0.168908,-0.307271 -0.321231,-0.67296 -0.276372,-1.024203 0.0229,-0.180382 0.07028,-0.407689 0.03337,-0.598386 -0.02692,-0.143395 -0.128056,-0.331858 -0.200987,-0.469071 -0.113912,-0.214036 -0.181628,-0.36569 -0.149652,-0.598296 0.02941,-0.219149 0.133066,-0.421957 0.21111,-0.623783 0.09087,-0.229477 0.03195,-0.467005 0.05245,-0.705803 0.01144,-0.132099 0.04719,-0.249928 0.0434,-0.384087 -0.0024,-0.150669 -0.04986,-0.290937 -0.04475,-0.442508 0.03332,-0.0089 0.02691,0.0089 0.04475,0.02519 l 0.101218,-0.05386 c -0.104798,-0.204902 -0.178976,-0.421006 -0.228961,-0.647331 -0.122815,-0.562401 -0.253313,-1.182234 -0.639814,-1.611369 -0.323799,-0.360578 -0.460654,-0.855313 -0.586033,-1.314244 -0.06395,-0.233598 -0.160005,-0.464133 -0.277705,-0.680138 -0.08964,-0.167103 -0.316116,-0.36883 -0.330154,-0.555219 l -0.03332,-0.01246 c -0.06146,0.147363 -0.104882,0.301078 -0.135611,0.439367 -0.06018,0.261232 -0.04612,0.534759 -0.04475,0.808196 0.0024,0.302246 -0.07036,0.613554 -0.0666,0.922975 0.0076,0.554147 0.294298,1.115469 0.483689,1.617385 0.186844,0.491774 0.369901,1.061354 0.302099,1.592972 -0.113912,-0.0117 -0.257329,0.03589 -0.377588,0.04935 -0.135611,0.01602 -0.230368,0.04935 -0.350629,0.117829 -0.238049,0.134085 -0.406884,0.395394 -0.673107,0.475352 -0.216249,-0.221312 -0.04207,-0.745828 -0.04207,-1.03874 0,-0.318665 0.032,-0.606461 0,-0.921001 -0.05873,-0.588872 -0.257105,-1.154414 -0.255987,-1.747505 0,-0.258092 -0.0422,-0.479391 -0.0011,-0.721061 0.04862,-0.287974 0.17392,-0.542925 0.245527,-0.81035 0.06917,-0.258093 0.15357,-0.515288 0.241968,-0.775442 -0.290509,0.150593 -0.722994,0.303229 -1.044226,0.335985 -0.275146,0.02872 -0.56566,0.03948 -0.824105,0.04487 -0.408201,0.0089 -0.809949,-0.152654 -1.21191,-0.196789 -0.939227,-0.105441 -1.856741,-0.518248 -2.811341,-0.523363 -0.258451,-0.0089 -0.536151,0.02872 -0.808733,0.07718 0.234183,0.09934 0.4837,0.156775 0.762631,0.185393 0.325033,0.0323 0.705065,0.02692 0.913729,0.323692 0.24441,0.349357 0.266128,0.998715 0.06393,1.372662 -0.125283,0.231436 -0.346747,0.358602 -0.611647,0.341102 -0.09977,-0.0089 -0.188063,-0.07537 -0.289277,-0.07987 -0.136755,-0.0089 -0.240517,0.05564 -0.352999,0.117906 -0.226577,0.127979 -0.33025,0.137111 -0.501728,-0.07718 -0.170156,-0.210983 -0.215003,-0.180279 -0.253414,0.08794 -0.02946,0.205693 -0.004,0.487556 -0.09466,0.675023 -0.200884,0.05743 -0.496403,-0.105619 -0.674439,-0.173208 -0.131719,-0.05027 -0.204675,-0.0901 -0.341619,-0.04665 -0.10623,0.03408 -0.185622,0.122052 -0.296858,0.15273 -0.235505,0.06372 -0.518224,-0.0089 -0.651393,-0.224262 -0.161226,-0.262219 -0.02686,-0.492851 0.01272,-0.768352 0.03971,-0.277566 -0.09733,-0.263298 -0.267354,-0.415855 -0.197095,-0.176261 -0.207321,-0.418996 -0.343058,-0.639307 -0.0844,-0.138206 -0.157335,-0.17822 -0.289176,-0.266258 -0.159904,-0.106612 -0.278933,-0.118898 -0.438942,-0.176159 -0.134287,0.07987 -0.272576,0.154612 -0.414559,0.207829 -0.191956,0.07359 -0.403085,0.10249 -0.606622,0.14861 -0.215003,0.04935 -0.387718,0.125994 -0.575789,0.23459 -0.330153,0.187478 -0.555303,0.585912 -0.949477,0.266346 -0.239397,-0.194652 -0.367334,-0.476338 -0.561861,-0.708944 -0.18552,-0.222202 -0.359652,-0.425098 -0.589826,-0.602336 -0.244511,-0.188445 -0.462086,-0.350255 -0.679563,-0.572629 -0.263562,-0.269311 -0.437601,-0.568412 -0.632127,-0.88699 -0.253439,-0.414957 -0.351968,-0.80721 -0.350635,-1.28364 0,-0.251888 -0.03071,-0.498775 -0.01017,-0.740533 0.01653,-0.200758 0.01933,-0.412805 0,-0.611489 -0.03207,-0.342089 -0.10623,-0.659678 -0.120373,-1.015138 0.04108,-0.02162 0.0512,-0.05563 0.07815,-0.103558 0.04345,-0.07807 0.09086,-0.122841 0.139528,-0.202717 0.07672,-0.120881 0.148329,-0.298205 0.17013,-0.439455 0.03706,-0.23459 -0.158658,-0.542928 0.08176,-0.701768 0.185621,-0.122841 0.462086,-0.128056 0.674537,-0.215105 0.06894,-0.02783 0.149652,-0.06372 0.226475,-0.114599 -0.04604,-0.0332 -0.09209,-0.06461 -0.13818,-0.09738 -0.221464,-0.158759 -0.409538,-0.343166 -0.606624,-0.529645 -0.239297,-0.228484 -0.551517,-0.403471 -0.862405,-0.510171 -0.103762,-0.03411 -0.17794,-0.03411 -0.267563,0.01984 -0.06393,0.03948 -0.115032,0.104449 -0.180382,0.140443 -0.13818,0.07449 -0.307201,0.06372 -0.440168,-0.0117 -0.280204,-0.161889 -0.600108,-0.308348 -0.843189,-0.529558 -0.185622,-0.169061 -0.291844,-0.40984 -0.47612,-0.568592 -0.14721,-0.124927 -0.355764,-0.165831 -0.497735,-0.295962 -0.127953,-0.11783 -0.241865,-0.256207 -0.32001,-0.413881 -0.0972,-0.19661 -0.144641,-0.430302 -0.254552,-0.618756 -0.101218,-0.174098 -0.322471,-0.20587 -0.428798,-0.379958 -0.0639,-0.107603 -0.132964,-0.347294 -0.127927,-0.470238 0.0063,-0.147541 0.133066,-0.180382 0.240618,-0.241764"
       style="fill:#370f1f;fill-opacity:1;fill-rule:nonzero;stroke:none;stroke-width:0.0102436"
       id="path463" /></g></svg>
