<?xml version="1.0" encoding="UTF-8" standalone="no"?>
<!-- Generator: Adobe Illustrator 16.0.0, SVG Export Plug-In . SVG Version: 6.00 Build 0)  -->

<svg
   version="1.1"
   id="Layer_1"
   x="0px"
   y="0px"
   width="293.457"
   height="88.473"
   viewBox="0 0 293.45701 88.472999"
   enable-background="new 0 0 355.666 89.333"
   xml:space="preserve"
   sodipodi:docname="steam_b.svg"
   inkscape:version="1.2.2 (b0a8486541, 2022-12-01)"
   xmlns:inkscape="http://www.inkscape.org/namespaces/inkscape"
   xmlns:sodipodi="http://sodipodi.sourceforge.net/DTD/sodipodi-0.dtd"
   xmlns="http://www.w3.org/2000/svg"
   xmlns:svg="http://www.w3.org/2000/svg"><defs
   id="defs25">
	
	
	
	
	
	
	
	
	
</defs><sodipodi:namedview
   id="namedview23"
   pagecolor="#ffffff"
   bordercolor="#999999"
   borderopacity="1"
   inkscape:showpageshadow="0"
   inkscape:pageopacity="0"
   inkscape:pagecheckerboard="0"
   inkscape:deskcolor="#d1d1d1"
   showgrid="false"
   inkscape:zoom="2.6418009"
   inkscape:cx="174.50217"
   inkscape:cy="43.909441"
   inkscape:window-width="2494"
   inkscape:window-height="1371"
   inkscape:window-x="0"
   inkscape:window-y="0"
   inkscape:window-maximized="1"
   inkscape:current-layer="Layer_1" />
<path
   fill="#c5c3c0"
   d="M 44.084,0 C 20.846,0 1.809,17.918 0,40.689 l 23.71,9.803 c 2.009,-1.374 4.436,-2.179 7.047,-2.179 0.234,0 0.467,0.008 0.698,0.021 L 41.999,33.051 c 0,-0.073 -0.001,-0.144 -0.001,-0.216 0,-9.199 7.483,-16.683 16.683,-16.683 9.199,0 16.682,7.484 16.682,16.683 0,9.199 -7.483,16.684 -16.682,16.684 -0.127,0 -0.253,-0.003 -0.379,-0.006 l -15.038,10.73 c 0.008,0.195 0.015,0.394 0.015,0.592 0,6.906 -5.617,12.522 -12.522,12.522 -6.061,0 -11.129,-4.326 -12.277,-10.055 L 1.524,56.292 c 5.25,18.568 22.309,32.181 42.56,32.181 24.432,0 44.237,-19.806 44.237,-44.235 C 88.321,19.805 68.515,0 44.084,0"
   id="path2"
   style="fill:#494949;fill-opacity:1" /><path
   fill="#c5c3c0"
   d="m 27.721,67.122 -5.434,-2.245 c 0.963,2.005 2.629,3.684 4.841,4.606 4.782,1.992 10.295,-0.277 12.288,-5.063 0.965,-2.314 0.971,-4.869 0.014,-7.189 C 38.475,54.91 36.673,53.1 34.356,52.134 32.057,51.177 29.594,51.212 27.43,52.029 l 5.613,2.321 c 3.527,1.47 5.195,5.52 3.725,9.047 -1.467,3.528 -5.52,5.196 -9.047,3.725"
   id="path4"
   style="fill:#494949;fill-opacity:1" /><path
   fill="#c5c3c0"
   d="m 69.796,32.835 c 0,-6.129 -4.986,-11.116 -11.116,-11.116 -6.129,0 -11.116,4.987 -11.116,11.116 0,6.13 4.987,11.115 11.116,11.115 6.13,-0.001 11.116,-4.986 11.116,-11.115 M 50.348,32.816 c 0,-4.612 3.739,-8.35 8.351,-8.35 4.612,0 8.351,3.738 8.351,8.35 0,4.612 -3.739,8.35 -8.351,8.35 -4.612,0 -8.351,-3.739 -8.351,-8.35"
   id="path6"
   style="fill:#494949;fill-opacity:1" />
<text
   xml:space="preserve"
   style="font-size:39.9294px;line-height:1.25;font-family:sans-serif;fill:#494949;fill-opacity:1;stroke-width:2.72245"
   x="99.16143"
   y="60.660843"
   id="text359"><tspan
     sodipodi:role="line"
     id="tspan357"
     x="99.16143"
     y="60.660843"
     style="font-style:normal;font-variant:normal;font-weight:bold;font-stretch:semi-condensed;font-size:39.9294px;font-family:'Nimbus Sans Narrow';-inkscape-font-specification:'Nimbus Sans Narrow, Bold Semi-Condensed';font-variant-ligatures:normal;font-variant-caps:normal;font-variant-numeric:normal;font-variant-east-asian:normal;fill:#494949;fill-opacity:1;stroke-width:2.72245">DOWNLOAD</tspan></text></svg>
