<?xml version="1.0" encoding="UTF-8" standalone="no"?>
<!-- Generator: Adobe Illustrator 16.0.0, SVG Export Plug-In . SVG Version: 6.00 Build 0)  -->

<svg
   version="1.1"
   id="Layer_1"
   x="0px"
   y="0px"
   width="293.457"
   height="88.473"
   viewBox="0 0 293.45701 88.472999"
   enable-background="new 0 0 355.666 89.333"
   xml:space="preserve"
   sodipodi:docname="download_itch.svg"
   inkscape:version="1.4.2 (2aeb623e1d, 2025-05-12)"
   xmlns:inkscape="http://www.inkscape.org/namespaces/inkscape"
   xmlns:sodipodi="http://sodipodi.sourceforge.net/DTD/sodipodi-0.dtd"
   xmlns="http://www.w3.org/2000/svg"
   xmlns:svg="http://www.w3.org/2000/svg"><defs
   id="defs25">
	
	
	
	
	
	
	
	
	
</defs><sodipodi:namedview
   id="namedview23"
   pagecolor="#ffffff"
   bordercolor="#999999"
   borderopacity="1"
   inkscape:showpageshadow="0"
   inkscape:pageopacity="0"
   inkscape:pagecheckerboard="0"
   inkscape:deskcolor="#d1d1d1"
   showgrid="false"
   inkscape:zoom="2.6418009"
   inkscape:cx="174.50217"
   inkscape:cy="74.191814"
   inkscape:window-width="1594"
   inkscape:window-height="968"
   inkscape:window-x="26"
   inkscape:window-y="23"
   inkscape:window-maximized="0"
   inkscape:current-layer="Layer_1" />
<path
   color="#000000"
   d="M 17.718503,8.3956168 C 14.215924,10.475227 7.3146393,18.403969 7.2485394,20.483216 v 3.442289 c 0,4.363333 4.0785916,8.197863 7.7809226,8.197863 4.445413,0 8.149922,-3.684898 8.150649,-8.058036 0,4.372775 3.577398,8.058036 8.023897,8.058036 4.446139,0 7.908767,-3.684898 7.908767,-8.058036 0,4.372775 3.80257,8.058036 8.247981,8.058036 h 0.0799 c 4.445413,0 8.251615,-3.684898 8.251615,-8.058036 0,4.372775 3.461174,8.058036 7.906587,8.058036 4.445413,0 8.022808,-3.684898 8.022808,-8.058036 0,4.372775 3.70451,8.058036 8.149923,8.058036 3.700877,0 7.779473,-3.834168 7.779473,-8.197863 V 20.483216 C 87.482054,18.403969 80.581498,10.475227 77.080374,8.3956168 66.195648,8.0131806 58.644986,7.9474436 47.397075,7.9488963 36.153163,7.9496227 20.815761,8.1250419 17.717777,8.3956168 Z M 39.056844,30.068455 a 9.1741103,9.1741103 0 0 1 -1.564609,2.014236 9.2932363,9.2932363 0 0 1 -6.515581,2.658531 c -2.536863,0 -4.850729,-1.016924 -6.528653,-2.659257 -0.606524,-0.595627 -1.067771,-1.232658 -1.492702,-1.974286 v 0.0014 c -0.421296,0.743082 -1.013293,1.379386 -1.619814,1.97574 a 9.3208385,9.3208385 0 0 1 -6.526478,2.65744 c -0.305076,0 -0.621048,-0.08353 -0.87891,-0.170697 -0.355926,3.722669 -0.508464,7.278273 -0.560763,9.875063 v 0.01453 c -0.0073,1.31837 -0.01271,2.400668 -0.01961,3.904263 0.06901,7.812159 -0.77359,25.314154 3.443016,29.614289 6.53374,1.525386 18.556691,2.219075 30.620317,2.222706 h 0.0011 c 12.062905,-0.0037 24.086582,-0.69732 30.620319,-2.219074 4.216606,-4.300861 3.374011,-21.802857 3.443016,-29.612473 -0.0062,-1.503595 -0.01235,-2.586619 -0.01925,-3.904263 v -0.01453 c -0.05448,-2.593885 -0.2052,-6.150578 -0.562938,-9.872521 -0.257862,0.08716 -0.57638,0.171787 -0.882546,0.171787 a 9.3266496,9.3266496 0 0 1 -6.528289,-2.657077 c -0.608341,-0.597444 -1.198518,-1.233748 -1.620907,-1.97574 l -0.0018,-0.0026 c -0.423838,0.740901 -0.885451,1.379022 -1.493789,1.974286 -1.677927,1.641606 -3.99143,2.65853 -6.527566,2.65853 -2.536136,0 -4.837654,-1.016924 -6.515578,-2.65853 a 9.2351258,9.2351258 0 0 1 -1.565339,-2.014237 9.1468714,9.1468714 0 0 1 -1.549356,2.014237 9.324107,9.324107 0 0 1 -6.530106,2.65853 c -0.08862,0 -0.177964,-0.0037 -0.265129,-0.0072 h -0.0029 c -0.08825,0.0037 -0.176508,0.0072 -0.265126,0.0072 -2.537225,0 -4.85109,-1.016924 -6.52938,-2.65853 a 9.1377918,9.1377918 0 0 1 -1.550783,-2.013436 z m -6.705165,8.670369 -7.25e-4,0.0029 h 0.0072 c 2.654902,0.0058 5.015619,0 7.935643,3.189874 2.302608,-0.240793 4.703273,-0.361734 7.111205,-0.357739 h 0.0037 c 2.407932,-0.0037 4.8086,0.119851 7.111207,0.359555 2.923659,-3.188784 5.280745,-3.181521 7.935643,-3.188784 h 0.0072 v -0.0037 c 1.256627,0 6.272243,0 9.769736,9.820584 l 3.758265,13.47425 c 2.783862,10.023989 -0.890866,10.270955 -5.47429,10.278219 -6.798867,-0.250599 -10.561485,-5.189945 -10.561485,-10.125659 -3.76262,0.617416 -8.153555,0.926125 -12.542675,0.926125 h -0.0018 c -4.38948,0 -8.778959,-0.308709 -12.540856,-0.926125 0,4.935714 -3.762619,9.871429 -10.56076,10.125659 -4.58342,-0.0072 -8.258879,-0.25423 -5.474318,-10.274566 l 3.755355,-13.47425 c 3.497507,-9.820583 8.516754,-9.820583 9.76975,-9.820583 z m 15.050481,7.717729 v 0.0026 c -0.0062,0.0062 -7.155514,6.572238 -8.440471,8.907533 l 4.681483,-0.187405 v 4.082223 c 0,0.1914 1.879132,0.113678 3.758988,0.02687 h 0.0026 c 1.880223,0.08717 3.758988,0.164525 3.758988,-0.02652 v -4.082223 l 4.681484,0.186677 C 54.56024,53.030985 47.404724,46.45911 47.404724,46.45911 v -0.0022 l -7.26e-4,7.27e-4 z"
   id="path2-3"
   style="fill:#494949;fill-opacity:1;stroke-width:0.363187" />
<text
   xml:space="preserve"
   style="font-size:39.9294px;line-height:1.25;font-family:sans-serif;fill:#494949;fill-opacity:1;stroke-width:2.72245"
   x="99.16143"
   y="60.660843"
   id="text359"><tspan
     sodipodi:role="line"
     id="tspan357"
     x="99.16143"
     y="60.660843"
     style="font-style:normal;font-variant:normal;font-weight:bold;font-stretch:semi-condensed;font-size:39.9294px;font-family:'Nimbus Sans Narrow';-inkscape-font-specification:'Nimbus Sans Narrow, Bold Semi-Condensed';font-variant-ligatures:normal;font-variant-caps:normal;font-variant-numeric:normal;font-variant-east-asian:normal;fill:#494949;fill-opacity:1;stroke-width:2.72245">DOWNLOAD</tspan></text></svg>
