<?xml version="1.0" encoding="UTF-8" standalone="no"?>
<!-- Created with Inkscape (http://www.inkscape.org/) -->

<svg
   width="145.63023mm"
   height="20.055115mm"
   viewBox="0 0 145.63023 20.055115"
   version="1.1"
   id="svg5"
   inkscape:version="1.2.2 (b0a8486541, 2022-12-01)"
   sodipodi:docname="EnterTheDojo_path.svg"
   xmlns:inkscape="http://www.inkscape.org/namespaces/inkscape"
   xmlns:sodipodi="http://sodipodi.sourceforge.net/DTD/sodipodi-0.dtd"
   xmlns="http://www.w3.org/2000/svg"
   xmlns:svg="http://www.w3.org/2000/svg">
  <sodipodi:namedview
     id="namedview7"
     pagecolor="#ffffff"
     bordercolor="#999999"
     borderopacity="1"
     inkscape:showpageshadow="0"
     inkscape:pageopacity="0"
     inkscape:pagecheckerboard="0"
     inkscape:deskcolor="#d1d1d1"
     inkscape:document-units="mm"
     showgrid="false"
     inkscape:zoom="1.6819304"
     inkscape:cx="299.65568"
     inkscape:cy="128.42386"
     inkscape:window-width="1938"
     inkscape:window-height="1143"
     inkscape:window-x="26"
     inkscape:window-y="23"
     inkscape:window-maximized="0"
     inkscape:current-layer="layer1" />
  <defs
     id="defs2" />
  <g
     inkscape:label="Layer 1"
     inkscape:groupmode="layer"
     id="layer1"
     transform="translate(-32.087137,-4.7457186)">
    <path
       style="color:#000000;font-size:20.2966px;font-family:Karate;-inkscape-font-specification:'Karate, Normal';fill:#ffffff;stroke:none;stroke-width:3.57406;-inkscape-stroke:none"
       d="m 43.916016,3.65625 -1.189454,1.9433594 c -0.05273,0.086121 -0.383682,0.5137546 -0.910156,1.0585937 l -0.0039,0.00391 -0.0039,0.00391 c -0.163812,0.1715202 -0.470327,0.2901371 -0.691407,0.4394531 -0.0516,-0.2340723 -0.109618,-0.5138768 -0.15039,-0.671875 L 40.455078,4.4511719 31.347656,8.171875 32.304687,9.9257813 c 0.0493,0.090391 0.177791,0.3413317 0.351563,0.6953127 l 0.0039,0.0059 0.002,0.0059 c 0.15865,0.317299 0.334203,0.695804 0.521485,1.132812 l 0.720703,-1.429687 -0.244141,1.982421 -0.367187,-0.291015 c 0.17117,0.431541 0.179681,0.530945 0.296875,0.863281 l -0.0098,0.07422 c 0.01823,0.0046 0.02084,0.0021 0.03711,0.0059 0.06871,0.197314 0.133853,0.377607 0.181641,0.529297 l -0.162109,0.0332 0.158203,3.527344 c 0.08834,0.0098 0.193534,0.01955 0.34375,0.0332 h 0.0039 0.0039 c 0.01607,0.0014 0.06292,0.0061 0.08203,0.0078 -0.02197,0.891062 -0.110773,1.795767 -0.240235,2.708985 -0.08449,0.04852 -0.231645,0.131002 -0.298828,0.169922 -0.124376,0.07205 -0.218042,0.127368 -0.294922,0.173828 -0.03844,0.02323 -0.06674,0.04088 -0.123047,0.07813 -0.02815,0.01862 -0.05018,0.02714 -0.158203,0.115234 -0.027,0.02202 -0.06036,0.04851 -0.113281,0.09961 -0.05293,0.0511 -0.253729,0.308322 -0.253906,0.308593 -8.9e-5,1.36e-4 -0.228488,0.507711 -0.228516,0.507813 -1.4e-5,5.1e-5 -0.06445,0.527301 -0.06445,0.527344 10e-7,4.2e-5 0.181624,0.728481 0.181641,0.728515 1.6e-5,3.4e-5 0.488249,0.611303 0.488281,0.611328 1.4e-5,1.2e-5 0.115953,0.06393 0.228515,0.126953 l -0.970703,3.396485 3.859375,-2.28125 c 0.329908,-0.194946 0.5692,-0.385137 0.94336,-0.681641 l 0.002,-0.002 0.002,-0.002 c 0.269821,-0.214858 0.533036,-0.507432 0.796875,-0.771484 0.499947,-0.03581 1.028896,-0.07813 1.349609,-0.07813 0.448669,0 0.833039,0.01582 1.142578,0.04297 l 0.01758,0.002 0.01563,0.002 c 0.297755,0.02053 0.639832,0.06462 1.021484,0.138671 l 0.01367,0.0039 0.01367,0.002 c 0.529678,0.0944 0.947718,0.234601 1.267578,0.394531 0.432025,0.216013 0.713194,0.406241 0.771484,0.455078 l 0.0098,0.0059 0.0098,0.0078 c 0.220358,0.179765 0.370722,0.344944 0.267579,0.224609 l 1.628906,1.902344 5.226562,-8.898437 -2.792968,-0.267578 c -0.153404,-0.01461 -0.413699,-0.03711 -0.798829,-0.07031 l 0.03125,0.0039 c -0.419597,-0.04341 -0.898856,-0.07811 -1.439453,-0.105468 -0.497035,-0.03106 -1.077492,-0.04081 -1.689453,-0.04492 -0.0089,-0.03813 -0.03125,-0.134819 -0.03125,-0.134766 h 3.574219 c 0,-0.02464 0.02315,-0.379995 0.08203,-0.853515 l 0.002,-0.02149 c 0.07048,-0.505961 0.142437,-1.004707 0.212891,-1.498047 l 0.002,-0.01953 c 0.07779,-0.506007 0.13488,-0.884403 0.169922,-1.136719 l 0.193359,-1.384765 c 0.05555,-0.02933 0.164411,-0.07076 0.216797,-0.09961 l 2.072266,-1.142578 z m 0.427734,5.5097656 0.171875,0.171875 c -0.24858,0.097252 -0.505334,0.1298877 -0.755859,0.2089844 0.176682,-0.1484884 0.423512,-0.215703 0.583984,-0.3808594 z m -6.439453,0.1875 c 0.03593,0.2184642 0.07184,0.3783055 0.107422,0.625 l 0.203125,1.4003904 0.05273,0.642578 c 0.03555,0.432515 0.05273,0.872443 0.05273,1.320313 0,0.28518 -0.0089,0.490396 -0.01172,0.521484 l -0.08398,0.923828 -0.146484,0.644532 c -0.03614,0.158851 -0.119407,0.264413 -0.160156,0.417968 l -0.140625,-1.054687 -0.05469,-0.970703 -0.107422,-0.0098 c -0.01392,-0.07613 -0.01741,-0.113016 -0.0332,-0.197265 l -0.002,-0.01953 -0.0039,-0.01953 c -0.06905,-0.32902 -0.284996,-0.843045 -0.41211,-1.232422 l 0.142579,-0.0332 -0.753907,-1.759766 -0.220703,-0.5566402 z m -3.566406,0.1210938 0.01563,0.00195 c -0.0031,-3.844e-4 0.01888,0.0043 0.01758,0.00391 -0.01029,-0.00122 -0.02284,-0.00469 -0.0332,-0.00586 z m 7.134765,7.2636716 c -0.0012,1.32e-4 -0.0027,0.0018 -0.0039,0.002 -0.0039,4.57e-4 -0.0098,-4.6e-4 -0.01367,0 z m 0.712891,2.771485 0.02734,0.0059 c -0.0054,-0.001 -0.01024,-9.14e-4 -0.01563,-0.002 -0.0042,-7.58e-4 -0.0075,-0.0032 -0.01172,-0.0039 z m 2.216797,0.708984 c 0.128528,0.0024 0.247538,0.006 0.367187,0.0098 l -0.08984,0.15625 c -0.093,-0.04887 -0.154891,-0.108696 -0.253906,-0.158204 -0.0072,-0.0036 -0.01624,-0.0042 -0.02344,-0.0078 z"
       id="path442" />
    <path
       style="color:#000000;font-size:20.2966px;font-family:Karate;-inkscape-font-specification:'Karate, Normal';fill:#ffffff;stroke:none;stroke-width:3.57406;-inkscape-stroke:none"
       d="M 60.712891,5.3730469 56.296875,9.2773438 C 55.83548,9.685088 55.415287,10.182703 54.851562,10.892578 l -0.002,0.0039 -0.0039,0.0039 c -0.324601,0.413866 -0.50333,0.97793 -0.757812,1.46289 -0.0209,-0.007 -0.0395,-0.01849 -0.06055,-0.02539 -0.009,-0.08012 -0.01357,-0.162414 -0.02344,-0.242188 -0.04899,-0.44784 -0.09828,-0.817614 -0.15625,-1.140625 l 0.0098,0.04883 c -0.04158,-0.27724 -0.06764,-0.449752 -0.109375,-0.644531 l -0.433594,-2.0214844 -8.304687,3.0957034 0.314453,0.449219 -4.455078,0.740234 6.242187,2.341797 c -0.0333,-0.01249 0.059,0.02718 0.0957,0.04297 0.20522,0.468144 0.429646,0.963606 0.472656,1.232421 v 0.002 0.0039 c 0.03105,0.190189 0.05664,0.496211 0.05664,0.890625 0,0.666098 -0.05959,1.371233 -0.183594,2.115234 l -0.002,0.0059 -0.002,0.0078 c -0.126597,0.79756 -0.254869,1.447213 -0.375,1.927734 l -0.002,0.0078 v 0.0059 c -0.129654,0.538054 -0.229279,0.922588 -0.279297,1.097656 l -1.439453,5.03711 4.21875,-3.107422 c 0.265867,-0.195902 0.470904,-0.386596 0.78125,-0.675781 l 0.002,-0.002 c 0.401095,-0.374356 0.794784,-0.822573 1.232422,-1.375 l 0.002,-0.0059 0.0039,-0.0039 c 0.508302,-0.64996 0.954873,-1.408221 1.373047,-2.28125 l 0.002,-0.002 0.002,-0.0039 c 0.03155,-0.06641 0.03617,-0.147662 0.06641,-0.214844 0.0089,0.01688 0.01651,0.02001 0.02539,0.03711 0.226697,0.818922 0.47845,1.613778 0.791016,2.34961 l 0.0039,0.0098 0.0039,0.0078 c 0.330339,0.755059 0.583191,1.307105 0.789063,1.710937 l 0.894531,1.75586 6.705078,-4.291016 -1.3125,-1.558594 c -0.09668,-0.11481 -0.273229,-0.328395 -0.521484,-0.628906 -8.36e-4,-0.001 -0.0011,-9.4e-4 -0.002,-0.002 -0.210752,-0.268341 -0.430832,-0.558641 -0.660156,-0.867188 -0.272562,-0.555798 -0.593944,-1.119444 -0.949219,-1.689453 -0.11018,-0.369949 -0.201172,-0.914096 -0.201172,-1.666015 0,-0.784672 0.06222,-1.516809 0.181641,-2.199219 0.139997,-0.762035 0.258327,-1.316958 0.324218,-1.566406 z M 47.908203,11.494141 c -0.0182,0 -0.04815,0.0058 -0.06641,0.0059 -0.03293,0.0022 -0.05808,-0.0015 -0.0957,0.002 z m 2.611328,1.699218 c 0.01411,0.161807 0.03488,0.320028 0.04492,0.484375 l -0.210937,-0.421875 z m 3.509766,3.615235 -0.01172,0.0625 c 0.0032,-0.01523 0.0028,-0.0318 0.0059,-0.04687 9.9e-4,-0.0057 0.0049,-0.01 0.0059,-0.01563 z"
       id="path444" />
    <path
       style="color:#000000;font-size:20.2966px;font-family:Karate;-inkscape-font-specification:'Karate, Normal';fill:#ffffff;stroke:none;stroke-width:3.57406;-inkscape-stroke:none"
       d="m 60.626953,8.7695313 -3.914062,6.4023437 2.28125,0.634766 c 0.445032,0.12362 1.022421,0.250187 1.802734,0.40625 l 0.0078,0.002 0.0078,0.002 c 0.312368,0.05976 0.627785,0.05146 0.941406,0.08984 -0.01831,0.06083 -0.04537,0.214233 -0.0625,0.265625 v 0.0039 l -0.002,0.0059 c -0.301629,0.922289 -0.650973,1.619793 -0.994141,2.09961 -2.6e-4,3.64e-4 2.61e-4,0.0016 0,0.002 -0.451263,0.623365 -0.813485,1.050374 -0.914062,1.148437 l -1.800781,1.75586 7.195312,3.58789 0.847656,-1.427734 c 0.203569,-0.342365 0.417603,-0.768124 0.703125,-1.359375 0.335174,-0.686171 0.646156,-1.487074 0.953125,-2.427735 0.343359,-1.030076 0.53711,-2.021736 0.53711,-2.992187 v -0.02344 -0.02344 c -0.01393,-0.529406 -0.212789,-1.155596 -0.330078,-1.732422 0.579757,-0.270817 1.172966,-0.504064 1.732422,-0.830078 h 0.002 l 0.002,-0.002 c 0.941181,-0.551263 1.632999,-0.974856 2.128906,-1.310547 L 70.267578,9.8476563 c -0.292074,0.082146 -0.991251,0.2322677 -1.970703,0.4062497 h -0.002 c -0.557048,0.0996 -1.263718,0.114662 -1.931641,0.152344 -0.0057,-0.01176 -0.01186,-0.02739 -0.01758,-0.03906 l -0.0059,-0.01172 C 66.179756,10.02246 66.068134,9.7868566 66.013672,9.671875 l -2.1875,0.492188 C 63.604664,10.094932 63.339827,10.038115 63.150391,9.9609375 62.635779,9.7512806 62.262644,9.5873768 62.095703,9.5039063 Z"
       id="path446" />
    <path
       style="color:#000000;font-size:20.2966px;font-family:Karate;-inkscape-font-specification:'Karate, Normal';fill:#ffffff;stroke:none;stroke-width:3.57406;-inkscape-stroke:none"
       d="m 77.347656,7.7480469 -1.183594,1.9355469 c -0.0057,0.00937 -0.243147,0.3024491 -0.521484,0.6132812 L 75.15625,8.4375 l -7.787109,3.183594 0.992187,1.763672 c 0.02653,0.04717 0.116404,0.219136 0.236328,0.458984 l 0.0039,0.0078 0.0039,0.0078 c 0.09172,0.178606 0.223437,0.465547 0.376953,0.833984 l 1.001953,-1.890625 -0.181641,2.578125 -0.152343,0.03125 -0.544922,-0.417968 c 0.08398,0.184398 0.104334,0.323764 0.169922,0.496093 l -1.373047,0.285157 1.669922,0.583984 c 0.01163,0.04893 0.04477,0.11459 0.05469,0.162109 l 0.01758,0.08398 0.02539,0.08398 c 0.01041,0.03332 0.02069,0.11688 0.03125,0.181641 l 0.04687,1.580078 c -0.01134,0.551452 -0.08435,1.183928 -0.16211,1.824219 -0.0087,0.0049 -0.02665,0.01473 -0.03516,0.01953 -0.107701,0.06083 -0.185692,0.104135 -0.314453,0.191406 -0.06438,0.04363 -0.104253,0.02085 -0.371094,0.322266 -0.03336,0.03768 -0.07252,0.08416 -0.117187,0.146484 -0.04467,0.06233 -0.152053,0.253316 -0.152344,0.253906 -2.9e-4,5.91e-4 -0.156163,0.478024 -0.15625,0.478516 -8.7e-5,4.92e-4 0.04676,0.817966 0.04687,0.818359 1.16e-4,3.94e-4 0.499681,0.808299 0.5,0.808594 6.1e-5,5.6e-5 0.07713,0.04724 0.111328,0.06836 l -0.160156,0.841797 -0.002,0.0039 h 0.002 l -0.386719,2.044921 3.34375,-1.880859 c 0.329095,-0.185116 0.496337,-0.328218 0.78125,-0.554687 l 0.002,-0.002 0.002,-0.002 c 0.176842,-0.141473 0.337948,-0.334094 0.50586,-0.498047 0.279795,-0.02074 0.562602,-0.05078 0.835937,-0.05078 0.625304,0 1.151661,0.04758 1.56836,0.126953 h 0.0039 0.002 c 0.350866,0.06549 0.6214,0.161662 0.826172,0.267578 l 0.0098,0.0059 0.01172,0.0059 c 0.313391,0.156695 0.502644,0.294569 0.482422,0.277344 l 0.01563,0.01172 0.01367,0.01172 c 0.140697,0.114641 0.22895,0.227535 0.103516,0.07422 l 1.621093,1.980469 4.626954,-7.839844 -2.632813,-0.277344 c 0.0092,-0.01328 0.02804,-0.279681 0.103516,-0.824218 0.09218,-0.66498 0.166041,-1.201985 0.224609,-1.605469 l 0.115234,-0.796875 2.09375,-1.091797 z m -4.765625,5.6015621 0.16211,1.082032 -0.408204,-0.980469 z"
       id="path448" />
    <path
       style="color:#000000;font-size:20.2966px;font-family:Karate;-inkscape-font-specification:'Karate, Normal';fill:#ffffff;stroke:none;stroke-width:3.57406;-inkscape-stroke:none"
       d="m 82.677734,8.9746094 0.04102,0.4414062 c -0.01597,-1.142e-4 -0.03906,-0.00195 -0.05469,-0.00195 -0.254379,0 -0.480193,0.00195 -0.683593,0.00977 h -0.002 l -0.002,0.00195 c -0.180356,0.00722 -0.286191,0.0099 -0.460937,0.029297 l -0.06055,0.6660154 -3.671875,1.427735 0.857422,1.748046 c 0.147551,0.300567 0.378036,0.817834 0.667969,1.513672 0.260409,0.624982 0.439823,1.197302 0.544922,1.707031 l 0.002,0.0098 0.002,0.0098 c 0.07273,0.333698 0.126953,0.864318 0.126953,1.550782 0,0.348389 -0.02318,0.893943 -0.07422,1.595703 l 0.828125,-1.154297 0.134766,1.890625 c -0.04532,0.06064 -0.08477,0.112495 -0.126953,0.167969 l -0.855469,-0.765625 c -0.0491,0.583121 -0.115008,1.113926 -0.197266,1.589843 -0.09071,0.52483 -0.161225,0.894113 -0.193359,1.041016 l -1.472656,6.730469 4.558593,-5.166016 c 0.14468,-0.163969 0.311037,-0.36785 0.539063,-0.654297 l 0.0059,-0.0078 c 0.269075,-0.32925 0.572037,-0.730859 0.921875,-1.214844 l 0.0039,-0.0059 c 0.241217,-0.327946 0.460468,-0.68666 0.685546,-1.03711 0.157003,-0.04229 0.331145,-0.09417 0.498047,-0.142578 0.239988,0.252172 0.515265,0.482747 0.707032,0.767578 l 0.0078,0.0098 0.0059,0.0098 c 0.36061,0.520223 0.591839,0.93572 0.6875,1.160157 l 0.002,0.0039 0.002,0.0059 c 0.153391,0.353979 0.224015,0.665689 0.179687,0.421875 l 0.34375,1.896485 7.683594,-2.009766 -1.052734,-1.992187 C 93.569037,20.778321 93.283967,20.39869 92.873047,19.869141 92.376535,19.211837 91.76096,18.612218 91.039062,18.046875 l -0.0039,-0.002 c -0.04171,-0.0331 -0.113756,-0.03665 -0.15625,-0.06836 0.634576,-0.716985 1.103516,-1.636513 1.103516,-2.632812 0,-1.255464 -0.459119,-2.519678 -1.328125,-3.423828 -0.757225,-0.800314 -1.716497,-1.391587 -2.783203,-1.75 C 87.261023,9.9648893 86.585538,9.8834459 85.92774,9.7675311 85.91377,9.7478701 85.87896,9.6933721 85.87891,9.6933121 85.878785,9.6931669 85.484493,9.355494 85.484379,9.3554215 c -5.7e-5,-3.63e-5 -0.392524,-0.1874819 -0.392578,-0.1875 -5.5e-5,-1.82e-5 -0.564402,-0.091797 -0.564453,-0.091797 H 84.193359 L 83.294922,9.421875 Z m 0.382813,4.3554686 c 0.04562,0.597657 0.08594,1.18208 0.08594,1.566406 0,0.08158 -0.01603,0.109809 -0.01758,0.1875 -0.143934,-0.524594 -0.27998,-1.04694 -0.501953,-1.585937 z m 4.957031,1.021485 c 0.01156,0.01187 0.03353,0.01527 0.04492,0.02734 l 0.0078,0.0078 0.0078,0.0078 c 0.236543,0.244991 0.330078,0.437295 0.330078,0.949219 0,0.01703 -0.08593,0.125806 -0.126953,0.191406 0.0035,-0.05314 0.04163,-0.09464 0.04297,-0.148437 l 0.002,-0.02149 v -0.02148 c 0,-0.36257 -0.215058,-0.656875 -0.308594,-0.992187 z"
       id="path450" />
    <path
       style="color:#000000;font-size:20.2966px;font-family:Karate;-inkscape-font-specification:'Karate, Normal';fill:#ffffff;stroke:none;stroke-width:3.57406;-inkscape-stroke:none"
       d="m 98.335937,8.7695313 -3.914062,6.4023437 2.28125,0.634766 c 0.445033,0.12362 1.022422,0.250187 1.802734,0.40625 l 0.0078,0.002 0.0078,0.002 c 0.313011,0.05988 0.629092,0.05142 0.94336,0.08984 -0.01831,0.06085 -0.04537,0.214223 -0.0625,0.265625 l -0.002,0.0039 -0.002,0.0059 c -0.301633,0.922292 -0.650972,1.61979 -0.99414,2.09961 -2.61e-4,3.64e-4 2.61e-4,0.0016 0,0.002 -0.451264,0.623365 -0.813485,1.050374 -0.914063,1.148437 l -1.800781,1.75586 7.195315,3.58789 0.84765,-1.427734 c 0.20451,-0.34394 0.41956,-0.769735 0.70703,-1.365235 0.33426,-0.68509 0.64298,-1.48344 0.94922,-2.421875 0.34336,-1.030076 0.53711,-2.021736 0.53711,-2.992187 v -0.02344 -0.02344 c -0.0139,-0.529406 -0.21279,-1.155597 -0.33008,-1.732422 0.57976,-0.270817 1.17297,-0.504064 1.73243,-0.830078 h 0.002 l 0.002,-0.002 c 0.94118,-0.551263 1.63495,-0.974857 2.13086,-1.310547 l -1.48633,-3.1992187 c -0.29207,0.082146 -0.98929,0.2322677 -1.96875,0.4062497 h -0.002 c -0.55765,0.09971 -1.26483,0.116644 -1.93359,0.154297 -0.006,-0.01225 -0.0116,-0.02886 -0.0176,-0.04101 l -0.006,-0.01172 c -0.16009,-0.333019 -0.27167,-0.5685376 -0.32617,-0.683594 l -2.1875,0.492188 c -0.22151,-0.06913 -0.48635,-0.125948 -0.67578,-0.2031255 -0.51461,-0.209657 -0.887747,-0.3735593 -1.054691,-0.4570312 z m 3.423833,5.5234377 0.12695,0.408203 c 0.18205,0.588175 0.19748,0.91923 0.27148,1.347656 l -0.28711,0.240234 z m -0.0781,2.15039 c 0.001,-8.5e-5 0.003,8.6e-5 0.004,0 l -0.004,0.0039 z"
       id="path452" />
    <path
       style="color:#000000;font-size:20.2966px;font-family:Karate;-inkscape-font-specification:'Karate, Normal';fill:#ffffff;stroke:none;stroke-width:3.57406;-inkscape-stroke:none"
       d="m 119.13867,6.6855469 -3.76367,2.78125 c -0.36694,0.2712158 -0.59999,0.522242 -0.95703,0.9003911 -5.7e-4,5.91e-4 -10e-4,0.0014 -0.002,0.002 -0.25875,0.269104 -0.48738,0.671396 -0.72266,1.005859 -0.0151,-0.2602 -0.0295,-0.562674 -0.0449,-0.732422 l -0.20899,-2.298828 -8.67968,3.107422 0.96093,1.822266 c 0.15603,0.295919 0.40524,0.819151 0.72071,1.527343 l 0.002,0.0078 0.004,0.0059 c 0.20781,0.457199 0.30504,0.822486 0.41211,1.193359 l -0.0703,0.02148 0.34571,2.361328 c -0.0142,0.738882 -0.0542,1.464521 -0.16211,2.158203 l -0.002,0.0059 v 0.0078 c -0.12909,0.871378 -0.24111,1.504154 -0.3125,1.820312 l -1.06445,4.714844 3.875,-2.888672 c 0.6371,-0.474937 1.15656,-1.075545 1.85352,-1.939453 l 0.002,-0.0039 c 0.0999,-0.122769 0.12747,-0.327318 0.2207,-0.457031 0.0774,0.548929 0.15133,1.072144 0.21289,1.398437 l 0.39844,2.113281 8.69141,-3.376953 -1.41407,-1.884765 c -0.0332,-0.04423 -0.15683,-0.223624 -0.24609,-0.351563 h 0.23633 v -1.787109 c 0,-1.55e-4 -0.11127,-0.620939 -0.11133,-0.621094 -4e-5,-1.06e-4 -0.0933,-0.17377 -0.16406,-0.304687 -0.004,-0.02233 -0.0117,-0.0534 -0.0117,-0.06445 0,0.02774 -0.002,-0.0041 0.0234,-0.08789 l 0.0762,-0.251953 v -0.265625 c 0,-0.179048 0.0269,-0.282659 0.0723,-0.38086 l 0.004,-0.0059 0.002,-0.0059 c 0.13534,-0.298869 0.26065,-0.492664 0.21485,-0.429688 l 3.16211,-4.349609 -4.72071,1.46289 c 0.087,-0.593971 0.1708,-1.127975 0.2168,-1.349609 z m -8.94726,6.6171871 c 0.002,0.133835 0.01,0.233963 0.01,0.375 0,0.391118 -0.0395,0.624707 -0.0547,0.960938 -0.12969,-0.390602 -0.22393,-0.773664 -0.40234,-1.175781 z m 8.70312,3.38086 c 0.004,0.0042 0.0277,0.0097 0.0312,0.01367 0.027,0.02972 0.0171,0.02839 0.0371,0.05273 -0.026,-0.02495 -0.0351,-0.0345 -0.0684,-0.06641 z m -3.96289,2.664062 c 0.10413,0.233972 0.17028,0.466162 0.29688,0.703125 0.04,0.07487 0.0759,0.125134 0.11523,0.197266 l -0.34961,0.134765 c -0.0311,-0.337206 -0.051,-0.682793 -0.0625,-1.035156 z"
       id="path454" />
    <path
       style="color:#000000;font-size:20.2966px;font-family:Karate;-inkscape-font-specification:'Karate, Normal';fill:#ffffff;stroke:none;stroke-width:3.57406;-inkscape-stroke:none"
       d="m 125.40234,7.7480469 -1.18359,1.9355469 c -0.006,0.00936 -0.24315,0.3024491 -0.52148,0.6132812 l -0.48633,-1.859375 -7.78711,3.183594 0.99219,1.763672 c 0.0265,0.04714 0.1164,0.219142 0.23632,0.458984 l 0.006,0.0078 0.004,0.0078 c 0.0917,0.178628 0.22147,0.465536 0.375,0.833984 l 1.00195,-1.886718 -0.18359,2.589843 -0.13477,0.02734 -0.56054,-0.429687 c 0.25847,0.567527 0.42788,1.07907 0.52148,1.527343 l 0.0176,0.08398 0.0254,0.08398 c 0.0107,0.03416 0.0205,0.118211 0.0312,0.185547 l 0.0488,1.564453 c -0.011,0.554408 -0.0838,1.191532 -0.16211,1.835938 -0.009,0.0051 -0.0283,0.01453 -0.0371,0.01953 -0.1077,0.06083 -0.18373,0.104124 -0.3125,0.191406 -0.0644,0.04364 -0.10617,0.02077 -0.37305,0.322266 -0.0334,0.03769 -0.0706,0.08414 -0.11523,0.146484 -0.0447,0.06235 -0.15206,0.253316 -0.15235,0.253906 -2.9e-4,5.91e-4 -0.15616,0.478024 -0.15625,0.478516 -8e-5,4.92e-4 0.0448,0.817966 0.0449,0.818359 1.1e-4,3.94e-4 0.50163,0.808299 0.50195,0.808594 6e-5,5.5e-5 0.0763,0.04596 0.10937,0.06641 l -0.16015,0.845703 v 0.002 l -0.38477,2.044921 3.34375,-1.880859 c 0.32911,-0.185117 0.49438,-0.328217 0.7793,-0.554687 l 0.004,-0.002 0.002,-0.002 c 0.177,-0.141603 0.3378,-0.333922 0.50586,-0.498047 0.27939,-0.02068 0.56298,-0.05078 0.83594,-0.05078 0.6253,0 1.15165,0.04758 1.56835,0.126953 h 0.002 0.004 c 0.35087,0.06549 0.61944,0.161659 0.82422,0.267578 l 0.0117,0.0059 0.01,0.0059 c 0.31338,0.156695 0.50459,0.294571 0.48437,0.277344 l 0.0137,0.01172 0.0156,0.01172 c 0.1407,0.114648 0.22693,0.227438 0.10156,0.07422 l 1.6211,1.980469 4.62695,-7.839844 -2.63086,-0.277344 c 0.009,-0.01332 0.0261,-0.279707 0.10156,-0.824218 0.0922,-0.66497 0.16799,-1.20201 0.22656,-1.605469 l 0.11524,-0.798828 2.09179,-1.089844 z m -4.76562,5.6015621 0.16211,1.078125 -0.40625,-0.978515 z m 0.5,2.273438 0.01,0.03516 h -0.004 c -0.003,-0.01151 -0.002,-0.02366 -0.006,-0.03516 z"
       id="path456" />
    <path
       style="color:#000000;font-size:20.2966px;font-family:Karate;-inkscape-font-specification:'Karate, Normal';fill:#ffffff;stroke:none;stroke-width:3.57406;-inkscape-stroke:none"
       d="m 136.79492,5.0683594 -0.0215,0.1308593 c -0.24737,-0.014638 -0.5533,-0.066406 -0.78125,-0.066406 l -0.47852,2.4804687 -1.0039,1.2910157 h 0.12695 c -0.29533,0.4344502 -0.62085,0.8387176 -0.90235,1.2871089 -0.82478,1.313812 -1.41882,2.616723 -1.74609,3.925782 l -0.004,0.01367 -0.004,0.01563 c -0.23143,0.997559 -0.33203,2.093848 -0.33203,3.306641 0,0.8524 0.0421,1.711368 0.12695,2.574219 v 0.002 c 0.0815,0.821569 0.16367,1.495082 0.25195,2.046875 0.0807,0.504738 0.1385,0.854763 0.18946,1.109375 l 0.38672,1.927734 2.61914,-0.789062 0.0684,0.457031 c 0.64604,-0.0084 1.49048,-0.08548 2.66015,-0.220703 h 0.004 0.006 c 1.31466,-0.159583 2.75761,-0.523757 4.36718,-1.074219 1.77563,-0.607247 3.35912,-1.59947 4.68165,-2.929687 1.47262,-1.481183 2.2246,-3.518744 2.2246,-5.71875 0,-2.05822 -0.63861,-3.972398 -1.93164,-5.4140627 -1.15826,-1.3049608 -2.5862,-2.294524 -4.20709,-2.9082543 -0.74062,-0.2804305 -1.51279,-0.384759 -2.26953,-0.578125 l 0.42774,-0.8457031 h -2.9043 c -1e-4,0 -0.6288,0.115194 -0.62891,0.1152343 -3e-5,1.1e-5 -0.0694,0.037754 -0.11523,0.0625 -0.19864,-0.021473 -0.38588,-0.034676 -0.57227,-0.048828 z m 1.59961,0.7148437 0.2207,0.4492188 -0.24218,-0.1542969 z m 4.73438,4.9746099 c 0.50445,0.335404 1.07815,0.560352 1.50586,1.042968 l 0.002,0.0039 0.004,0.0039 c 0.67465,0.751615 1.01954,1.652856 1.01954,3.029297 0,1.460248 -0.38342,2.394393 -1.1836,3.199218 -0.3611,0.363207 -0.85399,0.500885 -1.25586,0.785157 0.64062,-1.262989 1.01953,-2.639227 1.01953,-4.103516 v -0.0059 -0.0059 c -0.008,-1.271828 -0.29983,-2.5071 -0.87109,-3.617187 -0.0635,-0.125732 -0.17262,-0.209739 -0.24023,-0.332031 z m -3.57422,1.074218 c 0.20938,0.291058 0.45091,0.523672 0.6289,0.876953 l 0.004,0.0059 0.004,0.0078 c 0.31173,0.604931 0.46677,1.243291 0.47265,2.001953 -8.7e-4,1.046684 -0.20611,1.94496 -0.66992,2.761719 -0.005,-0.02677 -0.007,-0.04133 -0.0117,-0.06836 l -0.002,-0.01367 c -0.1519,-0.877922 -0.27284,-1.535326 -0.36524,-1.990234 l -0.002,-0.01172 -0.002,-0.01172 c -0.11443,-0.527357 -0.1875,-1.263612 -0.1875,-2.177734 0,-0.375279 0.10664,-0.956732 0.13086,-1.38086 z m -3.63672,2.128907 c 0.0315,0.767712 0.0585,1.533788 0.19922,2.183593 2.5e-4,0.0012 -2.5e-4,0.0028 0,0.0039 0.0787,0.389112 0.19507,1.017211 0.34375,1.876954 v 0.0078 l 0.002,0.0059 c 0.15059,0.834499 0.26511,1.515208 0.35352,2.072266 l -1.38086,0.416016 c -0.0349,-0.289821 -0.0678,-0.490069 -0.10352,-0.84961 v -0.002 c -0.0736,-0.748576 -0.11133,-1.490028 -0.11133,-2.222656 0,-1.000828 0.0902,-1.830046 0.24024,-2.482422 0.0756,-0.299992 0.32895,-0.683259 0.45703,-1.009765 z"
       id="path458" />
    <path
       style="color:#000000;font-size:20.2966px;font-family:Karate;-inkscape-font-specification:'Karate, Normal';fill:#ffffff;stroke:none;stroke-width:3.57406;-inkscape-stroke:none"
       d="m 154.62305,8.8691406 c -0.79418,0 -1.59788,0.1332305 -2.40235,0.3027344 -0.52936,-0.084018 -1.03234,-0.1542969 -1.49218,-0.1542969 l -0.11915,0.5800782 c -1.30734,0.4983087 -2.4685,1.2608367 -3.36718,2.2890627 v 0.002 c -1.06718,1.222407 -1.53125,2.856653 -1.53125,4.613281 v 0.02148 0.01953 c 0.024,1.046354 0.20483,2.032363 0.5957,2.925781 l 0.004,0.0098 0.004,0.0098 c 0.36495,0.806273 0.8587,1.535719 1.47461,2.142578 l 0.004,0.0039 0.006,0.0059 c 0.54851,0.532614 1.12156,0.976932 1.74609,1.3125 l 0.01,0.0039 0.01,0.0059 c 0.16957,0.08858 0.36933,0.14478 0.54688,0.224609 l 0.29492,1.474609 c 0.78461,-0.01937 1.64726,-0.179247 2.78711,-0.443359 1.43323,-0.330584 2.77112,-1.085969 4.01172,-2.158203 l 0.002,-0.002 c 1.50811,-1.297862 2.24609,-3.278529 2.24609,-5.417969 0,-1.301074 -0.25591,-2.526542 -0.85546,-3.583984 -0.53127,-0.943251 -1.24575,-1.750366 -2.1211,-2.330078 -0.5128,-0.346248 -1.11202,-0.555009 -1.69336,-0.7910161 z m -2.10157,7.0234374 c 0.0437,0.253268 0.1519,0.480909 0.1543,0.755859 -4.7e-4,0.348724 -0.12093,0.542176 -0.16797,0.830079 -0.0389,-0.298257 -0.10605,-0.546641 -0.10937,-0.902344 3e-4,-0.289262 0.091,-0.440316 0.12304,-0.683594 z"
       id="path460" />
    <path
       style="color:#000000;font-size:20.2966px;font-family:Karate;-inkscape-font-specification:'Karate, Normal';fill:#ffffff;stroke:none;stroke-width:3.57406;-inkscape-stroke:none"
       d="m 166.7168,8.1953125 -8.26953,3.0410155 1.21679,1.876953 c 0.17507,0.270098 0.46955,0.785984 0.83985,1.488282 l 0.002,0.002 0.002,0.0039 c 0.31208,0.586494 0.47497,1.079762 0.53516,1.460937 l 0.002,0.0039 v 0.0039 c 0.0304,0.186341 0.0566,0.502608 0.0566,0.912109 0,0.07614 -0.0349,0.236062 -0.0371,0.31836 -0.0662,-0.06817 -0.20096,-0.196784 -0.24414,-0.244141 l -1.39062,-1.525391 -4.60938,5.605469 1.79688,1.060547 c 0.22388,0.132297 0.47682,0.263802 0.82422,0.4375 0.22654,0.113271 0.53994,0.238813 0.81836,0.359375 l -2.16602,1.443359 h 5.90234 c 2.1e-4,0 0.61893,-0.109294 0.61914,-0.109375 2.1e-4,-7.4e-5 0.31811,-0.167691 0.3711,-0.195312 l 0.002,0.0059 c 0.0125,-0.0083 0.014,-0.01181 0.0254,-0.01953 0.002,-0.001 0.002,-9.29e-4 0.004,-0.002 1e-5,-10e-6 0.0121,-0.01044 0.0137,-0.01172 0.12987,-0.08964 0.20438,-0.150072 0.31055,-0.236328 l 0.0254,-0.01953 0.0234,-0.02148 c 0.0297,-0.02596 0.062,-0.05899 0.0918,-0.08594 0.58306,-0.08607 1.17917,-0.139243 1.69922,-0.375 l 0.01,-0.0039 0.008,-0.0039 c 0.5424,-0.253123 0.92145,-0.43377 1.33789,-0.746093 l 3.69531,-2.769532 -3.69531,-0.351562 c 0.39817,-0.907637 0.69269,-1.854552 0.86523,-2.839844 0.11083,-0.622355 0.15625,-1.295092 0.15625,-2.039062 0,-0.949463 -0.055,-1.83238 -0.17382,-2.65625 -0.001,-0.0085 -8.2e-4,-0.0111 -0.002,-0.01953 -0.0997,-0.73663 -0.18388,-1.28446 -0.26367,-1.691406 z m -2.83399,4.8496095 c 0.0193,0.19348 0.029,0.408134 0.041,0.617187 -0.0808,-0.185168 -0.103,-0.373802 -0.19727,-0.558593 z m -3.20703,10.763672 c 0.012,0.0026 0.0251,0.0014 0.0371,0.0039 0.0135,0.0024 0.0275,0.0094 0.041,0.01172 z"
       id="path462" />
    <path
       style="color:#000000;font-size:20.2966px;font-family:Karate;-inkscape-font-specification:'Karate, Normal';fill:#ffffff;stroke:none;stroke-width:3.57406;-inkscape-stroke:none"
       d="m 172.88867,8.8691406 c -0.79427,0 -1.59973,0.1331894 -2.4043,0.3027344 -0.52854,-0.083815 -1.03098,-0.1542969 -1.49023,-0.1542969 L 168.875,9.5976563 c -1.30796,0.4982847 -2.46816,1.2604407 -3.36719,2.2890627 l -0.002,0.002 c -1.06718,1.222407 -1.53125,2.856653 -1.53125,4.613281 v 0.02148 l 0.002,0.01953 c 0.024,1.046354 0.20288,2.032363 0.59375,2.925781 l 0.006,0.0098 0.004,0.0098 c 0.36494,0.806273 0.85869,1.535719 1.47461,2.142578 l 0.004,0.0039 0.006,0.0059 c 0.54851,0.532614 1.12157,0.976932 1.7461,1.3125 l 0.01,0.0039 0.008,0.0059 c 0.16942,0.0885 0.3695,0.144847 0.54688,0.224609 l 0.29492,1.474609 c 0.78461,-0.01937 1.64726,-0.179247 2.78711,-0.443359 1.43323,-0.330585 2.77308,-1.085969 4.01367,-2.158203 l 0.002,-0.002 c 1.50812,-1.297861 2.24414,-3.278526 2.24414,-5.417969 0,-1.301078 -0.25591,-2.52654 -0.85547,-3.583984 -0.53102,-0.942816 -1.24434,-1.748471 -2.11914,-2.328125 -0.51325,-0.346773 -1.11142,-0.556674 -1.69336,-0.7929691 z M 171.75,9.1855469 c -0.006,0.00235 -0.01,0.0074 -0.0156,0.00977 -0.003,0.00119 -0.005,7.498e-4 -0.008,0.00195 z m -0.96289,6.7089841 c 0.0434,0.252634 0.1519,0.479698 0.1543,0.753906 -4.8e-4,0.350302 -0.12052,0.545035 -0.16797,0.833985 -0.0393,-0.29932 -0.10604,-0.548979 -0.10938,-0.90625 3e-4,-0.288464 0.0912,-0.438914 0.12305,-0.681641 z"
       id="path464" />
    <path
       d="m 40.08802,14.025018 6.203941,-1.298269 q -0.04955,0.356776 -0.168477,1.129791 -0.109015,0.763105 -0.21803,1.54603 -0.09911,0.782926 -0.09911,1.10006 0,-0.02973 -0.981134,-0.148657 -0.981135,-0.118925 -2.001911,-0.21803 -1.020776,-0.109014 -3.002866,-0.307223 -0.475702,2.091104 -1.456836,3.75606 2.101015,-0.941493 3.30018,-1.070329 0.842388,-0.0991 2.110925,-0.0991 1.060418,0 1.853254,0.04955 0.792836,0.03964 1.367642,0.09911 0.574806,0.04955 0.782926,0.06937 l -2.537075,4.320956 q -0.118926,-0.138747 -0.495523,-0.445971 -0.366686,-0.307224 -1.11988,-0.683821 -0.753195,-0.376597 -1.75415,-0.554985 -0.664,-0.128836 -1.238806,-0.168477 -0.564896,-0.04955 -1.298269,-0.04955 -0.822567,0 -2.110926,0.118926 -0.614448,0.693731 -1.149612,1.119881 -0.525254,0.416238 -0.743284,0.545074 0.03964,-0.138746 0.118926,-0.554985 0.08919,-0.416239 0.148657,-0.842388 -0.594627,0.0991 -0.911762,0.178388 -0.317134,0.07928 -0.44597,0.118925 -0.02973,0 1.437015,-0.832477 0.386508,-2.210031 0.386508,-4.360598 0,-0.356776 -0.03964,-1.070329 -0.574806,-0.04955 -1.040597,-0.08919 -0.455881,-0.04955 -0.683821,-0.06937 -0.21803,-0.01982 -0.307224,-0.02973 l 1.992,-0.406329 q -0.03964,-0.297313 -0.158567,-0.931582 -0.168478,-0.802746 -0.87212,-2.576717 -0.327044,-0.04955 -0.535164,-0.07928 -0.198209,-0.02973 -0.287403,-0.03964 -0.07928,-0.0099 -0.118925,-0.01982 0.0991,0 0.812657,-0.168478 Q 34.528258,10.368062 34.260676,9.8328977 33.993094,9.2878229 33.874168,9.0697931 l 5.361554,-2.1902094 q 0.07928,0.307224 0.23785,1.0604181 0.158567,0.7531942 0.307224,1.7838809 Q 40.266408,9.575226 40.940319,9.2977334 42.258409,8.78239 43.100797,7.90036 43.953095,7.01833 44.250409,6.532718 l 3.359642,3.3893737 q -0.683821,0.3765973 -2.21003,1.0108663 -1.516299,0.624358 -3.101971,0.862209 -0.743283,0.0991 -1.526209,0.0991 -0.485612,0 -0.723463,-0.01982 0.05946,0.723463 0.05946,1.466747 0,0.465791 -0.01982,0.683821 z"
       id="path393"
       style="font-size:20.2966px;font-family:Karate;-inkscape-font-specification:'Karate, Normal';stroke-width:1.38385" />
    <path
       d="m 54.785217,18.940601 q -0.664,-1.298269 -1.387463,-2.051463 -0.545075,-0.564896 -1.050508,-0.951404 -0.03964,0.376598 -0.07928,0.564896 -0.247761,1.427105 -0.812656,2.616359 -0.564896,1.179343 -1.169433,1.952358 -0.604538,0.763105 -1.050508,1.179344 -0.43606,0.406328 -0.624358,0.545074 0.0991,-0.346865 0.297313,-1.169433 0.20812,-0.832477 0.406329,-2.081194 0.208119,-1.248717 0.208119,-2.408239 0,-0.693732 -0.07928,-1.179344 -0.158567,-0.991045 -0.852298,-2.299224 -0.287403,-0.128836 -0.535165,-0.22794 -0.23785,-0.109015 -0.317134,-0.138747 0.05946,-0.0099 0.168478,-0.0099 0.109015,-0.0099 0.45588,-0.0099 Q 48.165036,12.875406 48.01638,12.637555 47.867723,12.399704 47.79835,12.3006 l 4.20203,-1.565851 q 0.02973,0.138746 0.08919,0.535164 0.06937,0.386507 0.138747,1.020776 0.07928,0.634269 0.118925,1.288359 1.773971,0.376597 2.596538,0.971224 0.515343,-1.53612 1.308179,-2.546986 0.802747,-1.010866 1.228896,-1.387463 -0.138746,0.525254 -0.356776,1.714508 -0.20812,1.189254 -0.20812,2.507344 0,1.377552 0.297314,2.299224 0.693731,1.070328 1.159522,2.061373 0.396418,0.535165 0.763105,1.000956 0.376597,0.45588 0.535164,0.644179 l -3.329911,2.130747 q -0.257668,-0.505433 -0.74328,-1.615404 -0.475701,-1.11988 -0.812656,-2.418149 z"
       id="path395"
       style="font-size:20.2966px;font-family:Karate;-inkscape-font-specification:'Karate, Normal';stroke-width:1.38385" />
    <path
       d="m 63.972204,14.659287 q -0.178388,0.01982 -0.545075,0.01982 -1.139702,0 -2.279403,-0.218029 -1.139702,-0.227941 -1.674866,-0.376598 l 1.823522,-2.983045 q 0.376598,0.188299 1.179344,0.515344 0.802746,0.327044 1.803702,0.545074 0.04955,-0.386507 0.05946,-0.594627 0.0099,-0.21803 0.02973,-0.584716 0.02973,-0.376597 0.02973,-0.43606 0,-0.06937 0,-0.109015 0.08919,0.188299 0.336955,0.703642 0.247762,0.505433 0.535165,1.139702 1.843343,0 3.339821,-0.267582 1.506388,-0.267583 2.140657,-0.445971 -0.644179,0.43606 -2.031642,1.248717 -1.377552,0.802746 -2.834388,1.357731 0.515343,1.664956 0.545074,2.794747 0,1.09015 -0.44597,2.42806 -0.43606,1.337911 -0.862209,2.210031 -0.416239,0.862209 -0.634269,1.228895 L 61.0288,21.110989 q 0.396418,-0.386507 1.119881,-1.387463 0.723463,-1.010866 1.238806,-2.586627 0.287403,-0.862209 0.584717,-2.477612 z"
       id="path397"
       style="font-size:20.2966px;font-family:Karate;-inkscape-font-specification:'Karate, Normal';stroke-width:1.38385" />
    <path
       d="m 74.566473,16.215227 4.667822,-0.971224 q -0.08919,0.614448 -0.227941,1.615403 -0.138746,1.000956 -0.138746,1.228896 0,-0.03964 -1.119881,-0.158567 -1.11988,-0.128836 -3.359642,-0.346866 -0.376597,1.595582 -1.10006,2.814568 1.625314,-0.703642 2.477612,-0.812657 0.485612,-0.05946 1.516299,-0.05946 1.10006,0 1.892896,0.06937 0.802746,0.05946 1.179343,0.09911 l -1.912716,3.240717 q -0.08919,-0.109015 -0.356776,-0.327045 -0.267583,-0.22794 -0.842389,-0.515343 -0.574806,-0.297314 -1.318089,-0.43606 -0.832478,-0.158567 -1.902807,-0.158567 -0.792836,0 -1.605492,0.0991 -0.455881,0.525254 -0.852299,0.842388 -0.386508,0.307224 -0.545075,0.396418 0,0 0.198209,-1.050507 -0.495522,0.07928 -0.703642,0.138746 -0.208119,0.04955 -0.307224,0.07928 -0.08919,0 1.070329,-0.604538 0.287403,-1.783881 0.287403,-3.270448 0,-0.267582 -0.0099,-0.43606 0,-0.168478 -0.0099,-0.376597 -0.564896,-0.04955 -0.88203,-0.07928 -0.307224,-0.02973 -0.44597,-0.03964 -0.128836,-0.0099 -0.198209,-0.01982 l 1.486567,-0.307224 q -0.02973,-0.396418 -0.128836,-0.713553 -0.188298,-0.901851 -0.644179,-1.902806 -0.297313,-0.04955 -0.475701,-0.07928 -0.168478,-0.03964 -0.237851,-0.04955 0.02973,0 0.614448,-0.118925 -0.247762,-0.594627 -0.43606,-0.961314 -0.188299,-0.376597 -0.277493,-0.535164 l 4.023643,-1.645135 q 0.05946,0.227941 0.168477,0.792836 0.109015,0.564896 0.227941,1.357732 0.277492,-0.0991 0.45588,-0.158567 0.178388,-0.06937 0.42615,-0.168478 1.000955,-0.396418 1.625313,-1.050508 0.624359,-0.664 0.842389,-1.020776 l 2.537075,2.537075 q -0.227941,0.118926 -0.773015,0.376597 -0.535165,0.257672 -1.466747,0.584717 -0.921672,0.317134 -1.754149,0.43606 -0.455881,0.06937 -1.139702,0.06937 -0.366687,0 -0.545075,-0.01982 0.03964,0.713552 0.03964,1.10997 0,0.346866 -0.01982,0.505433 z"
       id="path399"
       style="font-size:20.2966px;font-family:Karate;-inkscape-font-specification:'Karate, Normal';stroke-width:1.38385" />
    <path
       d="m 84.61567,11.309555 q 1.446925,0.138746 2.685732,0.554985 1.238806,0.416239 2.061373,1.288358 0.832478,0.862209 0.832478,2.19021 0,1.655045 -2.903762,2.983045 1.863165,0.505433 2.63618,1.119881 0.951403,0.743283 1.526209,1.506388 0.584716,0.753194 0.773015,1.10997 l -3.637135,0.951403 q -0.03964,-0.21803 -0.297313,-0.812657 -0.257672,-0.604537 -0.86221,-1.476656 -0.67391,-1.000956 -1.645134,-1.783881 -1.278448,0.416239 -2.170389,0.624358 -0.475701,0.802746 -1.000955,1.516299 -0.515343,0.713552 -0.87212,1.149612 -0.346865,0.43606 -0.495522,0.604537 0.06937,-0.317134 0.208119,-1.119881 0.138747,-0.802746 0.21803,-1.744239 -0.45588,0.08919 -0.545074,0.109015 -0.07928,0.0099 -0.148657,0.01982 0.02973,0 0.713552,-0.287403 0.07928,-1.090149 0.07928,-1.724418 0,-1.159523 -0.168478,-1.932538 Q 81.40468,15.19445 80.95871,14.124121 80.51274,13.053793 80.245158,12.508718 l 2.418149,-0.941493 q -0.475701,-0.188298 -0.664,-0.247761 -0.188298,-0.05946 -0.287403,-0.08919 0.08919,-0.0099 0.336955,-0.01982 0.257672,-0.0099 0.614448,-0.0099 0.128836,0 0.396418,0.0099 0.277493,0.0099 0.515344,0.01982 l 0.951403,-0.366687 q 0.0099,0 0.08919,0.445971 z m 0.05946,6.83821 q -0.109014,-0.07928 -0.267582,-0.158567 -0.05946,0.158567 -0.0991,0.247761 -0.03964,0.07928 -0.118926,0.257671 0.118926,-0.08919 0.237851,-0.168477 0.128836,-0.08919 0.247761,-0.178388 z m 0.406329,-0.346866 q 1.427105,-1.258627 1.456836,-2.457791 0,-1.367642 -1.724418,-2.616359 0.118925,1.308179 0.118925,2.170388 0,1.288359 -0.21803,2.170389 -0.109015,0.376597 -0.208119,0.634268 0.327045,0.07928 0.574806,0.09911 z"
       id="path401"
       style="font-size:20.2966px;font-family:Karate;-inkscape-font-specification:'Karate, Normal';stroke-width:1.38385" />
    <path
       d="m 101.68146,14.659287 q -0.17839,0.01982 -0.54507,0.01982 -1.139704,0 -2.279405,-0.218029 -1.139702,-0.227941 -1.674866,-0.376598 l 1.823522,-2.983045 q 0.376598,0.188299 1.179339,0.515344 0.80275,0.327044 1.80371,0.545074 0.0495,-0.386507 0.0595,-0.594627 0.01,-0.21803 0.0297,-0.584716 0.0297,-0.376597 0.0297,-0.43606 0,-0.06937 0,-0.109015 0.0892,0.188299 0.33696,0.703642 0.24776,0.505433 0.53516,1.139702 1.84335,0 3.33982,-0.267582 1.50639,-0.267583 2.14066,-0.445971 -0.64418,0.43606 -2.03164,1.248717 -1.37755,0.802746 -2.83439,1.357731 0.51534,1.664956 0.54507,2.794747 0,1.09015 -0.44597,2.42806 -0.43606,1.337911 -0.86221,2.210031 -0.41623,0.862209 -0.63426,1.228895 l -3.458751,-1.724418 q 0.396418,-0.386507 1.119881,-1.387463 0.72346,-1.010866 1.23881,-2.586627 0.2874,-0.862209 0.58471,-2.477612 z"
       id="path403"
       style="font-size:20.2966px;font-family:Karate;-inkscape-font-specification:'Karate, Normal';stroke-width:1.38385" />
    <path
       d="m 115.97233,15.105257 2.11093,-0.65409 q -0.15857,0.21803 -0.39642,0.743284 -0.23785,0.515343 -0.23785,1.129791 -0.0991,0.327045 -0.0991,0.604537 0,0.327045 0.10902,0.664001 0.11892,0.327044 0.17839,0.327044 0,-0.02973 -1.40729,-0.05946 0.1883,0.624358 0.57481,1.347821 0.3865,0.723463 0.71355,1.228896 0.33696,0.495522 0.48561,0.693731 l -4.48943,1.744239 q -0.0991,-0.525254 -0.25767,-1.694687 -0.14866,-1.169433 -0.14866,-2.42806 0,-0.624358 0.0396,-0.951403 -0.39642,-0.0099 -0.73337,-0.0099 -0.33696,-0.0099 -0.87212,-0.0099 -0.60454,2.130747 -1.60549,3.359642 -0.99105,1.228896 -1.53612,1.635225 0.13874,-0.614448 0.33695,-1.952359 0.20812,-1.337911 0.20812,-2.755105 V 17.76128 q -0.99104,-0.01982 -1.23881,-0.01982 -0.23785,0 -0.40632,0 l 1.62531,-0.485612 q -0.0793,-0.773015 -0.15857,-1.159522 -0.19821,-0.931583 -0.69373,-2.021732 -0.48561,-1.090149 -0.77301,-1.635224 l 4.56871,-1.635224 q 0.0297,0.327045 0.0694,1.11988 0.0496,0.782926 0.0496,1.75415 0,1.575761 -0.15857,2.685732 l 1.66496,-0.515344 q 0.39642,-1.506388 1.0505,-2.606448 0.65409,-1.10997 1.15953,-1.635224 0.50543,-0.535164 0.73337,-0.703642 -0.10901,0.525254 -0.27749,1.724418 -0.16848,1.189254 -0.1883,2.477613 z"
       id="path405"
       style="font-size:20.2966px;font-family:Karate;-inkscape-font-specification:'Karate, Normal';stroke-width:1.38385" />
    <path
       d="m 122.62224,16.215227 4.66783,-0.971224 q -0.0892,0.614448 -0.22794,1.615403 -0.13875,1.000956 -0.13875,1.228896 0,-0.03964 -1.11988,-0.158567 -1.11988,-0.128836 -3.35964,-0.346866 -0.3766,1.595582 -1.10006,2.814568 1.62531,-0.703642 2.47761,-0.812657 0.48561,-0.05946 1.5163,-0.05946 1.10006,0 1.89289,0.06937 0.80275,0.05946 1.17935,0.09911 l -1.91272,3.240717 q -0.0892,-0.109015 -0.35678,-0.327045 -0.26758,-0.22794 -0.84238,-0.515343 -0.57481,-0.297314 -1.31809,-0.43606 -0.83248,-0.158567 -1.90281,-0.158567 -0.79284,0 -1.60549,0.0991 -0.45588,0.525254 -0.8523,0.842388 -0.38651,0.307224 -0.54508,0.396418 0,0 0.19821,-1.050507 -0.49552,0.07928 -0.70364,0.138746 -0.20812,0.04955 -0.30722,0.07928 -0.0892,0 1.07032,-0.604538 0.28741,-1.783881 0.28741,-3.270448 0,-0.267582 -0.01,-0.43606 0,-0.168478 -0.01,-0.376597 -0.5649,-0.04955 -0.88203,-0.07928 -0.30723,-0.02973 -0.44597,-0.03964 -0.12884,-0.0099 -0.19821,-0.01982 l 1.48657,-0.307224 q -0.0297,-0.396418 -0.12884,-0.713553 -0.1883,-0.901851 -0.64418,-1.902806 -0.29731,-0.04955 -0.4757,-0.07928 -0.16848,-0.03964 -0.23785,-0.04955 0.0297,0 0.61445,-0.118925 -0.24777,-0.594627 -0.43606,-0.961314 -0.1883,-0.376597 -0.2775,-0.535164 l 4.02365,-1.645135 q 0.0595,0.227941 0.16847,0.792836 0.10902,0.564896 0.22794,1.357732 0.2775,-0.0991 0.45588,-0.158567 0.17839,-0.06937 0.42615,-0.168478 1.00096,-0.396418 1.62532,-1.050508 0.62436,-0.664 0.84239,-1.020776 l 2.53707,2.537075 q -0.22794,0.118926 -0.77301,0.376597 -0.53517,0.257672 -1.46675,0.584717 -0.92167,0.317134 -1.75415,0.43606 -0.45588,0.06937 -1.1397,0.06937 -0.36669,0 -0.54508,-0.01982 0.0396,0.713552 0.0396,1.10997 0,0.346866 -0.0198,0.505433 z"
       id="path407"
       style="font-size:20.2966px;font-family:Karate;-inkscape-font-specification:'Karate, Normal';stroke-width:1.38385" />
    <path
       d="m 138.17174,7.1075241 q 0.0694,-0.089194 0.11893,-0.1486568 0.0495,-0.059463 0.0595,-0.079284 -0.01,0 -0.0396,0.2477613 2.11092,0.287403 4.15247,1.0604181 2.04156,0.773015 3.5083,2.4280603 1.47666,1.645135 1.47666,4.221852 0,2.745194 -1.7046,4.459702 -1.70459,1.714508 -3.99391,2.497433 -2.28931,0.782926 -4.00382,0.991045 -1.71451,0.198209 -2.47761,0.208119 0.3766,-0.109014 1.22889,-0.45588 0.8523,-0.346866 1.91272,-1.040597 l -4.43988,1.33791 q -0.0595,-0.297313 -0.17839,-1.040597 -0.11892,-0.743284 -0.23785,-1.942448 -0.11892,-1.209075 -0.11892,-2.398329 0,-1.664955 0.2874,-2.903761 0.40633,-1.625314 1.52621,-3.409195 1.11988,-1.7838813 2.38842,-3.409195 -0.35678,-0.2081194 -0.58472,-0.3171344 -0.21803,-0.1189254 -0.49552,-0.2477612 -0.2775,-0.1387463 -0.39642,-0.1783881 -0.11893,-0.049552 -0.16848,-0.069373 0.87212,0 2.1803,0.1882986 z m 0.64418,14.1025699 q 3.63713,-2.537075 3.63713,-6.491345 -0.01,-1.526209 -0.67391,-2.814567 -0.65409,-1.298269 -1.60549,-2.2298515 -0.9514,-0.9315823 -2.05146,-1.6352242 -0.48561,2.9830457 -0.48561,5.1732547 0,1.506388 0.22794,2.556896 0.12883,0.634269 0.35677,1.952358 0.23785,1.31809 0.3766,2.20012 0.14866,0.87212 0.21803,1.288359 z"
       id="path409"
       style="font-size:20.2966px;font-family:Karate;-inkscape-font-specification:'Karate, Normal';stroke-width:1.38385" />
    <path
       d="m 151.37246,11.20054 q -0.10902,-0.07928 -0.34687,-0.21803 -0.22794,-0.148657 -0.29731,-0.178388 0.58472,0 1.47666,0.158567 1.2388,-0.307224 2.41815,-0.307224 -0.12884,0.03964 -0.44597,0.178388 -0.30723,0.128836 -0.7532,0.416239 1.1397,0.336955 2.06138,0.961314 0.93158,0.614447 1.55594,1.724418 0.62435,1.10006 0.62435,2.705552 0,2.665911 -1.62531,4.063285 -1.6154,1.397373 -3.25063,1.77397 -1.62531,0.376597 -2.42806,0.396418 0.17839,-0.06937 0.57481,-0.277493 0.40633,-0.218029 0.93158,-0.614447 -0.81266,-0.257672 -1.47666,-0.604538 -0.664,-0.356776 -1.34782,-1.020776 -0.67391,-0.664 -1.10006,-1.605493 -0.41624,-0.951403 -0.44597,-2.249672 0,-2.190209 1.09015,-3.438926 1.10006,-1.258627 2.78484,-1.863164 z m 1.0406,0.832477 q -0.78293,0.763105 -1.29827,1.902807 -0.50544,1.129791 -0.50544,2.64609 0.01,1.228895 0.2775,2.21003 0.27749,0.971224 0.664,1.655045 0.3865,0.683821 0.80274,1.129791 0.91176,-0.842388 1.50639,-2.061373 0.60454,-1.228896 0.60454,-2.874031 -0.0198,-2.606448 -2.05146,-4.608359 z"
       id="path411"
       style="font-size:20.2966px;font-family:Karate;-inkscape-font-specification:'Karate, Normal';stroke-width:1.38385" />
    <path
       d="m 163.66142,20.922691 q 0.65409,0.138746 1.11988,0.198209 0.4757,0.04955 0.68382,0.06937 -0.2775,0.208119 -1.02078,0.554985 -0.74328,0.336955 -1.86316,0.396418 -0.20812,0.208119 -0.36669,0.346866 -0.15857,0.128835 -0.21803,0.168477 0.0198,0 0.11893,-0.495522 -0.60454,0 -1.06042,-0.09911 -0.69373,-0.118925 -1.50639,-0.44597 -0.81266,-0.327045 -1.30818,-0.574806 -0.49552,-0.247761 -0.71355,-0.376597 l 1.97218,-2.398329 q 0.30722,0.336955 0.94149,0.941493 0.63427,0.604537 1.12979,0.911761 0.3766,0.237851 0.91176,0.465791 0.40633,-2.170388 0.40633,-3.597493 0,-0.713552 -0.0793,-1.199164 -0.14866,-0.941493 -0.72347,-2.021732 -0.5748,-1.090149 -0.92167,-1.625314 l 4.20203,-1.54603 q 0.0991,0.505433 0.24776,1.605493 0.15857,1.090149 0.15857,2.41815 0,1.000955 -0.12883,1.724418 -0.43606,2.497433 -1.98209,4.578628 z"
       id="path413"
       style="font-size:20.2966px;font-family:Karate;-inkscape-font-specification:'Karate, Normal';stroke-width:1.38385" />
    <path
       d="m 169.63741,11.20054 q -0.10901,-0.07928 -0.34686,-0.21803 -0.22794,-0.148657 -0.29732,-0.178388 0.58472,0 1.47666,0.158567 1.23881,-0.307224 2.41815,-0.307224 -0.12884,0.03964 -0.44597,0.178388 -0.30722,0.128836 -0.75319,0.416239 1.1397,0.336955 2.06137,0.961314 0.93158,0.614447 1.55594,1.724418 0.62436,1.10006 0.62436,2.705552 0,2.665911 -1.62532,4.063285 -1.6154,1.397373 -3.25062,1.77397 -1.62532,0.376597 -2.42806,0.396418 0.17838,-0.06937 0.5748,-0.277493 0.40633,-0.218029 0.93159,-0.614447 -0.81266,-0.257672 -1.47666,-0.604538 -0.664,-0.356776 -1.34782,-1.020776 -0.67391,-0.664 -1.10006,-1.605493 -0.41624,-0.951403 -0.44597,-2.249672 0,-2.190209 1.09015,-3.438926 1.10006,-1.258627 2.78483,-1.863164 z m 1.0406,0.832477 q -0.78293,0.763105 -1.29827,1.902807 -0.50543,1.129791 -0.50543,2.64609 0.01,1.228895 0.27749,2.21003 0.27749,0.971224 0.664,1.655045 0.38651,0.683821 0.80275,1.129791 0.91176,-0.842388 1.50639,-2.061373 0.60453,-1.228896 0.60453,-2.874031 -0.0198,-2.606448 -2.05146,-4.608359 z"
       id="path415"
       style="font-size:20.2966px;font-family:Karate;-inkscape-font-specification:'Karate, Normal';stroke-width:1.38385" />
  </g>
</svg>
