<?xml version="1.0" encoding="UTF-8" standalone="no"?>
<!-- Uploaded to: SVG Repo, www.svgrepo.com, Generator: SVG Repo Mixer Tools -->

<svg
   fill="#000000"
   height="32"
   width="32"
   version="1.1"
   id="Layer_1"
   viewBox="0 0 12.19992 12.19992"
   xml:space="preserve"
   sodipodi:docname="linux.svg"
   inkscape:version="1.4.1-rc (06eac75fbf, 2025-03-29)"
   xmlns:inkscape="http://www.inkscape.org/namespaces/inkscape"
   xmlns:sodipodi="http://sodipodi.sourceforge.net/DTD/sodipodi-0.dtd"
   xmlns="http://www.w3.org/2000/svg"
   xmlns:svg="http://www.w3.org/2000/svg"><defs
   id="defs1">
	
</defs><sodipodi:namedview
   id="namedview1"
   pagecolor="#ffffff"
   bordercolor="#000000"
   borderopacity="0.25"
   inkscape:showpageshadow="2"
   inkscape:pageopacity="0.0"
   inkscape:pagecheckerboard="0"
   inkscape:deskcolor="#d1d1d1"
   inkscape:zoom="11.63"
   inkscape:cx="26.225279"
   inkscape:cy="31.341359"
   inkscape:window-width="1741"
   inkscape:window-height="1243"
   inkscape:window-x="26"
   inkscape:window-y="23"
   inkscape:window-maximized="0"
   inkscape:current-layer="Layer_1" />
<path
   id="XMLID_92_"
   d="M 11.049106,9.7955487 C 10.691345,9.6490278 10.538304,9.4545878 10.553105,9.1644663 10.568343,8.8258253 10.376224,8.5777851 10.284984,8.4797847 10.340107,8.2692238 10.501185,7.5408221 10.285144,6.90814 10.052984,6.2309381 9.3441806,5.1966551 8.6128186,4.1799721 8.3134176,3.7624508 8.2992576,3.3086096 8.282898,2.7830881 8.2672179,2.2818467 8.2495372,1.7136849 7.9700164,1.0820831 7.6660958,0.39436107 7.0562542,0 6.2967721,0 5.844971,0 5.3812096,0.14120035 5.024328,0.38736106 4.2935265,0.89172255 4.390126,1.9913657 4.4540467,2.7190079 c 0.00877,0.09964 0.017002,0.1937605 0.021803,0.2741207 0.042562,0.7126421 0.00386,1.0882432 -0.046801,1.2024036 C 4.3962904,4.2701324 4.2350076,4.482453 4.0643274,4.7072536 3.8878049,4.9397343 3.6876839,5.2032551 3.523644,5.4488157 3.3279232,5.7442967 3.1699231,6.1959379 3.0171228,6.6326992 2.9053224,6.9523003 2.7997215,7.2541811 2.6969216,7.4345815 2.5020812,7.7816225 2.5505613,8.1052234 2.5910416,8.2547839 2.517284,8.3060272 2.410721,8.4069047 2.3207601,8.597065 2.2120397,8.8290659 1.9914399,8.9537456 1.5327186,9.0419458 1.3219171,9.0850699 1.1765575,9.1737064 1.1005572,9.3053871 c -0.11060015,0.19164 -0.050357,0.4324414 0.00456,0.5970018 0.081201,0.2419201 0.030598,0.3950411 -0.061399,0.6730421 -0.021197,0.06416 -0.04524,0.1368 -0.0695969,0.21692 -0.038358,0.126441 -0.024516,0.241401 0.0410439,0.341681 0.1732407,0.264841 0.6787621,0.358241 1.1991641,0.419681 0.3107206,0.03688 0.650801,0.161161 0.9797228,0.281401 0.3222806,0.11776 0.6555217,0.239561 0.9584426,0.276521 0.046038,0.0058 0.09164,0.0087 0.1355998,0.0087 0.4573616,0 0.6640025,-0.30348 0.7295225,-0.428161 0.1642804,-0.03352 0.7308822,-0.14088 1.3148441,-0.15528 0.5830412,-0.01664 1.1471632,0.09848 1.3069637,0.13428 0.050242,0.09616 0.1826808,0.315801 0.3938009,0.428962 0.1160408,0.06344 0.2775212,0.0998 0.4429217,0.0998 3.95e-5,0 0,0 3.95e-5,0 0.176641,0 0.5126813,-0.04176 0.7786427,-0.321561 0.2652872,-0.281116 0.9280894,-0.639998 1.4120914,-0.902038 0.108,-0.05849 0.209041,-0.1132 0.29764,-0.1626 0.271881,-0.150721 0.420242,-0.366082 0.407002,-0.590842 -0.01104,-0.186681 -0.1346,-0.3504408 -0.322481,-0.4273611 z M 5.030288,9.7414264 C 4.9964504,9.5030257 4.6897675,9.2665851 4.3346062,8.9928241 4.0442057,8.7689433 3.7150444,8.5152231 3.6243645,8.3003428 3.4369641,7.8570611 3.5846813,7.0776189 3.8422451,6.6762576 3.9695256,6.475297 4.0734858,6.1705361 4.1740457,5.8758154 4.2826064,5.5575743 4.394886,5.2285335 4.520447,5.084493 4.7192873,4.8596123 4.9030478,4.4220511 4.935608,4.07721 c 0.1862007,0.1777606 0.4750415,0.4033212 0.7418822,0.4033212 0.041079,0 0.080964,-0.00536 0.1190805,-0.01612 C 5.9791314,4.4116912 6.2476521,4.2565304 6.5073322,4.1065301 6.731213,3.9771696 7.0072939,3.8176492 7.1111744,3.8031292 7.2892953,4.0588899 8.3242982,6.3493365 8.430058,7.0848987 8.513735,7.6668999 8.425318,8.1480215 8.380895,8.3364621 c -0.03576,-0.00491 -0.078401,-0.00884 -0.1232005,-0.00884 -0.2882807,0 -0.3646015,0.1573603 -0.3844808,0.2513212 -0.051121,0.2441235 -0.056519,1.024726 -0.057081,1.2001258 C 7.7118922,9.91151 7.1847307,10.535192 6.427888,10.647312 c -0.3082804,0.0448 -0.5961609,0.06752 -0.8556023,0.06752 -0.2217602,0 -0.3632804,-0.01712 -0.4220407,-0.02604 l -0.3803209,-0.43517 c 0.1499608,-0.07404 0.2998811,-0.23028 0.2603603,-0.5122009 z M 5.5128894,2.5659656 c -0.011872,0.00512 -0.023559,0.010602 -0.035039,0.01644 -0.00114,-0.02576 -0.00386,-0.05188 -0.00799,-0.07808 -0.041515,-0.239001 -0.1999973,-0.4124815 -0.3767585,-0.4124815 -0.013079,0 -0.026237,0.001 -0.040675,0.0032 -0.1051597,0.01752 -0.187641,0.096521 -0.232841,0.2085205 0.039639,-0.2457606 0.1788811,-0.4277211 0.3440815,-0.4277211 0.1940002,0 0.3578804,0.2614407 0.3578804,0.5708816 0,0.039001 -0.00281,0.077801 -0.00868,0.1192404 z m 1.5074445,0.1842806 c 0.017756,-0.05656 0.027359,-0.1177599 0.027359,-0.1812805 0,-0.2805609 -0.1780007,-0.5003615 -0.4052416,-0.5003615 -0.2220806,0 -0.4027611,0.2244406 -0.4027611,0.5003615 0,0.0188 8.779e-4,0.03764 0.00272,0.056441 -0.011757,-0.00452 -0.023243,-0.00893 -0.034442,-0.01316 -0.02556,-0.077401 -0.038481,-0.1581605 -0.038481,-0.2406007 0,-0.335481 0.2144012,-0.6084418 0.4780021,-0.6084418 0.2635606,0 0.4780012,0.2729608 0.4780012,0.6084418 0,0.1395605 -0.038516,0.2727607 -0.1051203,0.3786011 z M 6.8259737,3.403208 c -0.00377,0.01696 -0.011884,0.024479 -0.1012402,0.07096 -0.045117,0.02348 -0.1012809,0.052721 -0.1715606,0.09552 l -0.04696,0.028441 C 6.3174933,3.7125291 5.8756117,3.9804899 5.7556517,3.9962099 c -0.081482,0.01096 -0.1318808,-0.02064 -0.2452015,-0.09764 -0.02556,-0.0174 -0.052762,-0.03588 -0.081763,-0.05448 C 5.2244068,3.7100487 5.0930069,3.5624082 5.0781667,3.5046881 5.1447708,3.4532079 5.3098474,3.3243676 5.3943672,3.2480875 5.5659277,3.0885669 5.7385688,2.9813666 5.8240085,2.9813666 c 0.00456,0 0.0086,3.2e-4 0.012841,0.00112 0.1003997,0.01772 0.348041,0.1165602 0.5289215,0.1887206 0.083597,0.033359 0.1558005,0.062159 0.2066005,0.080401 0.1600401,0.05496 0.2434802,0.1252803 0.2536008,0.1516004 z M 8.2638578,10.85803 C 8.3541383,10.450789 8.4581381,9.8967871 8.4412984,9.5701861 8.4374386,9.49599 8.4308617,9.4152258 8.424498,9.3371451 8.4126266,9.1911448 8.3949793,8.9741446 8.4131725,8.9097842 c 0.00359,-0.00166 0.00763,-0.00316 0.012037,-0.00439 7.601e-4,0.1867203 0.041315,0.559161 0.3391616,0.6890414 0.08876,0.038718 0.1902004,0.058317 0.3014804,0.058317 0.2983611,0 0.6294013,-0.1463602 0.7650023,-0.2819609 0.07984,-0.079841 0.147,-0.1775204 0.1940412,-0.2548804 0.01028,0.030115 0.0166,0.069483 0.01328,0.120199 -0.01772,0.2754015 0.116121,0.6407622 0.370841,0.7754027 l 0.03708,0.01948 c 0.09072,0.0476 0.331682,0.17412 0.335562,0.234121 -4e-5,3.9e-5 -0.002,0.0071 -0.01548,0.01956 -0.06035,0.05516 -0.272792,0.163646 -0.478232,0.268566 -0.3644422,0.186081 -0.7775232,0.397002 -0.9630434,0.592122 -0.2612012,0.274881 -0.5566418,0.459521 -0.7350427,0.459521 -0.021479,0 -0.041044,-0.0027 -0.058441,-0.0083 -0.193761,-0.0604 -0.353241,-0.339959 -0.2675607,-0.73864 z M 1.6593987,9.8191067 C 1.6396399,9.726626 1.6240343,9.6536264 1.6407992,9.5829058 1.65295,9.5305037 1.9116398,9.4743459 2.0221201,9.4503859 2.1774413,9.416662 2.3380818,9.3818247 2.4431218,9.3180653 2.5851625,9.2320282 2.6620828,9.0733449 2.7299227,8.933344 c 0.049119,-0.1012402 0.09984,-0.2059203 0.1602007,-0.2402808 0.00343,-0.00202 0.0086,-0.0043 0.018521,-0.0043 0.11308,0 0.3503609,0.2377204 0.4870816,0.450481 0.03468,0.05364 0.09892,0.1611206 0.1732407,0.2855605 0.2222802,0.3719244 0.5266406,0.8813263 0.6856009,1.0520463 0.1432408,0.15348 0.3751216,0.448562 0.3180816,0.701642 -0.041764,0.196361 -0.2640812,0.356041 -0.3165209,0.391362 -0.019039,0.0043 -0.042598,0.0065 -0.070317,0.0065 -0.304241,0 -0.9064831,-0.253121 -1.2300434,-0.389121 l -0.047881,-0.02012 c -0.1806805,-0.07576 -0.475641,-0.12348 -0.7608821,-0.169641 -0.2269609,-0.03676 -0.5377613,-0.08704 -0.589282,-0.13248 -0.041764,-0.04684 0.00667,-0.19912 0.0494,-0.333481 0.030757,-0.09656 0.062522,-0.1964 0.079919,-0.30092 0.024682,-0.166721 -0.00439,-0.3024416 -0.02764,-0.4114815 z"
   style="fill:#ffffff;fill-opacity:1;stroke-width:0.0400001" />
</svg>
