<?xml version="1.0" encoding="UTF-8" standalone="no"?>
<!-- Created with Inkscape (http://www.inkscape.org/) -->

<svg
   version="1.1"
   id="svg2"
   width="512"
   height="512"
   viewBox="0 0 512 512.00001"
   sodipodi:docname="logo.svg"
   inkscape:version="1.2.2 (b0a8486541, 2022-12-01)"
   inkscape:export-filename="logo.png"
   inkscape:export-xdpi="12"
   inkscape:export-ydpi="12"
   xmlns:inkscape="http://www.inkscape.org/namespaces/inkscape"
   xmlns:sodipodi="http://sodipodi.sourceforge.net/DTD/sodipodi-0.dtd"
   xmlns="http://www.w3.org/2000/svg"
   xmlns:svg="http://www.w3.org/2000/svg">
  <defs
     id="defs6" />
  <sodipodi:namedview
     id="namedview4"
     pagecolor="#ffffff"
     bordercolor="#999999"
     borderopacity="1"
     inkscape:showpageshadow="0"
     inkscape:pageopacity="0"
     inkscape:pagecheckerboard="0"
     inkscape:deskcolor="#d1d1d1"
     showgrid="false"
     inkscape:zoom="0.92367451"
     inkscape:cx="-32.478974"
     inkscape:cy="263.621"
     inkscape:window-width="1994"
     inkscape:window-height="1188"
     inkscape:window-x="26"
     inkscape:window-y="23"
     inkscape:window-maximized="0"
     inkscape:current-layer="g8" />
  <g
     inkscape:groupmode="layer"
     inkscape:label="Image"
     id="g8"
     transform="translate(716.00042,40.34931)">
    <path
       id="circle1946"
       style="fill:#661f3a;fill-opacity:1;stroke-width:12.4671;stroke-linejoin:round;stroke-opacity:0.972016;paint-order:stroke fill markers;stop-color:#000000"
       d="m -460.00139,-40.349301 c -141.38413,4.73e-4 -255.99856,115.055576 -255.99903,256.983371 0.21926,70.1764 29.01797,137.21015 79.70899,185.53608 4.41506,-1.87728 7.55674,-3.24127 13.98107,-5.91136 10.45951,-4.34715 20.64357,-8.64648 22.63223,-9.55337 1.98856,-0.90689 6.18822,-2.34015 9.33301,-3.18445 7.2974,-1.9593 11.32844,-6.51513 15.53225,-17.55879 2.74918,-7.22201 3.04005,-9.07175 1.93351,-12.25812 -0.89388,-2.57417 -1.0834,-14.46597 -0.60282,-37.86478 0.67424,-32.83161 0.61053,-34.25601 -1.70192,-37.89428 -2.39696,-3.77145 -9.81905,-8.5756 -28.40885,-18.38719 -8.28096,-4.37061 -9.48499,-5.37009 -7.72661,-6.41873 3.47387,-2.07174 19.19356,-1.21283 27.21235,1.48707 4.01504,1.35188 14.97912,5.64335 24.3653,9.53491 9.38618,3.89155 18.29921,7.37853 19.80738,7.75082 10.82857,2.67292 -22.80292,-15.00901 -36.61518,-19.25065 -4.24907,-1.3049 -10.53008,-3.09159 -13.95717,-3.96858 l -6.23245,-1.59407 16.03776,-25.37786 c 9.10472,-14.40791 16.03776,-26.61303 16.03776,-28.2376 0,-3.9427 -1.83583,-5.47134 -12.30126,-10.23786 -4.98759,-2.27161 -8.93995,-4.50965 -8.78346,-4.9741 0.15649,-0.46444 8.84067,-6.51344 19.30008,-13.44261 l 19.01881,-12.59945 3.61709,4.11064 c 4.47369,5.08272 10.12243,22.44673 16.62768,51.11366 1.15407,5.08577 2.48655,9.24525 2.96091,9.24525 1.67586,0 2.2049,-6.90149 1.11925,-14.59758 -1.48982,-10.56033 -6.29889,-25.45829 -12.57877,-38.96991 -2.86568,-6.16597 -5.21051,-11.92558 -5.21051,-12.80055 0,-1.60752 6.63662,-8.20489 14.8119,-14.72673 4.12608,-3.29159 4.68344,-3.43042 7.63099,-1.90035 3.20963,1.66617 4.7831,4.33543 12.59534,21.37608 5.93659,12.94913 15.37368,41.93618 18.27079,56.11912 2.50151,12.246 4.84925,17.29312 5.02861,10.8098 0.63632,-23.00751 -4.46268,-39.64815 -26.23453,-85.62053 -1.56275,-3.29973 -2.26898,-6.16636 -1.66156,-6.7416 0.58099,-0.55043 4.8996,-2.62683 9.59772,-4.61432 6.3689,-2.69433 8.82722,-3.25506 9.66011,-2.20661 1.00849,1.26957 7.58329,12.59841 30.65845,52.83503 7.85684,13.70023 8.78506,16.46305 5.90705,17.5717 -1.03644,0.39927 -1.44154,1.60643 -1.04763,3.11803 0.83581,3.20839 -1.56783,6.03128 -5.13335,6.03128 -2.22184,0 -2.82672,0.63804 -2.82672,2.98335 0,1.64059 0.58484,2.98336 1.29945,2.98336 0.71461,0 -1.01301,2.81855 -3.84123,6.26374 -9.75224,11.87982 -25.41971,26.56719 -35.78991,33.55303 -9.60836,6.47261 -12.25902,9.10134 -9.17681,9.10134 0.67236,0 4.2822,-1.563 8.02255,-3.47412 12.20679,-6.23729 32.37374,-24.73944 42.76671,-39.23744 2.02187,-2.8204 5.05336,-6.2155 6.73599,-7.54417 1.68264,-1.32869 3.05831,-3.09532 3.05831,-3.92615 0,-0.83085 2.725,-7.10114 6.05592,-13.93337 7.70769,-15.80955 10.03689,-21.94404 13.0952,-34.49582 2.5894,-10.62734 2.61716,-21.57845 0.0621,-24.14356 -1.05366,-1.05762 -1.38396,0.81065 -1.38396,7.81354 0,11.87305 -3.82006,25.71853 -11.6928,42.385 -4.14772,8.78086 -3.11552,9.48781 -12.59533,-8.65301 -3.05727,-5.85032 -8.65134,-15.5139 -12.43169,-21.47571 -3.78044,-5.96179 -9.50061,-15.52954 -12.71117,-21.26168 -6.15285,-10.98511 -11.20545,-17.61783 -13.4223,-17.61783 -0.82311,0 -1.33813,-2.61159 -1.35271,-6.85968 -0.0254,-7.427332 -1.94198,-22.52591 -3.09689,-24.401862 -0.39241,-0.637376 -6.93784,5.20999 -14.5454,12.994279 -20.35676,20.829693 -33.64129,29.543303 -49.53206,32.492143 -8.8339,1.63934 -18.76954,1.69229 -17.78561,0.0941 0.40398,-0.65624 2.21158,-1.19371 4.01767,-1.19371 4.99163,0 14.40566,-3.582 14.40566,-5.48146 0,-1.37508 -3.69763,-1.68425 -20.50383,-1.71401 -16.32289,-0.0289 -20.01817,-0.32305 -18.1256,-1.44462 1.30745,-0.77483 9.15385,-1.69802 17.4364,-2.05164 12.84131,-0.54825 18.416,-1.47965 16.33908,-2.73058 -0.27252,-0.16405 -6.78568,-3.43679 -14.47361,-7.27296 -10.88277,-5.430266 -15.58409,-7.120824 -21.22804,-7.634574 -5.56913,-0.506938 -6.76742,-0.931042 -5.17013,-1.828389 3.34381,-1.878456 14.93131,-0.0358 25.0528,3.98334 7.35019,2.918743 11.83179,3.861183 20.70606,4.357873 16.50846,0.92396 20.70135,-1.13095 34.35269,-16.839251 5.76091,-6.628903 11.61178,-13.07441 13.00326,-14.324512 1.39158,-1.250103 2.53087,-2.70934 2.53087,-3.24165 0,-0.532326 -5.74999,-1.119991 -12.77732,-1.306255 l -12.77724,-0.339478 12.97579,-1.793332 c 7.13724,-0.987175 13.1542,-2.329952 13.37092,-2.983353 0.2202,-0.664327 -8.9056,-2.991298 -20.70239,-5.278521 -11.60312,-2.249658 -21.63117,-4.592279 -22.28489,-5.206567 -0.7388,-0.69417 3.53568,-0.727654 11.29221,-0.08672 25.37303,2.096489 33.92792,0.572054 47.28801,-8.426078 4.40321,-2.965559 12.54687,-7.353379 18.09615,-9.750781 5.54937,-2.397403 10.30884,-4.555517 10.57732,-4.796979 0.26856,-0.241448 -0.48453,-2.254291 -1.67436,-4.472258 -2.11729,-3.946651 -2.11126,-4.118792 0.31797,-8.06446 1.36514,-2.21742 3.6105,-8.3256992 4.98994,-13.5736044 3.655,-13.9052566 4.84718,-17.2968016 6.07436,-17.2968016 0.6031,0 1.09534,1.055461 1.09534,2.344992 0,1.289523 0.72694,4.6455684 1.61554,7.4574563 4.25557,13.4658967 5.9142,20.5263977 6.00821,25.5844977 0.0772,4.197952 0.66747,5.831643 2.4665,6.83939 1.30011,0.728165 3.43971,2.028058 4.75468,2.88925 2.1252,1.391859 1.89446,1.476412 -2.0676,0.761982 -2.45154,-0.442048 -4.45704,-0.562513 -4.45704,-0.267524 0,0.29499 4.41225,3.959946 9.80541,8.143794 5.39316,4.183831 11.13393,8.830416 12.757,10.326419 1.62297,1.496005 3.82043,2.443802 4.88341,2.105136 1.06297,-0.338684 2.64277,0.242068 3.51039,1.291494 1.26783,1.53357 2.99234,1.761265 8.78534,1.1605 9.76127,-1.012281 26.93567,-4.273099 29.49319,-5.59955 3.35366,-1.739375 2.59843,2.582754 -1.54938,8.868876 -4.54092,6.881914 -13.25315,12.748053 -25.30454,17.036654 -5.12779,1.824777 -11.01198,4.457844 -13.07506,5.850469 l -3.7512,2.531329 -0.59369,13.08284 c -0.32691,7.195396 -1.02778,13.753296 -1.55672,14.573586 -2.20951,3.42718 -3.19796,0.93765 -3.19796,-8.05339 0,-5.913268 -0.47851,-9.545988 -1.2571,-9.545988 -0.69128,0 -4.96924,0.616592 -9.50767,1.368985 l -8.25225,1.367144 v 5.791429 5.79143 h 4.1592 c 5.28984,0 5.2298,1.07476 -0.26094,4.64754 l -4.39079,2.85789 3.76774,3.15678 3.76953,3.15863 -4.11695,2.2269 c -6.24187,3.37446 -4.85594,5.66482 2.7441,4.53499 2.66223,-0.39576 5.19263,-2.10724 8.02255,-5.42612 2.27359,-2.66642 4.13342,-5.28839 4.13342,-5.82649 0,-0.53811 0.53534,-0.97785 1.18916,-0.97785 0.65373,0 1.18917,0.77339 1.18917,1.71954 0,0.94616 2.61405,4.71969 5.80965,8.38549 6.78024,7.77799 8.46278,13.07095 8.42871,26.51438 -0.0583,23.05051 -7.26815,47.69946 -20.21533,69.10971 -4.66905,7.7211 -15.22745,21.75285 -27.53022,36.58617 -11.13826,13.42925 -13.52036,17.56618 -10.11415,17.56618 0.85011,0 12.68143,-13.42413 26.29156,-29.82983 13.60984,-16.40573 25.21637,-29.82799 25.79161,-29.82799 0.57534,0 1.04576,2.88401 1.04576,6.40951 0,7.51345 -4.18078,21.16099 -10.09573,32.95155 -7.41531,14.78154 -4.68015,16.15383 5.9365,2.97967 3.92237,-4.86714 7.3122,-8.32241 7.53362,-7.67886 0.22133,0.64354 -0.44651,3.67284 -1.48502,6.73237 -1.03851,3.05954 -1.88937,5.7352 -1.88937,5.94641 0,2.25459 16.31479,-5.09012 21.09756,-9.49801 3.91008,-3.60363 3.53489,-8.13766 -3.7292,-45.17094 -5.85351,-29.8429 -6.44946,-34.40964 -6.95657,-53.26122 -0.30508,-11.34069 -0.14416,-20.87428 0.35843,-21.18605 1.72969,-1.07308 8.6122,5.94078 10.88056,11.0884 2.38838,5.42006 5.1486,20.80755 9.25579,51.59705 2.90995,21.81431 4.74084,31.02169 6.16623,31.02169 1.23707,0 0.64876,1.89415 7.41971,-23.86313 9.86362,-37.52212 11.65503,-44.14696 11.94468,-44.14696 1.76353,0 16.06714,7.49952 16.06714,8.42423 0,0.68287 -4.01293,9.56281 -8.91578,19.73219 -4.90289,10.16938 -8.91002,19.67229 -8.90658,21.11778 0.008,3.51738 2.35878,6.89611 13.95169,20.04399 5.38961,6.1125 9.40069,11.46976 8.91393,11.90573 -0.85451,0.76537 -7.82459,4.548 -28.51908,15.47579 -5.39315,2.84784 -9.80533,5.87996 -9.80533,6.73791 0,2.27438 0.76798,2.04479 10.90441,-3.24903 16.14414,-8.43143 23.56579,-10.7028 34.9702,-10.7028 8.14448,0 10.08572,0.33525 9.77776,1.68632 -0.21135,0.92723 -8.13948,7.71175 -17.61835,15.07728 -9.47889,7.36552 -17.73862,13.85293 -18.35536,14.41492 -0.67947,0.61918 0.0763,2.31686 1.91696,4.3099 1.67069,1.80895 3.6073,5.43769 4.30442,8.06261 7.08919,26.69318 9.07986,32.81134 10.67834,32.81134 1.23798,0 1.50815,-0.76619 0.94469,-2.68446 -1.58543,-5.39745 -7.98564,-29.10736 -9.50207,-35.19876 -0.85764,-3.4452 -1.09537,-6.26375 -0.52748,-6.26375 0.5679,0 1.03291,0.22346 1.03291,0.49631 0,0.85074 8.45736,30.85002 10.21519,36.23379 2.89158,8.85614 2.30258,11.75785 -3.08404,15.17137 -2.61486,1.65704 -4.75471,3.23669 -4.75471,3.50917 0,0.27247 2.88528,0.19571 6.41252,-0.16973 7.25412,-0.75157 8.02771,-0.052 10.08469,9.13824 1.1236,5.02009 1.11567,5.03457 -3.17409,6.83385 -2.36461,0.99178 -7.38927,2.38172 -11.1654,3.08667 -6.06312,1.13189 -7.14348,1.02906 -9.24292,-0.87822 -3.07042,-2.78938 -4.41777,-9.80761 -2.4812,-12.92047 1.17942,-1.89583 1.15305,-2.55419 -0.13049,-3.3708 -0.8774,-0.55822 -2.19069,-1.02501 -2.91863,-1.03505 -0.72792,-0.01 -6.22714,-9.45411 -12.2222,-20.98677 -13.51039,-25.98981 -15.54201,-29.19911 -20.18225,-31.89438 l -3.71077,-2.15495 -0.21504,3.9446 c -0.11749,2.16984 -0.0996,5.64022 0.0386,7.71206 l 0.24995,3.76747 -14.00315,-0.50553 c -7.70194,-0.27739 -26.84405,-1.03286 -42.53881,-1.67894 -37.96357,-1.56277 -38.61851,-1.55279 -38.61851,0.59224 0,2.52342 2.24046,2.81584 32.68568,4.25086 55.91246,2.63542 59.95507,2.94765 61.74882,4.773 1.79791,1.8295 5.89184,32.65618 5.18846,39.07139 l -0.37678,3.43169 -13.07502,-3.67891 -13.07318,-3.67893 12.18175,-0.33947 c 8.63421,-0.24098 12.18367,-0.76533 12.18367,-1.80071 0,-3.3794 -4.83404,-4.49673 -18.76336,-4.33573 -13.63847,0.15764 -21.3438,-1.26235 -19.86621,-3.66231 0.43823,-0.71174 7.89128,-1.19555 18.42345,-1.19555 11.69581,0 17.96422,-0.44942 18.5042,-1.32656 1.71252,-2.78153 -3.08422,-3.47728 -22.06981,-3.19736 -10.78644,0.15906 -20.28027,-0.13263 -21.09754,-0.6476 -3.89751,-2.45643 0.0235,-3.14958 19.51324,-3.45198 15.50609,-0.24059 21.1297,-0.71604 21.49453,-1.81732 0.38544,-1.1631 -5.2856,-1.49075 -25.75482,-1.49075 -14.43615,0 -26.24743,0.29734 -26.24743,0.66051 0,1.89103 7.55713,9.88941 15.29333,16.18611 10.81587,8.80353 21.94012,14.52502 34.69091,17.84291 5.36897,1.39705 15.57781,4.90123 22.68733,7.78772 13.83543,5.61724 18.19861,6.26443 23.53831,3.49257 1.86007,-0.96556 5.54568,-2.10291 8.19163,-2.52764 4.49435,-0.72143 4.9658,-0.5192 7.15137,3.08851 1.28669,2.12394 2.70105,5.812 3.14468,8.19546 0.44364,2.38346 1.35427,4.99867 2.02355,5.81173 2.60545,3.1651 2.85881,0.0161 0.7021,-8.73051 -1.23849,-5.02247 -1.97703,-9.40816 -1.64127,-9.74525 0.33576,-0.33703 2.57451,3.48381 4.97526,8.49065 6.95732,14.50973 8.54617,11.24245 2.21654,-4.55897 -1.56445,-3.90555 -2.60775,-7.33783 -2.31947,-7.6272 2.20029,-2.20873 8.92618,11.60923 9.2172,18.93515 0.13611,3.42487 -0.56135,5.44511 -2.64662,7.67333 -1.55685,1.66357 -2.60544,3.21478 -2.33048,3.44829 0.27495,0.23353 5.31503,2.72827 11.19847,5.54235 10.82521,5.17775 19.4446,9.44802 28.25075,13.7987 52.25071,-48.48994 82.03888,-116.62331 82.21813,-188.05448 -4.6e-4,-141.928559 -114.61602,-256.983969 -256.00097,-256.983383 z m 74.67681,93.67946 c -2.07539,0.03844 -5.78975,0.412142 -12.34534,1.142049 -5.88348,0.655057 -19.78965,1.978159 -30.90289,2.939072 -33.60882,2.905982 -36.52278,3.270273 -34.84344,4.365251 2.04973,1.336346 46.89064,1.075754 56.81584,-0.330253 8.79203,-1.245474 23.78827,-5.815281 23.78827,-7.248974 0,-0.608511 -0.43704,-0.905581 -2.51244,-0.867145 z m -44.90791,29.042016 c -2.02008,-0.151625 -6.69364,0.370655 -11.67821,1.381899 -3.01267,0.611197 -7.46199,4.959337 -7.46199,7.293249 0,2.232627 9.95832,2.02868 14.85603,-0.304419 3.36527,-1.603047 5.27055,-4.454619 5.3336,-7.986971 0,-0.207022 -0.37603,-0.333217 -1.04943,-0.383758 z m -8.82571,48.833245 c -0.3445,-0.34588 -2.13742,0.10586 -3.98464,1.00367 -2.9084,1.4137 -3.37534,2.34752 -3.47734,6.96854 -0.22142,10.02885 -0.4818,10.83202 -4.79515,14.79868 -2.42095,2.22645 -3.95519,4.55865 -3.4939,5.30804 1.2603,2.04688 6.02872,1.59042 8.16775,-0.78228 2.0039,-2.22283 8.66734,-26.20847 7.58328,-27.29665 z m 51.44724,20.10118 c 0.99341,0.16649 2.8576,1.53489 5.90893,4.15677 4.73772,4.07093 5.36596,4.28673 8.7522,3.00365 2.00659,-0.76031 3.91841,-1.11259 4.24744,-0.78228 0.59197,0.59425 -1.17479,8.32773 -6.39414,27.99222 -1.48048,5.57793 -3.03072,11.6195 -3.44427,13.42415 -0.66661,2.90895 -3.02297,4.71014 -3.1208,2.38558 -0.0207,-0.49219 -0.78137,-6.26408 -1.69089,-12.82638 -0.9095,-6.56227 -2.24845,-16.22587 -2.97376,-21.47571 -0.7254,-5.24982 -1.61088,-11.02175 -1.96841,-12.82638 -0.43255,-2.18299 -0.30971,-3.21811 0.6837,-3.05162 z m -78.4997,28.24129 c -2.46171,0.0713 -5.12243,1.02451 -6.37201,2.81546 -3.20322,4.5907 -2.08661,11.66588 1.84157,11.66588 1.77909,0 2.25148,-0.8733 2.25148,-4.17521 0,-3.78999 0.31082,-4.17706 3.36706,-4.17706 4.12419,0 4.86694,-0.66244 4.08938,-3.64755 -0.45376,-1.74161 -2.71569,-2.55282 -5.17748,-2.48152 z m -59.39807,99.01518 c -3.05586,-0.14977 -6.01592,0.7895 -7.90671,2.86528 -5.20401,5.71328 -6.49462,10.04075 -11.64876,39.07507 -2.96317,16.6928 -3.19184,17.25267 -7.21205,17.60861 -15.38357,1.36197 -17.48072,3.47607 -4.06915,4.10326 l 7.7266,0.36162 -0.31788,6.10508 c -0.3031,5.83128 -0.14341,6.19049 3.56552,8.02571 5.60018,2.77103 7.7474,2.43273 9.79618,-1.54426 0.99729,-1.93609 1.81221,-5.47832 1.81221,-7.87258 0,-5.81151 2.82729,-11.44571 6.91055,-13.77471 2.62488,-1.49722 3.76435,-3.52936 5.35392,-9.54599 2.91358,-11.02829 7.94162,-34.01072 7.94162,-36.29837 0,-1.07391 -1.56284,-3.52267 -3.47367,-5.44087 -2.27105,-2.27976 -5.42252,-3.51807 -8.47838,-3.66785 z m 60.84827,69.28867 c -2.30653,-0.3585 -9.22386,1.99882 -27.65895,8.93714 -14.62135,5.50302 -28.86769,10.61948 -31.65828,11.37068 -7.95113,2.14034 -15.21494,5.58409 -17.91246,8.49066 -1.35911,1.46448 -3.06631,5.53887 -3.79343,9.05522 -0.85595,4.13865 -2.12877,6.82702 -3.60786,7.62166 -1.42922,0.76785 -6.85051,0.93273 -14.47549,0.44095 -13.23908,-0.85387 -16.52097,-0.13493 -41.30916,9.05522 -5.55662,2.06008 -11.4408,4.18049 -13.07506,4.71026 -1.06749,0.34606 -6.05084,2.30492 -9.23007,3.51471 18.18959,15.76657 38.50023,28.88346 60.33362,38.96439 1.1567,-1.30091 1.90265,-2.40328 2.39847,-3.47966 2.42623,-5.26694 18.39586,-49.62442 20.58843,-57.18737 2.44326,-8.42755 5.86724,-10.87323 22.75719,-16.24884 16.37145,-5.21053 57.66669,-22.43406 57.66669,-24.05132 0,-0.65405 -0.25483,-1.0742 -1.02364,-1.1937 z m 6.82605,0.32103 c -3.25997,-0.25822 -3.38673,1.4152 -3.40573,4.78406 -0.0104,1.77234 -0.52152,5.80067 -1.13581,8.95006 -6.4009,32.81755 -6.89973,35.04744 -12.35453,55.24089 -2.81806,10.432 -11.18211,37.27183 -16.88684,54.20033 1.396,0.11237 2.79284,0.21323 4.19044,0.30258 7.29393,-17.21886 17.8768,-48.6882 22.02386,-65.83854 2.8064,-11.60593 10.08649,-49.14754 10.08649,-52.01031 0,-0.59607 0.61862,-1.08301 1.37294,-1.08301 2.10543,0 26.36863,9.71344 27.99716,11.20832 0.79045,0.72569 2.28657,4.80817 3.3248,9.07367 2.97166,12.21058 16.99178,39.34003 28.05596,54.28888 6.54225,8.83941 16.13226,19.23759 25.83939,28.75051 1.65615,-0.60096 3.30608,-1.21907 4.94953,-1.85421 -13.15302,-12.28986 -23.12126,-23.58348 -30.60697,-34.88327 -6.47658,-9.77651 -16.9549,-30.39204 -16.9549,-33.35745 0,-1.57137 -1.88844,-5.7334 -4.196,-9.25078 l -4.196,-6.39659 6.27659,0.81364 c 9.58125,1.24133 28.06903,8.0003 35.58591,13.00903 8.17963,5.45035 21.21922,21.09565 17.58159,21.09565 -0.71521,0 -10.69941,-4.03774 -22.18743,-8.97404 -11.48801,-4.93632 -21.1088,-8.75439 -21.37877,-8.48327 -0.86781,0.87106 6.10544,5.26878 16.98429,10.71201 9.70817,4.85742 30.70925,13.5643 56.35262,23.36313 4.69803,1.79524 10.62203,4.35406 15.07466,6.36338 6.72543,-4.56932 13.23047,-9.45731 19.49303,-14.64739 -18.79092,-9.2761 -37.40759,-18.14244 -54.77384,-25.65646 -30.57829,-13.23061 -50.22038,-20.84331 -84.91036,-32.90727 -12.54978,-4.36438 -18.94221,-6.55534 -22.20208,-6.81355 z m 130.18575,87.96736 c -1.99076,0.23986 -4.38722,0.59891 -5.83725,0.74538 -4.57599,0.46225 -9.58306,1.31975 -11.12496,1.90587 -2.86158,1.08776 -2.60507,2.68765 1.92064,5.59402 5.10412,-2.57913 10.12079,-5.32909 15.04157,-8.24527 z"
       sodipodi:nodetypes="cccsssssscsssscscccssscccssccssscscscsssscssscsscssssscsccccscssssssssssssssssssccccsscssccsssscccsssscssssssccccssccccscccccsssssccssscsscscssscscssssssscsssssssssscssssssssssssssscsccccccsssscccccsssscscscsscssssssssssscsssscccssscssssssscsscsscsssssssssscssscssscssscscccscsssssssssscssssccsssssscccccsssscsccsscccssscssccssscsscc" />
  </g>
</svg>
