<?xml version="1.0" encoding="UTF-8" standalone="no"?>
<!-- Created with Inkscape (http://www.inkscape.org/) -->

<svg
   width="190"
   height="256"
   viewBox="0 0 50.270827 67.733325"
   version="1.1"
   id="svg5"
   xml:space="preserve"
   inkscape:version="1.2.2 (b0a8486541, 2022-12-01)"
   sodipodi:docname="logo2.svg"
   inkscape:export-filename="logo2.png"
   inkscape:export-xdpi="96"
   inkscape:export-ydpi="96"
   xmlns:inkscape="http://www.inkscape.org/namespaces/inkscape"
   xmlns:sodipodi="http://sodipodi.sourceforge.net/DTD/sodipodi-0.dtd"
   xmlns="http://www.w3.org/2000/svg"
   xmlns:svg="http://www.w3.org/2000/svg"><sodipodi:namedview
     id="namedview7"
     pagecolor="#ffffff"
     bordercolor="#999999"
     borderopacity="1"
     inkscape:showpageshadow="0"
     inkscape:pageopacity="0"
     inkscape:pagecheckerboard="0"
     inkscape:deskcolor="#d1d1d1"
     inkscape:document-units="mm"
     showgrid="false"
     inkscape:zoom="1.6819304"
     inkscape:cx="55.293608"
     inkscape:cy="54.699053"
     inkscape:window-width="2048"
     inkscape:window-height="1329"
     inkscape:window-x="26"
     inkscape:window-y="23"
     inkscape:window-maximized="0"
     inkscape:current-layer="layer1" /><defs
     id="defs2" /><g
     inkscape:label="Layer 1"
     inkscape:groupmode="layer"
     id="layer1"><path
       style="fill:#000000;fill-opacity:1;stroke-width:0.258051"
       d="m 10.337442,56.569636 c -0.7862372,-0.76387 -1.1772582,-1.74595 -1.9675122,-4.94157 -0.168855,-0.68281 -0.417423,-1.09672 -0.658617,-1.09672 -0.778443,0 -2.392629,-1.03805 -2.896747,-1.86284 -0.284625,-0.46568 -0.701404,-1.47285 -0.926174,-2.23816 -0.224769,-0.765313 -0.689075,-1.869953 -1.031799,-2.454755 -1.184874,-2.021848 -1.526545,-3.802921 -1.336905,-6.969265 0.239458,-3.998272 0.626743,-4.819403 1.840184,-3.901602 0.800837,0.605725 0.841644,0.486564 0.416935,-1.217534 -0.447871,-1.797088 -0.593729,-10.212347 -0.22474,-12.967046 l 0.207399,-1.548303 -0.528256,0.774151 c -0.78215,1.146223 -0.638136,0.491564 0.326397,-1.483791 0.467787,-0.958012 0.794574,-1.741841 0.726195,-1.741841 -0.06837,0 -0.353588,0.203214 -0.633795,0.451589 -0.493038,0.437038 -0.500031,0.433614 -0.216957,-0.106261 0.160867,-0.306817 0.765286,-0.962545 1.343147,-1.457171 1.119226,-0.95801 0.972579,-1.295335 -0.399321,-0.918572 l -0.774152,0.212602 0.630226,-0.484389 c 0.346625,-0.266415 1.101417,-0.627517 1.677327,-0.802452 0.829277,-0.251897 0.946655,-0.354235 0.564246,-0.491921 -0.441795,-0.159069 -0.426113,-0.211028 0.184461,-0.611094 0.367028,-0.240485 0.803313,-0.437243 0.969525,-0.437243 0.300659,0 0.206015,-1.5712473 -0.16391,-2.7212003 -0.157639,-0.490039 -0.150324,-0.489706 0.256263,0.01166 1.105806,1.363617 1.465744,1.68567 1.713102,1.532795 0.147476,-0.09114 0.2058,-0.328158 0.129618,-0.526693 -0.101715,-0.265098 0.09168,-0.360974 0.7279912,-0.360974 1.271676,0 1.820931,-0.648219 2.623816,-3.096608 0.659073,-2.009852 0.733363,-2.126753 0.887657,-1.396754 0.35232,1.66692 0.634994,1.564079 0.771197,-0.280576 l 0.133383,-1.806354 0.257881,1.141119 c 0.14184,0.627615 0.37212,1.176236 0.511746,1.219158 0.139625,0.04292 0.602233,-0.393476 1.028024,-0.96977 l 0.774152,-1.047808 0.129024,0.716578 0.129024,0.716579 0.846558,-1.016954 c 0.650259,-0.781141 0.837841,-0.897279 0.808951,-0.500851 -0.112404,1.542402 -0.0029,1.588494 1.069798,0.451589 1.126902,-1.194023 1.223037,-1.255776 1.20515,-0.774152 -0.04505,1.213706 0.02945,1.239651 1.281079,0.445905 1.599888,-1.014622 2.084324,-0.999195 2.204267,0.07019 l 0.09412,0.838665 0.681575,-1.419279 c 0.645557,-1.344299 0.682355,-1.376088 0.69643,-0.601719 0.02916,1.60457 0.249473,1.757887 1.200869,0.835753 l 0.859394,-0.832954 -0.15328,0.944587 c -0.15882,0.978652 0.0359,1.197571 0.530919,0.597092 0.157571,-0.191123 0.74068,-0.618595 1.295797,-0.94994 l 1.009298,-0.602444 -0.164183,0.820914 c -0.191337,0.956661 -0.0751,0.9928 1.028717,0.319766 0.4503,-0.27457 1.425183,-0.679316 2.166399,-0.899435 l 1.347672,-0.400215 -0.480623,0.577836 c -0.264338,0.317809 -0.885386,1.013296 -1.380101,1.545525 l -0.899492,0.967689 h 2.488632 c 1.380726,0 2.559622,0.114881 2.648102,0.258052 0.08768,0.141927 -0.05745,0.25805 -0.322526,0.25805 -0.265098,0 -0.707421,0.170491 -0.982916,0.378869 -0.459011,0.347179 -0.374159,0.379555 1.014478,0.387076 1.296986,0.007 1.470444,0.06236 1.203522,0.383979 -0.461946,0.556619 -0.151904,0.834508 1.148671,1.029542 0.640427,0.09604 1.164402,0.283621 1.164402,0.416852 0,0.133232 -0.139342,0.24224 -0.309661,0.24224 -0.753738,0 0.270503,0.490219 1.212846,0.580481 l 1.0322,0.09887 -0.83867,0.208681 c -1.136839,0.282874 -1.054075,0.582604 0.25806,0.934523 1.6021,0.429694 1.73959,0.611744 0.58061,0.768811 l -1.0322,0.139886 0.90318,0.4007563 c 0.49674,0.220415 1.04934,0.577017 1.22799,0.792451 0.27845,0.335781 0.2324,0.374029 -0.32257,0.26794 -0.91501,-0.174919 -0.8063,0.195568 0.39004,1.329213 1.12737,1.068301 1.72373,1.961856 1.30934,1.961856 -0.13854,0 -0.32366,-0.116122 -0.41137,-0.258051 -0.0877,-0.141928 -0.27863,-0.25805 -0.42424,-0.25805 -0.14562,0 0.21102,0.5405 0.7925,1.201109 1.08432,1.231847 1.23632,1.851041 0.23793,0.969236 -0.55087,-0.48655 -0.55613,-0.486248 -0.4009,0.0231 1.48122,4.860245 1.6497,6.695794 1.13789,12.397617 -0.2579,2.873252 -0.51274,4.412927 -0.83287,5.031987 -1.44506,8.280144 -0.9332,0.49431 0.6012,-0.778921 1.07632,-0.876996 1.8572,-0.253618 2.23633,1.785288 0.457126,2.458379 0.16437,5.1482 -0.80298,7.37757 -0.45636,1.051739 -1.16768,2.725112 -1.58069,3.718607 -0.87467,2.103968 -1.79734,2.479818 -3.07993,3.129228 -0.26933,0.13637 -0.15827,0.063 -0.45888,2.30447 -0.26204,1.95385 -0.599387,2.90828 -1.547457,4.37816 -13.791217,20.0365 -26.121247,8.51475 -30.689594,0.88598 z"
       id="path940"
       sodipodi:nodetypes="csssscsssscssssssscssssssssssssscssscccsscssccssscssscssscsscscsssssssscssscssssscsssssccsssssccc" /><path
       style="fill:#ffffff;fill-opacity:1;stroke-width:0.258051"
       d="m 21.274039,64.658976 c 0,-0.0672 -0.515373,-0.6376 -1.145268,-1.2675 -0.827637,-0.82764 -1.186091,-1.41995 -1.292449,-2.13571 -0.458113,-3.08271 -1.238312,-5.6552 -2.148003,-7.08238 -1.473848,-2.31229 -1.730071,-1.94672 -0.833342,1.18898 0.543442,1.90035 0.677556,3.86954 0.280255,4.11509 -0.322087,0.19906 -4.11401,-3.91244 -4.565852,-4.95065 -0.200006,-0.45956 -0.484475,-1.73691 -0.632156,-2.83856 -0.642524,-4.79309 -1.3179942,-7.689153 -2.1976162,-9.422288 -0.913367,-1.799628 -1.092951,-3.1538 -0.718569,-5.418754 0.144795,-0.876025 0.236191,-0.968064 0.964845,-0.971641 1.3398022,-0.0065 1.4835622,-0.232906 1.0541632,-1.659676 -0.2080532,-0.691325 -0.3782842,-1.528805 -0.3782842,-1.861069 0,-0.666534 -0.700126,-0.83297 -1.238643,-0.294454 -0.385491,0.385487 -0.385286,0.381982 0.07744,-1.341863 0.209526,-0.780604 0.382331,-1.642735 0.384019,-1.915848 0.0029,-0.458241 -0.04759,-0.448986 -0.653185,0.119937 -0.360933,0.339078 -1.028639,1.373125 -1.483787,2.297881 l -0.82755,1.681378 0.0088,4.649952 0.0088,4.649954 0.961646,2.250695 c 0.5289,1.237884 1.315117,3.734536 1.74714,5.548106 1.097145,4.60561 1.5514252,5.63492 3.2122302,7.27828 0.778385,0.77021 1.415242,1.49033 1.415242,1.60028 0,0.35013 5.3125,5.01158 6.222306,5.45976 0.833812,0.41075 1.777259,0.58067 1.777259,0.3201 z m 11.819281,-1.9349 c 2.47201,-1.86273 7.276317,-6.8125 7.911516,-8.15107 0.252283,-0.53165 0.686431,-2.1392 0.964761,-3.57233 0.278334,-1.43313 0.804374,-3.94111 1.168974,-5.573288 0.96919,-4.338614 1.04145,-5.141546 0.81569,-9.063534 -0.23212,-4.032465 -0.35357,-4.377027 -2.454046,-6.961799 -1.925349,-2.369282 -2.162632,-3.189023 -2.162632,-7.471289 0,-4.799988 0.07237,-4.738132 -4.644911,-3.973297 -2.727739,0.442265 -8.502946,2.266044 -9.351485,2.953148 -0.523088,0.423573 -0.6178,0.41181 -2.113847,-0.26247 -1.871609,-0.843551 -5.537661,-1.799975 -6.899446,-1.799975 -1.19451,0 -1.640334,0.574727 -2.083037,2.685298 -0.380575,1.814392 -0.249893,2.049868 1.757391,3.166616 l 1.530056,0.851247 -0.903176,0.0066 c -0.496754,0.0036 -1.160443,0.07557 -1.474873,0.159867 l -0.571697,0.153264 0.50718,0.994159 c 0.625193,1.22547 0.637541,1.680711 0.0556,2.049077 -0.249718,0.158071 -0.331976,0.338253 -0.184002,0.403076 0.147175,0.06447 1.076157,0.592855 2.064408,1.174182 0.988253,0.581325 2.25712,1.121069 2.819717,1.199431 0.562598,0.07837 1.2522,0.356102 1.532455,0.617198 1.178291,1.097753 2.098086,0.19064 1.899738,-1.873564 -0.109899,-1.14377 -0.08192,-1.220855 0.35786,-0.985498 0.347757,0.186114 0.477522,0.550169 0.478672,1.342966 7.81e-4,0.598199 0.179838,1.429456 0.397692,1.847231 0.321385,0.616319 0.338618,0.898391 0.09129,1.49542 -0.240999,0.581816 -0.232222,0.881916 0.04194,1.433835 0.244404,0.492036 0.37136,2.182897 0.430229,5.729999 0.04594,2.767594 0.14026,5.2918 0.209604,5.60934 0.06935,0.31754 0.413171,0.76545 0.764038,0.99535 0.598148,0.39193 0.704836,0.38314 1.709883,-0.14072 0.753778,-0.39289 1.152963,-0.47769 1.344943,-0.28571 0.399291,0.39929 1.088621,0.33348 1.482871,-0.14157 0.29149,-0.35122 0.256876,-0.5661 -0.226458,-1.405896 -0.675509,-1.17373 -0.690285,-1.276141 -0.184187,-1.276141 0.56285,0 2.423439,1.754117 3.269717,3.082627 0.501787,0.7877 0.727864,1.47511 0.721407,2.19344 l -0.0098,1.0462 -1.426236,-1.51341 -1.426225,-1.51341 -0.564255,0.51785 c -0.310334,0.28482 -0.934727,0.59616 -1.387534,0.69187 -0.561876,0.11876 -0.987705,0.4527 -1.341139,1.05173 -0.587789,0.99623 -1.622076,1.39266 -2.257519,0.86528 -0.360406,-0.29911 -0.530432,-0.20889 -1.283068,0.68082 -0.47718,0.5641 -0.869333,1.10349 -0.871439,1.19866 -0.0019,0.0952 0.365068,0.25406 0.815963,0.35309 0.62571,0.13743 0.897694,0.0735 1.148827,-0.26991 0.313787,-0.42913 0.504927,-0.41624 1.386022,0.0934 0.21289,0.12315 1.468026,0.58626 2.789181,1.02914 l 2.402099,0.80524 0.419178,-0.96299 0.419179,-0.96298 0.180287,0.77415 c 0.21057,0.9042 0.291843,2.45148 0.128761,2.45148 -0.06193,0 -1.310243,-0.29016 -2.774046,-0.64479 -3.017256,-0.73099 -3.929229,-0.7777 -5.758071,-0.29487 l -1.290246,0.34063 1.857291,0.42854 c 1.02151,0.2357 2.11529,0.42854 2.430618,0.42854 0.315327,0 1.163319,0.33286 1.884434,0.73969 0.721115,0.40683 1.688525,0.82248 2.149787,0.92368 0.567026,0.1244 0.838669,0.33428 0.838669,0.64799 0,0.79815 -0.657564,1.10921 -1.993728,0.94312 -4.264463,-0.53007 -4.065578,-0.54416 -5.351338,0.37921 l -1.189761,0.85441 0.97727,0.38319 c 0.537494,0.21075 1.906243,0.9414 3.041669,1.62368 1.135416,0.68227 2.260475,1.24185 2.500108,1.24352 0.239644,0.002 1.356012,-0.69044 2.480829,-1.53801 z M 31.620718,41.150968 c -0.937702,-0.868153 -1.804645,-1.969655 -2.188,-2.780015 -0.492209,-1.040436 -0.856995,-1.440323 -1.622769,-1.778892 -0.6561,-0.290082 -1.277528,-0.880141 -1.850543,-1.757123 -0.83467,-1.277452 -0.856867,-1.378702 -0.68258,-3.114109 0.09907,-0.986551 0.334678,-1.948273 0.523566,-2.137158 0.234289,-0.234295 0.259462,-0.427396 0.0792,-0.607644 -0.180247,-0.180249 0.501563,-0.512193 2.145506,-1.04455 1.325348,-0.429185 2.758087,-0.845514 3.183878,-0.925176 0.75923,-0.14205 0.761717,-0.13907 0.129024,0.154616 -0.354818,0.164703 -1.595002,0.719512 -2.755961,1.232912 -1.668082,0.737658 -2.061327,1.0117 -1.874819,1.306499 0.129804,0.205177 0.23779,0.634323 0.239966,0.95366 0.0058,0.79862 0.890399,1.613787 1.745794,1.608094 0.390299,-0.0026 1.696678,-0.422323 2.903067,-0.932726 4.000595,-1.692583 4.852265,-1.969783 5.529646,-1.79977 0.66521,0.166957 2.469923,1.596031 2.469923,1.955821 0,0.108538 -0.44201,0.256628 -0.982244,0.329089 -1.751168,0.234881 -7.620807,2.899707 -7.458633,3.38623 0.182578,0.547727 2.355199,0.963975 4.622033,0.885523 1.381058,-0.0478 2.153035,0.01447 2.005539,0.161785 -0.131881,0.131721 -0.956379,0.256546 -1.832207,0.277386 -1.347282,0.03206 -1.670159,0.133912 -2.097501,0.661646 -0.333849,0.412288 -0.714492,0.596311 -1.122768,0.54281 -0.894086,-0.117162 -0.806454,0.711044 0.174541,1.649555 0.435731,0.416856 1.035889,1.151616 1.333689,1.632801 0.525282,0.848746 0.527116,0.885364 0.06164,1.22574 -0.755748,0.552611 -1.026797,0.442629 -2.678992,-1.087004 z m -12.422517,2.531373 c 0.430949,-0.522823 0.916087,-1.360146 1.078067,-1.860715 0.16198,-0.500567 0.498246,-1.374615 0.747243,-1.942327 0.799246,-1.82223 0.808717,-1.935379 0.161931,-1.935379 -0.76082,0 -1.816914,-1.345934 -1.390606,-1.772241 0.439523,-0.439525 0.03843,-0.684327 -2.340361,-1.428421 -3.115081,-0.974402 -4.830171,-0.852733 -4.213814,0.298928 0.355772,0.664766 0.646121,0.767236 3.466648,1.223424 2.363653,0.38229 3.076691,0.694261 2.618442,1.145623 -0.497739,0.490267 -4.280809,1.306839 -6.054397,1.306839 h -1.818972 l 1.330878,1.999893 c 0.731978,1.09994 1.974298,2.661629 2.7607,3.470415 l 1.429833,1.470526 0.720422,-0.51299 c 0.396239,-0.282141 1.073036,-0.940752 1.503986,-1.463575 z"
       id="path288"
       sodipodi:nodetypes="ccssssssscsssscsscccssssscccssssssssssssccscsssssssscscssssssssssccccssssscsssscccsssscssssssscsscccscssssssssssccssssssssssssssscssssssssscsscsss" /></g></svg>
