<?xml version="1.0" encoding="UTF-8" standalone="no"?>
<svg
   xml:space="preserve"
   width="32"
   height="32"
   version="1.1"
   id="svg1"
   sodipodi:docname="mac.svg"
   inkscape:version="1.4.1-rc (06eac75fbf, 2025-03-29)"
   xmlns:inkscape="http://www.inkscape.org/namespaces/inkscape"
   xmlns:sodipodi="http://sodipodi.sourceforge.net/DTD/sodipodi-0.dtd"
   xmlns="http://www.w3.org/2000/svg"
   xmlns:svg="http://www.w3.org/2000/svg"><defs
   id="defs1" /><sodipodi:namedview
   id="namedview1"
   pagecolor="#ffffff"
   bordercolor="#000000"
   borderopacity="0.25"
   inkscape:showpageshadow="2"
   inkscape:pageopacity="0.0"
   inkscape:pagecheckerboard="0"
   inkscape:deskcolor="#d1d1d1"
   inkscape:zoom="13.157843"
   inkscape:cx="21.622085"
   inkscape:cy="30.59012"
   inkscape:window-width="1748"
   inkscape:window-height="1223"
   inkscape:window-x="26"
   inkscape:window-y="23"
   inkscape:window-maximized="0"
   inkscape:current-layer="svg1" />
  <path
   d="m 28.413735,10.951495 c -0.185618,0.144015 -3.462746,1.990599 -3.462746,6.09661 0,4.749275 4.170017,6.429443 4.294829,6.471047 -0.0192,0.10241 -0.662466,2.30103 -2.198619,4.541254 C 25.677461,30.031803 24.246919,32 22.070701,32 c -2.176217,0 -2.736274,-1.264126 -5.248525,-1.264126 -2.448245,0 -3.318732,1.30573 -5.309331,1.30573 -1.9905992,0 -3.3795382,-1.824182 -4.9764979,-4.064406 -1.849785,-2.630663 -3.3443345,-6.717472 -3.3443345,-10.59626 0,-6.221422 4.0452045,-9.5209519 8.0264024,-9.5209519 2.115412,0 3.878789,1.3889387 5.206921,1.3889387 1.264127,0 3.235524,-1.4721474 5.642164,-1.4721474 0.912092,0 4.18922,0.083209 6.346235,3.1747176 z M 20.924986,5.1429142 c 0.9953,-1.1809181 1.69937,-2.819482 1.69937,-4.45804589 0,-0.2272227 -0.0192,-0.45764575 -0.06081,-0.64326431 -1.619362,0.06080608 -3.545954,1.0785079 -4.70767,2.4258426 -0.912092,1.0369037 -1.763377,2.6754676 -1.763377,4.3364337 0,0.2496247 0.0416,0.4992499 0.06081,0.5792579 0.10241,0.019203 0.268827,0.041603 0.435244,0.041603 1.452945,0 3.280328,-0.972897 4.336433,-2.2818281 z"
   id="path1"
   style="stroke-width:0.0320032;fill:#ffffff;fill-opacity:1" />
</svg>
