<?xml version="1.0" encoding="UTF-8" standalone="no"?>
<svg
   width="35"
   height="35"
   viewBox="0 0 35 35"
   class="logo-3oeRIY"
   version="1.1"
   id="svg22"
   sodipodi:docname="s_discord.svg"
   inkscape:version="1.2.2 (b0a8486541, 2022-12-01)"
   xmlns:inkscape="http://www.inkscape.org/namespaces/inkscape"
   xmlns:sodipodi="http://sodipodi.sourceforge.net/DTD/sodipodi-0.dtd"
   xmlns="http://www.w3.org/2000/svg"
   xmlns:svg="http://www.w3.org/2000/svg">
  <defs
     id="defs26" />
  <sodipodi:namedview
     id="namedview24"
     pagecolor="#ffffff"
     bordercolor="#666666"
     borderopacity="1.0"
     inkscape:pageshadow="2"
     inkscape:pageopacity="0.0"
     inkscape:pagecheckerboard="0"
     showgrid="false"
     inkscape:zoom="5.6451613"
     inkscape:cx="5.2257143"
     inkscape:cy="2.5685714"
     inkscape:window-width="1551"
     inkscape:window-height="970"
     inkscape:window-x="26"
     inkscape:window-y="23"
     inkscape:window-maximized="0"
     inkscape:current-layer="svg22"
     inkscape:showpageshadow="0"
     inkscape:deskcolor="#d1d1d1" />
  <path
     d="m 29.672359,6.6733757 c -2.281672,-1.0435509 -4.704851,-1.8041123 -7.23416,-2.228608 -0.318389,0.5483136 -0.672154,1.2911753 -0.91979,1.8748654 -2.690215,-0.3891305 -5.36103,-0.3891305 -8.014156,0 C 13.256617,5.735943 12.885163,4.9930813 12.584463,4.4447677 10.037523,4.8692634 7.614344,5.6298248 5.3485906,6.6733757 0.76755788,13.429953 -0.47056515,20.027336 0.14849465,26.536277 3.1907243,28.747197 6.1268631,30.091505 9.0116831,30.975919 9.7191797,30.020752 10.355935,28.994833 10.904248,27.915962 9.8606859,27.52682 8.8701884,27.049237 7.9150674,26.483212 c 0.2476244,-0.176768 0.4952602,-0.371339 0.7251963,-0.56591 5.7660913,2.635438 12.0115343,2.635438 17.7068153,0 0.247635,0.194571 0.477583,0.389142 0.725219,0.56591 -0.955167,0.566025 -1.945596,1.043608 -2.989204,1.43275 0.548337,1.078871 1.185114,2.10479 1.892531,3.059957 2.883074,-0.884414 5.836901,-2.228722 8.863193,-4.439642 C 35.5993,19.00153 33.634304,12.457212 29.672359,6.6733757 Z M 11.700163,22.521268 c -1.7333817,0 -3.1483749,-1.574142 -3.1483749,-3.50205 0,-1.927907 1.3796166,-3.502163 3.1483749,-3.502163 1.751025,0 3.183661,1.574256 3.148284,3.502163 0,1.927908 -1.397259,3.50205 -3.148284,3.50205 z m 11.62245,0 c -1.733451,0 -3.150224,-1.574142 -3.150224,-3.50205 0,-1.927907 1.381397,-3.502163 3.150224,-3.502163 1.751024,0 3.18366,1.574256 3.148284,3.502163 0,1.927908 -1.379571,3.50205 -3.148284,3.50205 z"
     id="path2"
     style="opacity:1;fill:#6a696f;stroke-width:1.14118;fill-opacity:1" />
</svg>
