<?xml version="1.0" encoding="UTF-8" standalone="no"?>
<!-- Created with Inkscape (http://www.inkscape.org/) -->

<svg
   version="1.1"
   id="svg2"
   xml:space="preserve"
   width="35"
   height="35"
   viewBox="0 0 35 35"
   sodipodi:docname="s_facebook.svg"
   inkscape:version="1.2.2 (b0a8486541, 2022-12-01)"
   xmlns:inkscape="http://www.inkscape.org/namespaces/inkscape"
   xmlns:sodipodi="http://sodipodi.sourceforge.net/DTD/sodipodi-0.dtd"
   xmlns="http://www.w3.org/2000/svg"
   xmlns:svg="http://www.w3.org/2000/svg"><defs
     id="defs6"><clipPath
       clipPathUnits="userSpaceOnUse"
       id="clipPath16"><path
         d="M 0,512 H 512 V 0 H 0 Z"
         id="path14" /></clipPath></defs><sodipodi:namedview
     id="namedview4"
     pagecolor="#ffffff"
     bordercolor="#666666"
     borderopacity="1.0"
     inkscape:pageshadow="2"
     inkscape:pageopacity="0.0"
     inkscape:pagecheckerboard="0"
     showgrid="false"
     inkscape:zoom="17.460938"
     inkscape:cx="1.8326621"
     inkscape:cy="17.811185"
     inkscape:window-width="2494"
     inkscape:window-height="1371"
     inkscape:window-x="0"
     inkscape:window-y="0"
     inkscape:window-maximized="1"
     inkscape:current-layer="g8"
     inkscape:showpageshadow="0"
     inkscape:deskcolor="#d1d1d1" /><g
     id="g8"
     inkscape:groupmode="layer"
     inkscape:label="facebook-icon-seeklogo.com"
     transform="matrix(1.3333333,0,0,-1.3333333,0,682.66667)"><path
       d="M 22.712607,512.00002 H 3.537073 C 1.5836802,512.00002 0,510.41634 0,508.46295 v -19.17554 c 0,-1.95363 1.5836802,-3.53707 3.537073,-3.53707 h 9.457212 l 0.01629,9.37999 h -2.437166 c -0.316736,0 -0.5738332,0.25622 -0.5747964,0.57287 l -0.01188,3.02385 c -0.00128,0.31826 0.2567764,0.5772 0.5750374,0.5772 h 2.432832 v 2.92166 c 0,3.39035 2.070663,5.2365 5.095067,5.2365 h 2.482036 c 0.317297,0 0.575037,-0.25742 0.575037,-0.57504 v -2.54946 c 0,-0.31762 -0.257418,-0.57503 -0.574716,-0.57503 l -1.523239,-8.9e-4 c -1.644844,0 -1.963426,-0.7814 -1.963426,-1.92867 v -2.52931 h 3.61429 c 0.344589,0 0.61172,-0.30076 0.570944,-0.64246 L 20.9122,495.63771 c -0.03419,-0.28945 -0.279653,-0.50738 -0.570944,-0.50738 h -3.239521 l -0.01637,-9.38031 h 5.627242 c 1.953392,0 3.537073,1.58376 3.537073,3.53715 v 19.17578 c 0,1.95339 -1.583681,3.53707 -3.537073,3.53707"
       style="fill:#6a696f;fill-opacity:1;fill-rule:nonzero;stroke:none;stroke-width:0.0802676"
       id="path20" /></g></svg>
