<?xml version="1.0" encoding="UTF-8" standalone="no"?>
<svg
   width="35"
   height="35"
   viewBox="0 0 35 35"
   style="fill:#c7c7c7"
   version="1.1"
   id="svg4"
   sodipodi:docname="s_insta.svg"
   inkscape:version="1.2.2 (b0a8486541, 2022-12-01)"
   xmlns:inkscape="http://www.inkscape.org/namespaces/inkscape"
   xmlns:sodipodi="http://sodipodi.sourceforge.net/DTD/sodipodi-0.dtd"
   xmlns="http://www.w3.org/2000/svg"
   xmlns:svg="http://www.w3.org/2000/svg">
  <defs
     id="defs8" />
  <sodipodi:namedview
     id="namedview6"
     pagecolor="#ffffff"
     bordercolor="#666666"
     borderopacity="1.0"
     inkscape:pageshadow="2"
     inkscape:pageopacity="0.0"
     inkscape:pagecheckerboard="0"
     showgrid="false"
     inkscape:zoom="14.9"
     inkscape:cx="24.161074"
     inkscape:cy="24.966443"
     inkscape:window-width="2494"
     inkscape:window-height="1371"
     inkscape:window-x="0"
     inkscape:window-y="0"
     inkscape:window-maximized="1"
     inkscape:current-layer="svg4"
     inkscape:showpageshadow="0"
     inkscape:deskcolor="#d1d1d1" />
  <path
     d="m 17.500438,0.01370716 c -4.754286,0 -5.352218,0.0218756 -7.21893,0.10208586 -1.8594222,0.087502 -3.1354958,0.386468 -4.2438568,0.8166872 A 8.5752147,8.5752147 0 0 0 2.9386153,2.9523224 8.5752147,8.5752147 0 0 0 0.918773,6.0513583 C 0.481262,7.1597193 0.1895881,8.435793 0.1020859,10.295214 0.0218755,12.161928 0,12.75986 0,17.514145 c 0,4.739702 0.021875,5.344926 0.1020859,7.204347 0.087502,1.866714 0.386468,3.135496 0.8166871,4.251149 a 8.5752147,8.5752147 0 0 0 2.0198423,3.099036 8.5752147,8.5752147 0 0 0 3.0990359,2.019841 c 1.108361,0.43022 2.3844346,0.729186 4.2438568,0.809396 C 12.14822,34.985424 12.746152,35 17.500438,35 c 4.739702,0 5.344925,-0.01458 7.204347,-0.102086 1.866713,-0.08751 3.135495,-0.379176 4.251148,-0.809396 a 8.5752147,8.5752147 0 0 0 3.099036,-2.019841 8.5752147,8.5752147 0 0 0 2.019843,-3.099036 c 0.430218,-1.115653 0.729184,-2.384435 0.809394,-4.251149 0.0875,-1.859421 0.102086,-2.457353 0.102086,-7.211638 0,-4.746994 -0.01458,-5.344926 -0.102086,-7.21164 C 34.796705,8.435793 34.50503,7.1597193 34.074812,6.0513583 A 8.5752147,8.5752147 0 0 0 32.054969,2.9523224 8.5752147,8.5752147 0 0 0 28.955933,0.93248022 c -1.115653,-0.437511 -2.384435,-0.729185 -4.251148,-0.8166872 A 124.10728,124.10728 0 0 0 17.500438,0.01370716 Z m 0,3.15007884 c 4.666784,0 5.220964,0.021876 7.065802,0.1020858 1.706292,0.080211 2.625066,0.3645925 3.244873,0.6052236 0.816687,0.3135495 1.400035,0.6927256 2.01255,1.3125329 a 5.417844,5.417844 0 0 1 1.312533,2.0052584 c 0.233339,0.6198073 0.525013,1.545872 0.597932,3.2521643 0.08751,1.844838 0.102086,2.399019 0.102086,7.073094 0,4.666784 -0.01458,5.220964 -0.102086,7.065803 -0.07292,1.706292 -0.364593,2.625065 -0.597932,3.244872 a 5.417844,5.417844 0 0 1 -1.312533,2.012551 5.417844,5.417844 0 0 1 -2.01255,1.312533 c -0.612515,0.233338 -1.538581,0.525013 -3.244873,0.597931 -1.844838,0.08751 -2.40631,0.102086 -7.073094,0.102086 -4.666783,0 -5.220964,-0.01458 -7.073094,-0.102086 C 8.7210516,31.674917 7.7949868,31.383242 7.1751796,31.149904 A 5.417844,5.417844 0 0 1 5.1626292,29.837371 5.417844,5.417844 0 0 1 3.8500963,27.82482 C 3.6167572,27.212304 3.3323751,26.28624 3.2521647,24.579948 A 121.40929,121.40929 0 0 1 3.1500788,17.506854 c 0,-4.666784 0.021875,-5.220965 0.1020859,-7.073094 0.08021,-1.6990013 0.3645925,-2.625066 0.6052235,-3.2448733 A 5.417844,5.417844 0 0 1 5.169921,5.1763363 5.417844,5.417844 0 0 1 7.1751796,3.8638035 C 7.7949868,3.6304643 8.7210516,3.3460822 10.427345,3.2658718 12.272182,3.1856618 12.826363,3.163786 17.500438,3.163786 Z m 0,5.3595092 a 8.9835585,8.9835585 0 1 0 0,17.9671168 8.9835584,8.9835584 0 0 0 0,-17.9671168 z m 0,14.8243288 a 5.8334795,5.8334795 0 1 1 0,-11.666958 5.8334795,5.8334795 0 0 1 0,11.666958 z M 28.934058,8.1805783 a 2.100053,2.100053 0 1 0 -4.200106,0 2.100053,2.100053 0 0 0 4.200106,0 z"
     id="path2"
     style="fill:#6a696f;fill-opacity:1;stroke-width:0.729185" />
</svg>
