<?xml version="1.0" encoding="UTF-8" standalone="no"?>
<!-- Generator: Adobe Illustrator 16.0.0, SVG Export Plug-In . SVG Version: 6.00 Build 0)  -->

<svg
   version="1.1"
   id="Layer_1"
   x="0px"
   y="0px"
   width="35"
   height="35"
   viewBox="0 0 34.999999 35.000001"
   enable-background="new 0 0 1000 291.379"
   xml:space="preserve"
   sodipodi:docname="s_tiktok.svg"
   inkscape:version="1.2.2 (b0a8486541, 2022-12-01)"
   xmlns:inkscape="http://www.inkscape.org/namespaces/inkscape"
   xmlns:sodipodi="http://sodipodi.sourceforge.net/DTD/sodipodi-0.dtd"
   xmlns="http://www.w3.org/2000/svg"
   xmlns:svg="http://www.w3.org/2000/svg"><defs
   id="defs21">
	
	
	
	
	
	
	
</defs><sodipodi:namedview
   id="namedview19"
   pagecolor="#ffffff"
   bordercolor="#666666"
   borderopacity="1.0"
   inkscape:pageshadow="2"
   inkscape:pageopacity="0.0"
   inkscape:pagecheckerboard="0"
   showgrid="false"
   fit-margin-top="0"
   fit-margin-left="0"
   fit-margin-right="0"
   fit-margin-bottom="0"
   inkscape:zoom="11.2"
   inkscape:cx="16.607143"
   inkscape:cy="19.464286"
   inkscape:window-width="2494"
   inkscape:window-height="1371"
   inkscape:window-x="0"
   inkscape:window-y="0"
   inkscape:window-maximized="1"
   inkscape:current-layer="Layer_1"
   inkscape:showpageshadow="0"
   inkscape:deskcolor="#d1d1d1" />
<path
   fill="#ff004f"
   d="m 24.830869,12.634258 c 2.259901,1.614627 5.028382,2.56464 8.018481,2.56464 V 9.448006 C 32.283474,9.4481262 31.719039,9.389148 31.165415,9.271913 v 4.526769 c -2.989858,0 -5.757979,-0.950014 -8.018481,-2.56452 v 11.735894 c 0,5.870891 -4.76172,10.629848 -10.635253,10.629848 -2.191554,0 -4.2285156,-0.662211 -5.9206187,-1.797927 C 8.5223204,33.775637 11.215608,35 14.195256,35 20.069149,35 24.83111,30.241043 24.83111,24.369912 V 12.634258 Z M 26.908191,6.8323152 C 25.753256,5.5711957 24.994951,3.9414339 24.830869,2.139663 V 1.399976 h -1.595768 c 0.401675,2.2900508 1.771741,4.2465337 3.67309,5.4323392 z M 10.306074,27.296829 C 9.6607994,26.451198 9.3120967,25.416741 9.3136582,24.353096 c 0,-2.685119 2.1779808,-4.862259 4.8650218,-4.862259 0.500772,-1.2e-4 0.998541,0.07652 1.47577,0.227864 v -5.879419 c -0.557708,-0.0764 -1.120581,-0.108827 -1.683214,-0.09694 V 18.3186 c -0.47759,-0.151349 -0.975599,-0.228225 -1.476491,-0.227744 -2.6870412,0 -4.8649018,2.176899 -4.8649018,4.862379 0,1.898826 1.08863,3.542762 2.6762308,4.343589 z"
   id="path2"
   style="stroke-width:0.120118;opacity:0.2912048;fill:#7f7f7f;fill-opacity:1" /><path
   d="m 23.146934,11.234041 c 2.260502,1.614507 5.028623,2.564521 8.018481,2.564521 V 9.2717928 C 29.496495,8.9164836 28.019043,8.0447869 26.908191,6.8323152 25.006722,5.6463896 23.636776,3.6899067 23.235101,1.399976 h -4.19164 v 22.969696 c -0.0095,2.677792 -2.183746,4.846043 -4.865022,4.846043 -1.580032,0 -2.983732,-0.75278 -3.872726,-1.918886 -1.58748,-0.800827 -2.67611,-2.444883 -2.67611,-4.343469 0,-2.685239 2.1778605,-4.862379 4.864901,-4.862379 0.514826,0 1.011034,0.08012 1.476492,0.227744 V 13.742467 C 8.2006443,13.861624 3.559883,18.574096 3.559883,24.369792 c 0,2.893164 1.1556559,5.515941 3.0312994,7.432305 1.6921031,1.135596 3.7290656,1.797927 5.9206186,1.797927 5.873653,0 10.635253,-4.759198 10.635253,-10.629968 V 11.234041 Z"
   id="path4"
   style="stroke-width:0.120118;fill:#6a696f;fill-opacity:1" /><path
   fill="#00f2ea"
   d="m 31.165415,9.2717928 v -1.224003 c -1.504959,0.00228 -2.980369,-0.4189718 -4.257224,-1.2155947 1.130311,1.2368556 2.618694,2.0896938 4.257224,2.4395977 z M 23.235101,1.399976 C 23.196783,1.1811209 23.167354,0.96082435 23.146934,0.73968701 V 0 h -5.787528 v 22.969936 c -0.0092,2.677432 -2.183386,4.845683 -4.864902,4.845683 -0.787253,0 -1.530544,-0.186784 -2.188791,-0.51867 0.888994,1.165986 2.292694,1.918646 3.872726,1.918646 2.681036,0 4.855653,-2.168011 4.865022,-4.845803 V 1.399976 Z m -9.263865,12.342491 v -1.303041 c -0.483595,-0.06607 -0.971155,-0.09922 -1.459314,-0.09898 -5.8741338,-1.17e-4 -10.6358539,4.75908 -10.6358539,10.62949 0,3.680417 1.8714394,6.923965 4.7152344,8.831921 -1.8756435,-1.916244 -3.0312993,-4.539142 -3.0312993,-7.432185 0,-5.795576 4.6406411,-10.508048 10.4112328,-10.627205 z"
   id="path6"
   style="stroke-width:0.120118;opacity:0.23255403;fill:#9e9e9e;fill-opacity:1" />
</svg>
