<?xml version="1.0" encoding="UTF-8" standalone="no"?>
<svg
   viewBox="0 0 35 34.999999"
   aria-hidden="true"
   class="r-1fmj7o5 r-4qtqp9 r-yyyyoo r-16y2uox r-8kz0gk r-dnmrzs r-bnwqim r-1plcrui r-lrvibr r-lrsllp"
   version="1.1"
   id="svg6"
   sodipodi:docname="s_twitter.svg"
   width="35"
   height="35"
   inkscape:version="1.2.2 (b0a8486541, 2022-12-01)"
   xmlns:inkscape="http://www.inkscape.org/namespaces/inkscape"
   xmlns:sodipodi="http://sodipodi.sourceforge.net/DTD/sodipodi-0.dtd"
   xmlns="http://www.w3.org/2000/svg"
   xmlns:svg="http://www.w3.org/2000/svg">
  <defs
     id="defs10" />
  <sodipodi:namedview
     id="namedview8"
     pagecolor="#ffffff"
     bordercolor="#666666"
     borderopacity="1.0"
     inkscape:pageshadow="2"
     inkscape:pageopacity="0.0"
     inkscape:pagecheckerboard="0"
     showgrid="false"
     fit-margin-top="0"
     fit-margin-left="0"
     fit-margin-right="0"
     fit-margin-bottom="0"
     inkscape:zoom="15.520833"
     inkscape:cx="15.334229"
     inkscape:cy="14.496645"
     inkscape:window-width="2494"
     inkscape:window-height="1371"
     inkscape:window-x="0"
     inkscape:window-y="0"
     inkscape:window-maximized="1"
     inkscape:current-layer="g4"
     inkscape:showpageshadow="0"
     inkscape:deskcolor="#d1d1d1" />
  <g
     id="g4">
    <path
       d="M 34.885707,7.0169842 C 33.598602,7.587318 32.215928,7.9726787 30.762348,8.1468618 32.245215,7.2589907 33.3828,5.850112 33.919222,4.1730222 32.531924,4.9961527 30.995105,5.5942325 29.359635,5.9148526 28.049408,4.5213883 26.184262,3.6489317 24.118729,3.6489317 c -3.964591,0 -7.18004,3.2154497 -7.18004,7.1831233 0,0.561085 0.06474,1.106756 0.184973,1.633929 C 11.153654,12.165403 5.8649634,9.3060267 2.3227279,4.962241 1.7061507,6.0258365 1.3516189,7.2589907 1.3516189,8.5723 c 0,2.490971 1.2686074,4.69061 3.1938695,5.977715 -1.1776623,-0.03854 -2.2844183,-0.360697 -3.2524443,-0.898661 v 0.09249 c 0,3.479036 2.4740156,6.381573 5.7603717,7.041311 -0.6042456,0.163392 -1.2377786,0.249713 -1.8913503,0.249713 -0.4624329,0 -0.9140756,-0.04316 -1.3518454,-0.126398 0.9140756,2.851669 3.5653572,4.929534 6.7083589,4.985026 -2.4586011,1.926803 -5.5553596,3.075178 -8.9187878,3.075178 -0.5795825,0 -1.15145778,-0.03391 -1.7140844,-0.100194 3.178455,2.039329 6.951907,3.22624 11.0059022,3.22624 13.210164,0 20.431824,-10.941161 20.431824,-20.430283 0,-0.308288 -0.0077,-0.61966 -0.02158,-0.927948 1.402712,-1.0142697 2.620452,-2.2767114 3.580771,-3.7148775 z"
       id="path2"
       style="stroke-width:1.54144;fill:#6a696f;fill-opacity:1" />
  </g>
</svg>
