<?xml version="1.0" encoding="UTF-8" standalone="no"?>
<!-- Generator: Adobe Illustrator 16.0.0, SVG Export Plug-In . SVG Version: 6.00 Build 0)  -->

<svg
   version="1.1"
   id="Layer_1"
   x="0px"
   y="0px"
   width="35"
   height="35"
   viewBox="0 0 35.000001 35"
   enable-background="new 0 0 355.666 89.333"
   xml:space="preserve"
   sodipodi:docname="steam_.svg"
   inkscape:version="1.2.2 (b0a8486541, 2022-12-01)"
   xmlns:inkscape="http://www.inkscape.org/namespaces/inkscape"
   xmlns:sodipodi="http://sodipodi.sourceforge.net/DTD/sodipodi-0.dtd"
   xmlns="http://www.w3.org/2000/svg"
   xmlns:svg="http://www.w3.org/2000/svg"><defs
   id="defs25">
	
	
	
	
	
	
	
	
	
</defs><sodipodi:namedview
   id="namedview23"
   pagecolor="#ffffff"
   bordercolor="#999999"
   borderopacity="1"
   inkscape:showpageshadow="0"
   inkscape:pageopacity="0"
   inkscape:pagecheckerboard="0"
   inkscape:deskcolor="#d1d1d1"
   showgrid="false"
   inkscape:zoom="14.944283"
   inkscape:cx="38.007846"
   inkscape:cy="24.022565"
   inkscape:window-width="1451"
   inkscape:window-height="1063"
   inkscape:window-x="26"
   inkscape:window-y="23"
   inkscape:window-maximized="0"
   inkscape:current-layer="Layer_1" />
<path
   fill="#C5C3C0"
   d="M 17.469684,0 C 8.2608893,0 0.71687369,7.0883772 0,16.096606 l 9.3958402,3.878076 c 0.7961298,-0.543556 1.7579058,-0.862015 2.7925978,-0.862015 0.09273,0 0.185063,0.0031 0.276604,0.0083 l 4.178395,-6.045969 c 0,-0.02888 -3.96e-4,-0.05696 -3.96e-4,-0.08545 0,-3.6391324 2.965376,-6.5998097 6.611169,-6.5998097 3.645395,0 6.610772,2.9606773 6.610772,6.5998097 0,3.639133 -2.965377,6.600206 -6.610772,6.600206 -0.05033,0 -0.100257,-0.0012 -0.150191,-0.0023 l -5.959285,4.244797 c 0.0032,0.07714 0.0059,0.155867 0.0059,0.234196 0,2.732021 -2.225915,4.953715 -4.96224,4.953715 -2.4018637,0 -4.4102195,-1.711369 -4.865151,-3.977767 L 0.60393339,22.269167 C 2.6844125,29.614684 9.4445829,35 17.469684,35 27.15164,35 35,27.164728 35,17.500594 35,7.8348762 27.151244,0 17.469684,0"
   id="path2"
   style="fill:#6a696f;fill-opacity:1;stroke-width:0.395942" /><path
   fill="#C5C3C0"
   d="M 10.985327,26.553524 8.8319313,25.665401 c 0.3816194,0.79318 1.0418248,1.457393 1.9183997,1.822137 1.89502,0.788037 4.079721,-0.109581 4.869511,-2.002927 0.382412,-0.915421 0.384789,-1.926181 0.0056,-2.843975 -0.378448,-0.918189 -1.092549,-1.634227 -2.010733,-2.016378 -0.911052,-0.37859 -1.887094,-0.364743 -2.744648,-0.04154 l 2.22433,0.91819 c 1.397685,0.581533 2.058684,2.183717 1.476149,3.579001 -0.581345,1.39568 -2.187475,2.055542 -3.585161,1.473613"
   id="path4"
   style="fill:#6c6c6c;fill-opacity:1;stroke-width:0.395942" /><path
   fill="#C5C3C0"
   d="m 27.658881,12.989556 c 0,-2.424638 -1.975861,-4.3974997 -4.405068,-4.3974997 -2.428811,0 -4.405068,1.9728617 -4.405068,4.3974997 0,2.425034 1.976257,4.397104 4.405068,4.397104 2.429207,-3.95e-4 4.405068,-1.972466 4.405068,-4.397104 m -7.706887,-0.0075 c 0,-1.824511 1.481697,-3.303268 3.309348,-3.303268 1.827652,0 3.30935,1.478757 3.30935,3.303268 0,1.824511 -1.481698,3.303267 -3.30935,3.303267 -1.827651,0 -3.309348,-1.479152 -3.309348,-3.303267"
   id="path6"
   style="fill:#6c6c6c;fill-opacity:1;stroke-width:0.395942" />
</svg>
