<?xml version="1.0" encoding="UTF-8" standalone="no"?>
<!-- Generator: Adobe Illustrator 16.0.0, SVG Export Plug-In . SVG Version: 6.00 Build 0)  -->

<svg
   version="1.1"
   id="Layer_1"
   x="0px"
   y="0px"
   width="293.457"
   height="88.473"
   viewBox="0 0 293.45701 88.472999"
   enable-background="new 0 0 355.666 89.333"
   xml:space="preserve"
   sodipodi:docname="steam.svg"
   inkscape:version="1.2.2 (b0a8486541, 2022-12-01)"
   xmlns:inkscape="http://www.inkscape.org/namespaces/inkscape"
   xmlns:sodipodi="http://sodipodi.sourceforge.net/DTD/sodipodi-0.dtd"
   xmlns="http://www.w3.org/2000/svg"
   xmlns:svg="http://www.w3.org/2000/svg"><defs
   id="defs25" /><sodipodi:namedview
   id="namedview23"
   pagecolor="#ffffff"
   bordercolor="#999999"
   borderopacity="1"
   inkscape:showpageshadow="0"
   inkscape:pageopacity="0"
   inkscape:pagecheckerboard="0"
   inkscape:deskcolor="#d1d1d1"
   showgrid="false"
   inkscape:zoom="2.6418009"
   inkscape:cx="174.31291"
   inkscape:cy="43.909441"
   inkscape:window-width="2494"
   inkscape:window-height="1371"
   inkscape:window-x="0"
   inkscape:window-y="0"
   inkscape:window-maximized="1"
   inkscape:current-layer="Layer_1" />
<g
   id="g20"
   style="fill:#ffffff;fill-opacity:1"
   transform="translate(-0.154,-0.601)">
	<path
   fill="#C5C3C0"
   d="M 44.238,0.601 C 21,0.601 1.963,18.519 0.154,41.29 l 23.71,9.803 c 2.009,-1.374 4.436,-2.179 7.047,-2.179 0.234,0 0.467,0.008 0.698,0.021 L 42.153,33.652 c 0,-0.073 -10e-4,-0.144 -10e-4,-0.216 0,-9.199 7.483,-16.683 16.683,-16.683 9.199,0 16.682,7.484 16.682,16.683 0,9.199 -7.483,16.684 -16.682,16.684 -0.127,0 -0.253,-0.003 -0.379,-0.006 l -15.038,10.73 c 0.008,0.195 0.015,0.394 0.015,0.592 0,6.906 -5.617,12.522 -12.522,12.522 -6.061,0 -11.129,-4.326 -12.277,-10.055 L 1.678,56.893 c 5.25,18.568 22.309,32.181 42.56,32.181 24.432,0 44.237,-19.806 44.237,-44.235 0,-24.433 -19.806,-44.238 -44.237,-44.238"
   id="path2"
   style="fill:#ffffff;fill-opacity:1" />
	<path
   fill="#C5C3C0"
   d="m 27.875,67.723 -5.434,-2.245 c 0.963,2.005 2.629,3.684 4.841,4.606 4.782,1.992 10.295,-0.277 12.288,-5.063 0.965,-2.314 0.971,-4.869 0.014,-7.189 -0.955,-2.321 -2.757,-4.131 -5.074,-5.097 -2.299,-0.957 -4.762,-0.922 -6.926,-0.105 l 5.613,2.321 c 3.527,1.47 5.195,5.52 3.725,9.047 -1.467,3.528 -5.52,5.196 -9.047,3.725"
   id="path4"
   style="fill:#ffffff;fill-opacity:1" />
	<path
   fill="#C5C3C0"
   d="m 69.95,33.436 c 0,-6.129 -4.986,-11.116 -11.116,-11.116 -6.129,0 -11.116,4.987 -11.116,11.116 0,6.13 4.987,11.115 11.116,11.115 C 64.964,44.55 69.95,39.565 69.95,33.436 M 50.502,33.417 c 0,-4.612 3.739,-8.35 8.351,-8.35 4.612,0 8.351,3.738 8.351,8.35 0,4.612 -3.739,8.35 -8.351,8.35 -4.612,0 -8.351,-3.739 -8.351,-8.35"
   id="path6"
   style="fill:#ffffff;fill-opacity:1" />
	<path
   fill="#C5C3C0"
   d="m 135.718,30.868 -2.964,5.21 c -2.283,-1.595 -5.377,-2.555 -8.078,-2.555 -3.087,0 -4.997,1.278 -4.997,3.567 0,2.781 3.393,3.428 8.436,5.238 5.421,1.917 8.537,4.17 8.537,9.135 0,6.793 -5.342,10.608 -13.02,10.608 -3.742,0 -8.256,-0.966 -11.726,-3.077 l 2.162,-5.776 c 2.819,1.489 6.191,2.372 9.197,2.372 4.052,0 5.978,-1.495 5.978,-3.705 0,-2.529 -2.937,-3.289 -7.678,-4.859 -5.403,-1.804 -9.147,-4.171 -9.147,-9.666 0,-6.197 4.963,-9.756 12.104,-9.756 4.977,0 8.977,1.577 11.196,3.264"
   id="path8"
   style="fill:#ffffff;fill-opacity:1" />
	<polygon
   fill="#C5C3C0"
   points="151.909,61.5 151.909,34.161 141.779,34.161 141.779,28.175 168.988,28.175 168.988,34.161 158.888,34.161 158.888,61.5 "
   id="polygon10"
   style="fill:#ffffff;fill-opacity:1" />
	<polygon
   fill="#C5C3C0"
   points="197.056,41.652 197.056,47.638 183.7,47.638 183.7,55.459 199.196,55.459 199.196,61.5 176.723,61.5 176.723,28.175 199.196,28.175 199.196,34.143 183.7,34.143 183.7,41.652 "
   id="polygon12"
   style="fill:#ffffff;fill-opacity:1" />
	<path
   fill="#C5C3C0"
   d="m 214.773,55.03 -2.206,6.471 h -7.316 l 12.495,-33.325 h 7.025 L 237.619,61.5 h -7.563 l -2.254,-6.471 h -13.029 z m 6.446,-18.905 -4.551,13.343 h 9.196 z"
   id="path14"
   style="fill:#ffffff;fill-opacity:1" />
	<polygon
   fill="#C5C3C0"
   points="260.378,60.529 251.406,41.23 251.406,61.5 244.723,61.5 244.723,28.175 251.391,28.175 262.591,52.231 273.393,28.175 280.119,28.175 280.119,61.5 273.437,61.5 273.436,41.056 264.316,60.529 "
   id="polygon16"
   style="fill:#ffffff;fill-opacity:1" />
	<path
   fill="#C5C3C0"
   d="m 293.611,32.379 c 0,2.864 -2.146,4.649 -4.609,4.649 -2.472,0 -4.623,-1.785 -4.623,-4.649 0,-2.863 2.151,-4.636 4.623,-4.636 2.464,0 4.609,1.773 4.609,4.636 m -8.457,0 c 0,2.396 1.726,3.901 3.848,3.901 2.114,0 3.833,-1.505 3.833,-3.901 0,-2.403 -1.719,-3.885 -3.833,-3.885 -2.116,0 -3.848,1.5 -3.848,3.885 m 3.912,-2.369 c 1.195,0 1.597,0.632 1.597,1.315 0,0.626 -0.371,1.046 -0.823,1.26 l 1.071,2.007 h -0.877 l -0.903,-1.779 H 288.2 v 1.779 h -0.73 V 30.01 Z m -0.859,2.132 h 0.814 c 0.527,0 0.838,-0.331 0.838,-0.747 0,-0.42 -0.223,-0.69 -0.84,-0.69 h -0.813 v 1.437 z"
   id="path18"
   style="fill:#ffffff;fill-opacity:1" />
</g>
</svg>
